<svg width="30" height="30" viewBox="0 0 30 30" fill="none" xmlns="http://www.w3.org/2000/svg">
<path d="M6.24805 8.4375H8.12305V5.625H10.9355V3.75H8.12305V0.9375H6.24805V3.75H3.43555V5.625H6.24805V8.4375Z" fill="#0674BB"/>
<path d="M4.86424 13.27L1.16797 16.5555L0.623047 15.9424V28.125C0.623047 28.3736 0.721819 28.6121 0.897634 28.7879C1.07345 28.9637 1.31191 29.0625 1.56055 29.0625H7.18555V15.2172C7.08534 15.1595 6.9907 15.0926 6.90283 15.0174L4.86424 13.27Z" fill="#0674BB"/>
<path d="M20.0134 10.3174L17.4805 8.10094L9.3374 15.0224C9.25119 15.0956 9.15852 15.1608 9.06055 15.2173V29.0625H20.3105V10.5296C20.2048 10.4687 20.1053 10.3976 20.0134 10.3174ZM13.748 19.6875H15.623C16.369 19.6875 17.0843 19.9838 17.6118 20.5113C18.1392 21.0387 18.4355 21.7541 18.4355 22.5C18.4355 23.2459 18.1392 23.9613 17.6118 24.4887C17.0843 25.0162 16.369 25.3125 15.623 25.3125V26.7188H13.748V25.3125C13.0024 25.3116 12.2875 25.0151 11.7603 24.4878C11.233 23.9605 10.9364 23.2457 10.9355 22.5H12.8105C12.8108 22.7485 12.9097 22.9868 13.0855 23.1626C13.2612 23.3383 13.4995 23.4372 13.748 23.4375H15.623C15.8717 23.4375 16.1101 23.3387 16.286 23.1629C16.4618 22.9871 16.5605 22.7486 16.5605 22.5C16.5605 22.2514 16.4618 22.0129 16.286 21.8371C16.1101 21.6613 15.8717 21.5625 15.623 21.5625H13.748C13.0021 21.5625 12.2868 21.2662 11.7593 20.7387C11.2319 20.2113 10.9355 19.4959 10.9355 18.75C10.9355 18.0041 11.2319 17.2887 11.7593 16.7613C12.2868 16.2338 13.0021 15.9375 13.748 15.9375V14.5312H15.623V15.9375C16.3687 15.9384 17.0836 16.2349 17.6108 16.7622C18.1381 17.2895 18.4347 18.0043 18.4355 18.75H16.5605C16.5603 18.5014 16.4614 18.2632 16.2856 18.0874C16.1099 17.9117 15.8716 17.8128 15.623 17.8125H13.748C13.4994 17.8125 13.2609 17.9113 13.0851 18.0871C12.9093 18.2629 12.8105 18.5014 12.8105 18.75C12.8105 18.9986 12.9093 19.2371 13.0851 19.4129C13.2609 19.5887 13.4994 19.6875 13.748 19.6875Z" fill="#0674BB"/>
<path d="M22.5738 10.2321C22.4579 10.348 22.3274 10.4483 22.1855 10.5304V29.0625H27.8105C28.0592 29.0625 28.2976 28.9637 28.4735 28.7879C28.6493 28.6121 28.748 28.3736 28.748 28.125V5.625H27.1809L22.5738 10.2321Z" fill="#0674BB"/>
<path d="M28.7479 0H24.9979V1.875H26.9533L21.2053 7.62305L18.1152 4.91947C17.946 4.77143 17.7293 4.68911 17.5045 4.68749C17.2797 4.68588 17.0619 4.76509 16.8906 4.91068L8.12537 12.3612L5.45174 10.0695C5.27962 9.92191 5.05986 9.84173 4.83317 9.84377C4.60647 9.8458 4.38819 9.92991 4.21875 10.0805L0 13.8305L1.2457 15.232L4.85279 12.0256L7.51295 14.3055C7.68236 14.4508 7.898 14.5308 8.12113 14.5312C8.34425 14.5317 8.56023 14.4526 8.73023 14.3081L17.489 6.86297L20.6305 9.61178C20.8095 9.76838 21.0413 9.8511 21.279 9.84318C21.5167 9.83526 21.7425 9.73729 21.9107 9.56912L27.8104 3.66955V4.6875H29.6854V0.9375C29.6854 0.68886 29.5866 0.450403 29.4108 0.274587C29.2349 0.098772 28.9965 0 28.7479 0Z" fill="#0674BB"/>
</svg>
