<svg width="279" height="256" viewBox="0 0 279 256" fill="none" xmlns="http://www.w3.org/2000/svg">
<rect width="279" height="256" fill="#F5F5F5"/>
<g clip-path="url(#clip0_0_1)">
<rect width="1920" height="1346" transform="translate(-305 -598)" fill="white"/>
<rect x="-62" y="-497" width="1677" height="1113" fill="#F5F5F5"/>
<g filter="url(#filter0_ddd_0_1)">
<g clip-path="url(#clip1_0_1)">
<rect x="-1" y="-387" width="1555" height="908" rx="15" fill="white"/>
<g filter="url(#filter1_d_0_1)">
<path d="M-1 -346H259C270.046 -346 279 -337.046 279 -326V479H-1V-346Z" fill="white"/>
</g>
<path d="M243.818 203.061C243.818 209.638 238.486 212.627 231.909 212.627C225.332 212.627 220 209.638 220 203.061C220 196.484 222.646 188.81 231.909 191.456C241.171 187.486 243.818 196.484 243.818 203.061Z" fill="#FF6584"/>
<path d="M231.326 194.537C230.863 194.538 230.415 194.37 230.067 194.064C229.719 193.759 229.494 193.337 229.435 192.878C229.041 189.597 226.867 183.17 225.951 180.56L225.951 180.559C225.858 180.299 225.83 180.021 225.868 179.748C225.907 179.475 226.01 179.216 226.171 178.992C226.325 178.792 226.519 178.627 226.741 178.507C226.963 178.388 227.208 178.316 227.46 178.298C227.711 178.28 227.964 178.315 228.201 178.402C228.438 178.488 228.654 178.624 228.834 178.8C228.996 178.969 229.121 179.17 229.201 179.389C229.282 179.609 229.316 179.843 229.303 180.076C229.123 183.427 231.566 188.841 233.038 191.771C233.177 192.047 233.246 192.352 233.241 192.662C233.236 192.971 233.155 193.274 233.007 193.545C232.858 193.816 232.646 194.047 232.388 194.218C232.131 194.389 231.835 194.495 231.528 194.526C231.461 194.534 231.393 194.537 231.326 194.537V194.537Z" fill="#3F3D56"/>
<path d="M240.141 187.146C244.275 183.762 241.031 176.838 235.857 178.167C235.161 178.334 234.52 178.676 233.994 179.162C230.82 182.16 230.328 189.831 230.328 189.831C230.328 189.831 235.933 190.59 240.141 187.146Z" fill="#3F3D56"/>
<path d="M278.272 217H0.72846C0.53526 217 0.349984 216.895 0.213371 216.707C0.0767588 216.52 0 216.265 0 216C0 215.735 0.0767588 215.48 0.213371 215.293C0.349984 215.105 0.53526 215 0.72846 215H278.272C278.465 215 278.65 215.105 278.787 215.293C278.923 215.48 279 215.735 279 216C279 216.265 278.923 216.52 278.787 216.707C278.65 216.895 278.465 217 278.272 217Z" fill="#3F3D56"/>
<path d="M149.133 58.7806C165.364 58.7806 178.523 45.6222 178.523 29.3903C178.523 13.1585 165.364 0 149.133 0C132.901 0 119.742 13.1585 119.742 29.3903C119.742 45.6222 132.901 58.7806 149.133 58.7806Z" fill="#2F2E41"/>
<path d="M121.2 218.061L120.422 204.74L171.437 195.394L172.586 215.058L121.2 218.061Z" fill="#FFB8B8"/>
<path d="M123.672 195.001L125.174 220.694L108.997 221.639L106.549 179.769C108.674 179.645 110.802 179.94 112.812 180.638C114.822 181.337 116.675 182.424 118.265 183.838C119.855 185.253 121.151 186.967 122.079 188.882C123.007 190.797 123.548 192.876 123.672 195.001Z" fill="#2F2E41"/>
<path d="M143.39 217.939L134.915 228.249L91.1172 200.47L103.623 185.255L143.39 217.939Z" fill="#FFB8B8"/>
<path d="M125.922 233.192L142.265 213.309L154.784 223.598L128.152 256C126.508 254.649 125.146 252.987 124.144 251.109C123.142 249.232 122.52 247.175 122.313 245.057C122.106 242.94 122.318 240.802 122.938 238.766C123.557 236.73 124.571 234.836 125.922 233.192V233.192Z" fill="#2F2E41"/>
<path d="M119.003 169.996L113.212 197.295C113.079 197.923 113.086 198.574 113.234 199.199C113.381 199.824 113.666 200.409 114.066 200.912C114.467 201.414 114.973 201.822 115.55 202.106C116.126 202.389 116.759 202.542 117.401 202.552L174.329 203.47C174.971 203.48 175.607 203.349 176.192 203.085C176.776 202.82 177.296 202.43 177.712 201.942C178.129 201.454 178.432 200.879 178.6 200.26C178.769 199.641 178.799 198.992 178.687 198.36L173.707 170.143C173.53 169.135 173.002 168.222 172.218 167.564C171.434 166.906 170.443 166.545 169.42 166.545H123.262C122.264 166.545 121.297 166.888 120.521 167.516C119.746 168.144 119.21 169.02 119.003 169.996V169.996Z" fill="#2F2E41"/>
<path d="M128.448 179.608C128.448 179.608 72.9332 144.775 62.0479 163.28C56.6052 172.532 59.3266 181.512 63.4085 188.18C67.1967 194.25 72.6343 199.117 79.0861 202.212L124.094 224.237L140.422 206.821L129.537 197.024L128.448 179.608Z" fill="#2F2E41"/>
<path d="M156.755 174.165C156.755 174.165 228.598 153.483 214.447 192.67C200.296 231.857 146.958 216.618 146.958 216.618L141.516 200.29L160.021 187.227L156.755 174.165Z" fill="#2F2E41"/>
<path d="M149.501 62.8369C164.267 62.8369 176.236 50.8671 176.236 36.1015C176.236 21.3359 164.267 9.36606 149.501 9.36606C134.735 9.36606 122.766 21.3359 122.766 36.1015C122.766 50.8671 134.735 62.8369 149.501 62.8369Z" fill="#FFB8B8"/>
<path d="M150.902 178.485C139.792 178.317 128.74 176.861 117.966 174.146L117.648 174.059L102.729 105.432C101.387 99.4019 102.299 93.0887 105.294 87.6851C108.289 82.2816 113.159 78.1617 118.984 76.1036C136.977 69.6477 156.588 69.2561 174.825 74.9885H174.825C180.944 76.9604 186.095 81.167 189.25 86.7689C192.404 92.3709 193.331 98.9563 191.844 105.211L175.181 174.001L174.946 174.113C168.021 177.393 159.361 178.485 150.902 178.485Z" fill="#EDEDED"/>
<path d="M130.862 183.816C131.404 182.31 132.269 180.942 133.397 179.807C134.525 178.671 135.888 177.798 137.39 177.246C138.893 176.695 140.497 176.48 142.092 176.616C143.686 176.752 145.232 177.236 146.619 178.034L175.994 152.535L178.652 172.573L150.349 193.715C148.854 195.957 146.589 197.572 143.983 198.255C141.377 198.938 138.611 198.641 136.209 197.421C133.807 196.201 131.936 194.142 130.95 191.635C129.965 189.127 129.933 186.345 130.862 183.816V183.816Z" fill="#FFB8B8"/>
<path d="M158.872 189.378C158.394 189.377 157.919 189.307 157.461 189.17C156.718 188.954 156.037 188.563 155.476 188.029C154.915 187.496 154.49 186.836 154.236 186.105L150.69 176.059C150.358 175.131 150.316 174.123 150.569 173.171C150.823 172.218 151.359 171.364 152.108 170.723L192.132 146.694L176.355 76.3087L176.756 76.212C176.919 76.1716 193.084 72.4925 199.708 90.1567C204.347 102.528 221.513 129.428 220.302 147.605C220.072 151.241 218.623 154.694 216.19 157.405C213.756 160.116 210.479 161.928 206.889 162.548L161.837 188.36C160.988 189.018 159.946 189.376 158.872 189.378Z" fill="#EDEDED"/>
<path d="M163.368 181.428C162.827 179.923 161.961 178.554 160.833 177.419C159.705 176.284 158.342 175.41 156.84 174.858C155.338 174.307 153.733 174.092 152.138 174.228C150.544 174.364 148.999 174.848 147.612 175.646L118.236 150.147L115.578 170.186L143.881 191.327C145.376 193.569 147.641 195.184 150.247 195.867C152.853 196.55 155.62 196.254 158.022 195.033C160.424 193.813 162.295 191.754 163.28 189.247C164.266 186.739 164.297 183.957 163.368 181.428V181.428Z" fill="#FFB8B8"/>
<path d="M138.294 189.378C137.221 189.376 136.178 189.018 135.329 188.36L87.0114 164.725C83.4212 164.105 80.1448 162.293 77.7111 159.582C75.2775 156.871 73.8286 153.418 73.5986 149.782C72.3875 131.605 92.8193 102.528 97.458 90.1567C104.082 72.4925 120.247 76.1706 120.41 76.212L120.812 76.3087L101.769 148.871L145.058 170.723C145.807 171.364 146.344 172.218 146.597 173.171C146.85 174.123 146.808 175.131 146.476 176.059L142.93 186.105C142.677 186.836 142.251 187.496 141.69 188.029C141.129 188.563 140.449 188.954 139.705 189.17C139.248 189.307 138.772 189.377 138.294 189.378V189.378Z" fill="#EDEDED"/>
<path d="M195.944 200.29H99.065C97.0449 200.287 95.1081 199.484 93.6797 198.055C92.2512 196.627 91.4477 194.69 91.4453 192.67V139.332C91.4477 137.312 92.2512 135.375 93.6797 133.946C95.1081 132.518 97.0449 131.714 99.065 131.712H195.944C197.964 131.714 199.901 132.518 201.33 133.946C202.758 135.375 203.562 137.312 203.564 139.332V192.67C203.562 194.69 202.758 196.627 201.33 198.055C199.901 199.484 197.964 200.287 195.944 200.29V200.29Z" fill="#0674BB"/>
<path d="M147.5 172.532C151.107 172.532 154.031 169.608 154.031 166.001C154.031 162.394 151.107 159.47 147.5 159.47C143.893 159.47 140.969 162.394 140.969 166.001C140.969 169.608 143.893 172.532 147.5 172.532Z" fill="white"/>
<path d="M122.496 35.0134C120.911 30.9942 123.511 26.2045 127.368 24.2576C131.224 22.3107 135.878 22.6809 140.003 23.9641C143.47 25.0424 146.719 26.7136 150.102 28.0335C153.436 29.5111 157.078 30.1598 160.718 29.9242C164.326 29.5167 167.916 27.4937 169.392 24.1767C170.923 20.7385 169.882 16.5427 167.525 13.6084C165.018 10.7717 161.773 8.68607 158.151 7.58362C150.197 4.78127 141.009 4.69935 133.624 8.77284C126.24 12.8463 121.221 21.5198 122.747 29.8142" fill="#2F2E41"/>
<path d="M31.0059 202.923C32.2413 189.617 35.6536 176.605 41.1064 164.406C42.6261 161.011 44.2988 157.69 46.1245 154.445C46.2161 154.275 46.2382 154.076 46.1861 153.891C46.134 153.705 46.0118 153.547 45.8453 153.45C45.6788 153.352 45.481 153.323 45.2936 153.369C45.1062 153.415 44.9439 153.532 44.841 153.695C38.2017 165.516 33.5505 178.347 31.0732 191.677C30.3841 195.399 29.8661 199.148 29.5194 202.923C29.4313 203.875 30.9183 203.869 31.0059 202.923V202.923Z" fill="#E6E6E6"/>
<path d="M49.7269 156.829C54.9263 156.829 59.1413 152.614 59.1413 147.414C59.1413 142.215 54.9263 138 49.7269 138C44.5275 138 40.3125 142.215 40.3125 147.414C40.3125 152.614 44.5275 156.829 49.7269 156.829Z" fill="#FF6584"/>
<path d="M31.9668 203.173C32.7683 194.541 34.9819 186.099 38.5194 178.185C39.5054 175.982 40.5905 173.828 41.7749 171.723C41.8343 171.613 41.8486 171.484 41.8148 171.363C41.781 171.243 41.7017 171.14 41.5937 171.077C41.4857 171.014 41.3574 170.995 41.2359 171.025C41.1143 171.055 41.0091 171.13 40.9423 171.236C36.6351 178.905 33.6176 187.23 32.0104 195.877C31.5634 198.292 31.2274 200.724 31.0024 203.173C30.9453 203.791 31.91 203.787 31.9668 203.173H31.9668Z" fill="#E6E6E6"/>
<path d="M44.1154 173.27C47.4885 173.27 50.2229 170.535 50.2229 167.162C50.2229 163.789 47.4885 161.054 44.1154 161.054C40.7423 161.054 38.0078 163.789 38.0078 167.162C38.0078 170.535 40.7423 173.27 44.1154 173.27Z" fill="#FF6584"/>
<path d="M30.7559 202.596C26.0787 195.297 22.632 187.28 20.5534 178.864C19.9762 176.521 19.507 174.155 19.1458 171.766C19.125 171.643 19.057 171.532 18.9562 171.458C18.8555 171.384 18.7298 171.352 18.6058 171.368C18.4818 171.385 18.3691 171.449 18.2915 171.547C18.2139 171.645 18.1775 171.77 18.1899 171.894C19.5105 180.59 22.2514 189.01 26.303 196.817C27.4357 198.996 28.6666 201.12 29.9955 203.189C30.3303 203.712 31.0886 203.115 30.7559 202.596V202.596Z" fill="#E6E6E6"/>
<path d="M18.1779 172.841C21.551 172.841 24.2854 170.106 24.2854 166.733C24.2854 163.36 21.551 160.626 18.1779 160.626C14.8048 160.626 12.0703 163.36 12.0703 166.733C12.0703 170.106 14.8048 172.841 18.1779 172.841Z" fill="#FF6584"/>
<path d="M12 208V196C12.0013 194.807 12.4759 193.663 13.3195 192.82C14.1631 191.976 15.3069 191.501 16.5 191.5H44.5C45.6931 191.501 46.8369 191.976 47.6805 192.82C48.5241 193.663 48.9987 194.807 49 196V208C48.9987 209.193 48.5241 210.337 47.6805 211.18C46.8369 212.024 45.6931 212.499 44.5 212.5H16.5C15.3069 212.499 14.1631 212.024 13.3195 211.18C12.4759 210.337 12.0013 209.193 12 208V208Z" fill="#F2F2F2"/>
</g>
</g>
</g>
<defs>
<filter id="filter0_ddd_0_1" x="-17" y="-397" width="1587" height="940" filterUnits="userSpaceOnUse" color-interpolation-filters="sRGB">
<feFlood flood-opacity="0" result="BackgroundImageFix"/>
<feColorMatrix in="SourceAlpha" type="matrix" values="0 0 0 0 0 0 0 0 0 0 0 0 0 0 0 0 0 0 127 0" result="hardAlpha"/>
<feOffset dy="6"/>
<feGaussianBlur stdDeviation="8"/>
<feComposite in2="hardAlpha" operator="out"/>
<feColorMatrix type="matrix" values="0 0 0 0 0.00784314 0 0 0 0 0.0666667 0 0 0 0 0.145098 0 0 0 0.04 0"/>
<feBlend mode="normal" in2="BackgroundImageFix" result="effect1_dropShadow_0_1"/>
<feColorMatrix in="SourceAlpha" type="matrix" values="0 0 0 0 0 0 0 0 0 0 0 0 0 0 0 0 0 0 127 0" result="hardAlpha"/>
<feOffset dy="2"/>
<feGaussianBlur stdDeviation="4"/>
<feComposite in2="hardAlpha" operator="out"/>
<feColorMatrix type="matrix" values="0 0 0 0 0.00784314 0 0 0 0 0.0666667 0 0 0 0 0.145098 0 0 0 0.08 0"/>
<feBlend mode="normal" in2="effect1_dropShadow_0_1" result="effect2_dropShadow_0_1"/>
<feColorMatrix in="SourceAlpha" type="matrix" values="0 0 0 0 0 0 0 0 0 0 0 0 0 0 0 0 0 0 127 0" result="hardAlpha"/>
<feOffset/>
<feGaussianBlur stdDeviation="2"/>
<feComposite in2="hardAlpha" operator="out"/>
<feColorMatrix type="matrix" values="0 0 0 0 0.00784314 0 0 0 0 0.0666667 0 0 0 0 0.145098 0 0 0 0.08 0"/>
<feBlend mode="normal" in2="effect2_dropShadow_0_1" result="effect3_dropShadow_0_1"/>
<feBlend mode="normal" in="SourceGraphic" in2="effect3_dropShadow_0_1" result="shape"/>
</filter>
<filter id="filter1_d_0_1" x="-9" y="-356" width="300" height="845" filterUnits="userSpaceOnUse" color-interpolation-filters="sRGB">
<feFlood flood-opacity="0" result="BackgroundImageFix"/>
<feColorMatrix in="SourceAlpha" type="matrix" values="0 0 0 0 0 0 0 0 0 0 0 0 0 0 0 0 0 0 127 0" result="hardAlpha"/>
<feOffset dx="2"/>
<feGaussianBlur stdDeviation="5"/>
<feComposite in2="hardAlpha" operator="out"/>
<feColorMatrix type="matrix" values="0 0 0 0 0 0 0 0 0 0 0 0 0 0 0 0 0 0 0.15 0"/>
<feBlend mode="normal" in2="BackgroundImageFix" result="effect1_dropShadow_0_1"/>
<feBlend mode="normal" in="SourceGraphic" in2="effect1_dropShadow_0_1" result="shape"/>
</filter>
<clipPath id="clip0_0_1">
<rect width="1920" height="1346" fill="white" transform="translate(-305 -598)"/>
</clipPath>
<clipPath id="clip1_0_1">
<rect x="-1" y="-387" width="1555" height="908" rx="15" fill="white"/>
</clipPath>
</defs>
</svg>
