<svg width="216" height="216" viewBox="0 0 216 216" fill="none" xmlns="http://www.w3.org/2000/svg">
<circle cx="108" cy="108" r="107" fill="white" stroke="#0674BB" stroke-width="2"/>
<path d="M61.7557 168.015V161.127C61.7557 159.938 62.7208 158.98 63.9027 158.98C65.0845 158.98 66.0496 159.938 66.0496 161.127V168.015H104.967V161.127C104.967 159.938 105.932 158.98 107.114 158.98C108.296 158.98 109.261 159.938 109.261 161.127V168.015H118.73V156.749C118.73 146.923 110.73 138.93 100.904 138.93H97.792L87.1972 152.511C86.351 153.595 84.6657 153.595 83.8195 152.511L73.2247 138.93H70.1127C60.2872 138.93 52.2869 146.923 52.2869 156.749V168.015H61.7557ZM166.801 112.467H113.443C112.254 112.467 111.296 111.502 111.296 110.32V86.2357C111.296 85.0539 112.254 84.0958 113.443 84.0958H166.801C167.983 84.0958 168.941 85.0539 168.941 86.2357V110.32C168.941 111.502 167.983 112.467 166.801 112.467ZM115.583 108.174H164.655V88.3826H115.583V108.174ZM151.032 96.4529H129.206C128.024 96.4529 127.059 95.4948 127.059 94.3059C127.059 93.1241 128.024 92.166 129.206 92.166H151.032C152.221 92.166 153.179 93.1241 153.179 94.3059C153.179 95.4948 152.221 96.4529 151.032 96.4529ZM158.228 104.397H122.01C120.821 104.397 119.863 103.432 119.863 102.25C119.863 101.068 120.821 100.103 122.01 100.103H158.228C159.417 100.103 160.375 101.068 160.375 102.25C160.375 103.432 159.417 104.397 158.228 104.397ZM166.801 172.302H129.003C127.772 172.302 126.765 171.218 126.863 169.994L129.639 133.86C129.73 132.748 130.66 131.881 131.779 131.881H136.863V126.244C136.863 120.768 141.311 116.321 146.787 116.321H149.011C154.486 116.321 158.941 120.768 158.941 126.244V131.881H164.018C165.137 131.881 166.074 132.748 166.158 133.86L168.934 169.994C169.032 171.218 168.032 172.302 166.801 172.302ZM141.15 131.881H154.647V126.244C154.647 123.139 152.123 120.608 149.011 120.608H146.787C143.682 120.608 141.15 123.139 141.15 126.244V131.881ZM131.318 168.015H164.48L162.032 136.175H133.765L131.318 168.015ZM75.6304 80.2425C75.3157 80.2425 74.994 80.1726 74.7003 80.0257L65.8958 75.7878L57.0912 80.0257C55.5597 80.767 53.8044 79.4872 54.0352 77.8088L55.3499 68.1232L48.5944 61.06C47.4196 59.8362 48.0909 57.7732 49.7623 57.4724L59.378 55.7241L64.0076 47.1224C64.8118 45.6259 66.9797 45.6259 67.7839 47.1224L72.4135 55.7241L82.0292 57.4654C83.7006 57.7732 84.3719 59.8362 83.1971 61.06L76.4416 68.1232L77.7563 77.8088C77.9242 79.0816 76.8961 80.2425 75.6304 80.2425ZM66.8259 71.4729L72.9659 74.4311L72.0498 67.6756C71.9659 67.0322 72.1757 66.3749 72.6303 65.9063L77.3367 60.9761L70.6302 59.7592C69.9868 59.6473 69.4343 59.2417 69.1266 58.6683L65.8958 52.6611L62.6649 58.6683C62.3572 59.2417 61.8047 59.6473 61.1613 59.7592L54.4478 60.9761L59.1612 65.9063C59.6158 66.3749 59.8256 67.0322 59.7347 67.6756L58.8186 74.4311L64.9656 71.4729C65.5531 71.1932 66.2384 71.1932 66.8259 71.4729ZM96.6101 77.8088L97.9249 68.1232L91.1694 61.06C89.9945 59.8362 90.6659 57.7732 92.3373 57.4724L101.953 55.7241L106.583 47.1224C107.387 45.6259 109.555 45.6259 110.359 47.1224L114.988 55.7241L124.604 57.4654C126.276 57.7732 126.947 59.8362 125.772 61.06L119.017 68.1232L120.331 77.8088C120.562 79.4872 118.807 80.767 117.275 80.0257L108.471 75.7878L99.6662 80.0257C98.1557 80.76 96.3864 79.4942 96.6101 77.8088ZM109.401 71.4729L115.548 74.4311L114.632 67.6756C114.541 67.0322 114.751 66.3749 115.205 65.9063L119.919 60.9761L113.205 59.7592C112.562 59.6473 112.009 59.2417 111.702 58.6683L108.471 52.6611L105.24 58.6683C104.932 59.2417 104.38 59.6473 103.736 59.7592L97.0297 60.9761L101.736 65.9063C102.191 66.3749 102.401 67.0322 102.317 67.6756L101.401 74.4311L107.541 71.4729C108.128 71.1932 108.813 71.1932 109.401 71.4729ZM160.78 80.2425C160.466 80.2425 160.144 80.1726 159.85 80.0257L151.046 75.7878L142.248 80.0257C140.717 80.767 138.961 79.4872 139.185 77.8088L140.5 68.1232L133.744 61.06C132.576 59.8362 133.248 57.7732 134.912 57.4724L144.528 55.7241L149.158 47.1224C149.962 45.6259 152.13 45.6259 152.934 47.1224L157.563 55.7241L167.179 57.4654C168.851 57.7732 169.522 59.8362 168.347 61.06L161.592 68.1232L162.906 77.8088C163.081 79.0816 162.053 80.2425 160.78 80.2425ZM151.976 71.4729L158.123 74.4311L157.207 67.6756C157.116 67.0322 157.326 66.3749 157.78 65.9063L162.494 60.9761L155.787 59.7592C155.144 59.6473 154.584 59.2417 154.277 58.6683L151.046 52.6611L147.815 58.6683C147.507 59.2417 146.955 59.6473 146.311 59.7592L139.605 60.9761L144.318 65.9063C144.766 66.3749 144.976 67.0322 144.892 67.6756L143.975 74.4311L150.116 71.4729C150.703 71.1932 151.395 71.1932 151.976 71.4729ZM100.254 105.523C103.736 94.271 90.505 86.5504 82.1621 88.1728C78.9312 88.8022 76.9801 90.6764 76.3647 93.7465C76.2178 94.4948 75.6793 95.1102 74.959 95.3549C74.938 95.3689 71.5043 96.6207 70.4414 99.8376C69.8609 101.607 70.0497 103.698 71.0008 106.083C76.5605 96.6067 94.7919 93.6416 100.254 105.523ZM69.4413 112.265C66.0776 107.048 65.0566 102.397 66.3923 98.425C67.665 94.6416 70.7561 92.6345 72.4345 91.7954C73.6583 87.6623 76.8472 84.8371 81.3439 83.9629C88.8406 82.5083 98.1277 86.5714 102.491 93.222C104.694 96.5787 107.464 103.467 101.708 112.307V116.803C101.708 122.104 99.1347 126.825 95.1695 129.762L97.9808 134.636H100.904C113.1 134.636 123.017 144.559 123.017 156.749V170.155C123.017 171.344 122.059 172.302 120.87 172.302H50.1469C48.9581 172.302 48 171.344 48 170.155V156.749C48 144.559 57.9164 134.636 70.1127 134.636H73.0359L75.8891 129.699C71.9729 126.748 69.4413 122.069 69.4413 116.803V112.265ZM85.5748 132.937C83.4768 132.937 81.4697 132.531 79.6305 131.797L76.8542 136.608L85.5049 147.699L94.1625 136.608L91.4142 131.839C89.6029 132.545 87.6308 132.937 85.5748 132.937ZM73.7282 111.635V116.803C73.7282 121.181 76.1199 125.013 79.6585 127.062L79.9522 127.223C81.6236 128.132 83.5397 128.643 85.5748 128.643C91.9806 128.643 97.4144 123.426 97.4144 116.803V111.747C96.764 102.719 89.7008 101.943 86.6867 102.033C80.6166 102.208 73.7981 106.187 73.7282 111.635Z" fill="#333333"/>
<path d="M79.952 127.223C81.6234 128.132 83.5396 128.643 85.5746 128.643C91.9804 128.643 97.4142 123.426 97.4142 116.803V111.747C96.7638 102.719 89.7006 101.943 86.6865 102.033C80.6164 102.208 73.798 106.187 73.728 111.635V116.803C73.728 121.181 76.1197 125.013 79.6583 127.062L79.952 127.223Z" fill="#FFE3D1"/>
<path d="M71.0009 106.083C76.5605 96.6067 94.7919 93.6416 100.254 105.523C103.736 94.271 90.5051 86.5504 82.1621 88.1729C78.9312 88.8023 76.9801 90.6765 76.3647 93.7465C76.2178 94.4948 75.6794 95.1102 74.959 95.3549C74.9381 95.3689 71.5044 96.6207 70.4414 99.8376C69.861 101.607 70.0498 103.698 71.0009 106.083Z" fill="#0674BB"/>
<path d="M85.5746 132.937C83.4766 132.937 81.4696 132.531 79.6303 131.797L76.854 136.608L85.5047 147.699L94.1623 136.608L91.414 131.839C89.6027 132.545 87.6306 132.937 85.5746 132.937Z" fill="#FFE3D1"/>
<path d="M97.792 138.93L87.1972 152.511C86.351 153.595 84.6657 153.595 83.8195 152.511L73.2247 138.93H70.1127C60.2872 138.93 52.2869 146.923 52.2869 156.749V168.015H61.7557V161.127C61.7557 159.938 62.7208 158.98 63.9027 158.98C65.0845 158.98 66.0496 159.938 66.0496 161.127V168.015H104.967V161.127C104.967 159.938 105.932 158.98 107.114 158.98C108.296 158.98 109.261 159.938 109.261 161.127V168.015H118.73V156.749C118.73 146.923 110.73 138.93 100.904 138.93H97.792Z" fill="#0674BB"/>
<path d="M133.765 136.175L131.318 168.015H164.48L162.032 136.175H133.765Z" fill="#0674BB"/>
<path d="M122.009 100.103H158.227C159.416 100.103 160.374 101.068 160.374 102.25C160.374 103.432 159.416 104.397 158.227 104.397H122.009C120.82 104.397 119.862 103.432 119.862 102.25C119.862 101.068 120.82 100.103 122.009 100.103ZM115.583 108.174H164.654V88.3827H115.583V108.174ZM151.031 92.166C152.22 92.166 153.178 93.1241 153.178 94.306C153.178 95.4948 152.22 96.4529 151.031 96.4529H129.205C128.024 96.4529 127.058 95.4948 127.058 94.306C127.058 93.1241 128.024 92.166 129.205 92.166H151.031Z" fill="#FFE4AF"/>
<path d="M144.892 67.6756L143.976 74.4311L150.116 71.4729C150.703 71.1932 151.395 71.1932 151.976 71.4729L158.123 74.4311L157.207 67.6756C157.116 67.0322 157.326 66.3749 157.78 65.9063L162.494 60.9761L155.787 59.7592C155.144 59.6473 154.584 59.2417 154.277 58.6683L151.046 52.6611L147.815 58.6683C147.507 59.2417 146.955 59.6473 146.311 59.7592L139.605 60.9761L144.318 65.9063C144.766 66.3749 144.976 67.0322 144.892 67.6756Z" fill="#FFA721"/>
<path d="M114.632 67.6756C114.541 67.0322 114.751 66.3749 115.205 65.9063L119.919 60.9761L113.205 59.7592C112.562 59.6473 112.009 59.2417 111.702 58.6683L108.471 52.6611L105.24 58.6683C104.932 59.2417 104.38 59.6473 103.736 59.7592L97.0298 60.9761L101.736 65.9063C102.191 66.3749 102.401 67.0322 102.317 67.6756L101.401 74.4311L107.541 71.4729C108.128 71.1932 108.813 71.1932 109.401 71.4729L115.548 74.4311L114.632 67.6756Z" fill="#FFA721"/>
<path d="M72.6301 65.9063L77.3366 60.9761L70.63 59.7592C69.9867 59.6473 69.4342 59.2417 69.1265 58.6683L65.8956 52.6611L62.6647 58.6683C62.357 59.2417 61.8045 59.6473 61.1612 59.7592L54.4476 60.9761L59.1611 65.9063C59.6157 66.3749 59.8254 67.0322 59.7345 67.6756L58.8184 74.4311L64.9655 71.4729C65.5529 71.1932 66.2383 71.1932 66.8257 71.4729L72.9658 74.4311L72.0497 67.6756C71.9657 67.0322 72.1755 66.3749 72.6301 65.9063Z" fill="#FFA721"/>
</svg>
