<svg width="189" height="189" viewBox="0 0 189 189" fill="none" xmlns="http://www.w3.org/2000/svg">
<path d="M94.0939 9C116.662 9 138.305 17.9647 154.263 33.9221C170.221 49.8795 179.187 71.5225 179.188 94.0902C179.189 116.658 170.225 138.302 154.268 154.26C138.312 170.219 116.669 179.186 94.1013 179.188C71.5337 179.19 49.8895 170.227 33.93 154.271C17.9705 138.315 9.00295 116.673 9 94.105C8.99705 71.5374 17.9589 49.8928 33.9142 33.9326C49.8696 17.9724 71.5114 9.00394 94.0791 9" stroke="#F2F2F2" stroke-opacity="0.85" stroke-width="17.415"/>
<path d="M94.0932 9C109.786 9 125.174 13.3397 138.555 21.5394C151.935 29.7391 162.788 41.4793 169.912 55.4621C177.037 69.4448 180.156 85.1255 178.925 100.77C177.693 116.415 172.16 131.415 162.936 144.111C153.711 156.807 141.156 166.705 126.657 172.71C112.159 178.716 96.2816 180.595 80.7816 178.14C65.2816 175.685 50.7623 168.992 38.8291 158.8C26.8959 148.608 18.0135 135.315 13.1641 120.389" stroke="#00CD7D" stroke-width="17.9537"/>
<path d="M49.1953 93.2148C48.2578 93.2148 47.3659 93.0553 46.5195 92.7363C45.6732 92.4108 44.918 91.9486 44.2539 91.3496C43.5898 90.7507 43.0592 89.9824 42.6621 89.0449C42.2715 88.1009 42.0762 87.0527 42.0762 85.9004C42.0762 84.9368 42.2064 84.0482 42.4668 83.2344C42.7337 82.4141 43.0918 81.7207 43.541 81.1543C43.9902 80.5814 44.5111 80.0931 45.1035 79.6895C45.696 79.2858 46.321 78.9896 46.9785 78.8008C47.6361 78.612 48.3099 78.5176 49 78.5176C50.862 78.5176 52.444 79.0286 53.7461 80.0508L52.7793 81.7793C51.6986 81.0306 50.5072 80.6562 49.2051 80.6562C48.5996 80.6562 48.0234 80.7767 47.4766 81.0176C46.9362 81.2585 46.4577 81.597 46.041 82.0332C45.6243 82.4694 45.2923 83.0195 45.0449 83.6836C44.7975 84.3477 44.6738 85.0768 44.6738 85.8711C44.6738 87.4401 45.1165 88.6999 46.002 89.6504C46.8874 90.6009 48.0072 91.0762 49.3613 91.0762C50.7871 91.0762 52.0957 90.5977 53.2871 89.6406L54.1172 91.6035C52.737 92.6777 51.0964 93.2148 49.1953 93.2148ZM61.3926 93.2246C60.5202 93.2246 59.7422 93.0846 59.0586 92.8047C58.375 92.5182 57.8216 92.1341 57.3984 91.6523C56.9818 91.1641 56.6628 90.6107 56.4414 89.9922C56.2266 89.3672 56.1191 88.6999 56.1191 87.9902C56.1191 87.2676 56.2298 86.5938 56.4512 85.9688C56.6725 85.3372 56.9948 84.7806 57.418 84.2988C57.8477 83.8105 58.401 83.4264 59.0781 83.1465C59.7617 82.8665 60.5299 82.7266 61.3828 82.7266C62.2552 82.7266 63.0299 82.8665 63.707 83.1465C64.3841 83.4199 64.9277 83.8008 65.3379 84.2891C65.748 84.7708 66.054 85.3275 66.2559 85.959C66.4642 86.584 66.5684 87.2676 66.5684 88.0098C66.5684 88.7064 66.4609 89.3639 66.2461 89.9824C66.0312 90.5944 65.7155 91.1445 65.2988 91.6328C64.8887 92.1211 64.3451 92.5085 63.668 92.7949C62.9974 93.0814 62.2389 93.2246 61.3926 93.2246ZM61.3438 91.2715C61.819 91.2715 62.2357 91.1836 62.5938 91.0078C62.9518 90.8255 63.2318 90.5781 63.4336 90.2656C63.6419 89.9466 63.7949 89.5951 63.8926 89.2109C63.9967 88.8268 64.0488 88.4102 64.0488 87.9609C64.0488 87.0039 63.821 86.2194 63.3652 85.6074C62.916 84.9954 62.2454 84.6895 61.3535 84.6895C60.748 84.6895 60.237 84.8424 59.8203 85.1484C59.4036 85.4479 59.1009 85.8385 58.9121 86.3203C58.7298 86.8021 58.6387 87.349 58.6387 87.9609C58.6387 88.5664 58.7233 89.11 58.8926 89.5918C59.0684 90.0736 59.3646 90.474 59.7812 90.793C60.2044 91.112 60.7253 91.2715 61.3438 91.2715ZM69.1855 93V86.2031C69.1855 85.513 69.153 84.8034 69.0879 84.0742L69 82.9805H71.5488V84.2891C71.7962 83.8333 72.1738 83.459 72.6816 83.166C73.196 82.873 73.7526 82.7266 74.3516 82.7266C74.9961 82.7266 75.5853 82.8828 76.1191 83.1953C76.653 83.5078 77.0632 83.9701 77.3496 84.582C78.209 83.3451 79.293 82.7266 80.6016 82.7266C81.8255 82.7266 82.7435 83.0944 83.3555 83.8301C83.974 84.5658 84.2832 85.5749 84.2832 86.8574V93H81.8613V87.0039C81.8613 86.737 81.8385 86.4798 81.793 86.2324C81.7474 85.985 81.6725 85.7409 81.5684 85.5C81.4707 85.2526 81.321 85.0573 81.1191 84.9141C80.9238 84.7643 80.6895 84.6895 80.416 84.6895C79.6999 84.6895 79.1107 84.9629 78.6484 85.5098C78.1862 86.0566 77.9551 86.6621 77.9551 87.3262V93H75.5332V86.877C75.5332 86.6816 75.5202 86.4961 75.4941 86.3203C75.4746 86.138 75.4323 85.946 75.3672 85.7441C75.3021 85.5358 75.2142 85.3568 75.1035 85.207C74.9993 85.0573 74.8496 84.9336 74.6543 84.8359C74.4655 84.7383 74.2474 84.6895 74 84.6895C73.3164 84.6895 72.7467 84.9141 72.291 85.3633C71.8353 85.806 71.6074 86.3236 71.6074 86.916V93H69.1855ZM91.9395 91.2715C92.3887 91.2715 92.7793 91.1836 93.1113 91.0078C93.4499 90.8255 93.7135 90.5781 93.9023 90.2656C94.0977 89.9531 94.2409 89.6081 94.332 89.2305C94.4297 88.8464 94.4785 88.4297 94.4785 87.9805C94.4785 87.362 94.3939 86.8118 94.2246 86.3301C94.0553 85.8483 93.7721 85.4544 93.375 85.1484C92.9844 84.8424 92.5026 84.6895 91.9297 84.6895C91.3633 84.6895 90.8848 84.8424 90.4941 85.1484C90.1035 85.4479 89.8236 85.8353 89.6543 86.3105C89.485 86.7793 89.4004 87.3197 89.4004 87.9316C89.4004 88.3874 89.446 88.8105 89.5371 89.2012C89.6348 89.5853 89.7812 89.9368 89.9766 90.2559C90.1719 90.5684 90.4355 90.8158 90.7676 90.998C91.1061 91.1803 91.4967 91.2715 91.9395 91.2715ZM87.1543 96.8574V86.3496C87.1543 85.7702 87.0924 84.6471 86.9688 82.9805H89.5371V84.416C89.6152 84.0514 89.9408 83.6803 90.5137 83.3027C91.0931 82.9186 91.7995 82.7266 92.6328 82.7266C93.5117 82.7266 94.2865 82.9707 94.957 83.459C95.6341 83.9408 96.1419 84.569 96.4805 85.3438C96.8255 86.1185 96.998 86.9616 96.998 87.873C96.998 88.5566 96.8971 89.2174 96.6953 89.8555C96.4935 90.487 96.207 91.0566 95.8359 91.5645C95.4648 92.0658 94.9896 92.4694 94.4102 92.7754C93.8307 93.0749 93.1927 93.2246 92.4961 93.2246C91.7083 93.2246 91.0378 93.0391 90.4844 92.668C89.931 92.2969 89.6152 91.9486 89.5371 91.623V96.8574H87.1543ZM99.4199 93V78.7715H101.812V93H99.4199ZM106.812 86.7891H111.793C111.676 86.0794 111.412 85.5358 111.002 85.1582C110.592 84.7806 110.09 84.5918 109.498 84.5918C108.801 84.5918 108.219 84.7871 107.75 85.1777C107.281 85.5684 106.969 86.1055 106.812 86.7891ZM109.674 93.2246C107.988 93.2246 106.656 92.7428 105.68 91.7793C104.71 90.8158 104.225 89.556 104.225 88C104.225 87.2969 104.342 86.6296 104.576 85.998C104.811 85.3665 105.139 84.8066 105.562 84.3184C105.992 83.8301 106.533 83.4427 107.184 83.1562C107.841 82.8698 108.567 82.7266 109.361 82.7266C110.156 82.7266 110.849 82.8633 111.441 83.1367C112.034 83.4102 112.503 83.7943 112.848 84.2891C113.193 84.7773 113.447 85.3275 113.609 85.9395C113.779 86.5514 113.863 87.2285 113.863 87.9707C113.863 88.1595 113.847 88.3027 113.814 88.4004H106.783C106.822 89.377 107.118 90.0996 107.672 90.5684C108.232 91.0371 108.974 91.2715 109.898 91.2715C110.979 91.2715 112.034 90.9134 113.062 90.1973L113.717 91.9551C113.085 92.3913 112.447 92.7135 111.803 92.9219C111.165 93.1237 110.455 93.2246 109.674 93.2246ZM122.154 92.9902H121.178C120.787 92.9902 120.449 92.9805 120.162 92.9609C119.876 92.9414 119.579 92.8991 119.273 92.834C118.974 92.7689 118.717 92.6842 118.502 92.5801C118.294 92.4694 118.092 92.3229 117.896 92.1406C117.701 91.9583 117.545 91.7402 117.428 91.4863C117.311 91.2259 117.216 90.9167 117.145 90.5586C117.079 90.2005 117.047 89.7904 117.047 89.3281V84.6016H114.957V82.9805H117.145V80.6367L119.459 79.9238V82.9805H122.076V84.6016H119.459V89.4746C119.459 89.7871 119.482 90.041 119.527 90.2363C119.579 90.4251 119.654 90.5846 119.752 90.7148C119.85 90.8385 120.012 90.9297 120.24 90.9883C120.475 91.0469 120.729 91.0859 121.002 91.1055C121.275 91.125 121.66 91.1348 122.154 91.1348V92.9902ZM126.441 86.7891H131.422C131.305 86.0794 131.041 85.5358 130.631 85.1582C130.221 84.7806 129.719 84.5918 129.127 84.5918C128.43 84.5918 127.848 84.7871 127.379 85.1777C126.91 85.5684 126.598 86.1055 126.441 86.7891ZM129.303 93.2246C127.617 93.2246 126.285 92.7428 125.309 91.7793C124.339 90.8158 123.854 89.556 123.854 88C123.854 87.2969 123.971 86.6296 124.205 85.998C124.439 85.3665 124.768 84.8066 125.191 84.3184C125.621 83.8301 126.161 83.4427 126.812 83.1562C127.47 82.8698 128.196 82.7266 128.99 82.7266C129.785 82.7266 130.478 82.8633 131.07 83.1367C131.663 83.4102 132.132 83.7943 132.477 84.2891C132.822 84.7773 133.076 85.3275 133.238 85.9395C133.408 86.5514 133.492 87.2285 133.492 87.9707C133.492 88.1595 133.476 88.3027 133.443 88.4004H126.412C126.451 89.377 126.747 90.0996 127.301 90.5684C127.861 91.0371 128.603 91.2715 129.527 91.2715C130.608 91.2715 131.663 90.9134 132.691 90.1973L133.346 91.9551C132.714 92.3913 132.076 92.7135 131.432 92.9219C130.794 93.1237 130.084 93.2246 129.303 93.2246ZM140.699 91.2715C141.142 91.2715 141.529 91.1836 141.861 91.0078C142.193 90.8255 142.454 90.5781 142.643 90.2656C142.838 89.9466 142.981 89.5983 143.072 89.2207C143.17 88.8431 143.219 88.4362 143.219 88C143.219 87.0234 143.007 86.2292 142.584 85.6172C142.161 84.9987 141.526 84.6895 140.68 84.6895C140.113 84.6895 139.635 84.8424 139.244 85.1484C138.86 85.4544 138.583 85.8451 138.414 86.3203C138.251 86.7956 138.17 87.3424 138.17 87.9609C138.17 88.4102 138.215 88.8268 138.307 89.2109C138.404 89.5951 138.548 89.9466 138.736 90.2656C138.932 90.5781 139.195 90.8255 139.527 91.0078C139.866 91.1836 140.257 91.2715 140.699 91.2715ZM140.201 93.2246C138.906 93.2246 137.818 92.7493 136.939 91.7988C136.067 90.8483 135.631 89.5951 135.631 88.0391C135.631 87.3294 135.732 86.6589 135.934 86.0273C136.135 85.3958 136.425 84.8327 136.803 84.3379C137.187 83.8431 137.688 83.4525 138.307 83.166C138.925 82.873 139.618 82.7266 140.387 82.7266C141.077 82.7266 141.66 82.8698 142.135 83.1562C142.617 83.4362 142.952 83.7292 143.141 84.0352V78.7715H145.543V90.3242C145.543 90.3633 145.572 91.2552 145.631 93H143.15L143.131 91.7207C143.072 91.8704 142.975 92.0234 142.838 92.1797C142.701 92.3359 142.519 92.4987 142.291 92.668C142.063 92.8307 141.767 92.9642 141.402 93.0684C141.038 93.1725 140.637 93.2246 140.201 93.2246Z" fill="#00CD7D"/>
<path d="M78.3574 125L83.7383 112.812H76.7168V110.781H86.6094V112.676L81.0137 125H78.3574ZM93.9336 125.225C92.3516 125.225 91.1211 124.551 90.2422 123.203C89.3698 121.849 88.9336 120.036 88.9336 117.764C88.9336 115.465 89.3633 113.685 90.2227 112.422C91.0885 111.152 92.332 110.518 93.9531 110.518C95.5482 110.518 96.7754 111.165 97.6348 112.461C98.5007 113.757 98.9336 115.524 98.9336 117.764C98.9336 119.255 98.748 120.557 98.377 121.67C98.0059 122.777 97.4395 123.646 96.6777 124.277C95.9225 124.909 95.0078 125.225 93.9336 125.225ZM93.9727 123.105C95.5938 123.105 96.4043 121.328 96.4043 117.773C96.4043 117.083 96.362 116.445 96.2773 115.859C96.1927 115.273 96.0592 114.733 95.877 114.238C95.7012 113.737 95.4505 113.346 95.125 113.066C94.806 112.78 94.4251 112.637 93.9824 112.637C93.5202 112.637 93.1198 112.78 92.7812 113.066C92.4427 113.346 92.1823 113.737 92 114.238C91.8177 114.733 91.6842 115.273 91.5996 115.859C91.515 116.445 91.4727 117.087 91.4727 117.783C91.4727 118.59 91.515 119.303 91.5996 119.922C91.6842 120.54 91.8177 121.097 92 121.592C92.1888 122.08 92.4492 122.454 92.7812 122.715C93.1133 122.975 93.5104 123.105 93.9727 123.105ZM114.148 125.195C113.068 125.195 112.199 124.847 111.541 124.15C110.883 123.454 110.555 122.568 110.555 121.494C110.555 120.439 110.883 119.557 111.541 118.848C112.199 118.132 113.064 117.773 114.139 117.773C115.213 117.773 116.082 118.132 116.746 118.848C117.41 119.564 117.742 120.446 117.742 121.494C117.742 122.575 117.413 123.464 116.756 124.16C116.098 124.85 115.229 125.195 114.148 125.195ZM114.139 123.672C114.653 123.672 115.037 123.499 115.291 123.154C115.551 122.809 115.682 122.256 115.682 121.494C115.682 120.765 115.558 120.218 115.311 119.854C115.063 119.489 114.673 119.307 114.139 119.307C113.611 119.307 113.224 119.486 112.977 119.844C112.729 120.202 112.605 120.749 112.605 121.484C112.605 122.246 112.732 122.803 112.986 123.154C113.24 123.499 113.624 123.672 114.139 123.672ZM103.914 125L113.006 110.781H114.988L105.896 125H103.914ZM104.686 118.018C103.579 118.018 102.703 117.692 102.059 117.041C101.414 116.383 101.092 115.475 101.092 114.316C101.092 113.177 101.414 112.275 102.059 111.611C102.703 110.941 103.579 110.605 104.686 110.605C105.786 110.605 106.658 110.941 107.303 111.611C107.954 112.282 108.279 113.184 108.279 114.316C108.279 115.482 107.957 116.39 107.312 117.041C106.668 117.692 105.792 118.018 104.686 118.018ZM104.686 116.494C105.2 116.494 105.584 116.325 105.838 115.986C106.092 115.641 106.219 115.088 106.219 114.326C106.219 113.59 106.095 113.04 105.848 112.676C105.607 112.311 105.219 112.129 104.686 112.129C104.152 112.129 103.761 112.311 103.514 112.676C103.273 113.034 103.152 113.581 103.152 114.316C103.152 115.078 103.279 115.632 103.533 115.977C103.787 116.322 104.171 116.494 104.686 116.494Z" fill="#373D3F"/>
</svg>
