<svg width="25" height="26" viewBox="0 0 25 26" fill="none" xmlns="http://www.w3.org/2000/svg">
<path d="M6.75929 10.3398L1.74003 15.358C-0.580011 17.6778 -0.580011 21.452 1.74003 23.7717L1.86534 23.897C2.98932 25.0205 4.4835 25.6394 6.07304 25.6394C7.66259 25.6394 9.15696 25.0205 10.2807 23.897L15.1102 19.0686C14.7564 19.1197 14.3967 19.146 14.0328 19.146C13.0316 19.146 12.061 18.9488 11.165 18.5731L8.12301 21.6143C7.57542 22.1617 6.84741 22.4633 6.07304 22.4633C5.29887 22.4633 4.57085 22.1619 4.02326 21.6145C3.47644 21.0679 3.17528 20.34 3.17528 19.5649C3.17528 18.7899 3.47644 18.0619 4.02307 17.5152L8.91702 12.6225C9.46461 12.0749 10.1926 11.7736 10.967 11.7736C11.7158 11.7736 12.4207 12.056 12.9616 12.5697C12.9813 12.5857 13.0002 12.6027 13.0185 12.621C13.2895 12.8918 13.6496 13.041 14.0328 13.041C14.4158 13.041 14.7761 12.8918 15.0469 12.621L16.1426 11.5256C15.904 11.143 15.6223 10.7873 15.3 10.4651L15.1749 10.34C14.0509 9.21618 12.5565 8.59744 10.9672 8.59744C9.37764 8.59744 7.88326 9.21618 6.75929 10.3398Z" fill="white"/>
<path d="M23.2598 10.9208C24.3819 9.79926 24.9997 8.30523 24.9997 6.71393C24.9997 5.12282 24.3817 3.62879 23.2598 2.50708L23.1347 2.38196C22.0108 1.25834 20.5164 0.639404 18.9268 0.639404C17.3375 0.639404 15.8431 1.25834 14.7191 2.38196L9.88965 7.21022C10.2435 7.1591 10.6034 7.13278 10.9673 7.13278C11.9682 7.13278 12.9389 7.33019 13.8349 7.70575L16.8769 4.66448C17.4245 4.11707 18.1525 3.81552 18.9268 3.81552C19.7012 3.81552 20.4292 4.11688 20.9768 4.66448C21.5236 5.21113 21.8246 5.93897 21.8246 6.71393C21.8246 7.48907 21.5236 8.21692 20.9768 8.76337L16.0829 13.6563C15.5353 14.2039 14.8073 14.5053 14.0329 14.5053C13.2843 14.5053 12.5793 14.2228 12.0384 13.7091C12.0188 13.6931 11.9997 13.6761 11.9814 13.6578C11.7106 13.387 11.3503 13.2378 10.9673 13.2378C10.5841 13.2378 10.224 13.387 9.95317 13.6578L8.85742 14.7534C9.09583 15.1358 9.37754 15.4914 9.69988 15.8137L9.82519 15.939C10.9492 17.0626 12.4433 17.6814 14.0329 17.6814C15.6224 17.6814 17.1168 17.0626 18.2406 15.939L23.2598 10.9208Z" fill="white"/>
</svg>
