<svg width="30" height="22" viewBox="0 0 30 22" fill="none" xmlns="http://www.w3.org/2000/svg">
<path d="M29.2454 14.4543L25.4361 10.3541C25.3003 10.2079 25.0719 10.1995 24.9257 10.3353C24.9192 10.3414 24.913 10.3476 24.907 10.3541L21.0976 14.4543C20.9878 14.5724 20.9946 14.7572 21.1128 14.8669C21.1668 14.9171 21.2378 14.945 21.3115 14.945H23.0073L23.0041 20.4578C23.004 20.619 23.1346 20.7498 23.2959 20.7499H23.296H27.0512C27.2123 20.7499 27.343 20.6193 27.3431 20.4582L27.3468 14.945H29.0316C29.1929 14.945 29.3236 14.8143 29.3236 14.6531C29.3234 14.5793 29.2956 14.5083 29.2454 14.4543Z" fill="#0674BB"/>
<path d="M8.22589 14.4543L4.41652 10.3541C4.28077 10.2079 4.05232 10.1995 3.90621 10.3353C3.89971 10.3414 3.89343 10.3476 3.88745 10.3541L0.0780838 14.4543C-0.0316874 14.5724 -0.0248997 14.7572 0.0932649 14.8669C0.147275 14.9171 0.21829 14.945 0.292006 14.945H1.98777L1.98455 20.4578C1.98448 20.619 2.11505 20.7498 2.27635 20.7499H2.2765H6.03164C6.19279 20.7499 6.32351 20.6193 6.32358 20.4582L6.32723 14.945H8.01211C8.17334 14.945 8.30406 14.8143 8.30406 14.6531C8.30391 14.5793 8.27603 14.5083 8.22589 14.4543Z" fill="#0674BB"/>
<path d="M21.3732 7.12655L15.0806 0.185134C14.8715 -0.0455752 14.5149 -0.0630188 14.2842 0.146086C14.2706 0.158421 14.2576 0.171486 14.2452 0.185134L7.95262 7.12655C7.84431 7.24603 7.85336 7.43061 7.97284 7.53892C8.02655 7.58761 8.0964 7.61454 8.16895 7.61454H11.2455L11.2373 21.5857C11.2372 21.6824 11.3156 21.7609 11.4124 21.7609H11.4125H17.9137C18.0104 21.7609 18.0888 21.6825 18.0889 21.5859L18.0976 7.61447H21.157C21.3182 7.61447 21.4489 7.48375 21.4489 7.32252C21.4488 7.25012 21.4218 7.1802 21.3732 7.12655Z" fill="#0674BB"/>
</svg>
