<svg width="271" height="232" viewBox="0 0 271 232" fill="none" xmlns="http://www.w3.org/2000/svg">
<g clip-path="url(#clip0_517_5722)">
<path d="M20.3504 212.904C21.912 213.452 23.5886 213.589 25.2187 213.303C26.8489 213.016 28.3776 212.316 29.6576 211.269C32.9174 208.539 33.9397 204.043 34.7711 199.879L37.2309 187.562L32.0812 191.1C28.3775 193.644 24.5908 196.27 22.0267 199.954C19.4625 203.639 18.3439 208.67 20.4035 212.657" fill="#E6E6E6"/>
<path d="M21.1443 228.673C20.4961 223.962 19.8292 219.19 20.285 214.429C20.6888 210.2 21.9821 206.07 24.6149 202.682C26.0125 200.888 27.713 199.351 29.64 198.139C30.1424 197.823 30.6049 198.617 30.1047 198.932C26.7703 201.035 24.1911 204.139 22.7392 207.798C21.1357 211.867 20.8782 216.302 21.1544 220.625C21.3213 223.238 21.6761 225.835 22.0324 228.429C22.0606 228.546 22.043 228.669 21.9833 228.774C21.9236 228.879 21.8262 228.958 21.7108 228.993C21.5931 229.025 21.4676 229.009 21.3616 228.949C21.2556 228.889 21.1776 228.79 21.1446 228.673L21.1443 228.673Z" fill="#F2F2F2"/>
<path d="M25.8105 221.114C26.4802 222.129 27.4007 222.956 28.4835 223.514C29.5663 224.071 30.7748 224.342 31.9926 224.298C35.123 224.15 37.7316 221.971 40.0796 219.902L47.0262 213.783L42.4289 213.564C39.1227 213.406 35.7312 213.257 32.5822 214.276C29.4331 215.294 26.529 217.741 25.9533 220.993" fill="#E6E6E6"/>
<path d="M19.3125 231.381C22.433 225.873 26.0522 219.751 32.5197 217.794C34.3179 217.252 36.2033 217.058 38.0745 217.222C38.6644 217.273 38.5171 218.18 37.9285 218.129C34.7917 217.869 31.6611 218.696 29.0635 220.469C26.5638 222.166 24.6175 224.526 22.9704 227.029C21.9613 228.562 21.0575 230.16 20.1537 231.756C19.8649 232.266 19.0203 231.897 19.3125 231.381Z" fill="#F2F2F2"/>
<path d="M269.001 163.381H96.9625C96.4324 163.38 95.9242 163.17 95.5493 162.796C95.1745 162.422 94.9636 161.915 94.9629 161.386V1.99488C94.9636 1.46602 95.1745 0.959012 95.5493 0.58505C95.9242 0.211088 96.4324 0.000691356 96.9625 0H269.001C269.531 0.000691356 270.039 0.211088 270.414 0.58505C270.789 0.959012 271 1.46602 271 1.99488V161.386C271 161.915 270.789 162.422 270.414 162.796C270.039 163.17 269.531 163.38 269.001 163.381V163.381Z" fill="white"/>
<path d="M269.001 163.381H96.9625C96.4324 163.38 95.9242 163.17 95.5493 162.796C95.1745 162.422 94.9636 161.915 94.9629 161.386V1.99488C94.9636 1.46602 95.1745 0.959012 95.5493 0.58505C95.9242 0.211088 96.4324 0.000691356 96.9625 0H269.001C269.531 0.000691356 270.039 0.211088 270.414 0.58505C270.789 0.959012 271 1.46602 271 1.99488V161.386C271 161.915 270.789 162.422 270.414 162.796C270.039 163.17 269.531 163.38 269.001 163.381V163.381ZM96.9625 0.79638C96.6448 0.797068 96.3403 0.923286 96.1156 1.14741C95.891 1.37153 95.7645 1.67531 95.7638 1.99226V161.386C95.7645 161.703 95.891 162.006 96.1156 162.23C96.3403 162.455 96.6448 162.581 96.9625 162.582H269.001C269.318 162.581 269.623 162.455 269.848 162.231C270.072 162.006 270.199 161.703 270.199 161.386V1.99488C270.199 1.67792 270.072 1.37415 269.847 1.15003C269.623 0.925904 269.318 0.799686 269.001 0.798998L96.9625 0.79638Z" fill="#CACACA"/>
<path d="M178.254 41.4182C177.894 41.4188 177.549 41.5618 177.295 41.8157C177.041 42.0696 176.898 42.4138 176.898 42.7725C176.898 43.1313 177.041 43.4755 177.295 43.7294C177.549 43.9833 177.894 44.1263 178.254 44.1269H252.744C253.103 44.1263 253.448 43.9833 253.702 43.7294C253.956 43.4755 254.099 43.1313 254.099 42.7725C254.099 42.4138 253.956 42.0696 253.702 41.8157C253.448 41.5618 253.103 41.4188 252.744 41.4182H178.254Z" fill="#E4E4E4"/>
<path d="M178.253 49.5452C177.893 49.546 177.549 49.6891 177.295 49.943C177.041 50.1969 176.898 50.5409 176.898 50.8995C176.898 51.2581 177.041 51.6021 177.295 51.856C177.549 52.1099 177.893 52.253 178.253 52.2538H216.281C216.641 52.253 216.985 52.1099 217.239 51.856C217.493 51.6021 217.636 51.2581 217.636 50.8995C217.636 50.5409 217.493 50.1969 217.239 49.943C216.985 49.6891 216.641 49.546 216.281 49.5452H178.253Z" fill="#E4E4E4"/>
<path d="M113.147 93.2478C112.788 93.2487 112.443 93.3917 112.189 93.6456C111.936 93.8995 111.793 94.2435 111.793 94.6021C111.793 94.9608 111.936 95.3047 112.189 95.5586C112.443 95.8125 112.788 95.9556 113.147 95.9565H252.816C253.176 95.9556 253.52 95.8125 253.774 95.5586C254.028 95.3047 254.171 94.9608 254.171 94.6021C254.171 94.2435 254.028 93.8995 253.774 93.6456C253.52 93.3917 253.176 93.2487 252.816 93.2478H113.147Z" fill="#E4E4E4"/>
<path d="M113.147 101.375C112.788 101.375 112.443 101.518 112.189 101.772C111.936 102.026 111.793 102.37 111.793 102.729C111.793 103.087 111.936 103.431 112.189 103.685C112.443 103.939 112.788 104.082 113.147 104.083H216.355C216.715 104.082 217.059 103.939 217.313 103.685C217.567 103.431 217.709 103.087 217.709 102.729C217.709 102.37 217.567 102.026 217.313 101.772C217.059 101.518 216.715 101.375 216.355 101.375H113.147Z" fill="#E4E4E4"/>
<path d="M113.147 109.317C112.788 109.318 112.443 109.461 112.189 109.715C111.936 109.969 111.793 110.313 111.793 110.672C111.793 111.03 111.936 111.374 112.189 111.628C112.443 111.882 112.788 112.025 113.147 112.026H252.816C253.176 112.025 253.52 111.882 253.774 111.628C254.028 111.374 254.171 111.03 254.171 110.672C254.171 110.313 254.028 109.969 253.774 109.715C253.52 109.461 253.176 109.318 252.816 109.317H113.147Z" fill="#E4E4E4"/>
<path d="M113.147 117.444C112.788 117.445 112.443 117.588 112.189 117.842C111.936 118.096 111.793 118.44 111.793 118.798C111.793 119.157 111.936 119.501 112.189 119.755C112.443 120.009 112.788 120.152 113.147 120.153H216.355C216.715 120.152 217.059 120.009 217.313 119.755C217.567 119.501 217.709 119.157 217.709 118.798C217.709 118.44 217.567 118.096 217.313 117.842C217.059 117.588 216.715 117.445 216.355 117.444H113.147Z" fill="#E4E4E4"/>
<path d="M113.147 125.599C112.788 125.6 112.443 125.743 112.189 125.996C111.936 126.25 111.793 126.594 111.793 126.953C111.793 127.312 111.936 127.656 112.189 127.909C112.443 128.163 112.788 128.306 113.147 128.307H252.816C253.176 128.306 253.52 128.163 253.774 127.909C254.028 127.656 254.171 127.312 254.171 126.953C254.171 126.594 254.028 126.25 253.774 125.996C253.52 125.743 253.176 125.6 252.816 125.599H113.147Z" fill="#E4E4E4"/>
<path d="M113.147 133.725C112.788 133.726 112.443 133.869 112.189 134.123C111.936 134.377 111.793 134.721 111.793 135.08C111.793 135.438 111.936 135.782 112.189 136.036C112.443 136.29 112.788 136.433 113.147 136.434H216.355C216.715 136.433 217.059 136.29 217.313 136.036C217.567 135.782 217.709 135.438 217.709 135.08C217.709 134.721 217.567 134.377 217.313 134.123C217.059 133.869 216.715 133.726 216.355 133.725H113.147Z" fill="#E4E4E4"/>
<path d="M135.27 66.294C131.412 66.294 127.641 65.1529 124.434 63.0148C121.226 60.8768 118.727 57.8378 117.25 54.2823C115.774 50.7269 115.388 46.8145 116.14 43.04C116.893 39.2655 118.75 35.7984 121.478 33.0771C124.206 30.3559 127.681 28.5026 131.464 27.7518C135.248 27.001 139.169 27.3863 142.733 28.8591C146.297 30.3318 149.343 32.8258 151.486 36.0256C153.63 39.2255 154.773 42.9875 154.773 46.836C154.768 51.9947 152.711 56.9405 149.054 60.5883C145.398 64.2361 140.441 66.2881 135.27 66.294Z" fill="#FC0005"/>
<path d="M76.0648 139.866C76.031 139.156 75.8416 138.462 75.5099 137.832C75.1781 137.203 74.7121 136.654 74.1447 136.224C73.5772 135.794 72.9221 135.493 72.2255 135.342C71.5289 135.192 70.8078 135.196 70.1129 135.354L63.6661 126.29L57.1895 128.855L66.4738 141.528C66.817 142.675 67.57 143.656 68.5902 144.286C69.6104 144.917 70.8268 145.152 72.009 144.947C73.1912 144.742 74.2571 144.112 75.0046 143.175C75.7521 142.239 76.1293 141.061 76.0648 139.866H76.0648Z" fill="#A0616A"/>
<path d="M63.4992 139.194L43.9922 113.947L51.3013 91.0301C51.8369 85.2684 55.4508 83.6595 55.6046 83.5938L55.8392 83.4934L62.1994 100.415L57.5295 112.839L68.9917 132.071L63.4992 139.194Z" fill="#3F3D56"/>
<path d="M131.243 61.3665C130.536 61.455 129.857 61.697 129.254 62.0757C128.651 62.4543 128.138 62.9603 127.752 63.5579C127.366 64.1556 127.116 64.8305 127.02 65.535C126.923 66.2395 126.983 66.9565 127.194 67.6355L118.635 74.7486L121.699 80.9924L133.645 70.7778C134.765 70.3478 135.688 69.5229 136.239 68.4594C136.79 67.3959 136.931 66.1678 136.634 65.0077C136.338 63.8477 135.626 62.8363 134.632 62.1652C133.639 61.4941 132.433 61.2099 131.243 61.3665Z" fill="#A0616A"/>
<path d="M131.543 73.9162L107.821 95.271L84.3534 89.7728C78.554 89.6855 76.6668 86.2153 76.5892 86.0674L76.4707 85.8418L92.8894 78.2072L105.666 81.8917L124 69.0037L131.543 73.9162Z" fill="#3F3D56"/>
<path d="M90.4543 225.728L96.8281 225.727L99.86 201.201L90.4531 201.201L90.4543 225.728Z" fill="#A0616A"/>
<path d="M109.119 231.631L89.0874 231.632L89.0871 223.911L103.499 223.91C104.989 223.91 106.419 224.501 107.473 225.552C108.527 226.604 109.119 228.03 109.119 229.517L109.119 231.631L109.119 231.631Z" fill="#2F2E41"/>
<path d="M64.9793 225.728L71.3531 225.727L74.3854 201.201L64.9785 201.201L64.9793 225.728Z" fill="#A0616A"/>
<path d="M83.6445 231.631L63.6128 231.632L63.6124 223.911L78.0242 223.91C78.7623 223.91 79.4931 224.055 80.1749 224.337C80.8568 224.619 81.4763 225.032 81.9982 225.552C82.5201 226.073 82.9341 226.691 83.2165 227.371C83.499 228.051 83.6444 228.78 83.6444 229.517L83.6445 231.631Z" fill="#2F2E41"/>
<path d="M62.7109 136.203L63.2308 172.509L63.751 220.227L75.1883 219.19L80.9073 153.319L88.1858 219.19H99.9936L101.183 152.8L97.0238 138.277L62.7109 136.203Z" fill="#2F2E41"/>
<path d="M85.0972 141.078C72.6524 141.079 61.1971 135.46 61.0425 135.383L60.914 135.319L59.8697 110.315C59.5668 109.431 53.6035 91.996 52.5935 86.4543C51.5702 80.8397 66.4009 75.9123 68.2018 75.336L68.6105 70.8193L85.2301 69.0327L87.3365 74.812L93.2989 77.0424C93.9748 77.2955 94.5342 77.7871 94.8711 78.4242C95.208 79.0612 95.2989 79.7994 95.1267 80.4989L91.8129 93.9433L99.9063 138.424L98.1639 138.499C93.9873 140.381 89.4797 141.078 85.0972 141.078Z" fill="#3F3D56"/>
<path d="M83.3111 64.709C89.11 61.5465 91.2411 54.2929 88.0712 48.5077C84.9012 42.7225 77.6306 40.5964 71.8317 43.7589C66.0329 46.9214 63.9018 54.1749 67.0717 59.9601C70.2417 65.7453 77.5123 67.8714 83.3111 64.709Z" fill="#A0616A"/>
<path d="M67.8805 65.7908C70.161 68.2142 74.3961 66.9133 74.6932 63.6025C74.7165 63.3454 74.7148 63.0867 74.6882 62.83C74.5348 61.3635 73.6855 60.032 73.8889 58.4836C73.935 58.0982 74.0789 57.7309 74.307 57.4165C76.1243 54.9888 80.3901 58.5024 82.1052 56.3047C83.1568 54.9571 81.9206 52.8353 82.7276 51.3291C83.7927 49.3412 86.9476 50.3219 88.926 49.2332C91.1272 48.0219 90.9955 44.6525 89.5465 42.6031C87.7794 40.1038 84.6811 38.7701 81.6214 38.5779C78.5617 38.3857 75.5231 39.2109 72.6666 40.3215C69.421 41.5833 66.2026 43.3272 64.2053 46.1744C61.7764 49.6368 61.5426 54.2917 62.7574 58.3403C63.4963 60.8032 66.0182 63.8117 67.8805 65.7908Z" fill="#2F2E41"/>
<path d="M152.051 231.939H0.398039C0.292472 231.939 0.191223 231.897 0.116576 231.823C0.0419297 231.748 0 231.647 0 231.542C0 231.437 0.0419297 231.336 0.116576 231.261C0.191223 231.187 0.292472 231.145 0.398039 231.145H152.051C152.156 231.145 152.258 231.187 152.332 231.261C152.407 231.336 152.449 231.437 152.449 231.542C152.449 231.647 152.407 231.748 152.332 231.823C152.258 231.897 152.156 231.939 152.051 231.939Z" fill="#CACACA"/>
<path fill-rule="evenodd" clip-rule="evenodd" d="M132.005 38.5C132.005 38.3676 132.057 38.2406 132.151 38.1469C132.244 38.0533 132.371 38.0006 132.504 38.0005L137.496 38.0002C137.628 38.0006 137.755 38.0534 137.849 38.1471C137.942 38.2408 137.995 38.3678 137.995 38.5003V39.7349H132.005V38.5ZM140.212 55.2851C140.199 55.4798 140.113 55.6622 139.97 55.7951C139.827 55.9279 139.639 56.0012 139.444 55.9998H130.498C130.303 55.9993 130.116 55.925 129.973 55.7919C129.831 55.6587 129.744 55.4766 129.73 55.2821L128.964 44.0842H141.029L140.212 55.285L140.212 55.2851ZM142.201 43.07H127.799V41.9098C127.799 41.6021 127.921 41.3071 128.139 41.0895C128.356 40.8719 128.651 40.7495 128.959 40.7493L141.04 40.7489C141.348 40.7493 141.643 40.8718 141.86 41.0894C142.078 41.3071 142.2 41.6021 142.201 41.9097V43.0699L142.201 43.07ZM132.681 53.3304C132.681 53.397 132.694 53.4629 132.72 53.5244C132.745 53.5859 132.782 53.6418 132.829 53.6889C132.876 53.736 132.932 53.7733 132.994 53.7988C133.055 53.8243 133.121 53.8374 133.188 53.8374C133.255 53.8374 133.32 53.8243 133.382 53.7988C133.443 53.7733 133.499 53.736 133.546 53.6889C133.594 53.6418 133.631 53.5859 133.656 53.5244C133.682 53.4629 133.695 53.397 133.695 53.3304V46.2201C133.694 46.0864 133.64 45.9585 133.545 45.8643C133.45 45.7701 133.322 45.7173 133.188 45.7172C133.054 45.7172 132.926 45.77 132.831 45.8641C132.736 45.9582 132.682 46.0861 132.681 46.2198V53.3304H132.681ZM136.298 53.3304C136.298 53.4649 136.352 53.5938 136.447 53.6889C136.542 53.784 136.671 53.8375 136.806 53.8375C136.94 53.8375 137.069 53.784 137.164 53.6889C137.259 53.5938 137.313 53.4649 137.313 53.3304V46.2201C137.312 46.0864 137.258 45.9585 137.163 45.8643C137.068 45.7701 136.94 45.7172 136.806 45.7171C136.672 45.7171 136.544 45.7699 136.449 45.864C136.354 45.9582 136.3 46.086 136.299 46.2198L136.298 53.3304Z" fill="white"/>
</g>
<defs>
<clipPath id="clip0_517_5722">
<rect width="271" height="232" fill="white"/>
</clipPath>
</defs>
</svg>
