<svg width="70" height="70" viewBox="0 0 70 70" fill="none" xmlns="http://www.w3.org/2000/svg">
<path d="M32.6791 52.6326C32.9838 52.9373 33.3455 53.179 33.7436 53.3439C34.1417 53.5089 34.5684 53.5937 34.9993 53.5937C35.4302 53.5937 35.8569 53.5089 36.255 53.3439C36.6532 53.179 37.0149 52.9373 37.3196 52.6326L49.6939 40.2583C50.3092 39.643 50.6549 38.8084 50.6549 37.9382C50.6549 37.0679 50.3092 36.2333 49.6939 35.618C49.0785 35.0026 48.2439 34.6569 47.3737 34.6569C46.5034 34.6569 45.6688 35.0026 45.0535 35.618L38.2806 42.3909V6.5625C38.2806 5.69226 37.9349 4.85766 37.3195 4.24231C36.7042 3.62695 35.8696 3.28125 34.9993 3.28125C34.1291 3.28125 33.2945 3.62695 32.6791 4.24231C32.0638 4.85766 31.7181 5.69226 31.7181 6.5625V42.3909L24.9452 35.618C24.3298 35.0026 23.4952 34.6569 22.625 34.6569C21.7547 34.6569 20.9202 35.0026 20.3048 35.618C19.6894 36.2333 19.3438 37.0679 19.3438 37.9382C19.3438 38.8084 19.6894 39.643 20.3048 40.2583L32.6791 52.6326Z" fill="#878A99"/>
<path d="M63.4375 31.7188C62.5673 31.7188 61.7327 32.0645 61.1173 32.6798C60.502 33.2952 60.1562 34.1298 60.1562 35V60.1562H9.84375V35C9.84375 34.1298 9.49805 33.2952 8.88269 32.6798C8.26734 32.0645 7.43274 31.7188 6.5625 31.7188C5.69226 31.7188 4.85766 32.0645 4.24231 32.6798C3.62695 33.2952 3.28125 34.1298 3.28125 35V61.25C3.28125 62.7004 3.85742 64.0914 4.88301 65.117C5.9086 66.1426 7.2996 66.7188 8.75 66.7188H61.25C62.7004 66.7188 64.0914 66.1426 65.117 65.117C66.1426 64.0914 66.7188 62.7004 66.7188 61.25V35C66.7188 34.1298 66.373 33.2952 65.7577 32.6798C65.1423 32.0645 64.3077 31.7188 63.4375 31.7188Z" fill="#878A99"/>
</svg>
