<svg width="41" height="40" viewBox="0 0 41 40" fill="none" xmlns="http://www.w3.org/2000/svg">
<path d="M40.6288 20C40.6288 17.3736 40.1057 14.7728 39.0893 12.3463C38.073 9.91982 36.5832 7.71504 34.7052 5.85786C32.8272 4.00069 30.5976 2.5275 28.1439 1.52241C25.6901 0.517315 23.0602 0 20.4043 0C17.7483 0 15.1184 0.517315 12.6647 1.52241C10.2109 2.5275 7.98135 4.00069 6.10333 5.85786C4.2253 7.71504 2.73557 9.91982 1.71919 12.3463C0.702811 14.7728 0.179687 17.3736 0.179688 20C0.179688 25.3043 2.31048 30.3914 6.10333 34.1421C9.89617 37.8929 15.0404 40 20.4043 40C25.7682 40 30.9124 37.8929 34.7052 34.1421C38.498 30.3914 40.6288 25.3043 40.6288 20ZM3.55045 20C3.55045 15.5797 5.32611 11.3405 8.48682 8.21489C11.6475 5.08928 15.9344 3.33333 20.4043 3.33333C24.8742 3.33333 29.161 5.08928 32.3217 8.21489C35.4824 11.3405 37.2581 15.5797 37.2581 20C37.2581 24.4203 35.4824 28.6595 32.3217 31.7851C29.161 34.9107 24.8742 36.6667 20.4043 36.6667C15.9344 36.6667 11.6475 34.9107 8.48682 31.7851C5.32611 28.6595 3.55045 24.4203 3.55045 20ZM17.0335 15.8333C17.0335 16.1616 16.9681 16.4867 16.8411 16.79C16.714 17.0934 16.5278 17.369 16.293 17.6011C16.0583 17.8332 15.7796 18.0174 15.4729 18.143C15.1662 18.2687 14.8374 18.3333 14.5054 18.3333C14.1734 18.3333 13.8447 18.2687 13.538 18.143C13.2313 18.0174 12.9526 17.8332 12.7178 17.6011C12.4831 17.369 12.2968 17.0934 12.1698 16.79C12.0427 16.4867 11.9774 16.1616 11.9774 15.8333C11.9774 15.1703 12.2437 14.5344 12.7178 14.0656C13.1919 13.5967 13.8349 13.3333 14.5054 13.3333C15.1759 13.3333 15.8189 13.5967 16.293 14.0656C16.7672 14.5344 17.0335 15.1703 17.0335 15.8333ZM28.8312 15.8333C28.8312 16.4964 28.5648 17.1323 28.0907 17.6011C27.6166 18.0699 26.9736 18.3333 26.3031 18.3333C25.6326 18.3333 24.9896 18.0699 24.5155 17.6011C24.0414 17.1323 23.775 16.4964 23.775 15.8333C23.775 15.1703 24.0414 14.5344 24.5155 14.0656C24.9896 13.5967 25.6326 13.3333 26.3031 13.3333C26.9736 13.3333 27.6166 13.5967 28.0907 14.0656C28.5648 14.5344 28.8312 15.1703 28.8312 15.8333ZM14.1077 29.4067C17.2256 25.7533 23.5795 25.7533 26.7008 29.4067C26.8401 29.5839 27.0142 29.7314 27.2125 29.8405C27.4109 29.9495 27.6294 30.0178 27.8551 30.0413C28.0808 30.0648 28.309 30.043 28.526 29.9771C28.7429 29.9113 28.9442 29.8028 29.1177 29.6581C29.2913 29.5135 29.4334 29.3357 29.5358 29.1354C29.6381 28.935 29.6985 28.7164 29.7133 28.4924C29.7281 28.2685 29.697 28.0439 29.6219 27.8321C29.5467 27.6203 29.4291 27.4257 29.2761 27.26C24.8098 22.0267 15.9953 22.0267 11.5324 27.26C11.3794 27.4257 11.2618 27.6203 11.1867 27.8321C11.1115 28.0439 11.0804 28.2685 11.0952 28.4924C11.11 28.7164 11.1704 28.935 11.2727 29.1354C11.3751 29.3357 11.5173 29.5135 11.6908 29.6581C11.8643 29.8028 12.0656 29.9113 12.2826 29.9771C12.4995 30.043 12.7277 30.0648 12.9534 30.0413C13.1791 30.0178 13.3977 29.9495 13.596 29.8405C13.7944 29.7314 13.9684 29.5839 14.1077 29.4067Z" fill="#F21E1E" fill-opacity="0.93"/>
</svg>
