<svg width="1008" height="669" viewBox="0 0 1008 669" fill="none" xmlns="http://www.w3.org/2000/svg">
<g clip-path="url(#clip0_447_8241)">
<path d="M510.646 188.029C501.658 173.172 491.008 157.308 474.329 152.457C455.013 146.838 435.171 157.999 418.341 169.013C368.008 201.951 319.537 237.646 273.148 275.935L273.199 276.512C309.314 274.023 345.429 271.533 381.544 269.044C407.637 267.245 434.626 265.199 457.685 252.861C466.435 248.18 474.965 241.926 484.88 241.49C497.199 240.949 507.94 249.548 516.382 258.532C566.314 311.677 580.763 392.947 636.782 439.638C601.458 352.567 559.28 268.434 510.646 188.029Z" fill="#F2F2F2"/>
<path d="M817.573 638.789C812.051 631.82 809.795 630.188 804.348 623.154C760 565.824 718.315 506.558 679.296 445.356C652.792 403.79 627.603 361.425 603.728 318.262C592.361 297.742 581.306 277.061 570.563 256.218C562.226 240.058 554.076 223.801 546.111 207.447C543.834 202.776 541.621 198.083 539.418 193.38C534.229 182.32 529.137 171.206 523.668 160.297C517.438 147.862 509.853 134.826 498.411 126.472C493.204 122.514 486.977 120.12 480.459 119.568C471.144 118.967 462.55 122.811 454.471 127.009C395.361 157.816 340.022 196.441 289.97 240.391C239.788 284.44 194.934 334.204 156.322 388.671C155.141 390.356 152.348 388.746 153.54 387.049C158.235 380.413 163.023 373.849 167.904 367.356C228.596 286.678 303.013 217.299 387.755 162.391C402.012 153.156 416.537 144.355 431.33 135.986C438.785 131.766 446.274 127.6 453.891 123.691C461.357 119.858 469.286 116.411 477.816 116.282C506.844 115.831 521.874 148.689 532.199 170.798C535.443 177.757 538.727 184.693 542.05 191.608C554.609 217.863 567.651 243.877 581.177 269.652C589.525 285.565 598.055 301.386 606.768 317.113C633.884 366.089 662.705 414.073 693.23 461.065C733.668 523.313 773.783 578.302 819.851 636.512C821.119 638.123 818.852 640.421 817.573 638.789Z" fill="#E4E4E4"/>
<path d="M287.101 224.166C285.414 222.287 283.738 220.408 282.041 218.528C268.655 203.732 254.291 189.107 235.909 180.624C227.144 176.451 217.576 174.234 207.869 174.127C197.835 174.159 188.026 176.79 178.755 180.473C174.372 182.224 170.085 184.21 165.863 186.325C161.039 188.752 156.301 191.34 151.585 193.949C142.732 198.846 133.995 203.957 125.372 209.283C108.214 219.881 91.5944 231.289 75.5118 243.505C67.1747 249.84 59.0097 256.383 51.0168 263.134C43.5825 269.405 36.2986 275.844 29.165 282.451C27.6396 283.858 25.3619 281.581 26.8873 280.175C28.7674 278.424 30.669 276.685 32.5706 274.967C37.9422 270.113 43.3999 265.353 48.9436 260.685C59.0527 252.16 69.4236 243.963 80.0562 236.096C96.5903 223.854 113.694 212.444 131.366 201.863C140.197 196.58 149.15 191.519 158.224 186.68C160.964 185.219 163.736 183.791 166.54 182.438C172.902 179.231 179.513 176.541 186.307 174.396C195.932 171.283 206.116 170.284 216.163 171.464C225.864 172.875 235.21 176.106 243.709 180.989C261.758 191.072 275.756 206.663 289.379 221.879C290.754 223.425 288.487 225.712 287.101 224.166Z" fill="#E4E4E4"/>
<path d="M656.906 377.5L700.155 361.69L721.628 353.84C728.622 351.283 735.598 348.373 742.828 346.542C749.111 344.748 755.782 344.833 762.016 346.786C767.577 348.843 772.666 351.997 776.983 356.059C781.393 360.118 785.496 364.498 789.259 369.162C793.934 374.778 798.54 380.453 803.167 386.108C822.262 409.449 841.233 432.892 860.078 456.436C878.924 479.979 897.643 503.623 916.236 527.367C934.875 551.168 953.385 575.069 971.768 599.07C974.02 602.01 976.27 604.952 978.518 607.895C979.76 609.521 982.56 607.918 981.301 606.269C962.783 582.027 944.136 557.884 925.359 533.841C906.537 509.74 887.585 485.741 868.502 461.844C849.42 437.948 830.209 414.156 810.869 390.467C806.051 384.565 801.225 378.67 796.391 372.781C792.313 367.814 788.281 362.793 783.809 358.17C775.599 349.684 765.342 342.184 753.065 341.98C745.846 341.861 738.86 344.15 732.153 346.575C724.923 349.19 717.71 351.853 710.488 354.493L666.937 370.414L656.049 374.394C654.117 375.1 654.952 378.215 656.906 377.501L656.906 377.5Z" fill="#E4E4E4"/>
<path d="M230.211 199.242C208.233 187.952 180.087 190.164 159.891 204.269C198.414 210.912 236.515 219.8 274.001 230.888C258.434 221.771 246.258 207.486 230.211 199.242Z" fill="#F2F2F2"/>
<path d="M159.676 204.23L155.445 207.667C156.876 206.464 158.364 205.336 159.893 204.269C159.821 204.256 159.749 204.242 159.676 204.23Z" fill="#F2F2F2"/>
<path d="M775.353 377.658C771.096 372.479 766.493 367.055 760.125 364.951L754.18 365.186C799.436 445.116 860.559 514.958 933.796 570.426C880.982 506.17 828.167 441.914 775.353 377.658Z" fill="#F2F2F2"/>
<path d="M405.657 334.929C408.408 344.92 414.607 353.616 423.155 359.479C426.46 361.728 430.37 363.885 431.501 367.719C432.096 370.162 431.729 372.741 430.477 374.922C429.227 377.076 427.707 379.06 425.952 380.827L425.792 381.427C417.59 376.569 409.788 370.424 405.257 362.04C400.727 353.656 400.095 342.668 405.657 334.929" fill="#F2F2F2"/>
<path d="M678.712 572.708C681.463 582.699 687.661 591.395 696.21 597.258C699.515 599.507 703.425 601.665 704.556 605.498C705.151 607.941 704.784 610.52 703.532 612.701C702.282 614.855 700.761 616.839 699.007 618.606L698.847 619.206C690.645 614.348 682.843 608.203 678.312 599.819C673.782 591.435 673.149 580.447 678.712 572.708" fill="#F2F2F2"/>
<path d="M133.774 556.31C136.526 566.3 142.724 574.997 151.272 580.859C154.577 583.108 158.488 585.266 159.618 589.099C160.213 591.543 159.847 594.121 158.594 596.303C157.345 598.456 155.824 600.441 154.069 602.208L153.909 602.807C145.708 597.95 137.905 591.805 133.375 583.421C128.844 575.037 128.212 564.048 133.774 556.31" fill="#F2F2F2"/>
<path d="M760.861 119.475C793.87 119.475 820.629 92.7297 820.629 59.7376C820.629 26.7454 793.87 0 760.861 0C727.853 0 701.094 26.7454 701.094 59.7376C701.094 92.7297 727.853 119.475 760.861 119.475Z" fill="#0674BB"/>
<path d="M868.724 13.9041C839.758 9.99081 806.689 25.6393 799.181 53.8739C797.29 48.8538 793.85 44.5648 789.359 41.6265C784.869 38.6883 779.56 37.253 774.2 37.5279C768.84 37.8028 763.706 39.7737 759.54 43.156C755.374 46.5382 752.391 51.1565 751.023 56.3439L754.34 58.7178C816.413 72.1344 880.669 71.8441 942.618 57.8669C922.469 36.7024 897.69 17.8174 868.724 13.9041Z" fill="#F0F0F0"/>
<path d="M744.498 93.5542C715.532 89.6408 682.462 105.289 674.955 133.524C673.063 128.504 669.623 124.215 665.133 121.277C660.642 118.338 655.333 116.903 649.973 117.178C644.613 117.453 639.479 119.424 635.313 122.806C631.147 126.188 628.165 130.807 626.797 135.994L630.113 138.368C692.186 151.784 756.442 151.494 818.391 137.517C798.243 116.352 773.464 97.4674 744.498 93.5542Z" fill="#F0F0F0"/>
<path d="M997.311 108.615C997.191 108.615 997.072 108.597 996.957 108.56C687.095 10.616 413.995 23.4239 239.456 51.4156C215.703 55.2236 191.886 59.6217 168.668 64.4889C162.74 65.73 156.59 67.0603 150.39 68.4456C142.985 70.0939 135.678 71.7914 128.672 73.4889C125.646 74.205 122.679 74.9268 119.771 75.6543C115.367 76.7409 110.898 77.8733 106.107 79.1178C100.754 80.4974 95.3148 81.9444 89.9377 83.4188C89.918 83.4257 89.8979 83.4315 89.8776 83.436L89.8782 83.4371C83.8046 85.0946 77.763 86.8001 71.9206 88.5034C68.7585 89.4162 65.7051 90.3164 62.7805 91.2052C62.4538 91.2956 62.1642 91.3825 61.8707 91.4717L61.2424 91.6627C60.8784 91.7737 60.5191 91.8824 60.1597 91.9853L60.1368 91.9922L60.1374 91.9933L59.1864 92.2885C58.0522 92.6317 56.9455 92.9668 55.8572 93.3008C27.0926 102.164 11.2798 108.469 11.1236 108.53C10.9807 108.588 10.828 108.616 10.6741 108.614C10.5202 108.613 10.3682 108.581 10.2267 108.52C10.0852 108.46 9.95698 108.372 9.84942 108.262C9.74185 108.152 9.65701 108.022 9.59975 107.879C9.54249 107.736 9.51394 107.583 9.5157 107.43C9.51747 107.276 9.54953 107.124 9.61005 106.982C9.67057 106.841 9.75836 106.713 9.86842 106.605C9.97849 106.498 10.1087 106.413 10.2515 106.356C10.4089 106.294 26.299 99.957 55.1682 91.0611C56.2606 90.726 57.3701 90.3908 58.5077 90.0465L59.3912 89.772C59.4215 89.7606 59.4519 89.7514 59.4828 89.7423C59.8404 89.6405 60.1975 89.5318 60.5603 89.422L61.1897 89.2309C61.5033 89.136 61.8123 89.0422 62.1287 88.9553C65.0333 88.0722 68.097 87.1697 71.2671 86.2534C77.1118 84.5491 83.1591 82.8436 89.2373 81.1838C89.2562 81.1769 89.2756 81.1724 89.2945 81.1666V81.1655C94.6906 79.6865 100.15 78.2337 105.52 76.8497C110.318 75.604 114.796 74.4693 119.207 73.3803C122.128 72.6539 125.1 71.9306 128.125 71.2104C135.139 69.5106 142.461 67.8108 149.879 66.159C156.09 64.7726 162.25 63.4389 168.187 62.1966C191.442 57.3215 215.295 52.9164 239.084 49.1027C413.874 21.071 687.365 8.24241 997.664 106.327C997.93 106.411 998.158 106.588 998.306 106.826C998.454 107.063 998.512 107.346 998.469 107.622C998.426 107.899 998.286 108.151 998.074 108.333C997.861 108.515 997.591 108.615 997.311 108.615Z" fill="#CCCCCC"/>
<path d="M308.197 491.769C307.791 490.583 307.108 489.511 306.205 488.642C305.871 488.333 305.51 488.054 305.127 487.81C302.068 485.772 297.497 485.315 294.591 487.81C294.298 488.064 294.028 488.342 293.782 488.642C292.915 489.708 292.024 490.75 291.11 491.769C289.61 493.479 288.075 495.131 286.47 496.736C286.013 497.181 285.556 497.638 285.087 498.083C284.817 498.352 284.548 498.61 284.278 498.867C283.247 499.851 282.192 500.8 281.126 501.737C280.563 502.241 280.001 502.733 279.426 503.213C278.571 503.928 277.715 504.642 276.848 505.333C276.766 505.392 276.684 505.45 276.602 505.521C276.579 505.532 276.567 505.556 276.544 505.567C276.532 505.567 276.52 505.567 276.508 505.591C276.477 505.603 276.448 505.624 276.426 505.649C276.169 505.825 275.993 505.942 275.864 506.048C275.911 506.024 275.958 505.989 276.004 505.966C275.794 506.13 275.571 506.294 275.36 506.458C273.309 507.969 271.211 509.421 269.067 510.78C263.761 514.174 258.187 517.132 252.402 519.623C252.015 519.776 251.617 519.94 251.218 520.092C236.071 526.294 219.64 528.715 203.346 527.143C201.682 527.014 200.017 526.839 198.353 526.616C196.431 526.335 194.521 525.995 192.623 525.609C185.395 524.167 178.323 522.034 171.505 519.237C162.976 515.333 154.864 510.577 147.293 505.04C146.121 504.209 144.938 503.377 143.754 502.569C145.102 499.266 146.426 495.963 147.715 492.636C148.36 491.031 148.981 489.427 149.59 487.81C154.383 475.359 158.883 462.791 163.196 450.175C167.556 437.396 171.669 424.543 175.536 411.615C175.935 410.304 176.321 408.992 176.696 407.68C178.724 400.851 180.669 394.007 182.533 387.146C182.708 386.479 182.896 385.823 183.06 385.155C183.599 383.187 184.126 381.22 184.642 379.252C185.814 374.812 183.165 369.506 178.501 368.44C176.255 367.865 173.874 368.183 171.858 369.328C169.843 370.473 168.351 372.355 167.696 374.578C167.192 376.476 166.688 378.361 166.173 380.259C163.7 389.43 161.098 398.571 158.368 407.68C157.969 408.992 157.571 410.304 157.172 411.615C151.149 431.458 144.535 451.101 137.332 470.545C136.465 472.899 135.586 475.246 134.695 477.584C134.261 478.732 133.828 479.88 133.383 481.028C132.527 483.289 131.648 485.549 130.769 487.81C130.265 489.134 129.75 490.457 129.234 491.769C128.894 492.601 128.566 493.432 128.238 494.252C124.896 493.053 121.435 492.221 117.913 491.769L117.351 491.699C114.621 491.371 111.86 491.394 109.136 491.769C105.059 492.245 101.136 493.609 97.6447 495.767C94.1535 497.925 91.1791 500.822 88.9318 504.256C83.3418 513.052 83.4121 525.632 91.2522 533.105C99.3267 540.801 111.55 540.742 121.054 535.928C126.091 533.205 130.337 529.226 133.383 524.379C134.549 522.622 135.621 520.804 136.594 518.932C136.84 519.096 137.086 519.26 137.332 519.436C138.269 520.092 139.207 520.759 140.133 521.415C145.527 525.321 151.212 528.81 157.137 531.852C169.878 538.183 183.593 542.328 197.709 544.116C198.025 544.151 198.33 544.198 198.646 544.233C200.205 544.432 201.775 544.584 203.346 544.713C225.872 546.41 248.427 541.802 268.481 531.407C270.18 530.528 271.864 529.607 273.532 528.642C276.122 527.143 278.653 525.55 281.126 523.863C282.473 522.95 283.786 522.024 285.087 521.052C290.771 516.868 296.07 512.183 300.919 507.055C302.759 505.122 304.521 503.127 306.205 501.069C307.797 499.386 308.714 497.177 308.783 494.861C308.774 493.804 308.575 492.757 308.197 491.769ZM114.14 519.67C114.386 519.494 114.632 519.307 114.866 519.12C114.796 519.295 114.456 519.494 114.14 519.67H114.14ZM117.902 515.887C117.632 516.191 117.386 516.496 117.116 516.8C116.296 517.718 115.415 518.579 114.48 519.377C114.351 519.494 114.21 519.612 114.069 519.717C114.068 519.717 114.066 519.717 114.065 519.718C114.063 519.718 114.062 519.719 114.061 519.72C114.06 519.721 114.059 519.723 114.058 519.724C114.058 519.726 114.058 519.727 114.058 519.729C113.888 519.804 113.724 519.89 113.565 519.986C113.061 520.291 112.546 520.572 112.019 520.83C110.986 521.21 109.924 521.504 108.843 521.708C108.012 521.769 107.178 521.777 106.346 521.732H106.323C105.749 521.604 105.182 521.448 104.624 521.263C104.343 521.123 104.073 520.959 103.803 520.795C103.698 520.701 103.604 520.607 103.546 520.549C103.431 520.444 103.325 520.331 103.229 520.209C103.229 520.207 103.229 520.206 103.228 520.204C103.228 520.203 103.227 520.202 103.226 520.201C103.225 520.2 103.223 520.199 103.222 520.198C103.221 520.197 103.219 520.197 103.218 520.197C103.089 519.963 102.948 519.729 102.819 519.494C102.812 519.488 102.808 519.48 102.807 519.471C102.714 519.178 102.632 518.874 102.561 518.569C102.536 518.034 102.54 517.499 102.573 516.964C102.73 516.216 102.942 515.48 103.206 514.762C103.443 514.253 103.713 513.76 104.014 513.286C104.038 513.24 104.155 513.052 104.284 512.841C104.296 512.83 104.296 512.83 104.296 512.818C104.471 512.619 104.647 512.408 104.835 512.221C105.151 511.869 105.491 511.565 105.831 511.248C106.492 510.816 107.177 510.421 107.882 510.065C109.001 509.668 110.149 509.359 111.315 509.14C113.036 509.003 114.766 509.019 116.484 509.187C118.111 509.469 119.716 509.864 121.288 510.37C120.336 512.218 119.251 513.995 118.042 515.688C117.995 515.758 117.948 515.828 117.902 515.887ZM104.87 512.033C104.767 512.199 104.645 512.352 104.507 512.49C104.6 512.317 104.723 512.163 104.87 512.033Z" fill="#3F3D56"/>
<path d="M272.97 372.142C272.864 375.82 272.759 379.498 272.653 383.176C272.43 391.34 272.2 399.508 271.962 407.68C271.716 416.875 271.458 426.066 271.188 435.253C271.059 439.997 270.927 444.74 270.79 449.484C270.427 462.263 270.067 475.039 269.712 487.81C269.677 489.134 269.63 490.445 269.594 491.769C269.419 498.106 269.243 504.443 269.067 510.78C268.868 517.655 268.673 524.531 268.481 531.407C268.341 536.561 268.196 541.718 268.048 546.88C266.993 584.28 265.938 621.681 264.883 659.081C264.839 661.397 263.899 663.606 262.26 665.244C260.621 666.882 258.411 667.822 256.094 667.866C253.769 667.847 251.544 666.916 249.9 665.272C248.255 663.629 247.323 661.405 247.305 659.081C247.891 638.044 248.484 617.007 249.086 595.97C249.613 576.948 250.149 557.925 250.692 538.903C250.867 532.637 251.043 526.366 251.219 520.092C251.488 510.651 251.754 501.21 252.016 491.769C252.051 490.445 252.098 489.134 252.133 487.81C252.156 486.65 252.192 485.503 252.227 484.343C252.742 466.012 253.258 447.676 253.774 429.337C253.985 422.122 254.188 414.903 254.383 407.68C254.617 399.445 254.852 391.215 255.086 382.988C255.192 379.369 255.285 375.761 255.391 372.142C255.435 369.826 256.376 367.617 258.015 365.979C259.653 364.341 261.863 363.401 264.18 363.357C266.506 363.375 268.73 364.307 270.375 365.95C272.019 367.594 272.951 369.818 272.97 372.142Z" fill="#3F3D56"/>
<path d="M755.133 374.579C745.917 409.461 734.901 443.843 722.131 477.587C718.607 486.895 715.002 496.184 711.148 505.362L712.034 503.263C710.314 507.634 708.117 511.803 705.484 515.693C705.305 515.944 705.122 516.192 704.937 516.438C705.847 515.274 706.02 515.045 705.456 515.748C705.158 516.101 704.864 516.454 704.556 516.797C703.736 517.715 702.855 518.577 701.92 519.378C701.685 519.579 701.446 519.776 701.203 519.969L702.303 519.115C702.175 519.415 701.28 519.815 701.001 519.985C700.098 520.529 699.156 521.007 698.183 521.412L700.282 520.527C698.687 521.169 697.023 521.625 695.324 521.886L697.66 521.572C695.99 521.803 694.298 521.821 692.624 521.626L694.96 521.94C693.59 521.751 692.249 521.391 690.97 520.866L693.069 521.751C692.387 521.454 691.729 521.103 691.102 520.702C690.784 520.495 689.807 519.755 691.085 520.731C692.413 521.745 691.255 520.818 690.982 520.548C690.754 520.324 690.549 520.08 690.326 519.851C689.292 518.792 691.494 521.674 690.791 520.435C690.415 519.814 690.072 519.174 689.762 518.518L690.648 520.617C690.245 519.618 689.958 518.576 689.795 517.511L690.109 519.846C689.941 518.522 689.94 517.182 690.105 515.858L689.791 518.193C690.006 516.715 690.397 515.268 690.957 513.883L690.071 515.981C690.461 515.05 690.922 514.15 691.451 513.289C691.695 512.844 691.981 512.424 692.305 512.034C692.363 512.053 690.818 513.806 691.638 512.921C691.852 512.689 692.053 512.445 692.269 512.216C692.616 511.848 692.988 511.512 693.354 511.164C694.578 509.999 691.641 512.295 693.053 511.374C694.077 510.701 695.155 510.114 696.275 509.618L694.176 510.503C696.052 509.733 698.019 509.205 700.03 508.934L697.693 509.248C700.211 508.958 702.755 508.988 705.265 509.337L702.928 509.023C706.106 509.505 709.213 510.378 712.176 511.624L710.077 510.738C716.393 513.448 721.987 517.472 727.571 521.418C732.965 525.322 738.648 528.809 744.571 531.851C757.313 538.183 771.029 542.33 785.145 544.119C805.391 546.597 825.935 543.955 844.893 536.433C863.85 528.912 880.615 516.752 893.648 501.07C895.238 499.385 896.154 497.174 896.222 494.858C896.205 492.532 895.282 490.303 893.648 488.646C890.423 485.688 884.332 484.853 881.218 488.646C878.266 492.248 875.094 495.662 871.717 498.869C870.141 500.363 868.523 501.812 866.863 503.214C865.915 504.015 864.954 504.8 863.979 505.57C863.518 505.934 862.082 506.903 864.287 505.338C863.782 505.697 863.297 506.089 862.798 506.457C855.418 511.895 847.42 516.442 838.971 520.003L841.07 519.117C832.004 522.919 822.482 525.526 812.744 526.874L815.08 526.561C805.062 527.878 794.914 527.863 784.899 526.516L787.236 526.83C777.224 525.455 767.432 522.79 758.106 518.9L760.205 519.785C751.205 515.805 742.664 510.86 734.732 505.037C730.604 501.982 726.25 499.243 721.709 496.845C716.418 494.144 710.689 492.403 704.789 491.704C693.727 490.403 682.455 494.709 676.374 504.261C670.778 513.052 670.85 525.63 678.687 533.105C686.759 540.804 698.983 540.739 708.495 535.923C717.657 531.285 723.16 521.65 727.029 512.565C735.738 492.119 743.448 471.201 750.632 450.176C757.738 429.376 764.183 408.365 769.966 387.144C770.683 384.515 771.388 381.884 772.084 379.25C773.257 374.813 770.606 369.505 765.945 368.444C763.699 367.866 761.315 368.183 759.298 369.327C757.281 370.472 755.788 372.355 755.133 374.58L755.133 374.579Z" fill="#3F3D56"/>
<path d="M842.825 372.141L839.661 484.346L836.514 595.966L834.734 659.082C834.754 661.406 835.687 663.629 837.331 665.272C838.975 666.915 841.199 667.847 843.524 667.867C845.841 667.822 848.051 666.882 849.689 665.244C851.328 663.606 852.268 661.398 852.313 659.082L855.477 546.877L858.624 435.256L860.403 372.141C860.384 369.817 859.451 367.594 857.807 365.951C856.163 364.308 853.939 363.376 851.614 363.356C849.297 363.401 847.087 364.341 845.449 365.979C843.81 367.617 842.87 369.825 842.825 372.141Z" fill="#3F3D56"/>
<path opacity="0.2" d="M538.599 627.754H541.328V503.545H604.997V500.824H541.328V448.414H590.496C589.776 447.498 589.034 446.593 588.271 445.7H541.328V411.084C540.425 410.699 539.516 410.328 538.599 409.979V445.7H485.099V401.348C484.182 401.39 483.279 401.452 482.369 401.529V445.7H439.688V412.609C438.771 413.014 437.869 413.441 436.973 413.889V445.7H401.094V448.414H436.973V500.824H401.094V503.545H436.973V627.754H439.688V503.545C445.293 503.544 450.844 504.646 456.023 506.79C461.202 508.933 465.907 512.076 469.871 516.037C473.834 519.999 476.978 524.702 479.123 529.878C481.267 535.054 482.37 540.602 482.369 546.205V627.754H485.099V503.545H538.599V627.754ZM439.688 500.824V448.414H482.369V500.824H439.688ZM485.099 500.824V448.414H486.169C493.055 448.414 499.873 449.77 506.234 452.404C512.596 455.039 518.376 458.899 523.244 463.766C528.113 468.633 531.974 474.41 534.609 480.769C537.244 487.127 538.599 493.942 538.599 500.824H485.099Z" fill="black"/>
<path d="M521.935 590.512C518.499 605.831 510.269 619.658 498.438 629.985C497.571 630.735 496.704 631.461 495.802 632.176C493.61 632.375 491.434 632.578 489.274 632.785C487.481 632.949 485.711 633.125 483.954 633.289L483.637 633.324L483.415 631.403L482.524 623.625C479.069 617.987 476.927 611.644 476.258 605.067C475.588 598.489 476.408 591.845 478.657 585.627C481.75 577.287 487.352 569.92 492.86 562.611C500.466 552.514 507.861 542.534 508.13 530.224C511.873 535.01 514.984 540.258 517.388 545.837C515.12 546.905 513.081 548.405 511.388 550.253C510.908 550.78 510.427 551.518 510.755 552.151C511.036 552.69 511.74 552.818 512.349 552.889C513.814 553.041 515.291 553.193 516.755 553.346C517.927 553.474 519.099 553.591 520.271 553.72C521.689 558.372 522.651 563.15 523.142 567.987C523.932 575.512 523.525 583.114 521.935 590.512Z" fill="#3F3D56"/>
<path d="M560.843 559.811C553.929 564.836 549.886 572.064 546.745 580.029C543.526 581.058 540.631 582.907 538.343 585.393C537.862 585.92 537.382 586.658 537.71 587.291C537.991 587.83 538.694 587.958 539.304 588.029C540.768 588.181 542.245 588.333 543.71 588.486C540.569 597.903 537.686 607.648 532.131 615.602C528.437 620.853 523.622 625.218 518.033 628.381C516.51 629.249 514.937 630.027 513.322 630.712C507.369 631.169 501.529 631.657 495.802 632.176C493.611 632.375 491.435 632.578 489.275 632.785C487.482 632.949 485.712 633.125 483.954 633.289C483.942 632.644 483.942 632 483.954 631.356C484.325 614.195 490.641 597.693 501.826 584.667C502.353 584.058 502.892 583.461 503.443 582.863C509.109 576.814 515.773 571.782 523.143 567.987C534.756 561.952 547.772 559.129 560.843 559.811Z" fill="#0674BB"/>
<path d="M491.299 626.776L489.951 630.759L489.271 632.785C487.478 632.949 485.709 633.125 483.951 633.289L483.634 633.324C481.689 633.523 479.755 633.722 477.822 633.921C477.318 633.336 476.814 632.738 476.322 632.129C464.089 617.324 458.218 598.281 459.99 579.162C461.762 560.043 471.034 542.402 485.779 530.095C484.232 538.189 486.037 545.943 489.002 553.639C488.685 553.767 488.381 553.896 488.088 554.037C485.819 555.104 483.781 556.604 482.088 558.453C481.607 558.98 481.127 559.718 481.455 560.35C481.736 560.889 482.439 561.018 483.049 561.088C484.513 561.24 485.99 561.393 487.455 561.545C488.627 561.674 489.799 561.791 490.971 561.92C491.521 561.978 492.072 562.037 492.623 562.096C492.705 562.271 492.775 562.435 492.857 562.611C496.197 569.85 499.795 577.124 501.823 584.667C502.331 586.559 502.73 588.48 503.018 590.418C503.92 596.969 503.336 603.639 501.307 609.933C499.278 616.227 495.857 621.984 491.299 626.776Z" fill="#0674BB"/>
<path d="M609.261 456.888C599.172 437.219 583.542 420.669 565.159 408.508C546.717 396.363 525.555 388.967 503.56 386.979C500.677 386.717 497.786 386.564 494.889 386.519C491.465 386.468 439.966 401.315 422.714 413.438C405.472 425.414 391.288 441.274 381.307 459.737C371.344 478.302 366.443 499.16 367.097 520.217C367.951 541.4 373.859 562.073 384.327 580.512C394.653 598.891 409.315 614.47 427.037 625.896C445.011 637.359 463.067 667.754 484.29 668.827C505.672 669.908 530.058 641.236 549.56 632.531C569.062 623.753 585.921 610.02 598.459 592.7C610.641 575.727 618.523 556.053 621.427 535.366C624.443 514.185 623.037 492.34 615.8 472.095C613.943 466.894 611.759 461.814 609.261 456.888C607.175 452.782 601.062 451.27 597.235 453.736C595.264 454.95 593.836 456.876 593.249 459.114C592.661 461.353 592.96 463.731 594.082 465.756C595.307 468.167 596.446 470.618 597.499 473.109L596.612 471.01C600.597 480.586 603.306 490.643 604.671 500.924L604.357 498.588C605.809 509.742 605.783 521.038 604.28 532.185L604.594 529.849C603.074 540.995 600.098 551.893 595.74 562.265L596.626 560.166C594.385 565.458 591.772 570.585 588.808 575.509C587.305 577.996 585.711 580.426 584.026 582.796C583.285 583.837 582.522 584.859 581.753 585.878C580.75 587.208 583.121 584.141 582.084 585.445C581.908 585.668 581.732 585.891 581.555 586.112C581.022 586.777 580.483 587.436 579.935 588.089C576.281 592.446 572.294 596.513 568.009 600.252C566.942 601.183 565.857 602.093 564.754 602.982C564.205 603.425 563.662 603.887 563.089 604.3C563.111 604.284 564.94 602.895 563.857 603.701C563.517 603.955 563.179 604.212 562.838 604.465C560.565 606.148 558.231 607.746 555.837 609.258C550.325 612.728 544.542 615.75 538.544 618.292L540.644 617.407C530.298 621.76 519.425 624.734 508.303 626.252L510.64 625.938C499.523 627.44 488.257 627.46 477.136 625.997L479.472 626.311C469.364 624.955 459.477 622.283 450.063 618.364L452.162 619.25C446.709 616.949 441.451 614.21 436.44 611.061C433.96 609.5 431.544 607.841 429.193 606.086C428.858 605.836 428.525 605.582 428.191 605.33C427.118 604.521 428.962 605.927 428.977 605.937C428.353 605.49 427.752 605.011 427.178 604.502C426.042 603.578 424.924 602.632 423.824 601.665C419.423 597.791 415.313 593.598 411.527 589.121C410.58 588.002 409.652 586.865 408.745 585.712C408.352 585.213 407.636 584.201 409.219 586.331C409.011 586.051 408.795 585.776 408.584 585.497C408.079 584.828 407.581 584.153 407.089 583.473C405.368 581.093 403.732 578.655 402.181 576.157C398.677 570.505 395.619 564.588 393.034 558.461L393.92 560.559C389.691 550.502 386.799 539.933 385.318 529.124L385.632 531.46C384.296 521.496 384.277 511.4 385.575 501.432L385.261 503.767C386.592 494.114 389.191 484.678 392.989 475.703L392.103 477.802C394.493 472.183 397.312 466.757 400.535 461.572C402.149 458.976 403.859 456.445 405.666 453.976C406.076 453.415 406.491 452.857 406.911 452.303C407.29 451.802 408.335 450.554 406.553 452.758C406.728 452.542 406.896 452.32 407.068 452.102C408.059 450.847 409.075 449.611 410.114 448.395C414.049 443.791 418.312 439.476 422.869 435.486C424.02 434.477 425.19 433.49 426.378 432.524C426.918 432.085 427.461 431.65 428.008 431.22C428.227 431.048 428.449 430.879 428.666 430.706C426.326 432.568 428.016 431.213 428.547 430.815C430.996 428.981 433.51 427.239 436.089 425.589C441.823 421.924 447.855 418.748 454.121 416.092L452.021 416.978C461.115 413.161 501.407 404.153 508.735 405.136L506.398 404.822C517.169 406.325 527.696 409.232 537.712 413.47L535.612 412.584C540.687 414.738 545.619 417.214 550.378 419.998C552.756 421.391 555.087 422.86 557.372 424.405C558.452 425.136 559.522 425.884 560.58 426.648C561.109 427.03 561.635 427.416 562.158 427.806C562.449 428.023 562.737 428.242 563.027 428.46C564.245 429.372 561.349 427.138 562.626 428.147C566.899 431.503 570.957 435.123 574.776 438.986C576.652 440.895 578.463 442.865 580.21 444.895C581.106 445.937 581.984 446.994 582.843 448.067C583.27 448.6 584.724 450.528 582.942 448.166C583.377 448.743 583.818 449.317 584.248 449.898C587.951 454.908 591.24 460.212 594.082 465.756C596.183 469.853 602.27 471.38 606.107 468.907C608.08 467.694 609.508 465.768 610.095 463.529C610.683 461.291 610.384 458.912 609.261 456.888Z" fill="#3F3D56"/>
<path d="M506.849 600.252C505.942 600.294 505.044 600.056 504.276 599.57C503.509 599.085 502.909 598.375 502.559 597.537C502.209 596.7 502.124 595.775 502.317 594.888C502.511 594.001 502.972 593.195 503.639 592.578C503.75 592.135 503.831 591.816 503.942 591.372C503.902 591.276 503.862 591.179 503.822 591.083C499.744 581.363 473.721 608.457 472.596 617.592C472.101 621.63 472.31 625.723 473.214 629.689C464.785 611.311 460.408 591.336 460.379 571.119C460.378 566.046 460.66 560.977 461.224 555.935C461.691 551.802 462.338 547.698 463.166 543.624C467.684 521.517 477.384 500.797 491.469 483.164C499.525 483.614 506.585 482.387 507.266 466.783C507.388 464.007 509.447 461.604 509.901 458.869C509.132 458.97 508.351 459.033 507.581 459.084C507.342 459.096 507.09 459.109 506.85 459.121L506.76 459.125C505.915 459.163 505.077 458.956 504.346 458.529C503.616 458.102 503.025 457.473 502.644 456.718C502.263 455.963 502.109 455.114 502.2 454.273C502.29 453.432 502.622 452.636 503.155 451.979C503.488 451.57 503.82 451.162 504.152 450.754C504.657 450.124 505.174 449.507 505.678 448.877C505.736 448.817 505.791 448.754 505.842 448.688C506.422 447.969 507.002 447.264 507.582 446.545C506.523 444.903 505.099 443.528 503.421 442.526C497.609 439.124 489.591 441.48 485.392 446.734C481.182 451.989 480.387 459.361 481.85 465.926C483.288 471.512 485.667 476.813 488.885 481.601C488.57 482.005 488.242 482.395 487.927 482.799C482.165 490.204 477.143 498.155 472.934 506.539C474.125 497.24 459.56 463.659 453.928 456.546C447.162 448.003 433.289 451.731 432.097 462.562C432.086 462.667 432.074 462.772 432.063 462.876C432.9 463.348 433.719 463.849 434.52 464.378C435.527 465.051 436.307 466.011 436.758 467.134C437.209 468.257 437.31 469.49 437.048 470.671C436.787 471.852 436.174 472.927 435.29 473.754C434.407 474.582 433.294 475.123 432.098 475.307L431.975 475.326C420.777 491.307 456.676 532.902 465.662 523.563C461.433 535.543 458.78 548.022 457.77 560.686C457.198 568.157 457.232 575.662 457.871 583.128L457.833 582.863C455.836 566.603 421.584 542.426 411.582 544.44C405.82 545.6 400.144 545.336 401.019 551.146C401.033 551.238 401.047 551.331 401.062 551.424C402.614 552.056 404.126 552.784 405.588 553.604C406.424 554.076 407.243 554.576 408.045 555.106C409.051 555.778 409.831 556.739 410.282 557.861C410.734 558.984 410.835 560.217 410.573 561.398C410.311 562.58 409.698 563.654 408.815 564.482C407.931 565.309 406.819 565.85 405.622 566.035L405.5 566.054C405.411 566.066 405.336 566.079 405.248 566.092C400.15 583.622 437.953 611.914 460.934 602.912H460.947C463.224 612.803 466.524 622.432 470.793 631.642H505.968C506.094 631.251 506.207 630.848 506.321 630.457C503.065 630.662 499.796 630.467 496.588 629.878C499.198 626.677 501.807 623.451 504.417 620.251C504.475 620.191 504.53 620.128 504.581 620.062C505.905 618.424 507.241 616.798 508.565 615.16L508.566 615.158C508.636 610.137 508.06 605.127 506.85 600.253L506.849 600.252ZM466.57 521.055L466.588 521.03L466.57 521.081V521.055ZM458.778 591.256L458.476 590.575C458.488 590.084 458.488 589.592 458.476 589.088C458.476 588.95 458.451 588.811 458.451 588.672C458.564 589.542 458.665 590.411 458.791 591.281L458.778 591.256Z" fill="#3F3D56"/>
<path d="M111.625 527.096C118.745 527.096 124.516 521.328 124.516 514.212C124.516 507.096 118.745 501.327 111.625 501.327C104.506 501.327 98.7344 507.096 98.7344 514.212C98.7344 521.328 104.506 527.096 111.625 527.096Z" fill="#3F3D56"/>
<path d="M266.313 667.655C273.432 667.655 279.204 661.887 279.204 654.771C279.204 647.655 273.432 641.886 266.313 641.886C259.193 641.886 253.422 647.655 253.422 654.771C253.422 661.887 259.193 667.655 266.313 667.655Z" fill="#3F3D56"/>
<path d="M853.446 667.655C860.565 667.655 866.337 661.887 866.337 654.771C866.337 647.655 860.565 641.886 853.446 641.886C846.326 641.886 840.555 647.655 840.555 654.771C840.555 661.887 846.326 667.655 853.446 667.655Z" fill="#3F3D56"/>
<path d="M885.086 503.67C892.206 503.67 897.977 497.901 897.977 490.785C897.977 483.669 892.206 477.901 885.086 477.901C877.967 477.901 872.195 483.669 872.195 490.785C872.195 497.901 877.967 503.67 885.086 503.67Z" fill="#3F3D56"/>
<path d="M847.586 384.195C854.706 384.195 860.477 378.426 860.477 371.31C860.477 364.194 854.706 358.425 847.586 358.425C840.467 358.425 834.695 364.194 834.695 371.31C834.695 378.426 840.467 384.195 847.586 384.195Z" fill="#3F3D56"/>
<path d="M309.678 490.785C309.67 494.076 308.397 497.239 306.122 499.618C303.846 501.996 300.743 503.41 297.453 503.566C294.164 503.721 290.941 502.607 288.451 500.453C285.961 498.3 284.395 495.272 284.076 491.996C283.757 488.72 284.711 485.447 286.739 482.855C288.768 480.262 291.716 478.548 294.973 478.068C298.231 477.587 301.549 478.377 304.24 480.273C306.931 482.169 308.79 485.027 309.432 488.255C309.597 489.088 309.68 489.936 309.678 490.785Z" fill="#3F3D56"/>
<path d="M567.5 421.677C574.62 421.677 580.391 415.908 580.391 408.792C580.391 401.676 574.62 395.908 567.5 395.908C560.381 395.908 554.609 401.676 554.609 408.792C554.609 415.908 560.381 421.677 567.5 421.677Z" fill="#3F3D56"/>
<path d="M439.756 408.793C439.749 412.084 438.475 415.246 436.2 417.625C433.924 420.004 430.821 421.417 427.532 421.573C424.242 421.728 421.019 420.614 418.529 418.461C416.039 416.307 414.473 413.279 414.154 410.003C413.835 406.728 414.789 403.455 416.817 400.862C418.846 398.27 421.794 396.556 425.051 396.075C428.309 395.594 431.627 396.384 434.318 398.28C437.009 400.177 438.868 403.034 439.51 406.262C439.676 407.096 439.758 407.943 439.756 408.793Z" fill="#3F3D56"/>
<path d="M273.35 371.31C273.342 374.601 272.069 377.764 269.793 380.142C267.518 382.521 264.414 383.935 261.125 384.09C257.836 384.246 254.613 383.132 252.123 380.978C249.633 378.825 248.066 375.797 247.748 372.521C247.429 369.245 248.383 365.972 250.411 363.38C252.44 360.787 255.388 359.073 258.645 358.593C261.903 358.112 265.22 358.902 267.912 360.798C270.603 362.694 272.462 365.552 273.104 368.78C273.269 369.613 273.352 370.461 273.35 371.31Z" fill="#3F3D56"/>
<path d="M702.266 531.782C709.386 531.782 715.157 526.013 715.157 518.897C715.157 511.781 709.386 506.012 702.266 506.012C695.147 506.012 689.375 511.781 689.375 518.897C689.375 526.013 695.147 531.782 702.266 531.782Z" fill="#3F3D56"/>
<path d="M499.524 414.649C509.88 414.649 518.275 406.258 518.275 395.908C518.275 385.557 509.88 377.167 499.524 377.167C489.168 377.167 480.773 385.557 480.773 395.908C480.773 406.258 489.168 414.649 499.524 414.649Z" fill="#3F3D56"/>
<path d="M1006.6 668.64L1.39537 669C1.21212 669 1.03067 668.964 0.861375 668.894C0.692081 668.824 0.538265 668.721 0.408693 668.591C0.27912 668.462 0.176325 668.308 0.106201 668.139C0.036077 667.97 0 667.788 0 667.605C0 667.422 0.036077 667.241 0.106201 667.072C0.176325 666.902 0.27912 666.749 0.408693 666.619C0.538265 666.49 0.692081 666.387 0.861375 666.317C1.03067 666.247 1.21212 666.211 1.39537 666.211L1006.6 665.851C1006.97 665.852 1007.33 665.999 1007.59 666.26C1007.85 666.522 1008 666.876 1008 667.245C1008 667.614 1007.85 667.969 1007.59 668.23C1007.33 668.491 1006.97 668.639 1006.6 668.64Z" fill="#CACACA"/>
</g>
<defs>
<clipPath id="clip0_447_8241">
<rect width="1008" height="669" fill="white"/>
</clipPath>
</defs>
</svg>
