<svg width="40" height="41" viewBox="0 0 40 41" fill="none" xmlns="http://www.w3.org/2000/svg">
<path d="M1.25 32.9679H20.2816C20.8552 30.357 23.1868 28.397 25.9674 28.397C28.748 28.397 31.0796 30.357 31.6532 32.9679H38.75C39.4403 32.9679 40 33.5276 40 34.2179C40 34.9082 39.4403 35.4679 38.75 35.4679H31.6526C31.0779 38.0774 28.7431 40.0388 25.9674 40.0388C23.1902 40.0388 20.8566 38.0777 20.2821 35.4679H1.25C0.559687 35.4679 0 34.9082 0 34.2179C0 33.5276 0.559687 32.9679 1.25 32.9679ZM22.6466 34.2146C22.6466 34.2191 22.6467 34.2236 22.6467 34.2281C22.6522 36.0536 24.1418 37.5387 25.9674 37.5387C27.7905 37.5387 29.2802 36.0556 29.288 34.2309L29.2883 34.2126C29.2854 32.3839 27.7968 30.8969 25.9674 30.8969C24.1388 30.8969 22.6507 32.3824 22.6466 34.21L22.6466 34.2146ZM38.75 7.07095H31.6526C31.0778 9.6804 28.7431 11.6418 25.9674 11.6418C23.1902 11.6418 20.8566 9.68071 20.2821 7.07095H1.25C0.559687 7.07095 0 6.51134 0 5.82095C0 5.13055 0.559687 4.57095 1.25 4.57095H20.2816C20.8552 1.96009 23.1868 7.62939e-06 25.9674 7.62939e-06C28.748 7.62939e-06 31.0796 1.96009 31.6532 4.57095H38.75C39.4403 4.57095 40 5.13055 40 5.82095C40 6.51134 39.4403 7.07095 38.75 7.07095ZM25.9674 2.50001C24.1388 2.50001 22.6507 3.98555 22.6466 5.81313L22.6466 5.81767C22.6466 5.82219 22.6467 5.82665 22.6467 5.8311C22.6522 7.65665 24.1418 9.14181 25.9674 9.14181C27.7905 9.14181 29.2802 7.65876 29.288 5.83415L29.2883 5.81579C29.2856 3.98689 27.797 2.50001 25.9674 2.50001ZM38.75 21.2694H19.7184C19.1448 23.8802 16.8132 25.8402 14.0326 25.8402C11.252 25.8402 8.92039 23.8802 8.3468 21.2694H1.25C0.559687 21.2694 0 20.7097 0 20.0194C0 19.329 0.559687 18.7694 1.25 18.7694H8.34742C8.92219 16.1599 11.2569 14.1985 14.0326 14.1985C16.8098 14.1985 19.1434 16.1596 19.7179 18.7694H38.75C39.4403 18.7694 40 19.329 40 20.0194C40 20.7097 39.4403 21.2694 38.75 21.2694ZM17.3534 20.0227C17.3534 20.0181 17.3533 20.0137 17.3533 20.0092C17.3478 18.1837 15.8582 16.6986 14.0326 16.6986C12.2095 16.6986 10.7198 18.1816 10.712 20.0063L10.7117 20.0245C10.7145 21.8534 12.2031 23.3402 14.0326 23.3402C15.8612 23.3402 17.3493 21.8548 17.3534 20.0271L17.3534 20.0227Z" fill="#0674BB"/>
</svg>
