<svg width="595" height="393" viewBox="0 0 595 393" fill="none" xmlns="http://www.w3.org/2000/svg">
<g clip-path="url(#clip0_430_2138)">
<path d="M388.325 171.601C387.639 175.218 386.817 178.798 385.858 182.342C385.754 182.754 385.638 183.159 385.521 183.571H372.183C371.047 183.572 369.958 184.025 369.154 184.831C368.351 185.637 367.899 186.73 367.898 187.87V226.021C367.494 226.777 367.084 227.526 366.674 228.275C364.556 232.145 362.352 235.971 360.099 239.748C323.367 301.137 272.135 352.509 210.927 389.327L214.552 381.122C213.223 381.03 211.889 380.938 210.56 380.846C181.637 378.862 152.615 376.663 124.371 370.141C94.8235 363.318 65.9185 351.483 42.7613 331.86C19.5978 312.232 2.61729 284.201 0.260498 253.874C-0.525366 243.451 0.525271 232.971 3.36422 222.914C8.79366 203.555 20.6571 186.138 37.7725 175.832C64.6575 159.649 99.7269 162.947 128.069 176.409C156.404 189.866 179.47 212.141 201.991 234.03C179.253 194.91 147.594 161.755 109.613 137.287C97.0272 129.205 83.6705 122.007 72.9703 111.535C62.2762 101.07 54.3856 86.3977 56.2774 71.5289C58.4258 54.6639 72.1929 41.8648 85.9842 31.9952C91.4935 28.0523 97.1802 24.312 103.045 20.8727C119.591 11.1444 137.49 3.80514 156.392 1.0844C181.998 -2.60672 209.654 2.99445 229.286 19.8962C251.402 38.9414 260.474 69.6556 259.611 99.0372C273.237 79.1629 294.252 63.9501 317.984 63.3052C342.623 62.6419 366.043 78.2601 378.384 99.6698C390.719 121.073 392.934 147.31 388.325 171.601Z" fill="#E6E6E6"/>
<path d="M232.437 254.141C246.868 252.866 260.199 251.376 274.182 247.406C287.737 243.558 300.781 237.116 310.43 226.597C320.809 215.283 326.411 200.59 330.364 185.963C332.568 177.808 334.379 169.54 336.087 161.268C337.941 152.293 339.588 143.278 341.029 134.224C343.897 116.202 345.944 98.0728 347.171 79.8378C347.319 77.6244 347.455 75.4101 347.578 73.1951C347.655 71.8288 345.537 71.8331 345.46 73.1951C344.452 91.1696 342.639 109.074 340.021 126.908C337.438 144.43 334.132 161.877 329.938 179.085C326.385 193.662 321.785 208.468 312.672 220.603C304.127 231.983 291.785 239.42 278.458 243.866C264.898 248.391 250.6 250.197 236.429 251.54C234.691 251.705 234.176 251.862 232.437 252.016C231.09 252.135 231.077 254.261 232.437 254.141L232.437 254.141Z" fill="white"/>
<path d="M4.58241 224.482C22.7896 225.495 40.8116 228.681 58.2673 233.973C75.7305 239.254 92.5121 246.583 108.264 255.807C123.485 264.728 137.615 275.402 150.367 287.613C162.743 299.47 173.773 312.665 183.256 326.957C192.781 341.285 200.675 356.639 206.79 372.732C207.536 374.702 208.254 376.682 208.945 378.672C209.391 379.955 211.438 379.403 210.987 378.107C205.266 361.674 197.725 345.937 188.504 331.192C179.285 316.447 168.466 302.772 156.244 290.417C143.827 277.872 130.007 266.806 115.06 257.442C83.6745 237.827 48.0999 225.961 11.2568 222.818C9.03438 222.631 6.80958 222.477 4.58244 222.357C3.22043 222.282 3.22461 224.407 4.58244 224.482L4.58241 224.482Z" fill="white"/>
<path d="M103.613 23.3638C115.254 27.0784 126.289 32.4884 136.363 39.4206C146.657 46.5523 156.046 54.9177 164.321 64.3311C173.041 74.2337 180.793 84.9531 187.472 96.3419C194.555 108.367 200.709 120.919 205.879 133.889C211.202 147.204 215.679 160.845 219.283 174.728C222.947 188.776 225.809 203.022 227.855 217.397C229.89 231.619 231.122 245.946 231.544 260.308C231.97 274.041 231.565 287.788 230.333 301.472C229.205 314.238 227.147 326.905 224.173 339.369C221.532 350.627 217.81 361.602 213.06 372.139C211.959 374.531 210.791 376.889 209.557 379.215C208.916 380.421 210.744 381.496 211.386 380.287C216.635 370.222 220.827 359.637 223.894 348.701C227.334 336.528 229.828 324.105 231.353 311.545C233.043 297.917 233.867 284.196 233.818 270.464C233.787 256.037 232.931 241.624 231.254 227.296C229.576 212.788 227.085 198.388 223.792 184.162C220.507 169.913 216.341 155.883 211.316 142.153C206.474 128.863 200.675 115.943 193.967 103.495C187.578 91.6164 180.133 80.3415 171.721 69.8074C163.733 59.7774 154.614 50.71 144.545 42.7865C134.836 35.1692 124.107 28.9601 112.674 24.3417C109.88 23.2259 107.047 22.2169 104.176 21.3146C102.873 20.9032 102.315 22.9541 103.613 23.3638H103.613Z" fill="white"/>
<path d="M229.246 393C312.92 393 380.75 390.25 380.75 386.858C380.75 383.466 312.92 380.717 229.246 380.717C145.573 380.717 77.7422 383.466 77.7422 386.858C77.7422 390.25 145.573 393 229.246 393Z" fill="#E6E6E6"/>
<path d="M363.101 194.496C363.026 194.828 362.977 195.164 362.954 195.503L336.658 210.724L330.267 207.032L323.453 215.982L337.127 225.76L367.126 202.014C368.35 202.469 369.682 202.538 370.946 202.214C372.21 201.89 373.346 201.188 374.202 200.201C375.059 199.213 375.595 197.988 375.741 196.687C375.886 195.386 375.633 194.072 375.016 192.918C374.398 191.765 373.446 190.828 372.285 190.231C371.123 189.635 369.809 189.407 368.515 189.578C367.222 189.749 366.011 190.312 365.044 191.19C364.077 192.069 363.399 193.222 363.101 194.496Z" fill="#FFB8B8"/>
<path d="M303.219 203.834L323.924 218.64L333.185 206.991L313.058 190.788C312.192 190.091 311.193 189.578 310.123 189.282C309.053 188.986 307.933 188.912 306.834 189.065C305.734 189.217 304.677 189.594 303.727 190.171C302.778 190.748 301.956 191.514 301.311 192.421C300.056 194.188 299.551 196.383 299.909 198.524C300.267 200.664 301.458 202.574 303.219 203.834Z" fill="#0674BB"/>
<path d="M260.477 372.77L267.737 374.678L278.528 347.493L267.814 344.676L260.477 372.77Z" fill="#FFB8B8"/>
<path d="M279.969 385.123L257.153 379.125L259.463 370.28L273.463 373.961C275.801 374.576 277.8 376.097 279.02 378.19C280.24 380.283 280.581 382.777 279.969 385.123Z" fill="#2F2E41"/>
<path d="M325.012 377.956L332.4 376.632L330.825 347.412L319.922 349.366L325.012 377.956Z" fill="#FFB8B8"/>
<path d="M347.867 380.962L324.649 385.123L323.046 376.122L337.294 373.569C338.472 373.358 339.68 373.381 340.849 373.639C342.018 373.896 343.125 374.382 344.107 375.068C345.088 375.755 345.926 376.628 346.571 377.64C347.216 378.651 347.657 379.78 347.867 380.962Z" fill="#2F2E41"/>
<path d="M310.462 163.065C312.282 163.51 313.763 165.371 314.653 167.527C315.473 169.792 316.029 172.144 316.308 174.538C317.007 178.994 317.678 183.819 316.233 187.947C314.538 192.785 310.024 195.319 306.108 194.128C302.193 192.937 299.079 188.468 298.014 183.322C297.046 178.124 297.67 172.752 299.805 167.917C300.917 165.376 302.45 163.032 304.488 161.885C305.487 161.279 306.678 161.075 307.822 161.314C308.965 161.553 309.976 162.217 310.651 163.174" fill="#2F2E41"/>
<path d="M320.762 243.758L334.827 370.149L323.211 374.575L301.786 289.821L271.957 367.314L259.242 368.023C259.242 368.023 276.688 247.443 289.617 244.703L320.762 243.758Z" fill="#2F2E41"/>
<path d="M308.949 179.195C317.252 179.195 323.983 172.442 323.983 164.111C323.983 155.78 317.252 149.026 308.949 149.026C300.645 149.026 293.914 155.78 293.914 164.111C293.914 172.442 300.645 179.195 308.949 179.195Z" fill="#FFB8B8"/>
<path d="M315.403 185.524L299.156 183.397C299.156 183.397 288.56 196.155 289.266 218.125C289.972 240.096 287.5 246.829 287.5 246.829L321.376 247.443C316.479 240.688 336.962 201.887 315.403 185.524Z" fill="#0674BB"/>
<path d="M324.129 250.514C323.79 250.517 323.452 250.546 323.118 250.602L302.333 228.402L304.452 221.315L294.209 216.708L287.852 232.3L317.756 256.166C317.595 257.465 317.832 258.782 318.436 259.943C319.039 261.103 319.981 262.052 321.135 262.662C322.289 263.273 323.601 263.516 324.896 263.361C326.192 263.205 327.409 262.657 328.387 261.79C329.364 260.923 330.055 259.778 330.369 258.508C330.682 257.237 330.602 255.901 330.14 254.677C329.678 253.453 328.855 252.399 327.781 251.655C326.708 250.912 325.434 250.514 324.129 250.514Z" fill="#FFB8B8"/>
<path d="M301.361 194.161L291.734 217.771L305.156 224.15L316.271 200.784C316.749 199.778 317.018 198.686 317.061 197.573C317.103 196.46 316.919 195.35 316.519 194.311C316.119 193.272 315.512 192.325 314.734 191.53C313.957 190.735 313.026 190.107 311.999 189.685C311.007 189.278 309.946 189.071 308.875 189.076C307.804 189.081 306.744 189.297 305.756 189.712C304.768 190.128 303.872 190.735 303.118 191.498C302.364 192.261 301.767 193.166 301.361 194.161Z" fill="#0674BB"/>
<path d="M305.019 177.825C307.375 176.461 307.626 173.172 307.306 170.462C306.986 167.752 306.451 164.732 308.038 162.516C309.933 159.872 313.74 159.819 316.985 159.733C320.229 159.647 324.181 158.693 325.022 155.548C325.577 153.469 324.388 151.239 322.683 149.934C320.977 148.63 318.843 148.053 316.769 147.505C312.13 146.278 307.339 145.042 302.588 145.716C297.883 146.383 293.629 148.883 290.746 152.673C287.863 156.464 286.584 161.241 287.185 165.971C287.954 172.021 289.07 174.663 288.338 177.33C286.974 182.299 281.095 185.491 280.978 190.643C280.887 194.673 284.435 197.782 287.896 199.829C290.642 201.452 293.606 202.829 296.77 203.209C299.934 203.589 303.341 202.862 305.698 200.71C308.739 197.934 309.491 193.298 308.619 189.267C307.747 185.237 305.511 181.658 303.299 178.182" fill="#2F2E41"/>
<path d="M589.49 182.342H372.181C370.721 182.344 369.321 182.927 368.288 183.964C367.255 185 366.674 186.404 366.672 187.87V327.899C366.674 329.364 367.255 330.769 368.288 331.805C369.321 332.841 370.721 333.424 372.181 333.426H589.49C590.95 333.424 592.35 332.841 593.383 331.805C594.416 330.769 594.997 329.364 594.999 327.899V187.87C594.997 186.404 594.416 185 593.383 183.964C592.35 182.927 590.95 182.344 589.49 182.342ZM593.775 327.899C593.774 329.039 593.322 330.131 592.518 330.937C591.715 331.743 590.626 332.197 589.49 332.198H372.181C371.045 332.197 369.956 331.743 369.153 330.937C368.349 330.131 367.897 329.039 367.896 327.899V187.87C367.897 186.73 368.349 185.637 369.153 184.831C369.956 184.025 371.045 183.572 372.181 183.57H589.49C590.626 183.572 591.715 184.025 592.518 184.831C593.322 185.637 593.774 186.73 593.775 187.87V327.899Z" fill="#3F3D56"/>
<path d="M418.569 252.047H384.289C382.91 252.045 381.587 251.495 380.612 250.516C379.636 249.537 379.088 248.211 379.086 246.827V212.433C379.088 211.049 379.636 209.723 380.612 208.744C381.587 207.765 382.91 207.215 384.289 207.213H418.569C419.948 207.215 421.271 207.765 422.246 208.744C423.222 209.723 423.77 211.049 423.772 212.433V246.827C423.77 248.211 423.222 249.537 422.246 250.516C421.271 251.495 419.948 252.045 418.569 252.047Z" fill="#0674BB"/>
<path d="M578.17 288.595H383.51C382.455 288.595 381.443 288.175 380.697 287.426C379.95 286.677 379.531 285.662 379.531 284.603C379.531 283.545 379.95 282.529 380.697 281.78C381.443 281.032 382.455 280.611 383.51 280.611H578.17C579.225 280.611 580.237 281.032 580.983 281.78C581.73 282.529 582.149 283.545 582.149 284.603C582.149 285.662 581.73 286.677 580.983 287.426C580.237 288.175 579.225 288.595 578.17 288.595Z" fill="#CCCCCC"/>
<path d="M578.303 269.249H383.643C382.588 269.249 381.576 268.829 380.829 268.08C380.083 267.331 379.664 266.316 379.664 265.257C379.664 264.198 380.083 263.183 380.829 262.434C381.576 261.686 382.588 261.265 383.643 261.265H578.303C579.358 261.265 580.37 261.686 581.116 262.434C581.862 263.183 582.281 264.198 582.281 265.257C582.281 266.316 581.862 267.331 581.116 268.08C580.37 268.829 579.358 269.249 578.303 269.249Z" fill="#CCCCCC"/>
<path d="M482.195 242.834H453.424C452.369 242.834 451.357 242.414 450.611 241.665C449.865 240.916 449.445 239.901 449.445 238.842C449.445 237.783 449.865 236.768 450.611 236.019C451.357 235.271 452.369 234.85 453.424 234.85H482.195C483.25 234.85 484.262 235.271 485.008 236.019C485.754 236.768 486.174 237.783 486.174 238.842C486.174 239.901 485.754 240.916 485.008 241.665C484.262 242.414 483.25 242.834 482.195 242.834Z" fill="#CCCCCC"/>
<path d="M578.3 223.187H453.424C452.369 223.187 451.357 222.766 450.611 222.018C449.865 221.269 449.445 220.254 449.445 219.195C449.445 218.136 449.865 217.121 450.611 216.372C451.357 215.623 452.369 215.203 453.424 215.203H578.3C579.355 215.203 580.368 215.623 581.114 216.372C581.86 217.121 582.279 218.136 582.279 219.195C582.279 220.254 581.86 221.269 581.114 222.018C580.368 222.766 579.355 223.187 578.3 223.187Z" fill="#CCCCCC"/>
<path d="M477.298 308.249H383.51C382.455 308.249 381.443 307.828 380.697 307.079C379.95 306.331 379.531 305.315 379.531 304.256C379.531 303.198 379.95 302.182 380.697 301.434C381.443 300.685 382.455 300.264 383.51 300.264H477.298C478.353 300.264 479.365 300.685 480.111 301.434C480.858 302.182 481.277 303.198 481.277 304.256C481.277 305.315 480.858 306.331 480.111 307.079C479.365 307.828 478.353 308.249 477.298 308.249Z" fill="#CCCCCC"/>
</g>
<defs>
<clipPath id="clip0_430_2138">
<rect width="595" height="393" fill="white"/>
</clipPath>
</defs>
</svg>
