<svg width="189" height="189" viewBox="0 0 189 189" fill="none" xmlns="http://www.w3.org/2000/svg">
<path d="M94.0939 9C116.662 9 138.305 17.9647 154.263 33.9221C170.221 49.8795 179.187 71.5225 179.188 94.0902C179.189 116.658 170.225 138.302 154.268 154.26C138.312 170.219 116.669 179.186 94.1013 179.188C71.5337 179.19 49.8895 170.227 33.93 154.271C17.9705 138.315 9.00295 116.673 9 94.105C8.99705 71.5374 17.9589 49.8928 33.9142 33.9326C49.8696 17.9724 71.5114 9.00394 94.0791 9" stroke="#F2F2F2" stroke-opacity="0.85" stroke-width="17.415"/>
<path d="M94.0932 9C109.786 9 125.174 13.3397 138.555 21.5394C151.935 29.7391 162.788 41.4793 169.912 55.4621C177.037 69.4448 180.156 85.1255 178.925 100.77C177.693 116.415 172.16 131.415 162.936 144.111C153.711 156.807 141.156 166.705 126.657 172.71C112.159 178.716 96.2816 180.595 80.7816 178.14C65.2816 175.685 50.7623 168.992 38.8291 158.8C26.8959 148.608 18.0135 135.315 13.1641 120.389" stroke="#FFBE44" stroke-width="17.9537"/>
<path d="M41.9688 93V78.7812H44.4492V93H41.9688ZM47.6719 93V86.7988C47.6719 86.0892 47.6556 85.4186 47.623 84.7871C47.5905 84.1491 47.5579 83.6901 47.5254 83.4102L47.4766 82.9805H50.0449V84.3184C50.39 83.7975 50.849 83.4036 51.4219 83.1367C52.0013 82.8633 52.5612 82.7266 53.1016 82.7266C53.681 82.7266 54.1888 82.8047 54.625 82.9609C55.0612 83.1107 55.4453 83.3581 55.7773 83.7031C56.1159 84.0417 56.373 84.5104 56.5488 85.1094C56.7246 85.7083 56.8125 86.4342 56.8125 87.2871V93H54.3906V87.1211C54.3906 86.2357 54.2507 85.6107 53.9707 85.2461C53.6973 84.875 53.2415 84.6895 52.6035 84.6895C52.3691 84.6895 52.112 84.7415 51.832 84.8457C51.5521 84.9499 51.2786 85.0964 51.0117 85.2852C50.7513 85.4674 50.5332 85.7116 50.3574 86.0176C50.1816 86.3171 50.0938 86.6458 50.0938 87.0039V93H47.6719ZM68.2969 84.748H70.4258C70.901 84.748 71.3047 84.722 71.6367 84.6699C71.9688 84.6178 72.2715 84.5267 72.5449 84.3965C72.8249 84.2598 73.0332 84.0645 73.1699 83.8105C73.3066 83.5501 73.375 83.2311 73.375 82.8535C73.375 82.6452 73.3555 82.4564 73.3164 82.2871C73.2839 82.1178 73.2415 81.9714 73.1895 81.8477C73.1374 81.7174 73.0527 81.6035 72.9355 81.5059C72.8249 81.4082 72.724 81.3301 72.6328 81.2715C72.5482 81.2064 72.4115 81.1543 72.2227 81.1152C72.0404 81.0697 71.8874 81.0371 71.7637 81.0176C71.6465 80.9915 71.4642 80.9753 71.2168 80.9688C70.9694 80.9557 70.7741 80.9492 70.6309 80.9492C70.4876 80.9427 70.2663 80.9395 69.9668 80.9395H68.2969V84.748ZM65.8164 93V78.7812H69.8691C70.3444 78.7812 70.7546 78.7878 71.0996 78.8008C71.4512 78.8138 71.8288 78.8431 72.2324 78.8887C72.6426 78.9277 72.9941 78.9896 73.2871 79.0742C73.5801 79.1589 73.8763 79.2695 74.1758 79.4062C74.4818 79.5365 74.7357 79.7025 74.9375 79.9043C75.1458 80.1061 75.3314 80.3438 75.4941 80.6172C75.6634 80.8906 75.7871 81.2129 75.8652 81.584C75.9434 81.9551 75.9824 82.3717 75.9824 82.834C75.9824 83.5957 75.8587 84.2402 75.6113 84.7676C75.3704 85.2949 75.0026 85.7116 74.5078 86.0176C74.0195 86.3171 73.4466 86.5352 72.7891 86.6719C72.138 86.8021 71.3633 86.8672 70.4648 86.8672H68.2969V93H65.8164ZM78.2383 93V85.5195C78.2383 85.1289 78.222 84.722 78.1895 84.2988C78.1569 83.8757 78.1243 83.5501 78.0918 83.3223L78.043 82.9805H80.6211V84.2988C81.0182 83.778 81.4121 83.3874 81.8027 83.127C82.1999 82.86 82.6458 82.7266 83.1406 82.7266C83.4336 82.7266 83.7656 82.7754 84.1367 82.873V84.9922C83.7005 84.849 83.2969 84.7773 82.9258 84.7773C82.2552 84.7773 81.7083 84.9954 81.2852 85.4316C80.862 85.8678 80.6504 86.4993 80.6504 87.3262V93H78.2383ZM90.6016 93.2246C89.7292 93.2246 88.9512 93.0846 88.2676 92.8047C87.584 92.5182 87.0306 92.1341 86.6074 91.6523C86.1908 91.1641 85.8717 90.6107 85.6504 89.9922C85.4355 89.3672 85.3281 88.6999 85.3281 87.9902C85.3281 87.2676 85.4388 86.5938 85.6602 85.9688C85.8815 85.3372 86.2038 84.7806 86.627 84.2988C87.0566 83.8105 87.61 83.4264 88.2871 83.1465C88.9707 82.8665 89.7389 82.7266 90.5918 82.7266C91.4642 82.7266 92.2389 82.8665 92.916 83.1465C93.5931 83.4199 94.1367 83.8008 94.5469 84.2891C94.957 84.7708 95.263 85.3275 95.4648 85.959C95.6732 86.584 95.7773 87.2676 95.7773 88.0098C95.7773 88.7064 95.6699 89.3639 95.4551 89.9824C95.2402 90.5944 94.9245 91.1445 94.5078 91.6328C94.0977 92.1211 93.554 92.5085 92.877 92.7949C92.2064 93.0814 91.4479 93.2246 90.6016 93.2246ZM90.5527 91.2715C91.028 91.2715 91.4447 91.1836 91.8027 91.0078C92.1608 90.8255 92.4408 90.5781 92.6426 90.2656C92.8509 89.9466 93.0039 89.5951 93.1016 89.2109C93.2057 88.8268 93.2578 88.4102 93.2578 87.9609C93.2578 87.0039 93.0299 86.2194 92.5742 85.6074C92.125 84.9954 91.4544 84.6895 90.5625 84.6895C89.957 84.6895 89.446 84.8424 89.0293 85.1484C88.6126 85.4479 88.3099 85.8385 88.1211 86.3203C87.9388 86.8021 87.8477 87.349 87.8477 87.9609C87.8477 88.5664 87.9323 89.11 88.1016 89.5918C88.2773 90.0736 88.5736 90.474 88.9902 90.793C89.4134 91.112 89.9342 91.2715 90.5527 91.2715ZM102.945 91.1738C103.329 91.1738 103.668 91.112 103.961 90.9883C104.254 90.8581 104.492 90.6921 104.674 90.4902C104.856 90.2819 105.003 90.0345 105.113 89.748C105.23 89.4616 105.309 89.1751 105.348 88.8887C105.393 88.5957 105.416 88.2865 105.416 87.9609C105.416 86.9844 105.211 86.1966 104.801 85.5977C104.397 84.9922 103.788 84.6895 102.975 84.6895C102.415 84.6895 101.936 84.849 101.539 85.168C101.148 85.4805 100.865 85.8776 100.689 86.3594C100.514 86.8411 100.426 87.3783 100.426 87.9707C100.426 88.9733 100.631 89.7578 101.041 90.3242C101.451 90.8906 102.086 91.1738 102.945 91.1738ZM102.477 97.082C101.174 97.082 99.9049 96.8542 98.668 96.3984L99.0879 94.3086C100.064 94.8164 101.135 95.0703 102.301 95.0703C103.238 95.0703 103.971 94.8685 104.498 94.4648C105.025 94.0677 105.289 93.4655 105.289 92.6582V91.8086C104.716 92.6029 103.88 93 102.779 93C101.301 93 100.117 92.5475 99.2246 91.6426C98.3327 90.7311 97.8867 89.5072 97.8867 87.9707C97.8867 87.2676 97.9811 86.61 98.1699 85.998C98.3587 85.3796 98.6387 84.8229 99.0098 84.3281C99.3809 83.8333 99.8724 83.4427 100.484 83.1562C101.103 82.8698 101.806 82.7266 102.594 82.7266C103.212 82.7266 103.753 82.8503 104.215 83.0977C104.684 83.3451 105.045 83.6641 105.299 84.0547V82.9805H107.867C107.737 83.9701 107.672 85.0898 107.672 86.3398V91.5645C107.672 95.2428 105.94 97.082 102.477 97.082ZM110.484 93V85.5195C110.484 85.1289 110.468 84.722 110.436 84.2988C110.403 83.8757 110.37 83.5501 110.338 83.3223L110.289 82.9805H112.867V84.2988C113.264 83.778 113.658 83.3874 114.049 83.127C114.446 82.86 114.892 82.7266 115.387 82.7266C115.68 82.7266 116.012 82.7754 116.383 82.873V84.9922C115.947 84.849 115.543 84.7773 115.172 84.7773C114.501 84.7773 113.954 84.9954 113.531 85.4316C113.108 85.8678 112.896 86.4993 112.896 87.3262V93H110.484ZM120.162 86.7891H125.143C125.025 86.0794 124.762 85.5358 124.352 85.1582C123.941 84.7806 123.44 84.5918 122.848 84.5918C122.151 84.5918 121.568 84.7871 121.1 85.1777C120.631 85.5684 120.318 86.1055 120.162 86.7891ZM123.023 93.2246C121.337 93.2246 120.006 92.7428 119.029 91.7793C118.059 90.8158 117.574 89.556 117.574 88C117.574 87.2969 117.691 86.6296 117.926 85.998C118.16 85.3665 118.489 84.8066 118.912 84.3184C119.342 83.8301 119.882 83.4427 120.533 83.1562C121.191 82.8698 121.917 82.7266 122.711 82.7266C123.505 82.7266 124.199 82.8633 124.791 83.1367C125.383 83.4102 125.852 83.7943 126.197 84.2891C126.542 84.7773 126.796 85.3275 126.959 85.9395C127.128 86.5514 127.213 87.2285 127.213 87.9707C127.213 88.1595 127.197 88.3027 127.164 88.4004H120.133C120.172 89.377 120.468 90.0996 121.021 90.5684C121.581 91.0371 122.324 91.2715 123.248 91.2715C124.329 91.2715 125.383 90.9134 126.412 90.1973L127.066 91.9551C126.435 92.3913 125.797 92.7135 125.152 92.9219C124.514 93.1237 123.805 93.2246 123.023 93.2246ZM133.512 93.2246C132.633 93.2246 131.826 93.1009 131.09 92.8535C130.354 92.6061 129.768 92.3099 129.332 91.9648L129.938 90.2266C130.348 90.5456 130.865 90.8092 131.49 91.0176C132.115 91.2194 132.717 91.3203 133.297 91.3203C133.837 91.3203 134.244 91.2292 134.518 91.0469C134.798 90.8646 134.938 90.5684 134.938 90.1582V89.9824C134.938 89.7741 134.856 89.5983 134.693 89.4551C134.531 89.3053 134.156 89.1361 133.57 88.9473L132.145 88.4883C131.78 88.3711 131.477 88.2637 131.236 88.166C130.995 88.0618 130.748 87.9316 130.494 87.7754C130.247 87.6191 130.051 87.4499 129.908 87.2676C129.771 87.0788 129.658 86.8509 129.566 86.584C129.482 86.3105 129.439 85.998 129.439 85.6465C129.439 85.1387 129.537 84.6927 129.732 84.3086C129.934 83.9245 130.211 83.6217 130.562 83.4004C130.914 83.179 131.305 83.0163 131.734 82.9121C132.164 82.8014 132.636 82.7461 133.15 82.7461C133.788 82.7461 134.426 82.8275 135.064 82.9902C135.702 83.153 136.262 83.3939 136.744 83.7129L136.119 85.373C135.729 85.1647 135.27 84.9889 134.742 84.8457C134.221 84.7025 133.749 84.6309 133.326 84.6309C132.773 84.6309 132.372 84.6992 132.125 84.8359C131.878 84.9727 131.754 85.1973 131.754 85.5098C131.754 85.7181 131.793 85.8809 131.871 85.998C131.949 86.1152 132.112 86.2357 132.359 86.3594C132.607 86.4831 133.004 86.6361 133.551 86.8184L134.85 87.2578C135.37 87.4336 135.787 87.6257 136.1 87.834C136.419 88.0423 136.673 88.3385 136.861 88.7227C137.057 89.1068 137.154 89.5885 137.154 90.168C137.154 90.6107 137.079 91.0111 136.93 91.3691C136.786 91.7272 136.594 92.0202 136.354 92.248C136.119 92.4759 135.839 92.6647 135.514 92.8145C135.195 92.9642 134.869 93.0684 134.537 93.127C134.205 93.1921 133.863 93.2246 133.512 93.2246ZM143.16 93.2246C142.281 93.2246 141.474 93.1009 140.738 92.8535C140.003 92.6061 139.417 92.3099 138.98 91.9648L139.586 90.2266C139.996 90.5456 140.514 90.8092 141.139 91.0176C141.764 91.2194 142.366 91.3203 142.945 91.3203C143.486 91.3203 143.893 91.2292 144.166 91.0469C144.446 90.8646 144.586 90.5684 144.586 90.1582V89.9824C144.586 89.7741 144.505 89.5983 144.342 89.4551C144.179 89.3053 143.805 89.1361 143.219 88.9473L141.793 88.4883C141.428 88.3711 141.126 88.2637 140.885 88.166C140.644 88.0618 140.396 87.9316 140.143 87.7754C139.895 87.6191 139.7 87.4499 139.557 87.2676C139.42 87.0788 139.306 86.8509 139.215 86.584C139.13 86.3105 139.088 85.998 139.088 85.6465C139.088 85.1387 139.186 84.6927 139.381 84.3086C139.583 83.9245 139.859 83.6217 140.211 83.4004C140.562 83.179 140.953 83.0163 141.383 82.9121C141.812 82.8014 142.285 82.7461 142.799 82.7461C143.437 82.7461 144.075 82.8275 144.713 82.9902C145.351 83.153 145.911 83.3939 146.393 83.7129L145.768 85.373C145.377 85.1647 144.918 84.9889 144.391 84.8457C143.87 84.7025 143.398 84.6309 142.975 84.6309C142.421 84.6309 142.021 84.6992 141.773 84.8359C141.526 84.9727 141.402 85.1973 141.402 85.5098C141.402 85.7181 141.441 85.8809 141.52 85.998C141.598 86.1152 141.76 86.2357 142.008 86.3594C142.255 86.4831 142.652 86.6361 143.199 86.8184L144.498 87.2578C145.019 87.4336 145.436 87.6257 145.748 87.834C146.067 88.0423 146.321 88.3385 146.51 88.7227C146.705 89.1068 146.803 89.5885 146.803 90.168C146.803 90.6107 146.728 91.0111 146.578 91.3691C146.435 91.7272 146.243 92.0202 146.002 92.248C145.768 92.4759 145.488 92.6647 145.162 92.8145C144.843 92.9642 144.518 93.0684 144.186 93.127C143.854 93.1921 143.512 93.2246 143.16 93.2246Z" fill="#FFBE44"/>
<path d="M80.9414 123.105C81.6445 123.105 82.2142 122.848 82.6504 122.334C83.0866 121.813 83.3047 121.162 83.3047 120.381C83.3047 119.58 83.1094 118.923 82.7188 118.408C82.3346 117.894 81.791 117.637 81.0879 117.637C80.3066 117.637 79.6849 117.897 79.2227 118.418C78.7669 118.932 78.5391 119.6 78.5391 120.42C78.5391 120.824 78.6107 121.201 78.7539 121.553C78.8971 121.898 79.0859 122.181 79.3203 122.402C79.5547 122.624 79.8118 122.796 80.0918 122.92C80.3717 123.044 80.6549 123.105 80.9414 123.105ZM81.0098 125.225C79.8704 125.225 78.9036 124.928 78.1094 124.336C77.3151 123.743 76.7292 122.926 76.3516 121.885C75.974 120.837 75.7852 119.603 75.7852 118.184C75.7852 117.122 75.9089 116.133 76.1562 115.215C76.4102 114.29 76.7715 113.48 77.2402 112.783C77.7155 112.08 78.321 111.527 79.0566 111.123C79.7923 110.719 80.6159 110.518 81.5273 110.518C83.0247 110.518 84.2292 110.941 85.1406 111.787L84.3203 113.633C83.474 112.969 82.5495 112.637 81.5469 112.637C80.6549 112.637 79.9193 113.06 79.3398 113.906C78.7604 114.753 78.4447 115.814 78.3926 117.09C79.0892 116.1 80.0332 115.605 81.2246 115.605C82.6374 115.605 83.7604 116.035 84.5938 116.895C85.4336 117.747 85.8535 118.9 85.8535 120.352C85.8535 121.771 85.4108 122.939 84.5254 123.857C83.64 124.769 82.4681 125.225 81.0098 125.225ZM92.9336 125.225C91.3516 125.225 90.1211 124.551 89.2422 123.203C88.3698 121.849 87.9336 120.036 87.9336 117.764C87.9336 115.465 88.3633 113.685 89.2227 112.422C90.0885 111.152 91.332 110.518 92.9531 110.518C94.5482 110.518 95.7754 111.165 96.6348 112.461C97.5007 113.757 97.9336 115.524 97.9336 117.764C97.9336 119.255 97.748 120.557 97.377 121.67C97.0059 122.777 96.4395 123.646 95.6777 124.277C94.9225 124.909 94.0078 125.225 92.9336 125.225ZM92.9727 123.105C94.5938 123.105 95.4043 121.328 95.4043 117.773C95.4043 117.083 95.362 116.445 95.2773 115.859C95.1927 115.273 95.0592 114.733 94.877 114.238C94.7012 113.737 94.4505 113.346 94.125 113.066C93.806 112.78 93.4251 112.637 92.9824 112.637C92.5202 112.637 92.1198 112.78 91.7812 113.066C91.4427 113.346 91.1823 113.737 91 114.238C90.8177 114.733 90.6842 115.273 90.5996 115.859C90.515 116.445 90.4727 117.087 90.4727 117.783C90.4727 118.59 90.515 119.303 90.5996 119.922C90.6842 120.54 90.8177 121.097 91 121.592C91.1888 122.08 91.4492 122.454 91.7812 122.715C92.1133 122.975 92.5104 123.105 92.9727 123.105ZM113.148 125.195C112.068 125.195 111.199 124.847 110.541 124.15C109.883 123.454 109.555 122.568 109.555 121.494C109.555 120.439 109.883 119.557 110.541 118.848C111.199 118.132 112.064 117.773 113.139 117.773C114.213 117.773 115.082 118.132 115.746 118.848C116.41 119.564 116.742 120.446 116.742 121.494C116.742 122.575 116.413 123.464 115.756 124.16C115.098 124.85 114.229 125.195 113.148 125.195ZM113.139 123.672C113.653 123.672 114.037 123.499 114.291 123.154C114.551 122.809 114.682 122.256 114.682 121.494C114.682 120.765 114.558 120.218 114.311 119.854C114.063 119.489 113.673 119.307 113.139 119.307C112.611 119.307 112.224 119.486 111.977 119.844C111.729 120.202 111.605 120.749 111.605 121.484C111.605 122.246 111.732 122.803 111.986 123.154C112.24 123.499 112.624 123.672 113.139 123.672ZM102.914 125L112.006 110.781H113.988L104.896 125H102.914ZM103.686 118.018C102.579 118.018 101.703 117.692 101.059 117.041C100.414 116.383 100.092 115.475 100.092 114.316C100.092 113.177 100.414 112.275 101.059 111.611C101.703 110.941 102.579 110.605 103.686 110.605C104.786 110.605 105.658 110.941 106.303 111.611C106.954 112.282 107.279 113.184 107.279 114.316C107.279 115.482 106.957 116.39 106.312 117.041C105.668 117.692 104.792 118.018 103.686 118.018ZM103.686 116.494C104.2 116.494 104.584 116.325 104.838 115.986C105.092 115.641 105.219 115.088 105.219 114.326C105.219 113.59 105.095 113.04 104.848 112.676C104.607 112.311 104.219 112.129 103.686 112.129C103.152 112.129 102.761 112.311 102.514 112.676C102.273 113.034 102.152 113.581 102.152 114.316C102.152 115.078 102.279 115.632 102.533 115.977C102.787 116.322 103.171 116.494 103.686 116.494Z" fill="#373D3F"/>
</svg>
