<svg width="20" height="20" viewBox="0 0 20 20" fill="none" xmlns="http://www.w3.org/2000/svg">
<path d="M2.37315 13.85C-0.790949 10.6858 -0.790884 5.53729 2.37315 2.37312C5.53732 -0.791041 10.6858 -0.791041 13.8499 2.37312C16.5342 5.05749 16.9408 9.04982 15.0706 12.1674C15.0706 12.1674 14.9363 12.3928 15.1177 12.5741C16.1527 13.6091 19.2581 16.7145 19.2581 16.7145C20.0822 17.5385 20.2784 18.6908 19.5476 19.4218L19.4217 19.5475C18.6909 20.2784 17.5385 20.0823 16.7145 19.2582C16.7145 19.2582 13.6157 16.1593 12.5828 15.1265C12.3927 14.9364 12.1674 15.0707 12.1674 15.0707C9.04985 16.9408 5.05751 16.5343 2.37315 13.85ZM12.3516 12.3517C14.6896 10.0137 14.6896 6.20954 12.3516 3.87154C10.0136 1.53362 6.20944 1.53355 3.87151 3.87154C1.53352 6.20947 1.53352 10.0137 3.87151 12.3517C6.2095 14.6895 10.0136 14.6895 12.3516 12.3517Z" fill="white"/>
</svg>
