<svg width="121" height="127" viewBox="0 0 121 127" fill="none" xmlns="http://www.w3.org/2000/svg">
<path d="M13.7557 122.015V115.127C13.7557 113.938 14.7208 112.98 15.9027 112.98C17.0845 112.98 18.0496 113.938 18.0496 115.127V122.015H56.9671V115.127C56.9671 113.938 57.9322 112.98 59.114 112.98C60.2959 112.98 61.261 113.938 61.261 115.127V122.015H70.7298V110.749C70.7298 100.923 62.7295 92.9299 52.904 92.9299H49.792L39.1972 106.511C38.351 107.595 36.6657 107.595 35.8195 106.511L25.2247 92.9299H22.1127C12.2872 92.9299 4.28687 100.923 4.28687 110.749V122.015H13.7557ZM118.801 66.4674H65.4429C64.2541 66.4674 63.296 65.5024 63.296 64.3205V40.2357C63.296 39.0539 64.2541 38.0958 65.4429 38.0958H118.801C119.983 38.0958 120.941 39.0539 120.941 40.2357V64.3205C120.941 65.5024 119.983 66.4674 118.801 66.4674ZM67.5829 62.1736H116.655V42.3826H67.5829V62.1736ZM103.032 50.4529H81.2057C80.0239 50.4529 79.0588 49.4948 79.0588 48.3059C79.0588 47.1241 80.0239 46.166 81.2057 46.166H103.032C104.221 46.166 105.179 47.1241 105.179 48.3059C105.179 49.4948 104.221 50.4529 103.032 50.4529ZM110.228 58.3972H74.0097C72.8208 58.3972 71.8627 57.4321 71.8627 56.2503C71.8627 55.0684 72.8208 54.1033 74.0097 54.1033H110.228C111.417 54.1033 112.375 55.0684 112.375 56.2503C112.375 57.4321 111.417 58.3972 110.228 58.3972ZM118.801 126.302H81.0029C79.7721 126.302 78.7651 125.218 78.863 123.994L81.6393 87.8598C81.7302 86.7479 82.6603 85.8807 83.7793 85.8807H88.8633V80.2441C88.8633 74.7684 93.3111 70.3207 98.7868 70.3207H101.011C106.486 70.3207 110.941 74.7684 110.941 80.2441V85.8807H116.018C117.137 85.8807 118.074 86.7479 118.158 87.8598L120.934 123.994C121.032 125.218 120.032 126.302 118.801 126.302ZM93.1502 85.8807H106.647V80.2441C106.647 77.1391 104.123 74.6076 101.011 74.6076H98.7868C95.6818 74.6076 93.1502 77.1391 93.1502 80.2441V85.8807ZM83.3177 122.015H116.48L114.032 90.1746H85.7653L83.3177 122.015ZM27.6304 34.2425C27.3157 34.2425 26.994 34.1726 26.7003 34.0257L17.8958 29.7878L9.09124 34.0257C7.55971 34.767 5.80441 33.4872 6.03518 31.8088L7.34992 22.1232L0.594427 15.06C-0.580441 13.8362 0.0909124 11.7732 1.7623 11.4724L11.378 9.72413L16.0076 1.12242C16.8118 -0.374139 18.9797 -0.374139 19.7839 1.12242L24.4135 9.72413L34.0292 11.4654C35.7006 11.7732 36.3719 13.8362 35.1971 15.06L28.4416 22.1232L29.7563 31.8088C29.9242 33.0816 28.8961 34.2425 27.6304 34.2425ZM18.8259 25.4729L24.9659 28.4311L24.0498 21.6756C23.9659 21.0322 24.1757 20.3749 24.6303 19.9063L29.3367 14.9761L22.6302 13.7592C21.9868 13.6473 21.4343 13.2417 21.1266 12.6683L17.8958 6.66108L14.6649 12.6683C14.3572 13.2417 13.8047 13.6473 13.1613 13.7592L6.44779 14.9761L11.1612 19.9063C11.6158 20.3749 11.8256 21.0322 11.7347 21.6756L10.8186 28.4311L16.9656 25.4729C17.5531 25.1932 18.2384 25.1932 18.8259 25.4729ZM48.6101 31.8088L49.9249 22.1232L43.1694 15.06C41.9945 13.8362 42.6659 11.7732 44.3373 11.4724L53.953 9.72413L58.5825 1.12242C59.3868 -0.374139 61.5547 -0.374139 62.3589 1.12242L66.9884 9.72413L76.6042 11.4654C78.2756 11.7732 78.9469 13.8362 77.772 15.06L71.0166 22.1232L72.3313 31.8088C72.5621 33.4872 70.8068 34.767 69.2752 34.0257L60.4707 29.7878L51.6662 34.0257C50.1557 34.76 48.3864 33.4942 48.6101 31.8088ZM61.4008 25.4729L67.5479 28.4311L66.6318 21.6756C66.5409 21.0322 66.7507 20.3749 67.2052 19.9063L71.9187 14.9761L65.2052 13.7592C64.5618 13.6473 64.0093 13.2417 63.7016 12.6683L60.4707 6.66108L57.2398 12.6683C56.9321 13.2417 56.3797 13.6473 55.7363 13.7592L49.0297 14.9761L53.7362 19.9063C54.1908 20.3749 54.4006 21.0322 54.3167 21.6756L53.4005 28.4311L59.5406 25.4729C60.128 25.1932 60.8134 25.1932 61.4008 25.4729ZM112.78 34.2425C112.466 34.2425 112.144 34.1726 111.85 34.0257L103.046 29.7878L94.2482 34.0257C92.7166 34.767 90.9613 33.4872 91.1851 31.8088L92.4998 22.1232L85.7444 15.06C84.5765 13.8362 85.2478 11.7732 86.9122 11.4724L96.528 9.72413L101.158 1.12242C101.962 -0.374139 104.13 -0.374139 104.934 1.12242L109.563 9.72413L119.179 11.4654C120.851 11.7732 121.522 13.8362 120.347 15.06L113.592 22.1232L114.906 31.8088C115.081 33.0816 114.053 34.2425 112.78 34.2425ZM103.976 25.4729L110.123 28.4311L109.207 21.6756C109.116 21.0322 109.326 20.3749 109.78 19.9063L114.494 14.9761L107.787 13.7592C107.144 13.6473 106.584 13.2417 106.277 12.6683L103.046 6.66108L99.8148 12.6683C99.5071 13.2417 98.9546 13.6473 98.3112 13.7592L91.6047 14.9761L96.3182 19.9063C96.7657 20.3749 96.9755 21.0322 96.8916 21.6756L95.9755 28.4311L102.116 25.4729C102.703 25.1932 103.395 25.1932 103.976 25.4729ZM52.2536 59.5231C55.7363 48.271 42.505 40.5504 34.1621 42.1728C30.9312 42.8022 28.9801 44.6764 28.3647 47.7465C28.2178 48.4948 27.6793 49.1102 26.959 49.3549C26.938 49.3689 23.5043 50.6207 22.4414 53.8376C21.8609 55.6069 22.0497 57.6979 23.0008 60.0826C28.5605 50.6067 46.7919 47.6416 52.2536 59.5231ZM21.4413 66.2646C18.0776 61.0476 17.0566 56.3971 18.3923 52.425C19.665 48.6416 22.7561 46.6345 24.4345 45.7954C25.6583 41.6623 28.8472 38.8371 33.3439 37.9629C40.8406 36.5083 50.1277 40.5714 54.4915 47.222C56.6944 50.5787 59.4637 57.4671 53.7082 66.3066V70.8032C53.7082 76.1041 51.1347 80.8246 47.1695 83.7617L49.9808 88.6361H52.904C65.1003 88.6361 75.0167 98.5595 75.0167 110.749V124.155C75.0167 125.344 74.0586 126.302 72.8698 126.302H2.14693C0.958077 126.302 0 125.344 0 124.155V110.749C0 98.5595 9.91644 88.6361 22.1127 88.6361H25.0359L27.8891 83.6988C23.9729 80.7477 21.4413 76.0692 21.4413 70.8032V66.2646ZM37.5748 86.9367C35.4768 86.9367 33.4697 86.5311 31.6305 85.7968L28.8542 90.6082L37.5049 101.699L46.1625 90.6082L43.4142 85.8388C41.6029 86.5451 39.6308 86.9367 37.5748 86.9367ZM25.7282 65.6352V70.8032C25.7282 75.181 28.1199 79.0133 31.6585 81.0624L31.9522 81.2232C33.6236 82.1323 35.5397 82.6428 37.5748 82.6428C43.9806 82.6428 49.4144 77.4259 49.4144 70.8032V65.7471C48.764 56.7188 41.7008 55.9426 38.6867 56.0335C32.6166 56.2083 25.7981 60.1875 25.7282 65.6352Z" fill="#333333"/>
<path d="M31.952 81.2232C33.6234 82.1323 35.5396 82.6428 37.5746 82.6428C43.9804 82.6428 49.4142 77.4259 49.4142 70.8033V65.7471C48.7638 56.7188 41.7006 55.9426 38.6865 56.0335C32.6164 56.2083 25.798 60.1875 25.728 65.6352V70.8033C25.728 75.181 28.1197 79.0133 31.6583 81.0624L31.952 81.2232Z" fill="#FFE3D1"/>
<path d="M23.0009 60.0826C28.5605 50.6067 46.7919 47.6416 52.2537 59.5231C55.7363 48.271 42.5051 40.5504 34.1621 42.1729C30.9312 42.8023 28.9801 44.6765 28.3647 47.7465C28.2178 48.4948 27.6794 49.1102 26.959 49.3549C26.9381 49.3689 23.5044 50.6207 22.4414 53.8376C21.861 55.6069 22.0498 57.6979 23.0009 60.0826Z" fill="#0674BB"/>
<path d="M37.5746 86.9367C35.4766 86.9367 33.4696 86.5311 31.6303 85.7968L28.854 90.6082L37.5047 101.699L46.1623 90.6082L43.414 85.8388C41.6027 86.5451 39.6306 86.9367 37.5746 86.9367Z" fill="#FFE3D1"/>
<path d="M49.792 92.9299L39.1972 106.511C38.351 107.595 36.6657 107.595 35.8195 106.511L25.2247 92.9299H22.1127C12.2872 92.9299 4.28687 100.923 4.28687 110.749V122.015H13.7557V115.127C13.7557 113.938 14.7208 112.98 15.9027 112.98C17.0845 112.98 18.0496 113.938 18.0496 115.127V122.015H56.9671V115.127C56.9671 113.938 57.9322 112.98 59.114 112.98C60.2959 112.98 61.2609 113.938 61.2609 115.127V122.015H70.7298V110.749C70.7298 100.923 62.7295 92.9299 52.904 92.9299H49.792Z" fill="#0674BB"/>
<path d="M85.7653 90.1746L83.3176 122.015H116.48L114.032 90.1746H85.7653Z" fill="#0674BB"/>
<path d="M74.0093 54.1034H110.227C111.416 54.1034 112.374 55.0684 112.374 56.2503C112.374 57.4322 111.416 58.3972 110.227 58.3972H74.0093C72.8205 58.3972 71.8624 57.4322 71.8624 56.2503C71.8624 55.0684 72.8205 54.1034 74.0093 54.1034ZM67.5825 62.1736H116.654V42.3827H67.5825V62.1736ZM103.031 46.166C104.22 46.166 105.178 47.1241 105.178 48.306C105.178 49.4948 104.22 50.4529 103.031 50.4529H81.2054C80.0235 50.4529 79.0585 49.4948 79.0585 48.306C79.0585 47.1241 80.0235 46.166 81.2054 46.166H103.031Z" fill="#FFE4AF"/>
<path d="M96.8916 21.6756L95.9755 28.4311L102.116 25.4729C102.703 25.1932 103.395 25.1932 103.976 25.4729L110.123 28.4311L109.207 21.6756C109.116 21.0322 109.326 20.3749 109.78 19.9063L114.494 14.9761L107.787 13.7592C107.144 13.6473 106.584 13.2417 106.277 12.6683L103.046 6.66107L99.8148 12.6683C99.5071 13.2417 98.9547 13.6473 98.3113 13.7592L91.6047 14.9761L96.3182 19.9063C96.7658 20.3749 96.9756 21.0322 96.8916 21.6756Z" fill="#FFA721"/>
<path d="M66.6318 21.6756C66.5409 21.0322 66.7507 20.3749 67.2053 19.9063L71.9187 14.9761L65.2052 13.7592C64.5618 13.6473 64.0093 13.2417 63.7016 12.6683L60.4708 6.66107L57.2399 12.6683C56.9322 13.2417 56.3797 13.6473 55.7363 13.7592L49.0298 14.9761L53.7362 19.9063C54.1908 20.3749 54.4006 21.0322 54.3167 21.6756L53.4006 28.4311L59.5407 25.4729C60.1281 25.1932 60.8134 25.1932 61.4009 25.4729L67.5479 28.4311L66.6318 21.6756Z" fill="#FFA721"/>
<path d="M24.6301 19.9063L29.3366 14.9761L22.63 13.7592C21.9867 13.6473 21.4342 13.2417 21.1265 12.6683L17.8956 6.66107L14.6647 12.6683C14.357 13.2417 13.8045 13.6473 13.1612 13.7592L6.44763 14.9761L11.1611 19.9063C11.6157 20.3749 11.8254 21.0322 11.7345 21.6756L10.8184 28.4311L16.9655 25.4729C17.5529 25.1932 18.2383 25.1932 18.8257 25.4729L24.9658 28.4311L24.0497 21.6756C23.9657 21.0322 24.1755 20.3749 24.6301 19.9063Z" fill="#FFA721"/>
</svg>
