<svg width="14" height="16" viewBox="0 0 14 16" fill="none" xmlns="http://www.w3.org/2000/svg">
<path d="M11.6527 5.47898H13.131C13.327 5.47898 13.515 5.55685 13.6536 5.69547C13.7922 5.83409 13.8701 6.02209 13.8701 6.21813V15.0879C13.8701 15.284 13.7922 15.472 13.6536 15.6106C13.515 15.7492 13.327 15.8271 13.131 15.8271H1.30458C1.10854 15.8271 0.920539 15.7492 0.781921 15.6106C0.643304 15.472 0.56543 15.284 0.56543 15.0879V6.21813C0.56543 6.02209 0.643304 5.83409 0.781921 5.69547C0.920539 5.55685 1.10854 5.47898 1.30458 5.47898H2.78288V4.73983C2.78288 3.56362 3.25012 2.43559 4.08183 1.60388C4.91353 0.772178 6.04157 0.304932 7.21777 0.304932C8.39398 0.304932 9.52201 0.772178 10.3537 1.60388C11.1854 2.43559 11.6527 3.56362 11.6527 4.73983V5.47898ZM10.1744 5.47898V4.73983C10.1744 3.95569 9.86287 3.20367 9.3084 2.6492C8.75393 2.09473 8.00191 1.78323 7.21777 1.78323C6.43364 1.78323 5.68161 2.09473 5.12714 2.6492C4.57267 3.20367 4.26118 3.95569 4.26118 4.73983V5.47898H10.1744ZM6.47862 9.91387V11.3922H7.95692V9.91387H6.47862ZM3.52203 9.91387V11.3922H5.00033V9.91387H3.52203ZM9.43522 9.91387V11.3922H10.9135V9.91387H9.43522Z" fill="#0B4654" fill-opacity="0.5"/>
</svg>
