<svg width="16" height="16" viewBox="0 0 16 16" fill="none" xmlns="http://www.w3.org/2000/svg">
<path d="M8.21718 0.267822C4.13707 0.267822 0.825684 3.57921 0.825684 7.65932C0.825684 11.7394 4.13707 15.0508 8.21718 15.0508H11.9129V13.5725H8.21718C5.00927 13.5725 2.30398 10.8672 2.30398 7.65932C2.30398 4.45141 5.00927 1.74612 8.21718 1.74612C11.4251 1.74612 14.1304 4.45141 14.1304 7.65932V8.7163C14.1304 9.30023 13.6056 9.87676 13.0216 9.87676C12.4377 9.87676 11.9129 9.30023 11.9129 8.7163V7.65932C11.9129 5.61926 10.2572 3.96357 8.21718 3.96357C6.17712 3.96357 4.52143 5.61926 4.52143 7.65932C4.52143 9.69937 6.17712 11.3551 8.21718 11.3551C9.2372 11.3551 10.1685 10.9411 10.8338 10.2685C11.3142 10.9264 12.1421 11.3551 13.0216 11.3551C14.4778 11.3551 15.6087 10.1724 15.6087 8.7163V7.65932C15.6087 3.57921 12.2973 0.267822 8.21718 0.267822ZM8.21718 9.87676C6.99019 9.87676 5.99973 8.8863 5.99973 7.65932C5.99973 6.43233 6.99019 5.44187 8.21718 5.44187C9.44417 5.44187 10.4346 6.43233 10.4346 7.65932C10.4346 8.8863 9.44417 9.87676 8.21718 9.87676Z" fill="#0B4654" fill-opacity="0.5"/>
</svg>
