<svg width="39" height="18" viewBox="0 0 39 18" fill="none" xmlns="http://www.w3.org/2000/svg">
<rect x="0.5" y="0.5" width="38" height="17" fill="white" stroke="#0674BB"/>
<path d="M14.6719 12.7906L16.0122 5.25131H18.1065L16.808 12.7906H14.6719Z" fill="#3C58BF"/>
<path d="M14.6719 12.7906L16.3892 5.25131H18.1065L16.808 12.7906H14.6719Z" fill="#293688"/>
<path d="M24.3928 5.33508C23.9739 5.16754 23.3038 5 22.4661 5C20.3718 5 18.864 6.04713 18.864 7.55499C18.864 8.68589 19.9111 9.27228 20.7488 9.64925C21.5865 10.0262 21.8378 10.2775 21.8378 10.6126C21.8378 11.1152 21.1676 11.3665 20.5813 11.3665C19.7436 11.3665 19.2828 11.2409 18.5708 10.9477L18.2776 10.822L17.9844 12.5393C18.487 12.7488 19.4085 12.9582 20.3718 12.9582C22.5917 12.9582 24.0577 11.911 24.0577 10.3194C24.0577 9.43983 23.5132 8.76966 22.2567 8.22516C21.5027 7.84819 21.042 7.63876 21.042 7.2618C21.042 6.92672 21.419 6.59163 22.2567 6.59163C22.9687 6.59163 23.4713 6.71729 23.8483 6.88483L24.0577 6.9686L24.3928 5.33508Z" fill="#3C58BF"/>
<path d="M24.3928 5.33508C23.9739 5.16754 23.3038 5 22.4661 5C20.3718 5 19.2409 6.04713 19.2409 7.55499C19.2409 8.68589 19.9111 9.27228 20.7488 9.64925C21.5865 10.0262 21.8378 10.2775 21.8378 10.6126C21.8378 11.1152 21.1676 11.3665 20.5813 11.3665C19.7436 11.3665 19.2828 11.2409 18.5708 10.9477L18.2776 10.822L17.9844 12.5393C18.487 12.7488 19.4085 12.9582 20.3718 12.9582C22.5917 12.9582 24.0577 11.911 24.0577 10.3194C24.0577 9.43983 23.5132 8.76966 22.2567 8.22516C21.5027 7.84819 21.042 7.63876 21.042 7.2618C21.042 6.92672 21.419 6.59163 22.2567 6.59163C22.9687 6.59163 23.4713 6.71729 23.8483 6.88483L24.0577 6.9686L24.3928 5.33508Z" fill="#293688"/>
<path d="M27.996 5.25131C27.4934 5.25131 27.1164 5.2932 26.907 5.79582L23.7656 12.7906H26.0274L26.4463 11.5341H29.1269L29.3782 12.7906H31.3887L29.6295 5.25131H27.996ZM27.0327 10.2775C27.1583 9.90056 27.8704 8.05762 27.8704 8.05762C27.8704 8.05762 28.0379 7.59688 28.1636 7.30368L28.2892 8.01573C28.2892 8.01573 28.7081 9.90056 28.7918 10.3194H27.0327V10.2775Z" fill="#3C58BF"/>
<path d="M28.4986 5.25131C27.996 5.25131 27.6191 5.2932 27.4096 5.79582L23.7656 12.7906H26.0274L26.4463 11.5341H29.1269L29.3782 12.7906H31.3887L29.6295 5.25131H28.4986ZM27.0327 10.2775C27.2002 9.85868 27.8704 8.05762 27.8704 8.05762C27.8704 8.05762 28.0379 7.59688 28.1636 7.30368L28.2892 8.01573C28.2892 8.01573 28.7081 9.90056 28.7918 10.3194H27.0327V10.2775Z" fill="#293688"/>
<path d="M10.8211 10.5288L10.6116 9.43983C10.2347 8.18327 9.02001 6.80106 7.67969 6.1309L9.56452 12.8325H11.8263L15.219 5.2932H12.9572L10.8211 10.5288Z" fill="#3C58BF"/>
<path d="M10.8211 10.5288L10.6116 9.43983C10.2347 8.18327 9.02001 6.80106 7.67969 6.1309L9.56452 12.8325H11.8263L15.219 5.2932H13.3761L10.8211 10.5288Z" fill="#293688"/>
<path d="M5 5.25131L5.37697 5.33508C8.05761 5.96336 9.90056 7.55499 10.6126 9.43983L9.85868 5.87959C9.73302 5.37697 9.35605 5.25131 8.89532 5.25131H5Z" fill="#FFBC00"/>
<path d="M5 5.25131C7.68065 5.87959 9.90056 7.51311 10.6126 9.39794L9.90056 6.4241C9.77491 5.92147 9.35605 5.62828 8.89532 5.62828L5 5.25131Z" fill="#F7981D"/>
<path d="M5 5.25131C7.68065 5.87959 9.90056 7.51311 10.6126 9.39794L10.11 7.76442C9.98433 7.2618 9.81679 6.75918 9.2304 6.54975L5 5.25131Z" fill="#ED7C00"/>
<path d="M12.9125 10.2775L11.4884 8.85345L10.8182 10.4451L10.6507 9.39796C10.2737 8.14141 9.05907 6.7592 7.71875 6.08904L9.60358 12.7907H11.8654L12.9125 10.2775Z" fill="#051244"/>
<path d="M16.808 12.7907L15.007 10.9477L14.6719 12.7907H16.808Z" fill="#051244"/>
<path d="M21.6284 10.1938C21.7959 10.3613 21.8797 10.487 21.8378 10.6545C21.8378 11.1571 21.1676 11.4084 20.5813 11.4084C19.7436 11.4084 19.2828 11.2828 18.5708 10.9896L18.2776 10.8639L17.9844 12.5812C18.487 12.7907 19.4085 13.0001 20.3718 13.0001C21.7122 13.0001 22.8012 12.6231 23.4294 11.9529L21.6284 10.1938Z" fill="#051244"/>
<path d="M24.0547 12.7906H26.0233L26.4421 11.5341H29.1228L29.3741 12.7906H31.3846L30.6725 9.73303L28.1594 7.3037L28.2851 7.97386C28.2851 7.97386 28.7039 9.85869 28.7877 10.2775H27.0285C27.1961 9.85869 27.8662 8.05763 27.8662 8.05763C27.8662 8.05763 28.0338 7.59689 28.1594 7.3037" fill="#051244"/>
</svg>
