<svg width="87" height="117" viewBox="0 0 87 117" fill="none" xmlns="http://www.w3.org/2000/svg">
<path d="M29.8581 64.0783L27.4111 65.3018C25.6891 66.1628 23.9218 66.7972 22.0639 67.2504L9.87426 70.3318C6.65691 71.1474 4.30054 73.957 4.11928 77.3103L1.26445 112.248C1.21913 113.743 2.39732 115.012 3.93802 115.057H3.98333H37.5163L29.8581 64.0783Z" fill="#0674BB"/>
<path d="M72.6805 87.3248C65.3848 87.3248 59.4939 81.4339 59.4939 74.1382C59.4939 71.51 60.2642 68.9723 61.7143 66.7972C60.4455 66.3894 59.222 65.8909 57.9985 65.3018L55.5515 64.0783L47.8933 115.057H81.4262C82.9216 115.057 84.1451 113.834 84.1451 112.339V112.293L81.7888 83.6543C79.3871 86.0107 76.1244 87.3248 72.6805 87.3248Z" fill="#0674BB"/>
<path d="M37.5164 115.057H47.9388L55.5969 64.0783L51.6093 62.1298L47.4856 70.649C47.1684 71.2834 46.534 71.6912 45.809 71.6912H39.3289C38.6039 71.6912 37.9695 71.2834 37.6523 70.6037L33.8459 62.1298L29.8582 64.0783L37.5164 115.057Z" fill="#DAE6F1"/>
<path d="M53.4671 78.1259L55.5515 64.0783L51.5638 62.1298L47.4402 70.649L53.2858 77.9447L53.4671 78.1259Z" fill="#EDF4FC"/>
<path d="M31.9878 78.1259C32.0331 78.0806 32.0784 78.0353 32.1237 77.9447L37.8334 70.8755C37.7881 70.7849 37.7428 70.6943 37.6975 70.6037L33.891 62.1298L29.9033 64.0783L31.9878 78.1259Z" fill="#EDF4FC"/>
<path d="M47.4858 70.649C47.1685 71.2834 46.5341 71.6912 45.8091 71.6912H39.3291C38.6947 71.6912 38.1509 71.374 37.7884 70.8756L36.6555 72.2803L39.3744 79.3494H45.9904L48.7092 72.2803L47.4858 70.649Z" fill="#0674BB"/>
<path d="M46.0354 79.3494H39.4195L35.8396 104.001L37.5162 115.057H47.9386L49.6153 104.001L46.0354 79.3494Z" fill="#0674BB"/>
<path d="M72.6807 87.3248C79.9635 87.3248 85.8673 81.421 85.8673 74.1382C85.8673 66.8555 79.9635 60.9516 72.6807 60.9516C65.398 60.9516 59.4941 66.8555 59.4941 74.1382C59.4941 81.421 65.398 87.3248 72.6807 87.3248Z" fill="#FFA721"/>
<path d="M42.7276 58.3234C39.6009 58.3234 36.5648 57.5077 33.8459 55.967V62.1298L37.6524 70.6037C37.9696 71.2834 38.604 71.6912 39.329 71.6912H45.809C46.5341 71.6912 47.1685 71.2834 47.4857 70.649L51.6093 62.1298V55.967C48.8905 57.5077 45.8544 58.3234 42.7276 58.3234Z" fill="#FFE3D1"/>
<path d="M61.8956 26.603C61.4878 26.603 61.1253 26.6483 60.7174 26.6937V40.3334C60.7174 40.7412 60.7174 41.1491 60.6721 41.5569C64.7504 42.2366 68.6475 39.4271 69.2819 35.3488C69.9163 31.2704 67.1521 27.3734 63.0738 26.739C62.7113 26.603 62.3034 26.603 61.8956 26.603Z" fill="#FFE3D1"/>
<path d="M24.7376 40.2881V26.6937C20.6592 26.0139 16.7622 28.7781 16.0825 32.9018C15.4027 36.9801 18.1669 40.8772 22.2906 41.5569C23.1062 41.6928 23.9672 41.6928 24.7829 41.5569C24.7376 41.1038 24.7376 40.6959 24.7376 40.2881Z" fill="#FFE3D1"/>
<path d="M45.4464 18.4464C38.8304 26.739 29.1331 25.5608 25.8704 24.8811C25.372 24.7904 24.8282 25.1076 24.7375 25.6061V25.7874V40.2881C24.7829 50.212 32.8036 58.278 42.7275 58.278C52.6514 58.2327 60.7175 50.212 60.7175 40.2881V24.2467C60.7175 24.156 60.7175 24.0654 60.7175 23.9748C60.7175 23.4763 60.3096 23.0685 59.7659 23.0232C52.2889 22.7966 48.3465 19.8511 46.8512 18.3557C46.4886 17.9932 45.8542 17.9932 45.4917 18.3557C45.4917 18.4011 45.4464 18.4464 45.4464 18.4464Z" fill="#FFE3D1"/>
<path d="M23.5594 26.603C23.9672 26.603 24.3298 26.6483 24.7376 26.6937V25.8327C24.7376 25.2889 25.1907 24.8811 25.6892 24.8811H25.8705C29.1331 25.5608 38.8305 26.739 45.4465 18.4464C45.7637 18.0385 46.3981 17.9479 46.8059 18.2651C46.8512 18.2651 46.8512 18.3104 46.8965 18.3557C48.3919 19.8511 52.3343 22.7966 59.8112 23.0232C60.3097 23.0232 60.7175 23.4763 60.7628 23.9748V24.2467V26.6483C63.0739 26.2858 65.4303 27.0109 67.1522 28.6875V15.1837C67.1522 9.51936 62.5301 4.89725 56.8658 4.89725C55.0079 4.89725 53.1953 5.39571 51.6093 6.34732C49.706 3.2206 46.3527 1.31738 42.7276 1.31738H37.4257C27.1846 1.3627 18.8467 9.6553 18.8467 19.8964V28.2344C20.2061 27.1468 21.8375 26.603 23.5594 26.603Z" fill="#0674BB"/>
<path d="M69.7805 79.576L65.7475 75.543C64.8412 74.682 64.8412 73.2319 65.7022 72.3256C66.5632 71.4193 68.0132 71.4193 68.9195 72.2803L68.9649 72.3256L71.4119 74.7726L76.5324 69.6521C77.4387 68.7911 78.8435 68.7911 79.7498 69.6974C80.6108 70.5584 80.6108 71.9631 79.7498 72.8694L73.0432 79.576C72.1369 80.437 70.6868 80.437 69.7805 79.576Z" fill="#EDF4FC"/>
<path d="M42.7277 49.6229C39.465 49.6229 36.4742 47.9463 34.7523 45.2274C34.4351 44.6836 34.571 44.0039 35.1148 43.6414C35.6586 43.3242 36.3383 43.4601 36.7008 44.0039C38.7853 47.3572 43.2261 48.3541 46.5794 46.2696C47.4857 45.6805 48.2561 44.9102 48.8452 44.0039C49.1624 43.4601 49.8874 43.3242 50.4312 43.6414C50.975 43.9586 51.1109 44.6836 50.7937 45.2274C48.9811 47.9463 45.9903 49.6229 42.7277 49.6229Z" fill="black"/>
<path d="M34.9784 36.9801C36.1547 36.9801 37.1082 36.0266 37.1082 34.8503C37.1082 33.6741 36.1547 32.7205 34.9784 32.7205C33.8022 32.7205 32.8486 33.6741 32.8486 34.8503C32.8486 36.0266 33.8022 36.9801 34.9784 36.9801Z" fill="black"/>
<path d="M50.8388 36.9801C52.015 36.9801 52.9686 36.0266 52.9686 34.8503C52.9686 33.6741 52.015 32.7205 50.8388 32.7205C49.6625 32.7205 48.709 33.6741 48.709 34.8503C48.709 36.0266 49.6625 36.9801 50.8388 36.9801Z" fill="black"/>
<path d="M37.5163 116.19H3.98335C1.85355 116.19 0.131592 114.468 0.131592 112.339C0.131592 112.293 0.131592 112.293 0.131592 112.248V112.203L2.98642 77.2649C3.213 73.4585 5.88657 70.2412 9.60238 69.2895L21.7921 66.2081C23.5593 65.755 25.2813 65.1206 26.9126 64.3502L29.3596 63.1267C29.9034 62.8548 30.5831 63.0814 30.855 63.6252C30.9003 63.7158 30.9456 63.8518 30.9456 63.9424L38.6492 114.876C38.7398 115.511 38.332 116.054 37.6975 116.145C37.6069 116.19 37.5616 116.19 37.5163 116.19ZM2.39733 112.293C2.39733 113.2 3.12237 113.879 3.98335 113.925H36.2022L28.9518 65.8003L27.8642 66.3441C26.097 67.2051 24.2391 67.8848 22.2905 68.3832L10.1008 71.4647C7.33664 72.1444 5.34279 74.5461 5.20685 77.4009L2.39733 112.293Z" fill="black"/>
<path d="M81.4715 116.19H47.9385C47.3041 116.19 46.8057 115.692 46.8057 115.057C46.8057 115.012 46.8057 114.967 46.8057 114.876L54.4639 63.8971C54.5545 63.2627 55.1436 62.8548 55.7327 62.9455C55.8686 62.9455 55.9592 62.9908 56.0499 63.0361L58.4969 64.2596C59.6297 64.8034 60.8079 65.3018 62.0314 65.6643C62.6205 65.8456 62.9377 66.48 62.7565 67.0691C62.7111 67.1597 62.6658 67.2504 62.6205 67.341C58.9047 72.8694 60.3548 80.3463 65.8832 84.0621C70.5959 87.2342 76.8947 86.6904 80.973 82.7027C81.4261 82.2496 82.1512 82.2949 82.559 82.748C82.7403 82.9293 82.8309 83.2012 82.8762 83.4277L85.2326 112.067V112.112C85.2779 114.242 83.6013 116.009 81.4715 116.054C81.5168 116.19 81.5168 116.19 81.4715 116.19ZM49.2527 113.925H81.4715C82.3778 113.925 83.0575 113.2 83.0575 112.339L80.8824 85.9201C74.4024 90.4515 65.4753 88.8655 60.9439 82.3855C57.8625 77.99 57.4999 72.1897 60.0376 67.4316C59.1766 67.1144 58.3156 66.7519 57.5453 66.3441L56.4577 65.8003L49.2527 113.925Z" fill="black"/>
<path d="M47.9388 116.19H37.5164C36.9727 116.19 36.4742 115.782 36.3836 115.239L28.7254 64.2596C28.6347 63.7611 28.9066 63.308 29.3598 63.0814L33.3475 61.1329C33.8913 60.861 34.571 61.0876 34.8429 61.6313V61.6767L38.6493 70.1505C38.7853 70.4224 39.0118 70.5584 39.2837 70.5584H45.7637C46.0356 70.5584 46.2622 70.4224 46.3981 70.1505L50.5218 61.6313C50.7937 61.0876 51.4734 60.8157 52.0172 61.0876L56.0049 63.0361C56.458 63.2627 56.6846 63.7158 56.6393 64.2143L49.0717 115.239C48.9811 115.782 48.4826 116.19 47.9388 116.19ZM38.4681 113.925H46.9419L54.3282 64.7581L52.1078 63.6705L48.4826 71.1928C47.9842 72.235 46.9419 72.8694 45.809 72.8694H39.329C38.1508 72.8694 37.1086 72.1897 36.6101 71.1021L33.2569 63.6705L31.0817 64.7581L38.4681 113.925Z" fill="black"/>
<path d="M16.762 115.42C16.1276 115.42 15.6292 114.922 15.6292 114.287V84.47C15.6292 83.8356 16.1276 83.3371 16.762 83.3371C17.3964 83.3371 17.8949 83.8356 17.8949 84.47V114.242C17.8949 114.876 17.3964 115.42 16.762 115.42Z" fill="black"/>
<path d="M69.5994 115.42C68.965 115.42 68.4666 114.922 68.4666 114.287V87.1889C68.4666 86.5545 68.965 86.056 69.5994 86.056C70.2338 86.056 70.7323 86.5545 70.7323 87.1889V114.242C70.7323 114.876 70.2338 115.42 69.5994 115.42Z" fill="black"/>
<path d="M53.4673 79.2588C53.1954 79.2588 52.8782 79.1682 52.6969 78.9416C52.6063 78.851 52.5157 78.7603 52.425 78.6697L46.5794 71.374C46.3075 71.0115 46.2622 70.5583 46.4435 70.1505L50.5671 61.6313C50.839 61.0876 51.5187 60.8157 52.0625 61.0876L56.0502 63.0361C56.5034 63.2627 56.7299 63.7158 56.6846 64.2143L54.6001 78.2619C54.5095 78.851 54.0564 79.2588 53.4673 79.2588ZM48.7998 70.513L52.7422 75.407L54.3282 64.7127L52.1078 63.6252L48.7998 70.513Z" fill="black"/>
<path d="M31.9879 79.2588C31.4441 79.2588 30.9457 78.851 30.855 78.3072L28.7705 64.2596C28.6799 63.7611 28.9518 63.308 29.4049 63.0814L33.3926 61.1329C33.9364 60.861 34.6161 61.0876 34.888 61.6313V61.6767L38.6945 70.1505C38.6945 70.1958 38.7398 70.1958 38.7398 70.2411C39.0117 70.649 38.9664 71.1928 38.6945 71.5553L32.9848 78.6244C32.8942 78.715 32.8036 78.8056 32.7129 78.8963C32.5317 79.1682 32.2598 79.2588 31.9879 79.2588ZM31.1269 64.7581L32.7129 75.4523L36.4741 70.7849L33.302 63.7158L31.1269 64.7581Z" fill="black"/>
<path d="M46.0355 80.4823H39.4196C38.9664 80.4823 38.5133 80.2104 38.3773 79.7573L35.6585 72.6882C35.5225 72.3256 35.5678 71.8725 35.8397 71.5553L36.9726 70.1505C37.1992 69.8786 37.5617 69.6974 37.9242 69.7427C38.2867 69.7427 38.6039 69.9693 38.8305 70.2412C38.9664 70.4224 39.193 70.5584 39.4196 70.5584H45.8996C46.1715 70.5584 46.3981 70.4224 46.534 70.1505C46.8059 69.6068 47.4856 69.3349 48.0294 69.6068C48.1653 69.6974 48.3013 69.788 48.4372 69.924L49.7514 71.51C50.0232 71.8272 50.0686 72.235 49.9326 72.6428L47.2137 79.712C46.8965 80.2104 46.4887 80.4823 46.0355 80.4823ZM40.1899 78.2166H45.2199L47.4403 72.4616L47.3497 72.371C46.8965 72.6882 46.3074 72.8241 45.7637 72.8241H39.2836C38.8305 72.8241 38.332 72.7335 37.9242 72.5069L40.1899 78.2166Z" fill="black"/>
<path d="M47.9387 116.19H37.5163C36.9725 116.19 36.4741 115.783 36.3834 115.239L34.7068 104.182C34.7068 104.091 34.7068 103.955 34.7068 103.865L38.2867 79.2135C38.3773 78.6697 38.8304 78.2619 39.4195 78.2619H46.0355C46.5793 78.2619 47.0777 78.6697 47.1684 79.2135L50.7482 103.865V104.182L49.0716 115.239C48.9809 115.783 48.4825 116.19 47.9387 116.19ZM38.4679 113.925H46.9418L48.4372 104.001L45.0386 80.4823H40.4164L37.0178 104.001L38.4679 113.925Z" fill="black"/>
<path d="M72.6808 88.4577C64.796 88.4577 58.3613 82.0683 58.3613 74.1382C58.3613 66.2081 64.7507 59.8188 72.6808 59.8188C80.6109 59.8188 87.0003 66.2081 87.0003 74.1382C87.0003 82.0683 80.6109 88.4577 72.6808 88.4577ZM72.6808 62.0845C66.0195 62.0845 60.6271 67.4769 60.6271 74.1382C60.6271 80.7995 66.0195 86.192 72.6808 86.192C79.3421 86.192 84.7345 80.7995 84.7345 74.1382C84.7345 67.5223 79.3421 62.1298 72.6808 62.0845Z" fill="black"/>
<path d="M45.8091 72.8241H39.3291C38.1509 72.8241 37.1087 72.1444 36.6102 71.0568L32.8038 62.583C32.7584 62.447 32.7131 62.2658 32.7131 62.1298V55.967C32.7131 55.3326 33.2116 54.8341 33.846 54.8341C34.0273 54.8341 34.2538 54.8794 34.3898 54.9701C39.5557 57.9155 45.8997 57.9155 51.0203 54.9701C51.5641 54.6529 52.2438 54.8341 52.561 55.3779C52.6516 55.5592 52.697 55.7404 52.697 55.9217V62.0845C52.697 62.2658 52.6516 62.447 52.6063 62.583L48.4827 71.1021C47.9842 72.1897 46.942 72.8241 45.8091 72.8241ZM34.9789 61.9032L38.6947 70.1505C38.8306 70.4224 39.0572 70.5584 39.3291 70.5584H45.8091C46.081 70.5584 46.3076 70.4224 46.4435 70.1505L50.4765 61.8579V57.7796C45.5372 60 39.9182 60 34.9789 57.7796V61.9032Z" fill="black"/>
<path d="M61.8955 42.7351C61.4424 42.7351 60.9892 42.6898 60.5361 42.5991C59.947 42.5085 59.5392 42.01 59.5845 41.4209C59.6298 40.9678 59.6298 40.6053 59.6298 40.2881V26.6936C59.6298 26.1499 60.0376 25.6514 60.5814 25.5608C65.2941 24.8357 69.735 28.0531 70.46 32.7658C71.1851 37.4786 67.9677 41.9194 63.255 42.6444C62.8018 42.7351 62.3487 42.7351 61.8955 42.7351ZM61.8502 40.4693C65.3848 40.5147 68.2849 37.6598 68.3302 34.1253C68.3756 30.5907 65.5207 27.7359 61.9862 27.6906C61.9409 27.6906 61.8955 27.6906 61.8955 27.6906H61.8502V40.2881V40.4693Z" fill="black"/>
<path d="M23.5594 42.7351C18.8014 42.7351 14.9043 38.8833 14.9043 34.1253C14.9043 29.3672 18.7561 25.4702 23.5141 25.4702C23.9673 25.4702 24.4204 25.5155 24.9189 25.5608C25.4626 25.6514 25.8705 26.1046 25.8705 26.6937V40.3334C25.8705 40.6506 25.8705 41.0131 25.9158 41.4663C25.9611 42.0554 25.5533 42.5538 24.9642 42.6445C24.511 42.6898 24.0126 42.7351 23.5594 42.7351ZM23.5594 27.7359C20.0249 27.7812 17.2153 30.636 17.2153 34.1706C17.2607 37.6598 20.0702 40.4693 23.5594 40.5147H23.6047C23.6047 40.4693 23.6047 40.3787 23.6047 40.3334L23.5594 27.7359Z" fill="black"/>
<path d="M42.7276 59.4562C32.1692 59.4562 23.6047 50.8917 23.6047 40.3334V25.8327C23.6047 25.1983 23.8766 24.6092 24.3751 24.2013C24.8735 23.7935 25.508 23.6576 26.1424 23.7935C29.6769 24.5185 38.468 25.4248 44.5855 17.7666C45.3105 16.8604 46.6246 16.7244 47.5309 17.4041C47.5763 17.4494 47.6669 17.4948 47.7122 17.5401C48.981 18.7636 52.6968 21.6637 59.9019 21.8903C61.0347 21.9356 61.8957 22.8419 61.941 23.9295V24.2467V40.2881C61.8504 50.8917 53.2859 59.4562 42.7276 59.4562ZM25.8705 26.0139V40.2881C25.8705 49.6229 33.438 57.1452 42.7276 57.1452C52.0171 57.1452 59.5847 49.5776 59.5847 40.2881V24.2467C59.5847 24.2013 59.5847 24.2013 59.5847 24.156C52.153 23.8841 48.0294 21.0746 46.1715 19.3074C39.2837 27.8265 29.1331 26.6937 25.8705 26.0139Z" fill="black"/>
<path d="M67.1068 29.8204C66.8349 29.8204 66.5177 29.6844 66.3365 29.5032C65.1583 28.3703 63.5723 27.6906 61.8956 27.6906C61.5784 27.6906 61.2159 27.7359 60.8987 27.7812C60.2643 27.8718 59.7205 27.464 59.5846 26.8296C59.5846 26.7843 59.5846 26.6937 59.5846 26.6483V24.2467C59.5846 24.2013 59.5846 24.2013 59.5846 24.156C52.1529 23.8841 48.0293 21.0746 46.1714 19.3073C39.2836 27.8265 29.133 26.6937 25.8704 26.0139V26.6483C25.8704 27.2827 25.3719 27.7812 24.7375 27.7812C24.6922 27.7812 24.6016 27.7812 24.5562 27.7812C24.239 27.7359 23.9218 27.6906 23.5593 27.6906C22.1092 27.6906 20.7045 28.189 19.5716 29.0953C19.0732 29.5032 18.3481 29.4125 17.9856 28.9141C17.8043 28.7328 17.759 28.4609 17.759 28.189V19.8964C17.759 9.02089 26.5954 0.184509 37.471 0.184509H42.7275C46.3527 0.184509 49.7513 1.95179 51.9264 4.85193C53.4671 4.12689 55.0984 3.71906 56.8204 3.71906C63.1191 3.71906 68.2397 8.83963 68.2397 15.1384V28.6422C68.2397 29.3219 67.7412 29.8204 67.1068 29.8204ZM61.8956 25.4702C63.3004 25.4702 64.7051 25.8327 65.974 26.5124V15.1837C65.974 10.1538 61.9409 6.03012 56.8657 6.03012C55.189 6.03012 53.5577 6.48326 52.153 7.34424C51.6092 7.66145 50.9294 7.48019 50.6122 6.93641C48.9356 4.17221 45.9448 2.45025 42.7275 2.45025H37.4256C27.8189 2.45025 20.0248 10.2897 20.0248 19.8964V26.1952C21.1576 25.6967 22.3811 25.4248 23.65 25.4248C23.8765 24.292 24.9641 23.5216 26.097 23.7482H26.1423C29.6768 24.4732 38.4679 25.3795 44.5854 17.7213C45.3104 16.815 46.6245 16.6791 47.5308 17.3588C47.5762 17.4041 47.6668 17.4494 47.7121 17.4948C48.9809 18.7183 52.6967 21.6184 59.9018 21.845C61.0346 21.8903 61.8956 22.7966 61.9409 23.8841V24.2013L61.8956 25.4702Z" fill="black"/>
<path d="M71.4119 81.3433C70.5056 81.3433 69.6446 80.9808 69.0102 80.3464L64.9772 76.3134C63.6178 74.9992 63.6178 72.8694 64.9319 71.51C66.246 70.1505 68.3758 70.1505 69.7353 71.4647L69.7806 71.51L71.4119 73.1413L75.7168 68.8364C77.031 67.477 79.1607 67.477 80.5202 68.7911C81.8796 70.1052 81.8796 72.235 80.5655 73.5945L80.5202 73.6398L73.8136 80.3917C73.1792 81.0261 72.3182 81.3433 71.4119 81.3433ZM70.5963 78.7604C71.0494 79.2135 71.7744 79.2135 72.1823 78.7604L78.8889 72.0538C79.342 71.6006 79.342 70.8756 78.8889 70.4678C78.4357 70.0599 77.756 70.0599 77.3028 70.4678L72.1823 75.543C71.7291 75.9962 71.0041 75.9962 70.5963 75.543L68.1493 73.096C67.6961 72.6882 67.0164 72.6882 66.5632 73.096C66.1101 73.5492 66.1101 74.2742 66.5632 74.682L70.5963 78.7604Z" fill="black"/>
</svg>
