<svg width="12" height="11" viewBox="0 0 12 11" fill="none" xmlns="http://www.w3.org/2000/svg">
<path d="M10.4752 1.59815H8.79097L8.59486 1.00979C8.50033 0.724115 8.31808 0.475544 8.07405 0.29948C7.83003 0.123415 7.53667 0.0288343 7.23576 0.0292064H4.81253C4.51171 0.0289765 4.21846 0.123619 3.97453 0.299669C3.73059 0.475719 3.54839 0.724211 3.45383 1.00979L3.25732 1.59815H1.57307C1.19329 1.59856 0.829181 1.74961 0.560636 2.01816C0.292091 2.2867 0.14104 2.65081 0.140625 3.03059V8.79644C0.141455 9.17595 0.292689 9.53965 0.561189 9.80786C0.829689 10.0761 1.19356 10.2269 1.57307 10.2273H10.4768C10.8563 10.2265 11.22 10.0752 11.4882 9.80675C11.7564 9.53825 11.9073 9.17438 11.9077 8.79487V3.02902C11.9068 2.64951 11.7556 2.28581 11.4871 2.0176C11.2186 1.7494 10.8547 1.59856 10.4752 1.59815ZM11.1232 8.79487C11.123 8.96666 11.0547 9.13135 10.9332 9.25283C10.8117 9.3743 10.647 9.44263 10.4752 9.44284H1.57307C1.40128 9.44263 1.23658 9.3743 1.11511 9.25283C0.993637 9.13135 0.925302 8.96666 0.925095 8.79487V3.02902C0.925717 2.8575 0.994235 2.69321 1.11566 2.57208C1.23709 2.45094 1.40155 2.38282 1.57307 2.38262H3.54012C3.62241 2.38255 3.7026 2.35661 3.76933 2.30846C3.83606 2.26032 3.88596 2.1924 3.91196 2.11433L4.1979 1.25651C4.24084 1.12748 4.32333 1.01526 4.43366 0.935769C4.54399 0.856278 4.67655 0.81356 4.81253 0.813676H7.23576C7.37181 0.813527 7.50444 0.85628 7.61478 0.935854C7.72513 1.01543 7.80757 1.12777 7.85039 1.2569L8.13633 2.11433C8.16234 2.1924 8.21223 2.26032 8.27897 2.30846C8.3457 2.35661 8.42588 2.38255 8.50817 2.38262H10.4752C10.647 2.38282 10.8117 2.45116 10.9332 2.57263C11.0547 2.6941 11.123 2.8588 11.1232 3.03059V8.79487Z" fill="#147CBF"/>
<path d="M6.01989 2.77486C5.43806 2.77486 4.8693 2.94739 4.38553 3.27063C3.90176 3.59388 3.52471 4.05332 3.30205 4.59085C3.0794 5.12839 3.02114 5.71988 3.13465 6.29053C3.24816 6.86117 3.52834 7.38534 3.93975 7.79676C4.35116 8.20817 4.87533 8.48835 5.44598 8.60185C6.01662 8.71536 6.60811 8.65711 7.14565 8.43445C7.68319 8.2118 8.14263 7.83474 8.46587 7.35097C8.78912 6.8672 8.96165 6.29844 8.96165 5.71662C8.96082 4.93667 8.65062 4.1889 8.09911 3.6374C7.5476 3.08589 6.79984 2.77569 6.01989 2.77486ZM6.01989 7.87391C5.59322 7.87391 5.17613 7.74739 4.82136 7.51034C4.4666 7.27329 4.19009 6.93637 4.02681 6.54218C3.86353 6.14798 3.82081 5.71422 3.90405 5.29575C3.98729 4.87728 4.19275 4.49288 4.49445 4.19118C4.79615 3.88948 5.18055 3.68402 5.59902 3.60078C6.01749 3.51754 6.45125 3.56026 6.84545 3.72354C7.23964 3.88682 7.57656 4.16333 7.81361 4.51809C8.05066 4.87286 8.17718 5.28995 8.17718 5.71662C8.17656 6.28858 7.94907 6.83693 7.54463 7.24136C7.1402 7.6458 6.59185 7.87329 6.01989 7.87391Z" fill="#147CBF"/>
<path d="M9.94692 3.95155C10.1635 3.95155 10.3392 3.77594 10.3392 3.55932C10.3392 3.34269 10.1635 3.16708 9.94692 3.16708C9.7303 3.16708 9.55469 3.34269 9.55469 3.55932C9.55469 3.77594 9.7303 3.95155 9.94692 3.95155Z" fill="#147CBF"/>
</svg>
