<svg width="28" height="26" viewBox="0 0 28 26" fill="none" xmlns="http://www.w3.org/2000/svg">
<path d="M12.5918 25.7103C5.64917 25.7103 0 20.0613 0 13.1187C0 6.17611 5.64917 0.526947 12.5918 0.526947C15.006 0.526947 17.3548 1.21486 19.3843 2.51753C19.7828 2.77408 19.8995 3.30521 19.643 3.70471C19.3856 4.10421 18.8555 4.2197 18.456 3.96336C16.7046 2.83801 14.6763 2.244 12.5918 2.244C6.59573 2.244 1.71705 7.12267 1.71705 13.1187C1.71705 19.1146 6.59573 23.9933 12.5918 23.9933C18.5876 23.9933 23.4663 19.1146 23.4663 13.1187C23.4663 12.7603 23.4491 12.4055 23.416 12.0565C23.3703 11.5836 23.7159 11.1646 24.1875 11.1189C24.6614 11.0753 25.0792 11.4189 25.1251 11.8905C25.1639 12.2946 25.1834 12.7043 25.1834 13.1187C25.1834 20.0613 19.5344 25.7103 12.5918 25.7103Z" fill="#08E595"/>
<path d="M14.021 15.9807C13.8013 15.9807 13.5814 15.8971 13.4144 15.729L8.26324 10.5778C7.92788 10.2422 7.92788 9.69852 8.26324 9.36316C8.5986 9.0278 9.14231 9.0278 9.47767 9.36316L14.0222 13.9077L26.006 1.92379C26.3415 1.58843 26.8852 1.58843 27.2206 1.92379C27.556 2.25915 27.556 2.80286 27.2206 3.13822L14.6288 15.73C14.4605 15.8971 14.2409 15.9807 14.021 15.9807Z" fill="#08E595"/>
</svg>
