<svg width="189" height="189" viewBox="0 0 189 189" fill="none" xmlns="http://www.w3.org/2000/svg">
<path d="M94.0939 9C116.662 9 138.305 17.9647 154.263 33.9221C170.221 49.8795 179.187 71.5225 179.188 94.0902C179.189 116.658 170.225 138.302 154.268 154.26C138.312 170.219 116.669 179.186 94.1013 179.188C71.5337 179.19 49.8895 170.227 33.93 154.271C17.9705 138.315 9.00295 116.673 9 94.105C8.99705 71.5374 17.9589 49.8928 33.9142 33.9326C49.8696 17.9724 71.5114 9.00394 94.0791 9" stroke="#F2F2F2" stroke-opacity="0.85" stroke-width="17.415"/>
<path d="M94.0932 9C109.786 9 125.174 13.3397 138.555 21.5394C151.935 29.7391 162.788 41.4793 169.912 55.4621C177.037 69.4448 180.156 85.1255 178.925 100.77C177.693 116.415 172.16 131.415 162.936 144.111C153.711 156.807 141.156 166.705 126.657 172.71C112.159 178.716 96.2816 180.595 80.7816 178.14C65.2816 175.685 50.7623 168.992 38.8291 158.8C26.8959 148.608 18.0135 135.315 13.1641 120.389" stroke="#F24F4F" stroke-width="17.9537"/>
<path d="M83.0996 120.336H86.4102V114.926C86.2669 115.154 85.1634 116.957 83.0996 120.336ZM86.3711 126V122.279H80.3457V120.434L86.0488 111.781H88.8418V120.336H91.0781V122.279H88.8906V126H86.3711ZM97.9336 126.225C96.3516 126.225 95.1211 125.551 94.2422 124.203C93.3698 122.849 92.9336 121.036 92.9336 118.764C92.9336 116.465 93.3633 114.685 94.2227 113.422C95.0885 112.152 96.332 111.518 97.9531 111.518C99.5482 111.518 100.775 112.165 101.635 113.461C102.501 114.757 102.934 116.524 102.934 118.764C102.934 120.255 102.748 121.557 102.377 122.67C102.006 123.777 101.439 124.646 100.678 125.277C99.9225 125.909 99.0078 126.225 97.9336 126.225ZM97.9727 124.105C99.5938 124.105 100.404 122.328 100.404 118.773C100.404 118.083 100.362 117.445 100.277 116.859C100.193 116.273 100.059 115.733 99.877 115.238C99.7012 114.737 99.4505 114.346 99.125 114.066C98.806 113.78 98.4251 113.637 97.9824 113.637C97.5202 113.637 97.1198 113.78 96.7812 114.066C96.4427 114.346 96.1823 114.737 96 115.238C95.8177 115.733 95.6842 116.273 95.5996 116.859C95.515 117.445 95.4727 118.087 95.4727 118.783C95.4727 119.59 95.515 120.303 95.5996 120.922C95.6842 121.54 95.8177 122.097 96 122.592C96.1888 123.08 96.4492 123.454 96.7812 123.715C97.1133 123.975 97.5104 124.105 97.9727 124.105ZM118.148 126.195C117.068 126.195 116.199 125.847 115.541 125.15C114.883 124.454 114.555 123.568 114.555 122.494C114.555 121.439 114.883 120.557 115.541 119.848C116.199 119.132 117.064 118.773 118.139 118.773C119.213 118.773 120.082 119.132 120.746 119.848C121.41 120.564 121.742 121.446 121.742 122.494C121.742 123.575 121.413 124.464 120.756 125.16C120.098 125.85 119.229 126.195 118.148 126.195ZM118.139 124.672C118.653 124.672 119.037 124.499 119.291 124.154C119.551 123.809 119.682 123.256 119.682 122.494C119.682 121.765 119.558 121.218 119.311 120.854C119.063 120.489 118.673 120.307 118.139 120.307C117.611 120.307 117.224 120.486 116.977 120.844C116.729 121.202 116.605 121.749 116.605 122.484C116.605 123.246 116.732 123.803 116.986 124.154C117.24 124.499 117.624 124.672 118.139 124.672ZM107.914 126L117.006 111.781H118.988L109.896 126H107.914ZM108.686 119.018C107.579 119.018 106.703 118.692 106.059 118.041C105.414 117.383 105.092 116.475 105.092 115.316C105.092 114.177 105.414 113.275 106.059 112.611C106.703 111.941 107.579 111.605 108.686 111.605C109.786 111.605 110.658 111.941 111.303 112.611C111.954 113.282 112.279 114.184 112.279 115.316C112.279 116.482 111.957 117.39 111.312 118.041C110.668 118.692 109.792 119.018 108.686 119.018ZM108.686 117.494C109.2 117.494 109.584 117.325 109.838 116.986C110.092 116.641 110.219 116.088 110.219 115.326C110.219 114.59 110.095 114.04 109.848 113.676C109.607 113.311 109.219 113.129 108.686 113.129C108.152 113.129 107.761 113.311 107.514 113.676C107.273 114.034 107.152 114.581 107.152 115.316C107.152 116.078 107.279 116.632 107.533 116.977C107.787 117.322 108.171 117.494 108.686 117.494Z" fill="#373D3F"/>
<path d="M50.5625 87V72.7812H53.043V87H50.5625ZM56.2656 87V80.7988C56.2656 80.0892 56.2493 79.4186 56.2168 78.7871C56.1842 78.1491 56.1517 77.6901 56.1191 77.4102L56.0703 76.9805H58.6387V78.3184C58.9837 77.7975 59.4427 77.4036 60.0156 77.1367C60.5951 76.8633 61.1549 76.7266 61.6953 76.7266C62.2747 76.7266 62.7826 76.8047 63.2188 76.9609C63.6549 77.1107 64.0391 77.3581 64.3711 77.7031C64.7096 78.0417 64.9668 78.5104 65.1426 79.1094C65.3184 79.7083 65.4062 80.4342 65.4062 81.2871V87H62.9844V81.1211C62.9844 80.2357 62.8444 79.6107 62.5645 79.2461C62.291 78.875 61.8353 78.6895 61.1973 78.6895C60.9629 78.6895 60.7057 78.7415 60.4258 78.8457C60.1458 78.9499 59.8724 79.0964 59.6055 79.2852C59.3451 79.4674 59.127 79.7116 58.9512 80.0176C58.7754 80.3171 58.6875 80.6458 58.6875 81.0039V87H56.2656ZM80.709 87.2148C79.7715 87.2148 78.8796 87.0553 78.0332 86.7363C77.1868 86.4108 76.4316 85.9486 75.7676 85.3496C75.1035 84.7507 74.5729 83.9824 74.1758 83.0449C73.7852 82.1009 73.5898 81.0527 73.5898 79.9004C73.5898 78.9368 73.7201 78.0482 73.9805 77.2344C74.2474 76.4141 74.6055 75.7207 75.0547 75.1543C75.5039 74.5814 76.0247 74.0931 76.6172 73.6895C77.2096 73.2858 77.8346 72.9896 78.4922 72.8008C79.1497 72.612 79.8236 72.5176 80.5137 72.5176C82.3757 72.5176 83.9577 73.0286 85.2598 74.0508L84.293 75.7793C83.2122 75.0306 82.0208 74.6562 80.7188 74.6562C80.1133 74.6562 79.5371 74.7767 78.9902 75.0176C78.4499 75.2585 77.9714 75.597 77.5547 76.0332C77.138 76.4694 76.806 77.0195 76.5586 77.6836C76.3112 78.3477 76.1875 79.0768 76.1875 79.8711C76.1875 81.4401 76.6302 82.6999 77.5156 83.6504C78.401 84.6009 79.5208 85.0762 80.875 85.0762C82.3008 85.0762 83.6094 84.5977 84.8008 83.6406L85.6309 85.6035C84.2507 86.6777 82.61 87.2148 80.709 87.2148ZM92.9062 87.2246C92.0339 87.2246 91.2559 87.0846 90.5723 86.8047C89.8887 86.5182 89.3353 86.1341 88.9121 85.6523C88.4954 85.1641 88.1764 84.6107 87.9551 83.9922C87.7402 83.3672 87.6328 82.6999 87.6328 81.9902C87.6328 81.2676 87.7435 80.5938 87.9648 79.9688C88.1862 79.3372 88.5085 78.7806 88.9316 78.2988C89.3613 77.8105 89.9147 77.4264 90.5918 77.1465C91.2754 76.8665 92.0436 76.7266 92.8965 76.7266C93.7689 76.7266 94.5436 76.8665 95.2207 77.1465C95.8978 77.4199 96.4414 77.8008 96.8516 78.2891C97.2617 78.7708 97.5677 79.3275 97.7695 79.959C97.9779 80.584 98.082 81.2676 98.082 82.0098C98.082 82.7064 97.9746 83.3639 97.7598 83.9824C97.5449 84.5944 97.2292 85.1445 96.8125 85.6328C96.4023 86.1211 95.8587 86.5085 95.1816 86.7949C94.5111 87.0814 93.7526 87.2246 92.9062 87.2246ZM92.8574 85.2715C93.3327 85.2715 93.7493 85.1836 94.1074 85.0078C94.4655 84.8255 94.7454 84.5781 94.9473 84.2656C95.1556 83.9466 95.3086 83.5951 95.4062 83.2109C95.5104 82.8268 95.5625 82.4102 95.5625 81.9609C95.5625 81.0039 95.3346 80.2194 94.8789 79.6074C94.4297 78.9954 93.7591 78.6895 92.8672 78.6895C92.2617 78.6895 91.7507 78.8424 91.334 79.1484C90.9173 79.4479 90.6146 79.8385 90.4258 80.3203C90.2435 80.8021 90.1523 81.349 90.1523 81.9609C90.1523 82.5664 90.237 83.11 90.4062 83.5918C90.582 84.0736 90.8783 84.474 91.2949 84.793C91.7181 85.112 92.2389 85.2715 92.8574 85.2715ZM100.68 87V80.7988C100.68 80.0892 100.663 79.4186 100.631 78.7871C100.598 78.1491 100.566 77.6901 100.533 77.4102L100.484 76.9805H103.053V78.3184C103.398 77.7975 103.857 77.4036 104.43 77.1367C105.009 76.8633 105.569 76.7266 106.109 76.7266C106.689 76.7266 107.197 76.8047 107.633 76.9609C108.069 77.1107 108.453 77.3581 108.785 77.7031C109.124 78.0417 109.381 78.5104 109.557 79.1094C109.732 79.7083 109.82 80.4342 109.82 81.2871V87H107.398V81.1211C107.398 80.2357 107.258 79.6107 106.979 79.2461C106.705 78.875 106.249 78.6895 105.611 78.6895C105.377 78.6895 105.12 78.7415 104.84 78.8457C104.56 78.9499 104.286 79.0964 104.02 79.2852C103.759 79.4674 103.541 79.7116 103.365 80.0176C103.189 80.3171 103.102 80.6458 103.102 81.0039V87H100.68ZM113.639 87V78.6016H111.773V76.9805H113.639V76.5898C113.639 76.1341 113.648 75.7565 113.668 75.457C113.688 75.1576 113.73 74.8516 113.795 74.5391C113.86 74.2201 113.951 73.9661 114.068 73.7773C114.192 73.582 114.355 73.3965 114.557 73.2207C114.765 73.0384 115.019 72.9017 115.318 72.8105C115.618 72.7129 115.976 72.638 116.393 72.5859C116.816 72.5273 117.304 72.498 117.857 72.498H118.375L118.287 74.3828C117.916 74.3828 117.62 74.3893 117.398 74.4023C117.184 74.4154 116.982 74.4544 116.793 74.5195C116.611 74.5781 116.477 74.6497 116.393 74.7344C116.308 74.8125 116.236 74.946 116.178 75.1348C116.119 75.3171 116.083 75.5124 116.07 75.7207C116.057 75.9225 116.051 76.2025 116.051 76.5605V76.9805H118.307V78.6016H116.051V87H113.639ZM120.484 87V72.7715H122.877V87H120.484ZM125.621 74.9102V72.7812H127.965V74.9102H125.621ZM125.631 87V76.9805H127.965V87H125.631ZM135.641 87.2246C134.827 87.2246 134.081 87.0814 133.404 86.7949C132.734 86.5085 132.184 86.1211 131.754 85.6328C131.324 85.1445 130.992 84.5879 130.758 83.9629C130.523 83.3314 130.406 82.6706 130.406 81.9805C130.406 80.9909 130.608 80.1022 131.012 79.3145C131.422 78.5202 132.024 77.8919 132.818 77.4297C133.619 76.9609 134.55 76.7266 135.611 76.7266C137.187 76.7266 138.398 77.1758 139.244 78.0742L138.375 79.6367C137.652 78.9987 136.816 78.6797 135.865 78.6797C134.915 78.6797 134.186 78.9792 133.678 79.5781C133.17 80.1771 132.916 80.9811 132.916 81.9902C132.916 82.9733 133.186 83.7676 133.727 84.373C134.267 84.972 135.006 85.2715 135.943 85.2715C136.074 85.2715 136.204 85.265 136.334 85.252C136.464 85.2389 136.581 85.2227 136.686 85.2031C136.79 85.1836 136.897 85.1576 137.008 85.125C137.125 85.0859 137.223 85.0534 137.301 85.0273C137.379 84.9948 137.467 84.9525 137.564 84.9004C137.662 84.8483 137.737 84.8092 137.789 84.7832C137.848 84.7507 137.919 84.7051 138.004 84.6465C138.089 84.5879 138.144 84.5488 138.17 84.5293C138.202 84.5098 138.255 84.474 138.326 84.4219C138.404 84.3633 138.447 84.3307 138.453 84.3242L139.186 86.1016C138.626 86.4922 138.066 86.7786 137.506 86.9609C136.946 87.1367 136.324 87.2246 135.641 87.2246ZM147.027 86.9902H146.051C145.66 86.9902 145.322 86.9805 145.035 86.9609C144.749 86.9414 144.452 86.8991 144.146 86.834C143.847 86.7689 143.59 86.6842 143.375 86.5801C143.167 86.4694 142.965 86.3229 142.77 86.1406C142.574 85.9583 142.418 85.7402 142.301 85.4863C142.184 85.2259 142.089 84.9167 142.018 84.5586C141.952 84.2005 141.92 83.7904 141.92 83.3281V78.6016H139.83V76.9805H142.018V74.6367L144.332 73.9238V76.9805H146.949V78.6016H144.332V83.4746C144.332 83.7871 144.355 84.041 144.4 84.2363C144.452 84.4251 144.527 84.5846 144.625 84.7148C144.723 84.8385 144.885 84.9297 145.113 84.9883C145.348 85.0469 145.602 85.0859 145.875 85.1055C146.148 85.125 146.533 85.1348 147.027 85.1348V86.9902Z" fill="#FB0000"/>
</svg>
