<svg width="44" height="44" viewBox="0 0 44 44" fill="none" xmlns="http://www.w3.org/2000/svg">
<rect x="1" y="1" width="42" height="42" rx="21" fill="white" stroke="#0674BB" stroke-width="2"/>
<path d="M11.1553 17.9488H33.7216C34.4608 17.9488 35.0624 18.5504 35.0624 19.2896V34.6592C35.0624 35.3984 34.4608 36 33.7216 36H11.1553C10.4161 36 9.81445 35.3984 9.81445 34.6592V19.2896C9.81445 18.5504 10.4161 17.9488 11.1553 17.9488Z" fill="#421A07"/>
<path d="M30.8477 23.6544C30.8477 25.3536 32.0573 26.7296 33.5485 26.7296C35.0397 26.7296 36.2461 25.3536 36.2461 23.6544C36.2461 21.9552 35.0397 20.5824 33.5485 20.5824C32.0573 20.5824 30.8477 21.9584 30.8477 23.6544Z" fill="#FFBB8D"/>
<path d="M8.40625 23.6544C8.40625 25.3536 9.61265 26.7296 11.1038 26.7296C12.595 26.7296 13.8014 25.3536 13.8014 23.6544C13.8014 21.9552 12.595 20.5824 11.1038 20.5824C9.61265 20.5824 8.40625 21.9584 8.40625 23.6544Z" fill="#FFBB8D"/>
<path d="M9.73047 20.72C9.73047 28.4864 15.1129 34.3328 22.3257 34.3328C29.5385 34.3328 34.9177 28.4864 34.9177 20.72C34.9177 12.9536 29.5257 7.60002 22.3257 7.60002C15.1257 7.60002 9.73047 12.9472 9.73047 20.72Z" fill="#FFC89F"/>
<path d="M27.1895 26.9888C27.1895 27.8528 27.9959 28.5536 28.9879 28.5536C29.9799 28.5536 30.7895 27.8528 30.7895 26.9888C30.7895 26.1248 29.9831 25.4208 28.9879 25.4208C27.9927 25.4208 27.1895 26.1248 27.1895 26.9888Z" fill="#FFA38A"/>
<path d="M13.8613 26.9888C13.8613 27.8528 14.6677 28.5536 15.6597 28.5536C16.6517 28.5536 17.4613 27.8528 17.4613 26.9888C17.4613 26.1248 16.6549 25.4208 15.6597 25.4208C14.6645 25.4208 13.8613 26.1248 13.8613 26.9888Z" fill="#FFA38A"/>
<path d="M12.2466 30.1056C12.2466 30.5216 11.7058 30.8608 11.037 30.8608C10.365 30.8608 9.82422 30.5216 9.82422 30.1056V20.3008C9.82422 19.8816 12.2466 18.6592 12.2466 19.0784V30.1056Z" fill="#421A07"/>
<path d="M32.5898 30.1056C32.5898 30.5216 33.1434 30.8608 33.825 30.8608C34.5098 30.8608 35.0634 30.5216 35.0634 30.1056V20.3008C35.0634 19.8816 32.5898 18.6592 32.5898 19.0784V30.1056Z" fill="#421A07"/>
<path d="M9.75391 20.4192C9.75391 12.5952 15.0883 7.36002 22.4387 7.36002C29.7891 7.36002 35.1011 12.5728 35.1203 20.3744V20.432L35.0627 22.2208C35.0467 22.3104 35.0403 22.4 35.0435 22.4896C35.0435 23.3664 34.7779 24.0896 33.8979 24.0896C33.0179 24.0896 32.7555 23.376 32.7555 22.4896V21.8752C32.7555 18.0352 32.1699 16.3072 28.9987 16.3072H15.8787C13.1331 16.3072 12.2915 17.5872 12.1155 20.4V20.464V22.4896C12.1155 23.3664 11.8499 24.0896 10.9699 24.0896C10.0899 24.0896 9.82431 23.376 9.82431 22.4896V22.0448C9.81471 22.0384 9.75391 20.4352 9.75391 20.4192Z" fill="#421A07"/>
<path d="M15.0928 12.6432H29.7263C30.8623 12.6432 31.7839 13.5648 31.7839 14.7008V18.8992C31.7839 20.0352 30.8623 20.9568 29.7263 20.9568H15.0928C13.9568 20.9568 13.0352 20.0352 13.0352 18.8992V14.7008C13.0352 13.5648 13.9568 12.6432 15.0928 12.6432Z" fill="#421A07"/>
<path d="M18.5603 24.72H15.3603C15.2035 24.72 15.0755 24.5952 15.0723 24.4384C15.0723 24.4256 15.0723 24.4128 15.0755 24.4C15.1491 23.36 16.0547 22.576 17.0947 22.6528C18.0323 22.72 18.7779 23.4656 18.8419 24.4C18.8611 24.5568 18.7491 24.6976 18.5955 24.7168C18.5827 24.72 18.5731 24.72 18.5603 24.72Z" fill="#421A07"/>
<path d="M26.0935 24.72H29.2935C29.4503 24.72 29.5783 24.592 29.5783 24.4352C29.5783 24.4224 29.5783 24.4128 29.5751 24.4C29.5015 23.36 28.5959 22.576 27.5559 22.6528C26.6183 22.72 25.8727 23.4656 25.8087 24.4C25.7895 24.5568 25.9047 24.7008 26.0615 24.7168C26.0743 24.72 26.0839 24.72 26.0935 24.72Z" fill="#421A07"/>
<path d="M22.3235 31.1296C21.1811 31.152 20.0899 30.6592 19.3507 29.7888C19.1747 29.5488 19.2131 29.216 19.4371 29.0208C19.5267 28.9472 19.6387 28.9056 19.7571 28.9024C19.9203 28.9024 20.0739 28.9792 20.1731 29.1104C20.7139 29.7248 21.5011 30.064 22.3171 30.0352C23.1363 30.08 23.9299 29.7408 24.4643 29.1168C24.5603 28.9824 24.7171 28.9024 24.8835 28.9024C25.0019 28.9024 25.1139 28.944 25.2035 29.0176C25.4307 29.2096 25.4723 29.5424 25.2995 29.7824C24.5731 30.6752 23.4723 31.1712 22.3235 31.1296Z" fill="#8E4C3A"/>
</svg>
