<svg width="22" height="22" viewBox="0 0 22 22" fill="none" xmlns="http://www.w3.org/2000/svg">
<g clip-path="url(#clip0_482_3066)">
<path d="M19.7381 4.32439L15.6131 0.199386C15.4834 0.0706946 15.3077 -0.00102028 15.125 1.09699e-05H4.125C2.9859 1.09699e-05 2.0625 0.923409 2.0625 2.06251V19.9375C2.0625 21.0766 2.9859 22 4.125 22H17.875C19.0141 22 19.9375 21.0766 19.9375 19.9375V4.81251C19.9386 4.62976 19.8668 4.45415 19.7381 4.32439ZM18.5625 19.9375C18.5625 20.3172 18.2547 20.625 17.875 20.625H4.125C3.74529 20.625 3.4375 20.3172 3.4375 19.9375V2.06251C3.4375 1.6828 3.74529 1.37501 4.125 1.37501H14.4375V4.12501C14.4375 4.8844 15.0531 5.50001 15.8125 5.50001H18.5625V19.9375Z" fill="#0674BB"/>
<path d="M17.1875 16.5H15.8125V17.875H17.1875V16.5Z" fill="#0674BB"/>
<path d="M17.1875 9.625H4.8125V11H17.1875V9.625Z" fill="#0674BB"/>
<path d="M17.1875 13.0625H4.8125V14.4375H17.1875V13.0625Z" fill="#0674BB"/>
<path d="M14.4375 16.5H4.8125V17.875H14.4375V16.5Z" fill="#0674BB"/>
</g>
<defs>
<clipPath id="clip0_482_3066">
<rect width="22" height="22" fill="white"/>
</clipPath>
</defs>
</svg>
