<svg width="29" height="29" viewBox="0 0 29 29" fill="none" xmlns="http://www.w3.org/2000/svg">
<path d="M3.15525 10.9488H25.7216C26.4608 10.9488 27.0624 11.5504 27.0624 12.2896V27.6592C27.0624 28.3984 26.4608 29 25.7216 29H3.15525C2.41605 29 1.81445 28.3984 1.81445 27.6592V12.2896C1.81445 11.5504 2.41605 10.9488 3.15525 10.9488V10.9488Z" fill="#421A07"/>
<path d="M22.8477 16.6544C22.8477 18.3536 24.0573 19.7296 25.5485 19.7296C27.0397 19.7296 28.2461 18.3536 28.2461 16.6544C28.2461 14.9552 27.0397 13.5824 25.5485 13.5824C24.0573 13.5824 22.8477 14.9584 22.8477 16.6544Z" fill="#FFBB8D"/>
<path d="M0.40625 16.6544C0.40625 18.3536 1.61265 19.7296 3.10385 19.7296C4.59505 19.7296 5.80145 18.3536 5.80145 16.6544C5.80145 14.9552 4.59505 13.5824 3.10385 13.5824C1.61265 13.5824 0.40625 14.9584 0.40625 16.6544Z" fill="#FFBB8D"/>
<path d="M1.73047 13.72C1.73047 21.4864 7.11287 27.3328 14.3257 27.3328C21.5385 27.3328 26.9177 21.4864 26.9177 13.72C26.9177 5.95362 21.5257 0.600021 14.3257 0.600021C7.12567 0.600021 1.73047 5.94722 1.73047 13.72V13.72Z" fill="#FFC89F"/>
<path d="M19.1895 19.9888C19.1895 20.8528 19.9959 21.5536 20.9879 21.5536C21.9799 21.5536 22.7895 20.8528 22.7895 19.9888C22.7895 19.1248 21.9831 18.4208 20.9879 18.4208C19.9927 18.4208 19.1895 19.1248 19.1895 19.9888Z" fill="#FFA38A"/>
<path d="M5.86133 19.9888C5.86133 20.8528 6.66773 21.5536 7.65973 21.5536C8.65173 21.5536 9.46133 20.8528 9.46133 19.9888C9.46133 19.1248 8.65493 18.4208 7.65973 18.4208C6.66453 18.4208 5.86133 19.1248 5.86133 19.9888V19.9888Z" fill="#FFA38A"/>
<path d="M4.24662 23.1056C4.24662 23.5216 3.70582 23.8608 3.03702 23.8608C2.36502 23.8608 1.82422 23.5216 1.82422 23.1056V13.3008C1.82422 12.8816 4.24662 11.6592 4.24662 12.0784V23.1056Z" fill="#421A07"/>
<path d="M24.5898 23.1056C24.5898 23.5216 25.1434 23.8608 25.825 23.8608C26.5098 23.8608 27.0634 23.5216 27.0634 23.1056V13.3008C27.0634 12.8816 24.5898 11.6592 24.5898 12.0784V23.1056Z" fill="#421A07"/>
<path d="M1.75391 13.4192C1.75391 5.59521 7.0883 0.360016 14.4387 0.360016C21.7891 0.360016 27.1011 5.57281 27.1203 13.3744V13.432L27.0627 15.2208C27.0467 15.3104 27.0403 15.4 27.0435 15.4896C27.0435 16.3664 26.7779 17.0896 25.8979 17.0896C25.0179 17.0896 24.7555 16.376 24.7555 15.4896V14.8752C24.7555 11.0352 24.1699 9.30721 20.9987 9.30721H7.8787C5.1331 9.30721 4.29151 10.5872 4.11551 13.4V13.464V15.4896C4.11551 16.3664 3.84991 17.0896 2.96991 17.0896C2.08991 17.0896 1.82431 16.376 1.82431 15.4896V15.0448C1.81471 15.0384 1.75391 13.4352 1.75391 13.4192V13.4192Z" fill="#421A07"/>
<path d="M7.09276 5.64322H21.7263C22.8623 5.64322 23.7839 6.56482 23.7839 7.70082V11.8992C23.7839 13.0352 22.8623 13.9568 21.7263 13.9568H7.09276C5.95676 13.9568 5.03516 13.0352 5.03516 11.8992V7.70082C5.03516 6.56482 5.95676 5.64322 7.09276 5.64322V5.64322Z" fill="#421A07"/>
<path d="M10.5603 17.72H7.36027C7.20347 17.72 7.07547 17.5952 7.07227 17.4384C7.07227 17.4256 7.07227 17.4128 7.07547 17.4C7.14907 16.36 8.05467 15.576 9.09467 15.6528C10.0323 15.72 10.7779 16.4656 10.8419 17.4C10.8611 17.5568 10.7491 17.6976 10.5955 17.7168C10.5827 17.72 10.5731 17.72 10.5603 17.72Z" fill="#421A07"/>
<path d="M18.0935 17.72H21.2935C21.4503 17.72 21.5783 17.592 21.5783 17.4352C21.5783 17.4224 21.5783 17.4128 21.5751 17.4C21.5015 16.36 20.5959 15.576 19.5559 15.6528C18.6183 15.72 17.8727 16.4656 17.8087 17.4C17.7895 17.5568 17.9047 17.7008 18.0615 17.7168C18.0743 17.72 18.0839 17.72 18.0935 17.72Z" fill="#421A07"/>
<path d="M14.3235 24.1296C13.1811 24.152 12.0899 23.6592 11.3507 22.7888C11.1747 22.5488 11.2131 22.216 11.4371 22.0208C11.5267 21.9472 11.6387 21.9056 11.7571 21.9024C11.9203 21.9024 12.0739 21.9792 12.1731 22.1104C12.7139 22.7248 13.5011 23.064 14.3171 23.0352C15.1363 23.08 15.9299 22.7408 16.4643 22.1168C16.5603 21.9824 16.7171 21.9024 16.8835 21.9024C17.0019 21.9024 17.1139 21.944 17.2035 22.0176C17.4307 22.2096 17.4723 22.5424 17.2995 22.7824C16.5731 23.6752 15.4723 24.1712 14.3235 24.1296V24.1296Z" fill="#8E4C3A"/>
</svg>
