<svg width="30" height="30" viewBox="0 0 30 30" fill="none" xmlns="http://www.w3.org/2000/svg">
<path d="M0.9375 26.2499H12.9773C12.4705 25.3767 12.1091 24.4268 11.9072 23.4374H0.9375C0.68886 23.4374 0.450403 23.5362 0.274587 23.712C0.0987721 23.8878 0 24.1263 0 24.3749L0 25.3124C0 25.5611 0.0987721 25.7995 0.274587 25.9754C0.450403 26.1512 0.68886 26.2499 0.9375 26.2499Z" fill="#0674BB"/>
<path d="M0.9375 22.4999H11.7656C11.7348 22.1914 11.7192 21.8789 11.7188 21.5624C11.7185 20.9327 11.7816 20.3045 11.9072 19.6874H0.9375C0.68886 19.6874 0.450403 19.7862 0.274587 19.962C0.0987721 20.1378 0 20.3763 0 20.6249L0 21.5624C0 21.8111 0.0987721 22.0495 0.274587 22.2254C0.450403 22.4012 0.68886 22.4999 0.9375 22.4999Z" fill="#0674BB"/>
<path d="M0.9375 18.7499H12.1499C12.4697 17.737 12.9595 16.7859 13.5985 15.9374H0.9375C0.68886 15.9374 0.450403 16.0362 0.274587 16.212C0.0987721 16.3878 0 16.6263 0 16.8749L0 17.8124C0 18.0611 0.0987721 18.2995 0.274587 18.4754C0.450403 18.6512 0.68886 18.7499 0.9375 18.7499Z" fill="#0674BB"/>
<path d="M0.9375 14.9999H14.0625C14.2281 14.9999 14.3908 14.9558 14.5337 14.872C14.6344 14.7732 14.7374 14.6766 14.8425 14.5823C14.9454 14.4285 15.0002 14.2475 15 14.0624V13.1249C15 12.8763 14.9012 12.6378 14.7254 12.462C14.5496 12.2862 14.3111 12.1874 14.0625 12.1874H0.9375C0.68886 12.1874 0.450403 12.2862 0.274587 12.462C0.0987721 12.6378 0 12.8763 0 13.1249L0 14.0624C0 14.3111 0.0987721 14.5495 0.274587 14.7254C0.450403 14.9012 0.68886 14.9999 0.9375 14.9999Z" fill="#0674BB"/>
<path d="M13.5985 27.1874H0.9375C0.68886 27.1874 0.450403 27.2862 0.274587 27.462C0.0987721 27.6378 0 27.8763 0 28.1249L0 29.0624C0 29.3111 0.0987721 29.5495 0.274587 29.7254C0.450403 29.9012 0.68886 29.9999 0.9375 29.9999H14.0625C14.3111 29.9999 14.5496 29.9012 14.7254 29.7254C14.9012 29.5495 15 29.3111 15 29.0624V28.6808C14.4801 28.2352 14.0102 27.7345 13.5985 27.1874Z" fill="#0674BB"/>
<path d="M21.0938 13.1249C16.4414 13.1249 12.6562 16.9101 12.6562 21.5624C12.6562 26.2148 16.4414 29.9999 21.0938 29.9999C25.7461 29.9999 29.5312 26.2148 29.5312 21.5624C29.5312 16.9101 25.7461 13.1249 21.0938 13.1249ZM20.1562 20.6249H22.0312C22.7772 20.6249 23.4925 20.9213 24.02 21.4487C24.5474 21.9762 24.8438 22.6915 24.8438 23.4374C24.8438 24.1834 24.5474 24.8987 24.02 25.4262C23.4925 25.9536 22.7772 26.2499 22.0312 26.2499V27.6562H20.1562V26.2499C19.4106 26.2491 18.6957 25.9525 18.1685 25.4252C17.6412 24.898 17.3446 24.1831 17.3438 23.4374H19.2188C19.219 23.686 19.3179 23.9243 19.4937 24.1C19.6694 24.2758 19.9077 24.3747 20.1562 24.3749H22.0312C22.2799 24.3749 22.5183 24.2762 22.6942 24.1004C22.87 23.9245 22.9688 23.6861 22.9688 23.4374C22.9688 23.1888 22.87 22.9503 22.6942 22.7745C22.5183 22.5987 22.2799 22.4999 22.0312 22.4999H20.1562C19.4103 22.4999 18.695 22.2036 18.1675 21.6762C17.6401 21.1487 17.3438 20.4334 17.3438 19.6874C17.3438 18.9415 17.6401 18.2262 18.1675 17.6987C18.695 17.1713 19.4103 16.8749 20.1562 16.8749V15.4687H22.0312V16.8749C22.7769 16.8758 23.4918 17.1724 24.019 17.6997C24.5463 18.2269 24.8429 18.9418 24.8438 19.6874H22.9688C22.9685 19.4389 22.8696 19.2006 22.6938 19.0249C22.5181 18.8491 22.2798 18.7502 22.0312 18.7499H20.1562C19.9076 18.7499 19.6692 18.8487 19.4933 19.0245C19.3175 19.2003 19.2188 19.4388 19.2188 19.6874C19.2188 19.9361 19.3175 20.1745 19.4933 20.3504C19.6692 20.5262 19.9076 20.6249 20.1562 20.6249Z" fill="#0674BB"/>
<path d="M20.6258 3.20072V6.56242H22.5008V3.20072L23.2441 3.94404L24.5699 2.6183L22.2261 0.274546C22.0503 0.0987559 21.8119 0 21.5633 0C21.3146 0 21.0762 0.0987559 20.9004 0.274546L18.5566 2.6183L19.8824 3.94404L20.6258 3.20072Z" fill="#0674BB"/>
<path d="M24.5699 8.63156L25.3133 7.88824V11.2499H27.1883V7.88824L27.9316 8.63156L29.2574 7.30582L26.9136 4.96207C26.7378 4.78628 26.4994 4.68753 26.2508 4.68753C26.0021 4.68753 25.7637 4.78628 25.5879 4.96207L23.2441 7.30582L24.5699 8.63156Z" fill="#0674BB"/>
<path d="M15.0008 7.88824V11.2499H16.8758V7.88824L17.6191 8.63156L18.9449 7.30582L16.6011 4.96207C16.4253 4.78628 16.1869 4.68753 15.9383 4.68753C15.6896 4.68753 15.4512 4.78628 15.2754 4.96207L12.9316 7.30582L14.2574 8.63156L15.0008 7.88824Z" fill="#0674BB"/>
</svg>
