<svg width="169" height="169" viewBox="0 0 169 169" fill="none" xmlns="http://www.w3.org/2000/svg">
<path d="M84.4445 9C104.433 9 123.603 16.9401 137.737 31.0737C151.871 45.2073 159.812 64.3767 159.813 84.365C159.814 104.353 151.874 123.523 137.741 137.658C123.608 151.793 104.439 159.735 84.4511 159.737C64.4627 159.738 45.2923 151.8 31.1568 137.668C17.0214 123.535 9.07879 104.367 9.07617 84.3782C9.07356 64.3898 17.0112 45.2191 31.1429 31.083C45.2746 16.9469 64.443 9.00349 84.4313 9" stroke="#F2F2F2" stroke-opacity="0.85" stroke-width="17.415"/>
<path d="M84.4451 9C98.3447 9 111.974 12.8437 123.825 20.1063C135.676 27.3688 145.288 37.7672 151.599 50.1518C157.909 62.5364 160.672 76.4249 159.581 90.2816C158.491 104.138 153.589 117.424 145.419 128.669C137.249 139.914 126.129 148.68 113.287 154C100.446 159.319 86.3834 160.983 72.6549 158.809C58.9265 156.634 46.0667 150.706 35.4973 141.679C24.928 132.652 17.0608 120.878 12.7656 107.658" stroke="#FF6584" stroke-width="17.9537"/>
<path d="M74.1885 100.794C75.4971 100.794 76.5453 101.191 77.3331 101.985C78.1273 102.779 78.5245 103.922 78.5245 105.413C78.5245 105.725 78.4952 106.031 78.4366 106.331C78.3845 106.63 78.3227 106.894 78.251 107.122C78.1794 107.35 78.0655 107.597 77.9093 107.864C77.7595 108.131 77.6326 108.346 77.5284 108.508C77.4307 108.671 77.2712 108.88 77.0499 109.133C76.835 109.387 76.6755 109.573 76.5714 109.69C76.4672 109.801 76.2914 109.986 76.044 110.247L73.212 113.225H78.4171V115.256H70.1749V113.469L74.2862 108.899C74.6182 108.528 74.8461 108.274 74.9698 108.137C75.0935 107.994 75.2563 107.789 75.4581 107.522C75.6664 107.249 75.8064 107.031 75.878 106.868C75.9496 106.705 76.0147 106.506 76.0733 106.272C76.1384 106.038 76.171 105.794 76.171 105.54C76.171 105.351 76.1482 105.09 76.1026 104.758C76.044 104.4 75.9464 104.098 75.8096 103.85C75.6794 103.596 75.5167 103.404 75.3214 103.274C75.1326 103.137 74.9275 103.04 74.7061 102.981C74.4913 102.923 74.2471 102.893 73.9737 102.893C73.7914 102.893 73.6026 102.909 73.4073 102.942C73.212 102.968 73.0232 103.007 72.8409 103.059C72.6586 103.105 72.4763 103.16 72.294 103.225C72.1117 103.284 71.9425 103.349 71.7862 103.421C71.63 103.486 71.477 103.554 71.3272 103.626C71.184 103.691 71.057 103.756 70.9464 103.821C70.8357 103.88 70.738 103.935 70.6534 103.987C70.5688 104.033 70.5037 104.072 70.4581 104.104L70.3897 104.143L69.5596 102.2C69.6117 102.161 69.6833 102.112 69.7745 102.053C69.8721 101.988 70.0805 101.874 70.3995 101.712C70.7185 101.549 71.044 101.406 71.376 101.282C71.7146 101.158 72.141 101.048 72.6553 100.95C73.1697 100.846 73.6807 100.794 74.1885 100.794ZM86.8253 115.481C86.005 115.481 85.1977 115.315 84.4034 114.983C83.6156 114.645 82.9223 114.159 82.3233 113.528L83.6221 111.673C84.0714 112.219 84.5759 112.639 85.1358 112.932C85.6957 113.219 86.2426 113.362 86.7764 113.362C87.5056 113.362 88.1241 113.124 88.6319 112.649C89.1397 112.174 89.3936 111.497 89.3936 110.618C89.3936 109.921 89.2211 109.325 88.876 108.831C88.5375 108.329 88.0818 108.079 87.5089 108.079C86.7146 108.079 86.171 108.29 85.878 108.714L83.4073 108.381V101.038H91.3077V103.157H85.5948L85.4776 106.799C85.9398 106.187 86.7829 105.881 88.0069 105.881C89.0811 105.881 90.0056 106.34 90.7803 107.258C91.5616 108.176 91.9522 109.309 91.9522 110.657C91.9522 111.282 91.8546 111.861 91.6593 112.395C91.4704 112.929 91.21 113.385 90.878 113.762C90.5525 114.133 90.1684 114.452 89.7257 114.719C89.2895 114.98 88.824 115.172 88.3292 115.296C87.8409 115.419 87.3396 115.481 86.8253 115.481ZM107.177 115.452C106.096 115.452 105.227 115.103 104.569 114.407C103.912 113.71 103.583 112.825 103.583 111.751C103.583 110.696 103.912 109.814 104.569 109.104C105.227 108.388 106.093 108.03 107.167 108.03C108.241 108.03 109.11 108.388 109.774 109.104C110.439 109.82 110.771 110.702 110.771 111.751C110.771 112.831 110.442 113.72 109.784 114.417C109.127 115.107 108.258 115.452 107.177 115.452ZM107.167 113.928C107.681 113.928 108.066 113.756 108.319 113.411C108.58 113.066 108.71 112.512 108.71 111.751C108.71 111.021 108.586 110.475 108.339 110.11C108.092 109.745 107.701 109.563 107.167 109.563C106.64 109.563 106.252 109.742 106.005 110.1C105.758 110.458 105.634 111.005 105.634 111.741C105.634 112.503 105.761 113.059 106.015 113.411C106.269 113.756 106.653 113.928 107.167 113.928ZM96.9425 115.256L106.034 101.038H108.017L98.9249 115.256H96.9425ZM97.7139 108.274C96.6072 108.274 95.7315 107.949 95.087 107.298C94.4425 106.64 94.1202 105.732 94.1202 104.573C94.1202 103.434 94.4425 102.532 95.087 101.868C95.7315 101.197 96.6072 100.862 97.7139 100.862C98.8142 100.862 99.6866 101.197 100.331 101.868C100.982 102.538 101.308 103.44 101.308 104.573C101.308 105.738 100.985 106.646 100.341 107.298C99.6964 107.949 98.8207 108.274 97.7139 108.274ZM97.7139 106.751C98.2283 106.751 98.6124 106.581 98.8663 106.243C99.1202 105.898 99.2471 105.344 99.2471 104.583C99.2471 103.847 99.1234 103.297 98.876 102.932C98.6352 102.568 98.2478 102.385 97.7139 102.385C97.1801 102.385 96.7895 102.568 96.5421 102.932C96.3012 103.29 96.1807 103.837 96.1807 104.573C96.1807 105.335 96.3077 105.888 96.5616 106.233C96.8155 106.578 97.1996 106.751 97.7139 106.751Z" fill="#373D3F"/>
<path d="M47.4062 57V44.2031H49.6387V57H47.4062ZM52.5391 57V51.4189C52.5391 50.7803 52.5244 50.1768 52.4951 49.6084C52.4658 49.0342 52.4365 48.6211 52.4072 48.3691L52.3633 47.9824H54.6748V49.1865C54.9854 48.7178 55.3984 48.3633 55.9141 48.123C56.4355 47.877 56.9395 47.7539 57.4258 47.7539C57.9473 47.7539 58.4043 47.8242 58.7969 47.9648C59.1895 48.0996 59.5352 48.3223 59.834 48.6328C60.1387 48.9375 60.3701 49.3594 60.5283 49.8984C60.6865 50.4375 60.7656 51.0908 60.7656 51.8584V57H58.5859V51.709C58.5859 50.9121 58.46 50.3496 58.208 50.0215C57.9619 49.6875 57.5518 49.5205 56.9775 49.5205C56.7666 49.5205 56.5352 49.5674 56.2832 49.6611C56.0312 49.7549 55.7852 49.8867 55.5449 50.0566C55.3105 50.2207 55.1143 50.4404 54.9561 50.7158C54.7979 50.9854 54.7188 51.2812 54.7188 51.6035V57H52.5391ZM65.8545 57L62.0576 47.9824H64.4834C66.042 52.1719 66.8594 54.3662 66.9355 54.5654C67.3984 53.3057 68.1865 51.1113 69.2998 47.9824H71.6641L67.832 57H65.8545ZM73.0527 46.1191V44.2031H75.1621V46.1191H73.0527ZM73.0615 57V47.9824H75.1621V57H73.0615ZM82.8965 56.9912H82.0176C81.666 56.9912 81.3613 56.9824 81.1035 56.9648C80.8457 56.9473 80.5791 56.9092 80.3037 56.8506C80.0342 56.792 79.8027 56.7158 79.6094 56.6221C79.4219 56.5225 79.2402 56.3906 79.0645 56.2266C78.8887 56.0625 78.748 55.8662 78.6426 55.6377C78.5371 55.4033 78.4521 55.125 78.3877 54.8027C78.3291 54.4805 78.2998 54.1113 78.2998 53.6953V49.4414H76.4189V47.9824H78.3877V45.873L80.4707 45.2314V47.9824H82.8262V49.4414H80.4707V53.8271C80.4707 54.1084 80.4912 54.3369 80.5322 54.5127C80.5791 54.6826 80.6465 54.8262 80.7344 54.9434C80.8223 55.0547 80.9688 55.1367 81.1738 55.1895C81.3848 55.2422 81.6133 55.2773 81.8594 55.2949C82.1055 55.3125 82.4512 55.3213 82.8965 55.3213V56.9912ZM89.1367 55.4443C89.9805 55.4443 90.5928 55.1777 90.9736 54.6445C91.3604 54.1055 91.5537 53.3877 91.5537 52.4912C91.5537 51.5713 91.3486 50.8477 90.9385 50.3203C90.5342 49.7871 89.9189 49.5205 89.0928 49.5205C88.2842 49.5205 87.6631 49.7871 87.2295 50.3203C86.8018 50.8535 86.5879 51.5713 86.5879 52.4736C86.5879 53.376 86.8018 54.0967 87.2295 54.6357C87.6631 55.1748 88.2988 55.4443 89.1367 55.4443ZM88.8643 57.2021C88.1318 57.2021 87.4756 57.0703 86.8955 56.8066C86.3154 56.543 85.8496 56.1914 85.498 55.752C85.1465 55.3125 84.8799 54.8232 84.6982 54.2842C84.5166 53.7451 84.4258 53.1797 84.4258 52.5879C84.4258 51.9609 84.5195 51.3662 84.707 50.8037C84.8945 50.2354 85.167 49.7227 85.5244 49.2656C85.8877 48.8027 86.3652 48.4365 86.957 48.167C87.5488 47.8916 88.2197 47.7539 88.9697 47.7539C90.0596 47.7539 90.8975 48.1494 91.4834 48.9404V47.9824H93.6191V57H91.4307V55.7695C90.7744 56.7246 89.9189 57.2021 88.8643 57.2021ZM101.318 56.9912H100.439C100.088 56.9912 99.7832 56.9824 99.5254 56.9648C99.2676 56.9473 99.001 56.9092 98.7256 56.8506C98.4561 56.792 98.2246 56.7158 98.0312 56.6221C97.8438 56.5225 97.6621 56.3906 97.4863 56.2266C97.3105 56.0625 97.1699 55.8662 97.0645 55.6377C96.959 55.4033 96.874 55.125 96.8096 54.8027C96.751 54.4805 96.7217 54.1113 96.7217 53.6953V49.4414H94.8408V47.9824H96.8096V45.873L98.8926 45.2314V47.9824H101.248V49.4414H98.8926V53.8271C98.8926 54.1084 98.9131 54.3369 98.9541 54.5127C99.001 54.6826 99.0684 54.8262 99.1562 54.9434C99.2441 55.0547 99.3906 55.1367 99.5957 55.1895C99.8066 55.2422 100.035 55.2773 100.281 55.2949C100.527 55.3125 100.873 55.3213 101.318 55.3213V56.9912ZM103.146 46.1191V44.2031H105.256V46.1191H103.146ZM103.155 57V47.9824H105.256V57H103.155ZM112.199 57.2021C111.414 57.2021 110.714 57.0762 110.099 56.8242C109.483 56.5664 108.985 56.2207 108.604 55.7871C108.229 55.3477 107.942 54.8496 107.743 54.293C107.55 53.7305 107.453 53.1299 107.453 52.4912C107.453 51.8408 107.553 51.2344 107.752 50.6719C107.951 50.1035 108.241 49.6025 108.622 49.1689C109.009 48.7295 109.507 48.3838 110.116 48.1318C110.731 47.8799 111.423 47.7539 112.19 47.7539C112.976 47.7539 113.673 47.8799 114.282 48.1318C114.892 48.3779 115.381 48.7207 115.75 49.1602C116.119 49.5938 116.395 50.0947 116.576 50.6631C116.764 51.2256 116.857 51.8408 116.857 52.5088C116.857 53.1357 116.761 53.7275 116.567 54.2842C116.374 54.835 116.09 55.3301 115.715 55.7695C115.346 56.209 114.856 56.5576 114.247 56.8154C113.644 57.0732 112.961 57.2021 112.199 57.2021ZM112.155 55.4443C112.583 55.4443 112.958 55.3652 113.28 55.207C113.603 55.043 113.854 54.8203 114.036 54.5391C114.224 54.252 114.361 53.9355 114.449 53.5898C114.543 53.2441 114.59 52.8691 114.59 52.4648C114.59 51.6035 114.385 50.8975 113.975 50.3467C113.57 49.7959 112.967 49.5205 112.164 49.5205C111.619 49.5205 111.159 49.6582 110.784 49.9336C110.409 50.2031 110.137 50.5547 109.967 50.9883C109.803 51.4219 109.721 51.9141 109.721 52.4648C109.721 53.0098 109.797 53.499 109.949 53.9326C110.107 54.3662 110.374 54.7266 110.749 55.0137C111.13 55.3008 111.599 55.4443 112.155 55.4443ZM119.195 57V51.4189C119.195 50.7803 119.181 50.1768 119.151 49.6084C119.122 49.0342 119.093 48.6211 119.063 48.3691L119.02 47.9824H121.331V49.1865C121.642 48.7178 122.055 48.3633 122.57 48.123C123.092 47.877 123.596 47.7539 124.082 47.7539C124.604 47.7539 125.061 47.8242 125.453 47.9648C125.846 48.0996 126.191 48.3223 126.49 48.6328C126.795 48.9375 127.026 49.3594 127.185 49.8984C127.343 50.4375 127.422 51.0908 127.422 51.8584V57H125.242V51.709C125.242 50.9121 125.116 50.3496 124.864 50.0215C124.618 49.6875 124.208 49.5205 123.634 49.5205C123.423 49.5205 123.191 49.5674 122.939 49.6611C122.688 49.7549 122.441 49.8867 122.201 50.0566C121.967 50.2207 121.771 50.4404 121.612 50.7158C121.454 50.9854 121.375 51.2812 121.375 51.6035V57H119.195ZM47.6699 84V71.2031H51.2383C53.7988 71.2031 55.7119 71.748 56.9775 72.8379C58.2432 73.9219 58.876 75.4834 58.876 77.5225C58.876 79.6377 58.2549 81.2461 57.0127 82.3477C55.7764 83.4492 53.9717 84 51.5986 84H47.6699ZM49.9023 82.084H51.7129C53.2598 82.084 54.4463 81.6973 55.2725 80.9238C56.0986 80.1504 56.5117 79.0137 56.5117 77.5137C56.5117 76.0898 56.0928 75.0029 55.2549 74.2529C54.4229 73.4971 53.1514 73.1191 51.4404 73.1191H49.9023V82.084ZM63.0947 78.4102H67.5771C67.4717 77.7715 67.2344 77.2822 66.8652 76.9424C66.4961 76.6025 66.0449 76.4326 65.5117 76.4326C64.8848 76.4326 64.3604 76.6084 63.9385 76.96C63.5166 77.3115 63.2354 77.7949 63.0947 78.4102ZM65.6699 84.2021C64.1523 84.2021 62.9541 83.7686 62.0752 82.9014C61.2021 82.0342 60.7656 80.9004 60.7656 79.5C60.7656 78.8672 60.8711 78.2666 61.082 77.6982C61.293 77.1299 61.5889 76.626 61.9697 76.1865C62.3564 75.7471 62.8428 75.3984 63.4287 75.1406C64.0205 74.8828 64.6738 74.7539 65.3887 74.7539C66.1035 74.7539 66.7275 74.877 67.2607 75.123C67.7939 75.3691 68.2158 75.7148 68.5264 76.1602C68.8369 76.5996 69.0654 77.0947 69.2119 77.6455C69.3643 78.1963 69.4404 78.8057 69.4404 79.4736C69.4404 79.6436 69.4258 79.7725 69.3965 79.8604H63.0684C63.1035 80.7393 63.3701 81.3896 63.8682 81.8115C64.3721 82.2334 65.04 82.4443 65.8721 82.4443C66.8447 82.4443 67.7939 82.1221 68.7197 81.4775L69.3086 83.0596C68.7402 83.4521 68.166 83.7422 67.5859 83.9297C67.0117 84.1113 66.373 84.2021 65.6699 84.2021ZM76.0762 84.2021C75.3438 84.2021 74.6729 84.0732 74.0635 83.8154C73.46 83.5576 72.9648 83.209 72.5781 82.7695C72.1914 82.3301 71.8926 81.8291 71.6816 81.2666C71.4707 80.6982 71.3652 80.1035 71.3652 79.4824C71.3652 78.5918 71.5469 77.792 71.9102 77.083C72.2793 76.3682 72.8213 75.8027 73.5361 75.3867C74.2568 74.9648 75.0947 74.7539 76.0498 74.7539C77.4678 74.7539 78.5576 75.1582 79.3193 75.9668L78.5371 77.373C77.8867 76.7988 77.1338 76.5117 76.2783 76.5117C75.4229 76.5117 74.7666 76.7812 74.3096 77.3203C73.8525 77.8594 73.624 78.583 73.624 79.4912C73.624 80.376 73.8672 81.0908 74.3535 81.6357C74.8398 82.1748 75.5049 82.4443 76.3486 82.4443C76.4658 82.4443 76.583 82.4385 76.7002 82.4268C76.8174 82.415 76.9229 82.4004 77.0166 82.3828C77.1104 82.3652 77.207 82.3418 77.3066 82.3125C77.4121 82.2773 77.5 82.248 77.5703 82.2246C77.6406 82.1953 77.7197 82.1572 77.8076 82.1104C77.8955 82.0635 77.9629 82.0283 78.0098 82.0049C78.0625 81.9756 78.127 81.9346 78.2031 81.8818C78.2793 81.8291 78.3291 81.7939 78.3525 81.7764C78.3818 81.7588 78.4287 81.7266 78.4932 81.6797C78.5635 81.627 78.6016 81.5977 78.6074 81.5918L79.2666 83.1914C78.7627 83.543 78.2588 83.8008 77.7549 83.9648C77.251 84.123 76.6914 84.2021 76.0762 84.2021ZM81.0859 84V71.1943H83.2393V84H81.0859ZM85.709 73.1191V71.2031H87.8184V73.1191H85.709ZM85.7178 84V74.9824H87.8184V84H85.7178ZM90.4551 84V78.4189C90.4551 77.7803 90.4404 77.1768 90.4111 76.6084C90.3818 76.0342 90.3525 75.6211 90.3232 75.3691L90.2793 74.9824H92.5908V76.1865C92.9014 75.7178 93.3145 75.3633 93.8301 75.123C94.3516 74.877 94.8555 74.7539 95.3418 74.7539C95.8633 74.7539 96.3203 74.8242 96.7129 74.9648C97.1055 75.0996 97.4512 75.3223 97.75 75.6328C98.0547 75.9375 98.2861 76.3594 98.4443 76.8984C98.6025 77.4375 98.6816 78.0908 98.6816 78.8584V84H96.502V78.709C96.502 77.9121 96.376 77.3496 96.124 77.0215C95.8779 76.6875 95.4678 76.5205 94.8936 76.5205C94.6826 76.5205 94.4512 76.5674 94.1992 76.6611C93.9473 76.7549 93.7012 76.8867 93.4609 77.0566C93.2266 77.2207 93.0303 77.4404 92.8721 77.7158C92.7139 77.9854 92.6348 78.2812 92.6348 78.6035V84H90.4551ZM103.103 78.4102H107.585C107.479 77.7715 107.242 77.2822 106.873 76.9424C106.504 76.6025 106.053 76.4326 105.52 76.4326C104.893 76.4326 104.368 76.6084 103.946 76.96C103.524 77.3115 103.243 77.7949 103.103 78.4102ZM105.678 84.2021C104.16 84.2021 102.962 83.7686 102.083 82.9014C101.21 82.0342 100.773 80.9004 100.773 79.5C100.773 78.8672 100.879 78.2666 101.09 77.6982C101.301 77.1299 101.597 76.626 101.978 76.1865C102.364 75.7471 102.851 75.3984 103.437 75.1406C104.028 74.8828 104.682 74.7539 105.396 74.7539C106.111 74.7539 106.735 74.877 107.269 75.123C107.802 75.3691 108.224 75.7148 108.534 76.1602C108.845 76.5996 109.073 77.0947 109.22 77.6455C109.372 78.1963 109.448 78.8057 109.448 79.4736C109.448 79.6436 109.434 79.7725 109.404 79.8604H103.076C103.111 80.7393 103.378 81.3896 103.876 81.8115C104.38 82.2334 105.048 82.4443 105.88 82.4443C106.853 82.4443 107.802 82.1221 108.728 81.4775L109.316 83.0596C108.748 83.4521 108.174 83.7422 107.594 83.9297C107.02 84.1113 106.381 84.2021 105.678 84.2021ZM115.935 82.4443C116.333 82.4443 116.682 82.3652 116.98 82.207C117.279 82.043 117.514 81.8203 117.684 81.5391C117.859 81.252 117.988 80.9385 118.07 80.5986C118.158 80.2588 118.202 79.8926 118.202 79.5C118.202 78.6211 118.012 77.9062 117.631 77.3555C117.25 76.7988 116.679 76.5205 115.917 76.5205C115.407 76.5205 114.977 76.6582 114.625 76.9336C114.279 77.209 114.03 77.5605 113.878 77.9883C113.731 78.416 113.658 78.9082 113.658 79.4648C113.658 79.8691 113.699 80.2441 113.781 80.5898C113.869 80.9355 113.998 81.252 114.168 81.5391C114.344 81.8203 114.581 82.043 114.88 82.207C115.185 82.3652 115.536 82.4443 115.935 82.4443ZM115.486 84.2021C114.32 84.2021 113.342 83.7744 112.551 82.9189C111.766 82.0635 111.373 80.9355 111.373 79.5352C111.373 78.8965 111.464 78.293 111.646 77.7246C111.827 77.1562 112.088 76.6494 112.428 76.2041C112.773 75.7588 113.225 75.4072 113.781 75.1494C114.338 74.8857 114.962 74.7539 115.653 74.7539C116.274 74.7539 116.799 74.8828 117.227 75.1406C117.66 75.3926 117.962 75.6562 118.132 75.9316V71.1943H120.294V81.5918C120.294 81.627 120.32 82.4297 120.373 84H118.141L118.123 82.8486C118.07 82.9834 117.982 83.1211 117.859 83.2617C117.736 83.4023 117.572 83.5488 117.367 83.7012C117.162 83.8477 116.896 83.9678 116.567 84.0615C116.239 84.1553 115.879 84.2021 115.486 84.2021Z" fill="#FF6584"/>
</svg>
