<svg width="15" height="16" viewBox="0 0 15 16" fill="none" xmlns="http://www.w3.org/2000/svg">
<path d="M11.995 5.57798H13.4733C13.6693 5.57798 13.8573 5.65585 13.9959 5.79447C14.1345 5.93308 14.2124 6.12109 14.2124 6.31712V15.1869C14.2124 15.383 14.1345 15.571 13.9959 15.7096C13.8573 15.8482 13.6693 15.9261 13.4733 15.9261H1.64686C1.45083 15.9261 1.26282 15.8482 1.12421 15.7096C0.985589 15.571 0.907715 15.383 0.907715 15.1869V6.31712C0.907715 6.12109 0.985589 5.93308 1.12421 5.79447C1.26282 5.65585 1.45083 5.57798 1.64686 5.57798H3.12516V4.83883C3.12516 3.66262 3.59241 2.53459 4.42411 1.70288C5.25582 0.871177 6.38385 0.403931 7.56006 0.403931C8.73627 0.403931 9.8643 0.871177 10.696 1.70288C11.5277 2.53459 11.995 3.66262 11.995 4.83883V5.57798ZM10.5167 5.57798V4.83883C10.5167 4.05469 10.2052 3.30267 9.65069 2.7482C9.09622 2.19373 8.3442 1.88223 7.56006 1.88223C6.77592 1.88223 6.0239 2.19373 5.46943 2.7482C4.91496 3.30267 4.60346 4.05469 4.60346 4.83883V5.57798H10.5167ZM6.82091 10.0129V11.4912H8.29921V10.0129H6.82091ZM3.86431 10.0129V11.4912H5.34261V10.0129H3.86431ZM9.77751 10.0129V11.4912H11.2558V10.0129H9.77751Z" fill="#0B4654" fill-opacity="0.5"/>
</svg>
