<svg width="155" height="56" viewBox="0 0 155 56" fill="none" xmlns="http://www.w3.org/2000/svg">
<path d="M24.0322 52.9319C28.7289 52.9319 32.5502 49.1108 32.5502 44.4139V23.5501C32.5502 16.6031 26.8983 10.9513 19.9512 10.9513H8.51778C7.17588 10.9513 6.08431 9.85972 6.08431 8.51781C6.08431 7.17591 7.17572 6.08418 8.51778 6.08418H39.5466C40.8885 6.08418 41.9801 7.17591 41.9801 8.51781C41.9801 9.85972 40.8885 10.9513 39.5466 10.9513H37.1444C35.4643 10.9513 34.1022 12.3134 34.1022 13.9935C34.1022 15.6737 35.4643 17.0358 37.1444 17.0358H39.5466C44.2433 17.0358 48.0645 13.2146 48.0645 8.51781C48.0645 3.82099 44.2433 -0.000167847 39.5466 -0.000167847H8.51778C3.82113 -0.000167847 -0.000206736 3.82099 -0.000206736 8.51781C-0.000206736 13.2146 3.82096 17.0358 8.51778 17.0358H19.9512C23.5432 17.0358 26.4657 19.9581 26.4657 23.5501V44.4139C26.4657 45.7558 25.3739 46.8476 24.032 46.8476C22.6903 46.8476 21.5986 45.7558 21.5986 44.4139V24.2771C21.5986 22.5969 20.2365 21.2348 18.5563 21.2348C16.8762 21.2348 15.5141 22.5969 15.5141 24.2771V44.4139C15.5142 49.1108 19.3355 52.9319 24.0322 52.9319Z" fill="white"/>
<path d="M44.3125 33.3683H50.0254C48.9023 30.0382 47.96 27.2696 47.1982 25.0626C46.5635 26.9083 45.6016 29.6769 44.3125 33.3683ZM36.8125 42.0401L45.3818 20.712H49.1611L57.8037 42.0401H53.5996L51.5342 36.84H42.9209L40.8994 42.0401H36.8125ZM60.7773 42.0401V20.712H64.7178C71.4951 30.5362 75.1035 35.7706 75.543 36.4151V20.712H79.0879V42.0401H75.1328C68.5801 32.5773 64.9424 27.3331 64.2197 26.3077V42.0401H60.7773ZM89.5469 33.3683H95.2598C94.1367 30.0382 93.1943 27.2696 92.4326 25.0626C91.7979 26.9083 90.8359 29.6769 89.5469 33.3683ZM82.0469 42.0401L90.6162 20.712H94.3955L103.038 42.0401H98.834L96.7686 36.84H88.1553L86.1338 42.0401H82.0469ZM106.012 42.0401V20.712H109.732V30.0284L117.95 20.712H122.594L113.351 31.0099L123.312 42.0401H118.478L109.776 32.504V42.0401H106.012ZM130.709 33.3683H136.422C135.299 30.0382 134.356 27.2696 133.595 25.0626C132.96 26.9083 131.998 29.6769 130.709 33.3683ZM123.209 42.0401L131.778 20.712H135.558L144.2 42.0401H139.996L137.931 36.84H129.317L127.296 42.0401H123.209Z" fill="white"/>
</svg>
