<svg width="522" height="567" viewBox="0 0 522 567" fill="none" xmlns="http://www.w3.org/2000/svg">
<path d="M219.627 67.5074C220.416 63.8303 219.381 60.1182 217.27 57.2115C211.338 49.0429 207.691 39.5749 208.418 29.2182C209.022 20.6103 212.434 14.8176 217.218 11.1083C222.058 7.3556 228.495 5.5901 235.326 5.46919C242.15 5.34842 249.214 6.87451 255.145 9.53003C261.114 12.2028 265.704 15.9115 267.886 19.9798C272.575 28.7185 274.76 44.5706 274.112 58.8213C273.79 65.9088 272.772 72.4265 271.104 77.3132C270.269 79.7575 269.3 81.7097 268.238 83.1101C267.178 84.5085 266.112 85.2471 265.087 85.5113C263.657 85.8798 261.357 85.8218 258.299 85.1509C253.594 84.1189 248.639 85.3343 245.004 87.9866C241.344 90.6567 238.855 94.934 239.57 99.9885L241.945 116.795C242.626 121.611 238.888 125.915 234.024 125.915H216.994C211.9 125.915 208.104 121.217 209.172 116.236L219.627 67.5074Z" fill="#FFE3D1" stroke="black" stroke-width="4"/>
<path d="M232.897 37.1206C231.698 38.4453 229.402 38.9685 226.784 38.9685C220.915 38.9685 216.26 44.1198 216.26 49.4926C216.26 51.2891 216.557 52.9735 217.111 54.4893C217.147 54.5872 217.183 54.6855 217.219 54.7843C217.875 56.5754 218.575 58.4888 218.799 60.1613C219.044 61.9885 218.622 62.5318 218.134 62.7727C218.122 62.7785 218.113 62.783 218.105 62.7866C218.097 62.7853 218.088 62.7836 218.076 62.7814C218.019 62.7698 217.933 62.748 217.797 62.7056C216.524 62.3084 214.925 61.1375 213.188 59.0932C211.486 57.0896 209.8 54.4207 208.306 51.3351C205.31 45.147 203.212 37.5382 203.212 30.7396C203.212 23.061 206.257 15.9409 212.139 10.7197C218.029 5.49171 226.901 2.05275 238.718 2.05275C253.568 2.05275 261.481 6.2861 264.99 10.8973C265.862 12.0426 265.813 13.2172 265.157 14.2858C264.451 15.4369 263.014 16.4398 261.229 16.6994C251.825 18.0665 238.418 18.621 220.873 18.5165C219.289 18.5071 217.965 19.7848 217.965 21.4015C217.965 22.9018 219.115 24.1515 220.61 24.2761L236.979 25.6402C238.17 25.7395 239.188 26.539 239.565 27.6728C239.879 28.6142 239.692 29.7732 238.909 31.1102C238.132 32.4381 236.896 33.7006 235.626 34.6299C234.64 35.3521 233.733 36.1967 232.897 37.1206Z" fill="black" stroke="black" stroke-width="4"/>
<path d="M316.844 440.749C316.844 508.762 259.056 564.054 187.573 564.054C116.09 564.054 58.3018 508.762 58.3018 440.749C58.3018 372.737 116.09 317.445 187.573 317.445C259.056 317.445 316.844 372.737 316.844 440.749Z" fill="#FFA721" stroke="black" stroke-width="4"/>
<path d="M443.418 542.368C439.59 543.485 435.528 541.61 433.914 537.978C413.93 493.024 399.537 454.376 393.582 433.517C382.724 395.485 374.494 362.118 372.428 349.745C371.269 342.81 372.928 337.718 375.962 334.089C379.045 330.401 383.715 328.028 388.864 326.939C394.01 325.85 399.456 326.086 403.896 327.436C408.394 328.804 411.488 331.183 412.602 334.069C416.746 344.8 422.461 367.689 429.347 401.333C436.22 434.919 444.232 479.078 452.99 532.244C453.647 536.232 451.22 540.092 447.343 541.223L443.418 542.368ZM183.003 396.858C203.027 388.943 273.077 364.206 306.749 357.23C316.466 355.217 325.883 353.347 334.737 351.656C346.427 349.425 355.749 358.812 359.153 370.09C360.831 375.65 360.917 381.302 359.241 385.668C357.61 389.917 354.288 393.059 348.698 393.864C317.13 398.407 278.958 403.026 247.708 406.642C231.363 408.534 216.89 410.153 206.258 411.343C196.594 412.424 190.103 413.15 188.265 413.403C184.061 413.981 180.08 410.944 178.516 406.892C177.755 404.92 177.659 402.902 178.297 401.19C178.917 399.525 180.314 397.921 183.003 396.858Z" fill="#FFE3D1" stroke="black" stroke-width="4"/>
<path d="M414.399 322.418L414.398 322.418C414.155 322.083 413.99 321.726 413.884 321.38L415.796 320.794L413.884 321.38C413.875 321.351 413.78 321.118 413.352 320.688C412.941 320.276 412.322 319.78 411.45 319.207C409.706 318.06 407.148 316.728 403.723 315.214C396.886 312.192 386.85 308.557 373.577 304.308C347.044 295.816 307.779 284.936 255.757 271.667C255.109 271.501 254.429 271.415 253.766 271.415H249.576C246.567 271.415 244.128 273.854 244.128 276.862C244.128 278.912 245.278 280.787 247.104 281.717L347.026 332.583C350.461 334.332 352.197 337.853 352.686 341.225C352.764 341.767 352.823 342.401 352.814 343.014C352.378 374.402 362.866 399.643 375.762 423.635C379.224 430.077 382.876 436.451 386.536 442.84C396.441 460.128 406.404 477.518 412.82 496.609C414.153 500.574 418.034 503.077 422.026 502.481L440.637 499.705C445.811 498.933 449.819 493.222 449.011 487.88C448.109 481.92 447.054 474.224 445.843 465.399C443.287 446.757 440.04 423.075 436.085 400.057C433.175 383.119 429.893 366.614 426.242 352.843C422.568 338.985 418.591 328.184 414.403 322.425L414.399 322.418ZM414.399 322.418L414.401 322.421L414.402 322.423L414.399 322.418Z" fill="#0674BB" stroke="black" stroke-width="4"/>
<path d="M225.886 380.161C234.873 377.078 234.193 363.969 224.611 362.288C200.885 358.126 185.606 349.988 176.874 336.757C168.1 323.463 165.631 304.583 168.624 278.223C169.065 274.343 172.416 271.415 176.395 271.415H259.374C260.134 271.415 260.832 271.511 261.5 271.722C279.357 277.37 355.169 309.169 395.124 326.346C407.262 331.564 411.828 343.405 411.493 355.883C411.155 368.442 405.841 380.897 399.141 386.581C398.774 386.893 398.494 387.236 398.288 387.513C398.162 387.683 398.012 387.903 397.899 388.068C397.852 388.136 397.811 388.195 397.782 388.237C397.591 388.509 397.497 388.602 397.474 388.624C339.73 412.548 290.676 410.781 258.765 409.631C250.617 409.337 243.586 409.084 237.814 409.309C233.192 409.489 228.804 406.844 227.521 402.797L222.483 386.906C221.597 384.111 223.109 381.114 225.886 380.161Z" fill="#0674BB" stroke="black" stroke-width="4"/>
<path d="M190.854 393.29L190.854 393.296C190.973 398.269 191.591 402.219 192.897 404.896C194.07 407.301 196.101 409.776 198.845 412.327C201.138 414.459 204.202 415.348 207.17 415.162L210.501 414.952L212.127 462.187C212.165 463.272 212.348 464.352 212.683 465.395C213.713 468.607 215.006 472.468 216.56 476.976C217.023 478.318 216.975 479.27 216.691 479.977C216.404 480.693 215.754 481.457 214.434 482.182C213.176 482.872 211.772 482.824 210.38 482.145C208.955 481.451 207.645 480.126 206.858 478.513L206.754 478.299L206.649 478.084L206.545 477.87L206.441 477.657L206.337 477.443L206.233 477.23L206.129 477.017L206.025 476.805L205.922 476.592L205.818 476.38L205.715 476.169L205.612 475.957L205.509 475.746L205.406 475.535L205.303 475.325L205.201 475.114L205.098 474.904L204.996 474.695L204.894 474.485L204.792 474.276L204.69 474.067L204.588 473.859L204.487 473.65L204.385 473.443L204.284 473.235L204.183 473.027L204.082 472.82L203.981 472.614L203.88 472.407L203.78 472.201L203.679 471.995L203.579 471.789L203.479 471.584L203.379 471.379L203.279 471.174L203.179 470.969L203.079 470.765L202.98 470.561L202.881 470.358L202.782 470.154L202.682 469.951L202.584 469.748L202.485 469.546L202.386 469.344L202.288 469.142L202.189 468.94L202.091 468.739L201.993 468.538L201.895 468.337L201.797 468.137L201.7 467.936L201.602 467.736L201.505 467.537L201.408 467.338L201.311 467.139L201.214 466.94L201.117 466.741L201.02 466.543L200.924 466.345L200.827 466.148L200.731 465.95L200.635 465.753L200.539 465.557L200.443 465.36L200.348 465.164L200.252 464.968L200.157 464.773L200.061 464.577L199.966 464.382L199.871 464.188L199.777 463.993L199.682 463.799L199.587 463.605L199.493 463.412L199.399 463.218L199.304 463.025L199.211 462.833L199.117 462.64L199.023 462.448L198.929 462.256L198.836 462.065L198.743 461.873L198.65 461.683L198.557 461.492L198.464 461.301L198.371 461.111L198.278 460.922L198.186 460.732L198.094 460.543L198.001 460.354L197.909 460.165L197.818 459.977L197.726 459.789L197.634 459.601L197.543 459.413L197.451 459.226L197.36 459.039L197.269 458.853L197.178 458.666L197.088 458.48L196.997 458.294L196.907 458.109L196.816 457.924L196.726 457.739L196.636 457.554L196.546 457.37L196.456 457.186L196.367 457.002L196.277 456.818L196.188 456.635L196.099 456.452L196.01 456.27L195.921 456.087L195.832 455.905L195.743 455.724L195.655 455.542L195.566 455.361L195.478 455.18L195.39 454.999L195.302 454.819L195.214 454.639L195.127 454.459L195.039 454.28L194.952 454.101L194.864 453.922L194.777 453.743L194.69 453.565L194.604 453.387L194.517 453.209L194.43 453.032L194.344 452.855L194.258 452.678L194.172 452.501L194.086 452.325L194 452.149L193.914 451.973L193.829 451.798L193.743 451.623L193.658 451.448L193.573 451.273L193.488 451.099L193.403 450.925L193.318 450.752L193.234 450.578L193.149 450.405L193.065 450.232L192.981 450.06L192.897 449.887L192.813 449.715L192.729 449.544L192.646 449.372L192.562 449.201L192.479 449.031L192.396 448.86L192.313 448.69L192.23 448.52L192.147 448.35L192.064 448.181L191.982 448.012L191.9 447.843L191.817 447.674L191.735 447.506L191.653 447.338L191.572 447.171L191.49 447.003L191.409 446.836L191.327 446.67L191.246 446.503L191.165 446.337L191.084 446.171L191.003 446.005L190.923 445.84L190.842 445.675L190.762 445.51L190.682 445.346L190.601 445.182L190.522 445.018L190.442 444.854L190.362 444.691L190.283 444.528L190.203 444.365L190.124 444.203L190.045 444.04L189.966 443.878L189.887 443.717L189.808 443.556L189.73 443.395L189.652 443.234L189.573 443.073L189.495 442.913L189.417 442.753L189.339 442.594L189.262 442.435L189.184 442.276L189.107 442.117L189.029 441.958L188.952 441.8L188.875 441.642L188.799 441.485L188.722 441.328L188.645 441.171L188.569 441.014L188.493 440.858L188.416 440.701L188.34 440.546L188.265 440.39L188.189 440.235L188.113 440.08L188.038 439.925L187.963 439.771L187.887 439.617L187.812 439.463L187.737 439.309L187.663 439.156L187.588 439.003L187.514 438.851L187.439 438.698L187.365 438.546L187.291 438.394L187.217 438.243L187.144 438.092L187.07 437.941L186.996 437.79L186.923 437.64L186.85 437.49L186.777 437.34L186.704 437.19L186.631 437.041L186.559 436.892L186.486 436.744L186.414 436.595L186.341 436.447L186.269 436.3L186.198 436.152L186.126 436.005L186.054 435.858L185.983 435.711L185.911 435.565L185.84 435.419L185.769 435.273L185.698 435.128L185.627 434.983L185.556 434.838L185.486 434.693L185.416 434.549L185.345 434.405L185.275 434.261L185.205 434.118L185.135 433.975L185.066 433.832L184.996 433.689L184.927 433.547L184.858 433.405L184.788 433.263L184.719 433.122L184.651 432.981L184.582 432.84L184.513 432.699L184.445 432.559L184.377 432.419L184.309 432.279L184.241 432.14L184.173 432.001L184.105 431.862L184.037 431.723L183.97 431.585L183.903 431.447L183.836 431.309L183.769 431.172L183.702 431.035L183.635 430.898L183.568 430.762L183.502 430.625L183.436 430.489L183.369 430.354L183.303 430.218L183.238 430.083L183.172 429.948L183.106 429.814L183.041 429.68L182.975 429.546L182.91 429.412L182.845 429.279L182.78 429.146L182.716 429.013L182.651 428.88L182.586 428.748L182.522 428.616L182.458 428.485L182.394 428.353L182.33 428.222L182.266 428.092L182.203 427.961L182.139 427.831L182.076 427.701L182.012 427.571L181.949 427.442L181.886 427.313L181.824 427.184L181.761 427.056L181.698 426.928L181.636 426.8L181.574 426.672L181.512 426.545L181.45 426.418L181.388 426.291L181.326 426.165L181.265 426.038L181.203 425.913L181.142 425.787L181.081 425.662L181.02 425.537L180.959 425.412L180.899 425.288L180.838 425.163L180.778 425.04L180.717 424.916L180.657 424.793L180.597 424.67L180.537 424.547L180.478 424.425L180.418 424.303L180.359 424.181L180.299 424.059L180.24 423.938L180.181 423.817L180.122 423.696L180.064 423.576L180.005 423.456L179.947 423.336L179.888 423.216L179.83 423.097L179.772 422.978L179.714 422.86L179.657 422.741L179.599 422.623L179.542 422.505L179.484 422.388L179.427 422.271L179.37 422.154L179.313 422.037L179.256 421.921L179.2 421.805L179.143 421.689L179.087 421.573L179.031 421.458L178.975 421.343L178.919 421.228L178.863 421.114L178.807 421L178.752 420.886L178.697 420.773L178.641 420.66L178.586 420.547L178.531 420.434L178.477 420.322L178.422 420.21L178.367 420.098L178.313 419.987L178.259 419.875L178.205 419.764L178.151 419.654L178.097 419.544L178.043 419.434L177.99 419.324L177.936 419.214L177.883 419.105L177.83 418.996L177.777 418.888L177.724 418.779L177.672 418.671L177.619 418.564L177.567 418.456L177.514 418.349L177.462 418.242L177.41 418.136L177.359 418.029L177.307 417.923L177.255 417.818L177.204 417.712L177.153 417.607L177.101 417.502L177.05 417.398L177 417.294L176.949 417.19L176.898 417.086L176.848 416.983L176.798 416.879L176.747 416.777L176.697 416.674L176.648 416.572L176.598 416.47L176.548 416.368L176.499 416.267L176.45 416.166L176.4 416.065L176.351 415.964L176.302 415.864L176.254 415.764L176.205 415.665L176.157 415.565L176.108 415.466L176.06 415.367L176.012 415.269L175.964 415.171L175.916 415.073L175.869 414.975L175.821 414.878L175.774 414.781L175.727 414.684L175.68 414.587L175.633 414.491L175.586 414.395L175.539 414.3L175.493 414.204L175.447 414.109L175.4 414.014L175.354 413.92L175.308 413.826L175.262 413.732L175.217 413.638L175.171 413.545L175.126 413.452L175.081 413.359L175.036 413.267L174.991 413.175L174.946 413.083L174.901 412.991L174.857 412.9L174.812 412.809L174.768 412.718L174.724 412.628L174.68 412.538L174.636 412.448L174.592 412.358L174.549 412.269L174.505 412.18L174.462 412.091L174.419 412.003L174.376 411.915L174.333 411.827L174.291 411.739L174.248 411.652L174.206 411.565L174.163 411.478L174.121 411.392L174.079 411.306L174.037 411.22L173.996 411.134L173.954 411.049L173.913 410.964L173.871 410.879L173.83 410.795L173.789 410.711L173.748 410.627L173.707 410.544L173.667 410.46L173.626 410.377L173.586 410.295L173.546 410.212L173.506 410.13L173.466 410.049L173.426 409.967L173.387 409.886L173.347 409.805L173.308 409.724L173.269 409.644L173.23 409.564L173.191 409.484L173.152 409.405L173.113 409.325L173.075 409.246L173.036 409.168L172.998 409.09L172.96 409.011L172.922 408.934L172.884 408.856L172.847 408.779L172.809 408.702L172.772 408.626L172.735 408.549L172.698 408.473L172.661 408.397L172.624 408.322L172.587 408.247L172.551 408.172L172.514 408.097L172.478 408.023L172.442 407.949L172.406 407.875L172.37 407.802L172.335 407.729L172.299 407.656L172.264 407.583L172.228 407.511L172.193 407.439L172.158 407.367L172.123 407.296L172.089 407.225L172.054 407.154L172.02 407.083L171.985 407.013L171.951 406.943L171.917 406.873L171.883 406.804L171.85 406.735L171.816 406.666L171.783 406.597L171.749 406.529L171.716 406.461L171.683 406.394L171.65 406.326C169.927 402.792 171.009 398.606 174.186 396.609C175.86 395.557 177.286 394.749 178.471 394.171C180.396 393.232 183.926 392.441 189.311 391.926C189.344 391.923 189.378 391.921 189.411 391.92C190.187 391.901 190.832 392.514 190.854 393.289C190.854 393.29 190.854 393.29 190.854 393.29ZM191.385 391.89C191.05 392.254 190.852 392.74 190.854 393.255C190.851 392.702 191.062 392.234 191.385 391.89Z" fill="#E4E4E4" stroke="black" stroke-width="4"/>
<path d="M429.476 537.67L429.48 537.672C434.002 539.745 437.823 540.921 440.802 540.921C443.478 540.921 446.593 540.181 450.089 538.833C453.01 537.706 455.152 535.343 456.286 532.592L457.558 529.507L500.725 548.752C501.717 549.194 502.768 549.502 503.851 549.659C507.191 550.141 511.228 550.671 515.96 551.25C517.37 551.423 518.204 551.883 518.715 552.448C519.233 553.02 519.635 553.939 519.707 555.444C519.776 556.877 519.117 558.118 517.898 559.071C516.648 560.048 514.884 560.644 513.089 560.644H512.85H512.612H512.374H512.136H511.899H511.661H511.425H511.188H510.952H510.716H510.48H510.245H510.01H509.776H509.541H509.308H509.074H508.841H508.608H508.375H508.143H507.911H507.679H507.448H507.216H506.986H506.755H506.525H506.295H506.066H505.837H505.608H505.38H505.151H504.923H504.696H504.469H504.242H504.015H503.789H503.563H503.337H503.112H502.887H502.663H502.438H502.214H501.991H501.767H501.544H501.321H501.099H500.877H500.655H500.434H500.213H499.992H499.771H499.551H499.331H499.112H498.893H498.674H498.455H498.237H498.019H497.801H497.584H497.367H497.15H496.934H496.718H496.502H496.287H496.072H495.857H495.643H495.429H495.215H495.002H494.789H494.576H494.363H494.151H493.939H493.728H493.517H493.306H493.095H492.885H492.675H492.465H492.256H492.047H491.839H491.63H491.422H491.215H491.007H490.8H490.594H490.387H490.181H489.975H489.77H489.565H489.36H489.156H488.952H488.748H488.544H488.341H488.138H487.936H487.733H487.532H487.33H487.129H486.928H486.727H486.527H486.327H486.127H485.928H485.729H485.53H485.332H485.134H484.936H484.739H484.542H484.345H484.148H483.952H483.756H483.561H483.366H483.171H482.976H482.782H482.588H482.395H482.201H482.009H481.816H481.624H481.432H481.24H481.049H480.858H480.667H480.477H480.287H480.097H479.908H479.718H479.53H479.341H479.153H478.965H478.778H478.591H478.404H478.217H478.031H477.845H477.66H477.475H477.29H477.105H476.921H476.737H476.553H476.37H476.187H476.004H475.822H475.64H475.458H475.277H475.096H474.915H474.735H474.554H474.375H474.195H474.016H473.837H473.659H473.481H473.303H473.125H472.948H472.771H472.595H472.418H472.242H472.067H471.891H471.716H471.542H471.367H471.193H471.02H470.846H470.673H470.501H470.328H470.156H469.984H469.813H469.642H469.471H469.3H469.13H468.96H468.791H468.622H468.453H468.284H468.116H467.948H467.781H467.613H467.446H467.28H467.113H466.947H466.782H466.616H466.451H466.287H466.122H465.958H465.794H465.631H465.468H465.305H465.142H464.98H464.818H464.657H464.496H464.335H464.174H464.014H463.854H463.695H463.535H463.376H463.218H463.059H462.901H462.744H462.586H462.429H462.273H462.116H461.96H461.805H461.649H461.494H461.339H461.185H461.031H460.877H460.723H460.57H460.417H460.265H460.112H459.961H459.809H459.658H459.507H459.356H459.206H459.056H458.906H458.757H458.608H458.459H458.311H458.163H458.015H457.868H457.721H457.574H457.427H457.281H457.135H456.99H456.845H456.7H456.555H456.411H456.267H456.124H455.98H455.838H455.695H455.553H455.411H455.269H455.128H454.987H454.846H454.706H454.566H454.426H454.287H454.147H454.009H453.87H453.732H453.594H453.457H453.32H453.183H453.046H452.91H452.774H452.639H452.504H452.369H452.234H452.1H451.966H451.832H451.699H451.566H451.433H451.301H451.169H451.037H450.906H450.775H450.644H450.513H450.383H450.254H450.124H449.995H449.866H449.738H449.609H449.482H449.354H449.227H449.1H448.973H448.847H448.721H448.596H448.47H448.345H448.221H448.096H447.972H447.849H447.725H447.602H447.479H447.357H447.235H447.113H446.992H446.871H446.75H446.629H446.509H446.389H446.27H446.151H446.032H445.913H445.795H445.677H445.559H445.442H445.325H445.208H445.092H444.976H444.86H444.745H444.63H444.515H444.401H444.287H444.173H444.06H443.946H443.834H443.721H443.609H443.497H443.386H443.274H443.164H443.053H442.943H442.833H442.723H442.614H442.505H442.396H442.288H442.18H442.072H441.965H441.858H441.751H441.645H441.539H441.433H441.328H441.223H441.118H441.013H440.909H440.805H440.702H440.599H440.496H440.393H440.291H440.189H440.088H439.986H439.885H439.785H439.685H439.585H439.485H439.386H439.287H439.188H439.089H438.991H438.894H438.796H438.699H438.602H438.506H438.41H438.314H438.218H438.123H438.028H437.934H437.84H437.746H437.652H437.559H437.466H437.373H437.281H437.189H437.098H437.006H436.915H436.825H436.734H436.644H436.554H436.465H436.376H436.287H436.199H436.111H436.023H435.935H435.848H435.761H435.675H435.589H435.503H435.417H435.332H435.247H435.162H435.078H434.994H434.911H434.827H434.744H434.662H434.579H434.497H434.416H434.334H434.253H434.172H434.092H434.012H433.932H433.853H433.773H433.695H433.616H433.538H433.46H433.382H433.305H433.228H433.152H433.076H433H432.924H432.849H432.774C428.842 560.644 425.554 557.836 425.152 554.105C424.94 552.14 424.839 550.504 424.839 549.186C424.839 547.044 425.675 543.524 427.573 538.459C427.584 538.427 427.597 538.396 427.611 538.366C427.935 537.66 428.768 537.349 429.474 537.669C429.475 537.669 429.475 537.669 429.476 537.67ZM428.449 536.578C428.63 537.04 428.98 537.431 429.444 537.655C428.945 537.415 428.617 537.02 428.449 536.578Z" fill="#E4E4E4" stroke="black" stroke-width="4"/>
<path d="M341.26 248.215C343.217 243.378 349.206 241.678 353.412 244.767L395.919 275.981C397.117 276.861 398.463 277.503 399.878 277.897C413.292 281.64 424.557 286.198 433.707 291.547C434.184 291.827 434.548 292.1 434.818 292.392C435.26 292.871 435.584 293.329 435.749 293.69C435.762 293.719 435.774 293.745 435.784 293.769C435.687 293.81 435.549 293.857 435.355 293.905C434.591 294.093 433.286 294.195 431.199 294.035C426.351 293.662 421.249 293.377 417.163 293.619C415.129 293.74 413.226 293.996 411.69 294.493C410.237 294.964 408.607 295.815 407.929 297.492C407.331 298.97 407.606 300.395 407.998 301.507C408.286 302.322 408.729 303.196 409.106 303.94C409.216 304.156 409.319 304.361 409.413 304.551C410.26 306.278 410.585 307.412 410.106 308.525C410.044 308.504 409.971 308.478 409.887 308.444C408.981 308.073 407.574 307.146 405.609 305.463C401.734 302.143 396.255 296.387 389.143 288.118C387.911 286.686 386.358 285.549 384.602 284.821L342.131 267.209C338.075 265.527 336.133 260.89 337.779 256.819L341.26 248.215ZM435.847 293.98C435.847 293.98 435.846 293.976 435.846 293.969C435.847 293.976 435.847 293.98 435.847 293.98ZM435.97 293.671C435.977 293.664 435.981 293.661 435.982 293.661C435.982 293.661 435.978 293.665 435.97 293.671ZM96.9045 227.17C98.3437 223.674 102.032 221.647 105.742 222.319L114.632 223.929C119.89 224.881 122.753 230.633 120.345 235.408C104.859 266.112 92.9539 289.604 84.6296 305.886C76.2721 322.234 71.5812 331.198 70.4732 332.972C68.2466 336.539 67.6479 340.939 67.7939 345.308C67.9406 349.7 68.8493 354.289 69.8564 358.405C70.3749 360.524 69.7478 362.566 68.926 363.516C68.5297 363.975 68.2815 363.978 68.2604 363.978C68.2414 363.977 68.1645 363.972 68.0183 363.878C67.8618 363.777 67.6228 363.57 67.3365 363.165C66.8768 362.516 66.4837 361.875 66.0521 361.173C65.7778 360.726 65.488 360.254 65.1557 359.739C64.3646 358.511 63.4196 357.19 62.1742 356.089C60.9002 354.962 59.3308 354.08 57.332 353.699C55.3576 353.324 53.0841 353.46 50.4159 354.172C47.1194 355.052 43.9439 356.219 40.9379 357.323C40.5937 357.45 40.2517 357.575 39.9119 357.7C36.5626 358.925 33.4344 360.022 30.3641 360.639C27.3174 361.251 24.403 361.374 21.5034 360.694C18.6138 360.016 15.6117 358.511 12.4323 355.68C12.0798 355.367 11.5818 354.447 11.6848 353.398C11.7689 352.541 12.2955 351.288 14.5337 350.271C21.529 347.092 30.1572 342.564 37.4529 338.268C41.1009 336.12 44.4412 334.015 47.0901 332.153C49.6567 330.349 51.8106 328.614 52.8473 327.199C54.0431 325.568 55.8334 322.23 58.1808 317.378C60.5568 312.466 63.5741 305.851 67.23 297.541C74.5431 280.917 84.4354 257.458 96.9045 227.17Z" fill="#FFE3D1" stroke="black" stroke-width="4"/>
<path d="M352.495 238.763C354.897 240.828 357.957 241.724 360.922 241.777C366.532 241.876 372.574 243.011 379.026 245.185C381.995 246.185 383.59 249.403 382.59 252.371C382.348 253.089 381.979 253.722 381.518 254.258C380.665 255.25 380.148 256.578 380.086 257.875C380.023 259.178 380.425 260.77 381.841 261.782C381.897 261.822 381.907 261.892 381.886 261.935L373.387 279.284C371.436 283.268 366.601 284.909 362.604 282.946C358.819 281.088 355.06 279.255 351.333 277.438C328.255 266.185 306.401 255.53 287.394 243.184C265.352 228.866 247.31 212.378 235.811 190.277C234.114 187.017 232.845 181.794 231.94 175.216C231.043 168.694 230.531 161.048 230.243 153.075C229.846 142.102 229.878 130.637 229.906 120.726C229.919 116.208 229.93 112.014 229.9 108.336C229.872 104.924 231.883 101.835 234.992 100.56L238.046 99.3075C241.95 97.7065 246.448 99.4151 248.369 103.22C272.91 151.83 305.566 198.413 352.495 238.763Z" fill="#0674BB" stroke="black" stroke-width="4"/>
<path d="M173.571 283.625C169.282 283.2 166.141 279.389 166.536 275.091C173.393 200.569 188.16 147.255 218.182 100.811C219.813 98.2883 222.84 96.9485 226.002 97.2475C227.467 97.3861 228.873 97.4881 230.222 97.5534C233.487 97.7113 237.154 99.2058 240.075 101.561C243.007 103.924 244.93 106.935 245.172 109.955C248.715 154.103 265.855 201.669 290.282 263.682C290.616 264.53 290.939 266.165 291.141 268.311C291.337 270.402 291.402 272.808 291.299 275.097C291.196 277.406 290.925 279.493 290.494 280.991C290.277 281.747 290.049 282.244 289.857 282.529C289.812 282.594 289.777 282.638 289.752 282.666C261.138 288.118 222.438 288.464 173.571 283.625ZM289.707 282.712C289.707 282.711 289.709 282.709 289.714 282.706C289.709 282.71 289.707 282.712 289.707 282.712Z" fill="black" stroke="black" stroke-width="4"/>
<path d="M154.616 296.432L155.748 297.497V293.203V292.869H153.748L155.118 291.413C153.768 290.143 153.07 288.245 153.415 286.292L154.303 281.255C154.424 280.569 154.661 279.939 154.99 279.376C155.688 278.183 156.604 277.131 157.653 275.926C158.044 275.476 158.454 275.005 158.879 274.497C160.325 272.766 161.871 270.656 162.315 268.001C162.353 267.773 162.391 267.546 162.427 267.319C164.553 254.16 163.197 241.174 161.887 228.636C161.798 227.789 161.71 226.944 161.623 226.101C161.1 221.027 157.74 217.19 153.676 215.579C149.575 213.954 144.617 214.557 141.149 218.509C121.072 241.383 102.707 273.939 86.007 316.071C84.4542 319.988 80.1933 322.098 76.1915 320.92L60.3187 316.25C57.2278 315.34 55.4378 312.106 56.313 309.021C57.554 304.646 55.6507 300.024 53.8639 296.743C52.9878 295.133 52.3774 293.452 52.1882 292.155C52.0928 291.501 52.1241 291.075 52.1845 290.846C52.1919 290.818 52.1987 290.796 52.2044 290.78C53.5903 290.066 55.013 289.449 56.4721 288.928C60.3013 287.559 63.7958 284.727 65.2199 280.596C94.4103 195.922 141.009 133.648 204.945 93.5927C206.184 92.8165 207.629 92.4084 209.109 92.4084H212.216H214.889C219.523 92.4084 223.312 96.3348 223.4 101.162C223.759 120.96 228.353 145.36 234.623 172.762C237.422 184.997 240.564 197.864 243.824 211.216C244.219 212.833 244.615 214.458 245.013 216.089C248.698 231.194 252.5 246.894 256.112 263.017C270.571 327.551 281.937 398.631 270.639 464.695C270.105 467.82 267.736 470.226 264.719 470.665C245.765 473.425 224.06 470.611 200.395 467.544C195.435 466.901 190.388 466.246 185.263 465.63C155.86 462.094 124.149 459.869 92.4262 468.79C89.5447 469.6 86.6509 468.919 84.6383 467.35C82.656 465.804 81.5486 463.432 82.0632 460.667C86.9428 434.445 100.555 406.397 115.417 377.934C117.607 373.74 119.823 369.538 122.042 365.332C134.287 342.117 146.581 318.811 154.616 296.432Z" fill="#0674BB" stroke="black" stroke-width="4"/>
<path d="M202.321 116.938C202.377 116.832 202.427 116.784 202.452 116.763C202.476 116.743 202.499 116.732 202.523 116.725C202.579 116.708 202.691 116.702 202.827 116.76C202.963 116.818 203.036 116.903 203.063 116.955C203.074 116.977 203.082 117.001 203.084 117.033C203.087 117.065 203.086 117.134 203.049 117.249C202.57 118.721 202.901 120.336 203.919 121.501L214.572 133.697C217.346 136.872 217.179 141.655 214.191 144.63L210.303 148.5C206.431 152.354 205.652 158.338 208.407 163.056L221.452 185.393L204.11 161.16C201.852 158.004 202.184 153.683 204.898 150.909L208.274 147.46C212.662 142.976 212.855 135.868 208.717 131.153L200.377 121.647C200.162 121.403 200.122 121.051 200.275 120.763L202.321 116.938Z" fill="black" fill-opacity="0.1" stroke="black" stroke-width="4"/>
<path d="M233.604 245.252C230.942 245.252 228.785 243.095 228.785 240.433C228.785 237.771 230.942 235.614 233.604 235.614C236.266 235.614 238.423 237.771 238.423 240.433C238.423 243.095 236.266 245.252 233.604 245.252ZM242.128 284.463C239.466 284.463 237.309 282.305 237.309 279.644C237.309 276.982 239.466 274.825 242.128 274.825C244.79 274.825 246.947 276.982 246.947 279.644C246.947 282.305 244.79 284.463 242.128 284.463ZM243.833 323.674C241.171 323.674 239.014 321.516 239.014 318.855C239.014 316.193 241.171 314.035 243.833 314.035C246.495 314.035 248.652 316.193 248.652 318.855C248.652 321.516 246.495 323.674 243.833 323.674Z" fill="black" fill-opacity="0.4" stroke="black" stroke-width="4"/>
</svg>
