<svg width="271" height="232" viewBox="0 0 271 232" fill="none" xmlns="http://www.w3.org/2000/svg">
<g clip-path="url(#clip0_485_4463)">
<path d="M20.3484 212.904C21.91 213.452 23.5866 213.589 25.2168 213.303C26.8469 213.016 28.3756 212.316 29.6556 211.269C32.9155 208.539 33.9378 204.043 34.7691 199.879L37.2289 187.562L32.0792 191.1C28.3756 193.644 24.5888 196.269 22.0247 199.954C19.4606 203.639 18.342 208.669 20.4015 212.657" fill="#E6E6E6"/>
<path d="M21.1462 228.673C20.498 223.962 19.8312 219.19 20.2869 214.429C20.6908 210.2 21.984 206.07 24.6169 202.683C26.0144 200.888 27.7149 199.351 29.642 198.14C30.1444 197.823 30.6069 198.618 30.1066 198.933C26.7722 201.035 24.1931 204.139 22.7411 207.798C21.1376 211.867 20.8801 216.302 21.1563 220.625C21.3233 223.238 21.6781 225.835 22.0344 228.429C22.0625 228.546 22.0449 228.67 21.9852 228.774C21.9255 228.879 21.8281 228.958 21.7128 228.994C21.595 229.025 21.4696 229.009 21.3636 228.949C21.2576 228.889 21.1796 228.79 21.1465 228.673L21.1462 228.673Z" fill="#F2F2F2"/>
<path d="M25.8086 221.114C26.4782 222.13 27.3988 222.956 28.4816 223.514C29.5644 224.072 30.7729 224.342 31.9907 224.298C35.121 224.15 37.7296 221.971 40.0777 219.902L47.0243 213.783L42.427 213.564C39.1208 213.406 35.7293 213.258 32.5802 214.276C29.4312 215.294 26.527 217.741 25.9513 220.993" fill="#E6E6E6"/>
<path d="M19.3145 231.381C22.435 225.873 26.0542 219.751 32.5217 217.794C34.3198 217.252 36.2053 217.058 38.0765 217.222C38.6663 217.273 38.519 218.18 37.9304 218.129C34.7937 217.87 31.663 218.696 29.0654 220.469C26.5658 222.167 24.6195 224.527 22.9724 227.029C21.9633 228.562 21.0595 230.16 20.1557 231.756C19.8669 232.266 19.0223 231.897 19.3145 231.381Z" fill="#F2F2F2"/>
<path d="M268.999 163.381H96.9605C96.4304 163.38 95.9222 163.17 95.5474 162.796C95.1725 162.422 94.9616 161.915 94.9609 161.386V1.99488C94.9616 1.46602 95.1725 0.959012 95.5474 0.58505C95.9222 0.211088 96.4304 0.000691356 96.9605 0H268.999C269.529 0.000691356 270.037 0.211088 270.412 0.58505C270.787 0.959012 270.998 1.46602 270.998 1.99488V161.386C270.998 161.915 270.787 162.422 270.412 162.796C270.037 163.17 269.529 163.38 268.999 163.381V163.381Z" fill="white"/>
<path d="M268.999 163.381H96.9605C96.4304 163.38 95.9222 163.17 95.5474 162.796C95.1725 162.422 94.9616 161.915 94.9609 161.386V1.99488C94.9616 1.46602 95.1725 0.959012 95.5474 0.58505C95.9222 0.211088 96.4304 0.000691356 96.9605 0H268.999C269.529 0.000691356 270.037 0.211088 270.412 0.58505C270.787 0.959012 270.998 1.46602 270.998 1.99488V161.386C270.998 161.915 270.787 162.422 270.412 162.796C270.037 163.17 269.529 163.38 268.999 163.381V163.381ZM96.9605 0.79638C96.6428 0.797068 96.3383 0.923286 96.1137 1.14741C95.889 1.37153 95.7625 1.67531 95.7618 1.99226V161.386C95.7625 161.703 95.889 162.006 96.1137 162.23C96.3383 162.455 96.6428 162.581 96.9605 162.582H268.999C269.316 162.581 269.621 162.455 269.846 162.231C270.07 162.006 270.197 161.703 270.197 161.386V1.99488C270.197 1.67792 270.07 1.37415 269.846 1.15003C269.621 0.925904 269.316 0.799686 268.999 0.798998L96.9605 0.79638Z" fill="#CACACA"/>
<path d="M178.254 41.4183C177.894 41.4189 177.549 41.5619 177.295 41.8158C177.041 42.0697 176.898 42.4138 176.898 42.7726C176.898 43.1314 177.041 43.4755 177.295 43.7295C177.549 43.9834 177.894 44.1263 178.254 44.127H252.744C253.103 44.1263 253.448 43.9834 253.702 43.7295C253.956 43.4755 254.099 43.1314 254.099 42.7726C254.099 42.4138 253.956 42.0697 253.702 41.8158C253.448 41.5619 253.103 41.4189 252.744 41.4183H178.254Z" fill="#E4E4E4"/>
<path d="M178.253 49.545C177.893 49.5459 177.549 49.689 177.295 49.9429C177.041 50.1968 176.898 50.5408 176.898 50.8994C176.898 51.258 177.041 51.602 177.295 51.8559C177.549 52.1098 177.893 52.2528 178.253 52.2537H216.281C216.641 52.2528 216.985 52.1098 217.239 51.8559C217.493 51.602 217.636 51.258 217.636 50.8994C217.636 50.5408 217.493 50.1968 217.239 49.9429C216.985 49.689 216.641 49.5459 216.281 49.545H178.253Z" fill="#E4E4E4"/>
<path d="M113.147 93.2479C112.788 93.2487 112.443 93.3918 112.189 93.6457C111.936 93.8996 111.793 94.2436 111.793 94.6022C111.793 94.9608 111.936 95.3048 112.189 95.5587C112.443 95.8126 112.788 95.9557 113.147 95.9565H252.816C253.176 95.9557 253.52 95.8126 253.774 95.5587C254.028 95.3048 254.171 94.9608 254.171 94.6022C254.171 94.2436 254.028 93.8996 253.774 93.6457C253.52 93.3918 253.176 93.2487 252.816 93.2479H113.147Z" fill="#E4E4E4"/>
<path d="M113.147 101.375C112.788 101.375 112.443 101.519 112.189 101.772C111.936 102.026 111.793 102.37 111.793 102.729C111.793 103.088 111.936 103.432 112.189 103.685C112.443 103.939 112.788 104.082 113.147 104.083H216.355C216.715 104.082 217.059 103.939 217.313 103.685C217.567 103.432 217.709 103.088 217.709 102.729C217.709 102.37 217.567 102.026 217.313 101.772C217.059 101.519 216.715 101.375 216.355 101.375H113.147Z" fill="#E4E4E4"/>
<path d="M113.147 109.317C112.788 109.318 112.443 109.461 112.189 109.715C111.936 109.969 111.793 110.313 111.793 110.672C111.793 111.03 111.936 111.374 112.189 111.628C112.443 111.882 112.788 112.025 113.147 112.026H252.816C253.176 112.025 253.52 111.882 253.774 111.628C254.028 111.374 254.171 111.03 254.171 110.672C254.171 110.313 254.028 109.969 253.774 109.715C253.52 109.461 253.176 109.318 252.816 109.317H113.147Z" fill="#E4E4E4"/>
<path d="M113.147 117.444C112.788 117.445 112.443 117.588 112.189 117.842C111.936 118.096 111.793 118.44 111.793 118.799C111.793 119.157 111.936 119.501 112.189 119.755C112.443 120.009 112.788 120.152 113.147 120.153H216.355C216.715 120.152 217.059 120.009 217.313 119.755C217.567 119.501 217.709 119.157 217.709 118.799C217.709 118.44 217.567 118.096 217.313 117.842C217.059 117.588 216.715 117.445 216.355 117.444H113.147Z" fill="#E4E4E4"/>
<path d="M113.147 125.599C112.788 125.6 112.443 125.743 112.189 125.996C111.936 126.25 111.793 126.594 111.793 126.953C111.793 127.312 111.936 127.656 112.189 127.909C112.443 128.163 112.788 128.306 113.147 128.307H252.816C253.176 128.306 253.52 128.163 253.774 127.909C254.028 127.656 254.171 127.312 254.171 126.953C254.171 126.594 254.028 126.25 253.774 125.996C253.52 125.743 253.176 125.6 252.816 125.599H113.147Z" fill="#E4E4E4"/>
<path d="M113.147 133.725C112.788 133.726 112.443 133.869 112.189 134.123C111.936 134.377 111.793 134.721 111.793 135.08C111.793 135.438 111.936 135.782 112.189 136.036C112.443 136.29 112.788 136.433 113.147 136.434H216.355C216.715 136.433 217.059 136.29 217.313 136.036C217.567 135.782 217.709 135.438 217.709 135.08C217.709 134.721 217.567 134.377 217.313 134.123C217.059 133.869 216.715 133.726 216.355 133.725H113.147Z" fill="#E4E4E4"/>
<path d="M135.27 66.294C131.412 66.294 127.641 65.1528 124.434 63.0148C121.226 60.8767 118.727 57.8378 117.25 54.2823C115.774 50.7268 115.388 46.8145 116.14 43.04C116.893 39.2655 118.75 35.7984 121.478 33.0771C124.206 30.3558 127.681 28.5026 131.464 27.7518C135.248 27.001 139.169 27.3863 142.733 28.859C146.297 30.3318 149.343 32.8258 151.486 36.0256C153.63 39.2255 154.773 42.9875 154.773 46.8359C154.768 51.9947 152.711 56.9405 149.054 60.5883C145.398 64.2361 140.441 66.2881 135.27 66.294Z" fill="#0674BB"/>
<path d="M76.0628 139.866C76.0291 139.156 75.8397 138.462 75.5079 137.832C75.1762 137.203 74.7102 136.654 74.1427 136.224C73.5753 135.794 72.9202 135.493 72.2236 135.342C71.527 135.192 70.8058 135.196 70.1109 135.354L63.6641 126.29L57.1875 128.855L66.4718 141.528C66.815 142.675 67.5681 143.656 68.5882 144.286C69.6084 144.917 70.8249 145.152 72.0071 144.947C73.1893 144.742 74.2551 144.112 75.0026 143.175C75.7501 142.239 76.1273 141.061 76.0628 139.866H76.0628Z" fill="#A0616A"/>
<path d="M63.4992 139.194L43.9922 113.947L51.3013 91.0302C51.8369 85.2685 55.4508 83.6596 55.6046 83.5939L55.8392 83.4935L62.1994 100.415L57.5295 112.839L68.9917 132.071L63.4992 139.194Z" fill="#3F3D56"/>
<path d="M131.245 61.3666C130.538 61.4551 129.859 61.6971 129.256 62.0758C128.653 62.4544 128.14 62.9604 127.754 63.5581C127.368 64.1557 127.118 64.8306 127.022 65.5351C126.925 66.2396 126.985 66.9566 127.196 67.6356L118.637 74.7487L121.701 80.9925L133.647 70.7779C134.767 70.3479 135.69 69.523 136.241 68.4595C136.792 67.396 136.933 66.1679 136.636 65.0079C136.34 63.8478 135.628 62.8364 134.634 62.1653C133.641 61.4942 132.435 61.21 131.245 61.3666Z" fill="#A0616A"/>
<path d="M131.545 73.9161L107.823 95.2709L84.3554 89.7727C78.5559 89.6854 76.6687 86.2152 76.5911 86.0673L76.4727 85.8417L92.8913 78.2071L105.668 81.8916L124.002 69.0036L131.545 73.9161Z" fill="#3F3D56"/>
<path d="M90.4543 225.728L96.8281 225.727L99.86 201.201L90.4531 201.201L90.4543 225.728Z" fill="#A0616A"/>
<path d="M109.121 231.631L89.0894 231.632L89.089 223.911L103.501 223.91C104.991 223.91 106.421 224.501 107.475 225.552C108.529 226.604 109.121 228.03 109.121 229.517L109.121 231.631L109.121 231.631Z" fill="#2F2E41"/>
<path d="M64.9774 225.728L71.3512 225.727L74.3834 201.201L64.9766 201.201L64.9774 225.728Z" fill="#A0616A"/>
<path d="M83.6445 231.631L63.6128 231.632L63.6124 223.911L78.0242 223.91C78.7623 223.91 79.4931 224.055 80.1749 224.337C80.8568 224.619 81.4763 225.032 81.9982 225.552C82.5201 226.073 82.9341 226.691 83.2165 227.371C83.499 228.051 83.6444 228.781 83.6444 229.517L83.6445 231.631Z" fill="#2F2E41"/>
<path d="M62.7109 136.203L63.2308 172.509L63.751 220.227L75.1883 219.189L80.9073 153.319L88.1858 219.189H99.9936L101.183 152.8L97.0238 138.277L62.7109 136.203Z" fill="#2F2E41"/>
<path d="M85.0972 141.078C72.6524 141.079 61.1971 135.46 61.0425 135.383L60.914 135.319L59.8697 110.315C59.5668 109.431 53.6035 91.9959 52.5935 86.4542C51.5702 80.8396 66.4009 75.9121 68.2018 75.3359L68.6105 70.8192L85.2301 69.0326L87.3365 74.8119L93.2989 77.0423C93.9748 77.2954 94.5342 77.787 94.8711 78.4241C95.208 79.0611 95.2989 79.7993 95.1267 80.4988L91.8129 93.9432L99.9063 138.424L98.1639 138.499C93.9873 140.381 89.4797 141.078 85.0972 141.078Z" fill="#3F3D56"/>
<path d="M83.3111 64.709C89.11 61.5465 91.2411 54.293 88.0712 48.5078C84.9012 42.7226 77.6306 40.5964 71.8317 43.7589C66.0329 46.9214 63.9018 54.1749 67.0717 59.9601C70.2417 65.7453 77.5123 67.8715 83.3111 64.709Z" fill="#A0616A"/>
<path d="M67.8785 65.7909C70.159 68.2144 74.3941 66.9134 74.6913 63.6026C74.7146 63.3455 74.7129 63.0868 74.6862 62.8301C74.5328 61.3636 73.6836 60.0321 73.887 58.4837C73.933 58.0983 74.0769 57.731 74.3051 57.4167C76.1223 54.9889 80.3882 58.5025 82.1032 56.3048C83.1548 54.9572 81.9187 52.8354 82.7257 51.3293C83.7908 49.3414 86.9456 50.322 88.924 49.2333C91.1252 48.022 90.9936 44.6527 89.5446 42.6032C87.7775 40.1039 84.6792 38.7703 81.6195 38.578C78.5598 38.3858 75.5211 39.211 72.6646 40.3216C69.4191 41.5835 66.2006 43.3274 64.2033 46.1745C61.7744 49.6369 61.5407 54.2918 62.7554 58.3404C63.4944 60.8033 66.0163 63.8119 67.8785 65.7909Z" fill="#2F2E41"/>
<path d="M152.051 231.939H0.398039C0.292472 231.939 0.191223 231.897 0.116576 231.823C0.0419297 231.748 0 231.647 0 231.542C0 231.437 0.0419297 231.336 0.116576 231.261C0.191223 231.187 0.292472 231.145 0.398039 231.145H152.051C152.156 231.145 152.258 231.187 152.332 231.261C152.407 231.336 152.449 231.437 152.449 231.542C152.449 231.647 152.407 231.748 152.332 231.823C152.258 231.897 152.156 231.939 152.051 231.939Z" fill="#CACACA"/>
<path d="M134.143 54.1852C133.792 54.1856 133.453 54.0529 133.196 53.8137L126.764 47.8543C126.494 47.6033 126.335 47.2556 126.321 46.8875C126.308 46.5193 126.441 46.161 126.693 45.8911C126.944 45.6211 127.292 45.4618 127.661 45.448C128.03 45.4342 128.39 45.5672 128.66 45.8176L134.108 50.8655L144.885 40.1135C145.015 39.9836 145.168 39.8805 145.337 39.81C145.507 39.7395 145.688 39.703 145.872 39.7027C146.055 39.7023 146.237 39.7381 146.406 39.808C146.576 39.8779 146.73 39.9805 146.859 40.1099C146.989 40.2393 147.092 40.3929 147.162 40.562C147.232 40.7312 147.268 40.9124 147.267 41.0954C147.267 41.2784 147.23 41.4594 147.16 41.6283C147.089 41.7971 146.986 41.9504 146.855 42.0792L135.129 53.7782C134.999 53.9074 134.846 54.0099 134.677 54.0798C134.508 54.1496 134.326 54.1854 134.143 54.1852Z" fill="white"/>
</g>
<defs>
<clipPath id="clip0_485_4463">
<rect width="271" height="232" fill="white"/>
</clipPath>
</defs>
</svg>
