<svg width="24" height="24" viewBox="0 0 24 24" fill="none" xmlns="http://www.w3.org/2000/svg">
<path d="M21.0431 11.7675H19.9669V1.91998C19.9669 1.71373 19.7981 1.54498 19.5919 1.54498H4.40437C4.19812 1.54498 4.02937 1.71373 4.02937 1.91998V11.7675H2.95312C2.74312 11.7675 2.57812 11.9325 2.57812 12.1425V19.3575C2.57812 19.5675 2.74312 19.7325 2.95312 19.7325H4.02937V22.08C4.02937 22.2862 4.19812 22.455 4.40437 22.455H19.5919C19.7981 22.455 19.9669 22.2862 19.9669 22.08V19.7325H21.0431C21.2531 19.7325 21.4181 19.5675 21.4181 19.3575V12.1425C21.4181 11.9325 21.2531 11.7675 21.0431 11.7675V11.7675ZM19.2169 21.705H4.77937V19.7325H19.2169V21.705ZM6.84187 17.7187V13.6912C6.84187 13.6425 6.88687 13.5975 6.93562 13.5975H8.24062C8.75062 13.5975 9.07312 13.6204 9.23437 13.6612C9.48187 13.7291 9.69562 13.8716 9.86437 14.0891C10.0294 14.3066 10.1156 14.5916 10.1156 14.9329C10.1156 15.1912 10.0669 15.4166 9.96937 15.6C9.87562 15.78 9.74812 15.9225 9.59812 16.0279C9.45187 16.1325 9.29812 16.2004 9.14437 16.2341C8.94187 16.2754 8.66062 16.2941 8.28187 16.2941H7.84312V17.7191C7.84312 17.7716 7.80187 17.8129 7.74937 17.8129H6.93562C6.88687 17.8125 6.84187 17.7712 6.84187 17.7187V17.7187ZM10.5956 17.7187V13.6912C10.5956 13.6425 10.6369 13.5975 10.6894 13.5975H11.9944C12.5006 13.5975 12.8269 13.6204 12.9844 13.6612C13.2356 13.7291 13.4456 13.8716 13.6144 14.0891C13.7831 14.3066 13.866 14.5916 13.866 14.9329C13.866 15.1912 13.8169 15.4166 13.7231 15.6C13.6256 15.78 13.5019 15.9225 13.3522 16.0279C13.2022 16.1325 13.0481 16.2004 12.8944 16.2341C12.6919 16.2754 12.4106 16.2941 12.0319 16.2941H11.5969V17.7191C11.5969 17.7716 11.5556 17.8129 11.5031 17.8129H10.6894C10.6369 17.8125 10.5956 17.7712 10.5956 17.7187V17.7187ZM14.1544 14.4675C14.1019 14.4675 14.0606 14.4262 14.0606 14.3737V13.6912C14.0606 13.6425 14.1019 13.5975 14.1544 13.5975H17.3531C17.4056 13.5975 17.4469 13.6425 17.4469 13.6912V14.3737C17.4469 14.4262 17.4056 14.4675 17.3531 14.4675H16.2544V17.7187C16.2544 17.7712 16.2135 17.8125 16.1606 17.8125H15.3469C15.2944 17.8125 15.2531 17.7712 15.2531 17.7187V14.4675H14.1544ZM19.2169 11.7675H4.77937V2.29498H19.2169V11.7675Z" fill="#0674BB"/>
<path d="M9.0925 14.9437C9.0925 15.0416 9.06625 15.1275 9.01375 15.2025C8.965 15.2775 8.89375 15.33 8.80375 15.3637C8.74 15.39 8.57875 15.4237 8.19625 15.4237H7.84375V14.4675H8.14375C8.42875 14.4675 8.62 14.475 8.71375 14.4937C8.8225 14.5125 8.9125 14.5612 8.9875 14.6433C9.055 14.7187 9.0925 14.82 9.0925 14.9437Z" fill="#0674BB"/>
<path d="M12.8427 14.9437C12.8427 15.0416 12.8164 15.1275 12.7677 15.2025C12.7152 15.2775 12.648 15.33 12.5577 15.3637C12.4898 15.39 12.3327 15.4237 11.9464 15.4237H11.5977V14.4675H11.8977C12.1827 14.4675 12.3739 14.475 12.4639 14.4937C12.5764 14.5125 12.6664 14.5612 12.7373 14.6433C12.8089 14.7187 12.8427 14.82 12.8427 14.9437V14.9437Z" fill="#0674BB"/>
<path d="M17.5312 5.01562H6.46875C6.26138 5.01562 6.09375 4.848 6.09375 4.64062C6.09375 4.43325 6.26138 4.26562 6.46875 4.26562H17.5312C17.7386 4.26562 17.9062 4.43325 17.9062 4.64062C17.9062 4.848 17.7386 5.01562 17.5312 5.01562Z" fill="#0674BB"/>
<path d="M17.5312 7.64062H6.46875C6.26138 7.64062 6.09375 7.473 6.09375 7.26562C6.09375 7.05825 6.26138 6.89062 6.46875 6.89062H17.5312C17.7386 6.89062 17.9062 7.05825 17.9062 7.26562C17.9062 7.473 17.7386 7.64062 17.5312 7.64062Z" fill="#0674BB"/>
<path d="M17.5312 10.2656H6.46875C6.26138 10.2656 6.09375 10.098 6.09375 9.89062C6.09375 9.68325 6.26138 9.51562 6.46875 9.51562H17.5312C17.7386 9.51562 17.9062 9.68325 17.9062 9.89062C17.9062 10.098 17.7386 10.2656 17.5312 10.2656Z" fill="#0674BB"/>
</svg>
