<svg width="216" height="216" viewBox="0 0 216 216" fill="none" xmlns="http://www.w3.org/2000/svg">
<circle cx="108" cy="108" r="107" fill="white" stroke="#0674BB" stroke-width="2"/>
<path d="M96.8581 107.078L94.4111 108.302C92.6891 109.163 90.9218 109.797 89.0639 110.25L76.8743 113.332C73.6569 114.147 71.3005 116.957 71.1193 120.31L68.2644 155.248C68.2191 156.743 69.3973 158.012 70.938 158.057H70.9833H104.516L96.8581 107.078Z" fill="#0674BB"/>
<path d="M139.681 130.325C132.385 130.325 126.494 124.434 126.494 117.138C126.494 114.51 127.264 111.972 128.714 109.797C127.446 109.389 126.222 108.891 124.999 108.302L122.552 107.078L114.893 158.057H148.426C149.922 158.057 151.145 156.834 151.145 155.339V155.293L148.789 126.654C146.387 129.011 143.124 130.325 139.681 130.325Z" fill="#0674BB"/>
<path d="M104.516 158.057H114.939L122.597 107.078L118.609 105.13L114.486 113.649C114.168 114.283 113.534 114.691 112.809 114.691H106.329C105.604 114.691 104.97 114.283 104.652 113.604L100.846 105.13L96.8582 107.078L104.516 158.057Z" fill="#DAE6F1"/>
<path d="M120.467 121.126L122.552 107.078L118.564 105.13L114.44 113.649L120.286 120.945L120.467 121.126Z" fill="#EDF4FC"/>
<path d="M98.9878 121.126C99.0331 121.081 99.0784 121.035 99.1237 120.945L104.833 113.876C104.788 113.785 104.743 113.694 104.697 113.604L100.891 105.13L96.9033 107.078L98.9878 121.126Z" fill="#EDF4FC"/>
<path d="M114.486 113.649C114.169 114.283 113.534 114.691 112.809 114.691H106.329C105.695 114.691 105.151 114.374 104.788 113.876L103.656 115.28L106.374 122.349H112.99L115.709 115.28L114.486 113.649Z" fill="#0674BB"/>
<path d="M113.035 122.349H106.419L102.84 147.001L104.516 158.057H114.939L116.615 147.001L113.035 122.349Z" fill="#0674BB"/>
<path d="M139.681 130.325C146.964 130.325 152.867 124.421 152.867 117.138C152.867 109.855 146.964 103.952 139.681 103.952C132.398 103.952 126.494 109.855 126.494 117.138C126.494 124.421 132.398 130.325 139.681 130.325Z" fill="#FFA721"/>
<path d="M109.728 101.323C106.601 101.323 103.565 100.508 100.846 98.967V105.13L104.652 113.604C104.97 114.283 105.604 114.691 106.329 114.691H112.809C113.534 114.691 114.168 114.283 114.486 113.649L118.609 105.13V98.967C115.89 100.508 112.854 101.323 109.728 101.323Z" fill="#FFE3D1"/>
<path d="M128.896 69.603C128.488 69.603 128.125 69.6483 127.717 69.6937V83.3334C127.717 83.7412 127.717 84.1491 127.672 84.5569C131.75 85.2366 135.648 82.4271 136.282 78.3488C136.916 74.2704 134.152 70.3734 130.074 69.739C129.711 69.603 129.303 69.603 128.896 69.603Z" fill="#FFE3D1"/>
<path d="M91.7376 83.2881V69.6937C87.6592 69.0139 83.7622 71.7781 83.0825 75.9018C82.4027 79.9801 85.1669 83.8772 89.2906 84.5569C90.1062 84.6928 90.9672 84.6928 91.7829 84.5569C91.7376 84.1038 91.7376 83.6959 91.7376 83.2881Z" fill="#FFE3D1"/>
<path d="M112.446 61.4464C105.83 69.739 96.1331 68.5608 92.8704 67.8811C92.372 67.7904 91.8282 68.1076 91.7375 68.6061V68.7874V83.2881C91.7829 93.212 99.8036 101.278 109.728 101.278C119.651 101.233 127.717 93.212 127.717 83.2881V67.2467C127.717 67.156 127.717 67.0654 127.717 66.9748C127.717 66.4763 127.31 66.0685 126.766 66.0232C119.289 65.7966 115.347 62.8511 113.851 61.3557C113.489 60.9932 112.854 60.9932 112.492 61.3557C112.492 61.4011 112.446 61.4464 112.446 61.4464Z" fill="#FFE3D1"/>
<path d="M90.5594 69.603C90.9672 69.603 91.3298 69.6483 91.7376 69.6937V68.8327C91.7376 68.2889 92.1907 67.8811 92.6892 67.8811H92.8705C96.1331 68.5608 105.83 69.739 112.446 61.4464C112.764 61.0385 113.398 60.9479 113.806 61.2651C113.851 61.2651 113.851 61.3104 113.897 61.3557C115.392 62.8511 119.334 65.7966 126.811 66.0232C127.31 66.0232 127.718 66.4763 127.763 66.9748V67.2467V69.6483C130.074 69.2858 132.43 70.0109 134.152 71.6875V58.1837C134.152 52.5194 129.53 47.8972 123.866 47.8972C122.008 47.8972 120.195 48.3957 118.609 49.3473C116.706 46.2206 113.353 44.3174 109.728 44.3174H104.426C94.1846 44.3627 85.8467 52.6553 85.8467 62.8964V71.2344C87.2061 70.1468 88.8375 69.603 90.5594 69.603Z" fill="#0674BB"/>
<path d="M136.781 122.576L132.748 118.543C131.841 117.682 131.841 116.232 132.702 115.326C133.563 114.419 135.013 114.419 135.92 115.28L135.965 115.326L138.412 117.773L143.532 112.652C144.439 111.791 145.843 111.791 146.75 112.697C147.611 113.558 147.611 114.963 146.75 115.869L140.043 122.576C139.137 123.437 137.687 123.437 136.781 122.576Z" fill="#EDF4FC"/>
<path d="M109.728 92.6229C106.465 92.6229 103.474 90.9463 101.752 88.2274C101.435 87.6836 101.571 87.0039 102.115 86.6414C102.659 86.3242 103.338 86.4601 103.701 87.0039C105.785 90.3572 110.226 91.3541 113.579 89.2696C114.486 88.6805 115.256 87.9102 115.845 87.0039C116.162 86.4601 116.887 86.3242 117.431 86.6414C117.975 86.9586 118.111 87.6836 117.794 88.2274C115.981 90.9463 112.99 92.6229 109.728 92.6229Z" fill="black"/>
<path d="M101.978 79.9801C103.155 79.9801 104.108 79.0266 104.108 77.8503C104.108 76.6741 103.155 75.7205 101.978 75.7205C100.802 75.7205 99.8486 76.6741 99.8486 77.8503C99.8486 79.0266 100.802 79.9801 101.978 79.9801Z" fill="black"/>
<path d="M117.839 79.9801C119.015 79.9801 119.969 79.0266 119.969 77.8503C119.969 76.6741 119.015 75.7205 117.839 75.7205C116.663 75.7205 115.709 76.6741 115.709 77.8503C115.709 79.0266 116.663 79.9801 117.839 79.9801Z" fill="black"/>
<path d="M104.516 159.19H70.9833C68.8536 159.19 67.1316 157.468 67.1316 155.339C67.1316 155.293 67.1316 155.293 67.1316 155.248V155.203L69.9864 120.265C70.213 116.459 72.8866 113.241 76.6024 112.29L88.7921 109.208C90.5593 108.755 92.2813 108.121 93.9126 107.35L96.3596 106.127C96.9034 105.855 97.5831 106.081 97.855 106.625C97.9003 106.716 97.9456 106.852 97.9456 106.942L105.649 157.876C105.74 158.511 105.332 159.054 104.698 159.145C104.607 159.19 104.562 159.19 104.516 159.19ZM69.3973 155.293C69.3973 156.2 70.1224 156.879 70.9833 156.925H103.202L95.9518 108.8L94.8642 109.344C93.097 110.205 91.2391 110.885 89.2905 111.383L77.1008 114.465C74.3366 115.144 72.3428 117.546 72.2068 120.401L69.3973 155.293Z" fill="black"/>
<path d="M148.471 159.19H114.939C114.304 159.19 113.806 158.692 113.806 158.057C113.806 158.012 113.806 157.967 113.806 157.876L121.464 106.897C121.554 106.263 122.144 105.855 122.733 105.945C122.869 105.945 122.959 105.991 123.05 106.036L125.497 107.26C126.63 107.803 127.808 108.302 129.031 108.664C129.621 108.846 129.938 109.48 129.756 110.069C129.711 110.16 129.666 110.25 129.621 110.341C125.905 115.869 127.355 123.346 132.883 127.062C137.596 130.234 143.895 129.69 147.973 125.703C148.426 125.25 149.151 125.295 149.559 125.748C149.74 125.929 149.831 126.201 149.876 126.428L152.233 155.067V155.112C152.278 157.242 150.601 159.009 148.471 159.054C148.517 159.19 148.517 159.19 148.471 159.19ZM116.253 156.925H148.471C149.378 156.925 150.057 156.2 150.057 155.339L147.882 128.92C141.402 133.452 132.475 131.866 127.944 125.385C124.862 120.99 124.5 115.19 127.038 110.432C126.177 110.114 125.316 109.752 124.545 109.344L123.458 108.8L116.253 156.925Z" fill="black"/>
<path d="M114.939 159.19H104.516C103.973 159.19 103.474 158.782 103.384 158.239L95.7254 107.26C95.6347 106.761 95.9066 106.308 96.3598 106.081L100.347 104.133C100.891 103.861 101.571 104.088 101.843 104.631V104.677L105.649 113.151C105.785 113.422 106.012 113.558 106.284 113.558H112.764C113.036 113.558 113.262 113.422 113.398 113.151L117.522 104.631C117.794 104.088 118.473 103.816 119.017 104.088L123.005 106.036C123.458 106.263 123.685 106.716 123.639 107.214L116.072 158.239C115.981 158.782 115.483 159.19 114.939 159.19ZM105.468 156.925H113.942L121.328 107.758L119.108 106.671L115.483 114.193C114.984 115.235 113.942 115.869 112.809 115.869H106.329C105.151 115.869 104.109 115.19 103.61 114.102L100.257 106.671L98.0817 107.758L105.468 156.925Z" fill="black"/>
<path d="M83.762 158.42C83.1276 158.42 82.6292 157.922 82.6292 157.287V127.47C82.6292 126.836 83.1276 126.337 83.762 126.337C84.3964 126.337 84.8949 126.836 84.8949 127.47V157.242C84.8949 157.876 84.3964 158.42 83.762 158.42Z" fill="black"/>
<path d="M136.599 158.42C135.965 158.42 135.467 157.922 135.467 157.287V130.189C135.467 129.554 135.965 129.056 136.599 129.056C137.234 129.056 137.732 129.554 137.732 130.189V157.242C137.732 157.876 137.234 158.42 136.599 158.42Z" fill="black"/>
<path d="M120.467 122.259C120.195 122.259 119.878 122.168 119.697 121.942C119.606 121.851 119.516 121.76 119.425 121.67L113.579 114.374C113.308 114.012 113.262 113.558 113.443 113.151L117.567 104.631C117.839 104.088 118.519 103.816 119.063 104.088L123.05 106.036C123.503 106.263 123.73 106.716 123.685 107.214L121.6 121.262C121.51 121.851 121.056 122.259 120.467 122.259ZM115.8 113.513L119.742 118.407L121.328 107.713L119.108 106.625L115.8 113.513Z" fill="black"/>
<path d="M98.9879 122.259C98.4441 122.259 97.9457 121.851 97.855 121.307L95.7705 107.26C95.6799 106.761 95.9518 106.308 96.4049 106.081L100.393 104.133C100.936 103.861 101.616 104.088 101.888 104.631V104.677L105.694 113.151C105.694 113.196 105.74 113.196 105.74 113.241C106.012 113.649 105.966 114.193 105.694 114.555L99.9848 121.624C99.8942 121.715 99.8036 121.806 99.7129 121.896C99.5317 122.168 99.2598 122.259 98.9879 122.259ZM98.1269 107.758L99.7129 118.452L103.474 113.785L100.302 106.716L98.1269 107.758Z" fill="black"/>
<path d="M113.036 123.482H106.42C105.966 123.482 105.513 123.21 105.377 122.757L102.658 115.688C102.523 115.326 102.568 114.872 102.84 114.555L103.973 113.151C104.199 112.879 104.562 112.697 104.924 112.743C105.287 112.743 105.604 112.969 105.83 113.241C105.966 113.422 106.193 113.558 106.42 113.558H112.9C113.171 113.558 113.398 113.422 113.534 113.151C113.806 112.607 114.486 112.335 115.029 112.607C115.165 112.697 115.301 112.788 115.437 112.924L116.751 114.51C117.023 114.827 117.069 115.235 116.933 115.643L114.214 122.712C113.897 123.21 113.489 123.482 113.036 123.482ZM107.19 121.217H112.22L114.44 115.462L114.35 115.371C113.897 115.688 113.307 115.824 112.764 115.824H106.284C105.83 115.824 105.332 115.733 104.924 115.507L107.19 121.217Z" fill="black"/>
<path d="M114.939 159.19H104.516C103.973 159.19 103.474 158.783 103.383 158.239L101.707 147.182C101.707 147.091 101.707 146.955 101.707 146.865L105.287 122.213C105.377 121.67 105.83 121.262 106.42 121.262H113.035C113.579 121.262 114.078 121.67 114.168 122.213L117.748 146.865V147.182L116.072 158.239C115.981 158.783 115.482 159.19 114.939 159.19ZM105.468 156.925H113.942L115.437 147.001L112.039 123.482H107.416L104.018 147.001L105.468 156.925Z" fill="black"/>
<path d="M139.681 131.458C131.796 131.458 125.361 125.068 125.361 117.138C125.361 109.208 131.751 102.819 139.681 102.819C147.611 102.819 154 109.208 154 117.138C154 125.068 147.611 131.458 139.681 131.458ZM139.681 105.084C133.02 105.084 127.627 110.477 127.627 117.138C127.627 123.799 133.02 129.192 139.681 129.192C146.342 129.192 151.735 123.799 151.735 117.138C151.735 110.522 146.342 105.13 139.681 105.084Z" fill="black"/>
<path d="M112.809 115.824H106.329C105.151 115.824 104.109 115.144 103.61 114.057L99.8038 105.583C99.7584 105.447 99.7131 105.266 99.7131 105.13V98.967C99.7131 98.3326 100.212 97.8341 100.846 97.8341C101.027 97.8341 101.254 97.8794 101.39 97.9701C106.556 100.916 112.9 100.916 118.02 97.9701C118.564 97.6529 119.244 97.8341 119.561 98.3779C119.652 98.5592 119.697 98.7404 119.697 98.9217V105.085C119.697 105.266 119.652 105.447 119.606 105.583L115.483 114.102C114.984 115.19 113.942 115.824 112.809 115.824ZM101.979 104.903L105.695 113.151C105.831 113.422 106.057 113.558 106.329 113.558H112.809C113.081 113.558 113.308 113.422 113.444 113.151L117.477 104.858V100.78C112.537 103 106.918 103 101.979 100.78V104.903Z" fill="black"/>
<path d="M128.896 85.7351C128.442 85.7351 127.989 85.6898 127.536 85.5991C126.947 85.5085 126.539 85.01 126.584 84.4209C126.63 83.9678 126.63 83.6053 126.63 83.2881V69.6936C126.63 69.1499 127.038 68.6514 127.581 68.5608C132.294 67.8357 136.735 71.0531 137.46 75.7658C138.185 80.4786 134.968 84.9194 130.255 85.6444C129.802 85.7351 129.349 85.7351 128.896 85.7351ZM128.85 83.4693C132.385 83.5147 135.285 80.6598 135.33 77.1253C135.376 73.5907 132.521 70.7359 128.986 70.6906C128.941 70.6906 128.896 70.6906 128.896 70.6906H128.85V83.2881V83.4693Z" fill="black"/>
<path d="M90.5594 85.7351C85.8014 85.7351 81.9043 81.8833 81.9043 77.1253C81.9043 72.3672 85.7561 68.4702 90.5141 68.4702C90.9673 68.4702 91.4204 68.5155 91.9189 68.5608C92.4626 68.6514 92.8705 69.1046 92.8705 69.6937V83.3334C92.8705 83.6506 92.8705 84.0131 92.9158 84.4663C92.9611 85.0554 92.5533 85.5538 91.9642 85.6445C91.511 85.6898 91.0126 85.7351 90.5594 85.7351ZM90.5594 70.7359C87.0249 70.7812 84.2153 73.636 84.2153 77.1706C84.2607 80.6598 87.0702 83.4693 90.5594 83.5147H90.6047C90.6047 83.4693 90.6047 83.3787 90.6047 83.3334L90.5594 70.7359Z" fill="black"/>
<path d="M109.728 102.456C99.1692 102.456 90.6047 93.8917 90.6047 83.3334V68.8327C90.6047 68.1983 90.8766 67.6092 91.3751 67.2013C91.8735 66.7935 92.508 66.6576 93.1424 66.7935C96.6769 67.5185 105.468 68.4248 111.585 60.7666C112.311 59.8604 113.625 59.7244 114.531 60.4041C114.576 60.4494 114.667 60.4948 114.712 60.5401C115.981 61.7636 119.697 64.6637 126.902 64.8903C128.035 64.9356 128.896 65.8419 128.941 66.9295V67.2467V83.2881C128.85 93.8917 120.286 102.456 109.728 102.456ZM92.8705 69.0139V83.2881C92.8705 92.6229 100.438 100.145 109.728 100.145C119.017 100.145 126.585 92.5776 126.585 83.2881V67.2467C126.585 67.2013 126.585 67.2013 126.585 67.156C119.153 66.8841 115.029 64.0746 113.171 62.3074C106.284 70.8265 96.1331 69.6937 92.8705 69.0139Z" fill="black"/>
<path d="M134.107 72.8204C133.835 72.8204 133.518 72.6844 133.336 72.5032C132.158 71.3703 130.572 70.6906 128.896 70.6906C128.578 70.6906 128.216 70.7359 127.899 70.7812C127.264 70.8718 126.721 70.464 126.585 69.8296C126.585 69.7843 126.585 69.6937 126.585 69.6483V67.2467C126.585 67.2013 126.585 67.2013 126.585 67.156C119.153 66.8841 115.029 64.0746 113.171 62.3073C106.284 70.8265 96.133 69.6937 92.8704 69.0139V69.6483C92.8704 70.2827 92.3719 70.7812 91.7375 70.7812C91.6922 70.7812 91.6016 70.7812 91.5562 70.7812C91.239 70.7359 90.9218 70.6906 90.5593 70.6906C89.1092 70.6906 87.7045 71.189 86.5716 72.0953C86.0732 72.5032 85.3481 72.4125 84.9856 71.9141C84.8043 71.7328 84.759 71.4609 84.759 71.189V62.8964C84.759 52.0209 93.5954 43.1845 104.471 43.1845H109.727C113.353 43.1845 116.751 44.9518 118.926 47.8519C120.467 47.1269 122.098 46.7191 123.82 46.7191C130.119 46.7191 135.24 51.8396 135.24 58.1384V71.6422C135.24 72.3219 134.741 72.8204 134.107 72.8204ZM128.896 68.4702C130.3 68.4702 131.705 68.8327 132.974 69.5124V58.1837C132.974 53.1538 128.941 49.0301 123.866 49.0301C122.189 49.0301 120.558 49.4833 119.153 50.3442C118.609 50.6614 117.929 50.4802 117.612 49.9364C115.936 47.1722 112.945 45.4502 109.727 45.4502H104.426C94.8189 45.4502 87.0248 53.2897 87.0248 62.8964V69.1952C88.1576 68.6967 89.3811 68.4248 90.65 68.4248C90.8765 67.292 91.9641 66.5216 93.097 66.7482H93.1423C96.6768 67.4732 105.468 68.3795 111.585 60.7213C112.31 59.815 113.625 59.6791 114.531 60.3588C114.576 60.4041 114.667 60.4494 114.712 60.4948C115.981 61.7183 119.697 64.6184 126.902 64.845C128.035 64.8903 128.896 65.7966 128.941 66.8841V67.2013L128.896 68.4702Z" fill="black"/>
<path d="M138.412 124.343C137.506 124.343 136.645 123.981 136.01 123.346L131.977 119.313C130.618 117.999 130.618 115.869 131.932 114.51C133.246 113.151 135.376 113.151 136.735 114.465L136.781 114.51L138.412 116.141L142.717 111.836C144.031 110.477 146.161 110.477 147.52 111.791C148.88 113.105 148.88 115.235 147.566 116.594L147.52 116.64L140.814 123.392C140.179 124.026 139.318 124.343 138.412 124.343ZM137.596 121.76C138.049 122.213 138.774 122.213 139.182 121.76L145.889 115.054C146.342 114.601 146.342 113.876 145.889 113.468C145.436 113.06 144.756 113.06 144.303 113.468L139.182 118.543C138.729 118.996 138.004 118.996 137.596 118.543L135.149 116.096C134.696 115.688 134.016 115.688 133.563 116.096C133.11 116.549 133.11 117.274 133.563 117.682L137.596 121.76Z" fill="black"/>
</svg>
