<svg width="902" height="353" viewBox="0 0 902 353" fill="none" xmlns="http://www.w3.org/2000/svg">
<path d="M0 15C0 6.71573 6.71573 0 15 0H887C895.284 0 902 6.71573 902 15V338C902 346.284 895.284 353 887 353H15C6.71571 353 0 346.284 0 338V15Z" fill="#FCFBFF"/>
<path d="M30.0542 338.424C29.356 338.424 28.5723 338.268 27.7031 337.956L28.04 336.542C28.709 336.757 29.2681 336.864 29.7173 336.864C30.7183 336.864 31.2187 336.308 31.2187 335.194L31.2188 325.336H33.0791V335.106C33.0791 336.171 32.813 336.989 32.2808 337.56C31.7485 338.136 31.0063 338.424 30.0542 338.424ZM39.1875 334.704C39.8906 334.704 40.4009 334.481 40.7183 334.037C41.0405 333.588 41.2017 332.99 41.2017 332.243C41.2017 331.476 41.0308 330.873 40.689 330.434C40.3521 329.989 39.8394 329.767 39.1509 329.767C38.4771 329.767 37.9595 329.989 37.5981 330.434C37.2417 330.878 37.0635 331.476 37.0635 332.228C37.0635 332.98 37.2417 333.581 37.5981 334.03C37.9595 334.479 38.4893 334.704 39.1875 334.704ZM38.9604 336.168C38.3501 336.168 37.8032 336.059 37.3198 335.839C36.8364 335.619 36.4482 335.326 36.1553 334.96C35.8623 334.594 35.6401 334.186 35.4888 333.737C35.3374 333.288 35.2617 332.816 35.2617 332.323C35.2617 331.801 35.3398 331.305 35.4961 330.836C35.6523 330.363 35.8794 329.936 36.1772 329.555C36.48 329.169 36.8779 328.864 37.3711 328.639C37.8643 328.41 38.4233 328.295 39.0483 328.295C39.9565 328.295 40.6548 328.625 41.1431 329.284V328.485H42.9229V336H41.0991V334.975C40.5522 335.771 39.8394 336.168 38.9604 336.168ZM45.0908 336V331.349C45.0908 330.817 45.0786 330.314 45.0542 329.84C45.0298 329.362 45.0054 329.018 44.981 328.808L44.9443 328.485H46.8706V329.489C47.1294 329.098 47.4736 328.803 47.9033 328.603C48.3379 328.397 48.7578 328.295 49.1631 328.295C49.5977 328.295 49.9785 328.354 50.3057 328.471C50.6328 328.583 50.9209 328.769 51.1699 329.027C51.4238 329.281 51.6167 329.633 51.7485 330.082C51.8804 330.531 51.9463 331.076 51.9463 331.715V336H50.1299V331.591C50.1299 330.927 50.0249 330.458 49.8149 330.185C49.6099 329.906 49.2681 329.767 48.7896 329.767C48.6138 329.767 48.4209 329.806 48.2109 329.884C48.001 329.962 47.7959 330.072 47.5957 330.214C47.4004 330.351 47.2368 330.534 47.105 330.763C46.9731 330.988 46.9072 331.234 46.9072 331.503V336H45.0908Z" fill="black"/>
<path d="M89.3174 336V325.336H95.8286V326.933H91.1777V329.84H95.5576V331.444H91.1777V336H89.3174ZM99.0513 331.342H102.787C102.699 330.81 102.501 330.402 102.193 330.119C101.886 329.835 101.51 329.694 101.065 329.694C100.543 329.694 100.106 329.84 99.7544 330.133C99.4028 330.426 99.1685 330.829 99.0513 331.342ZM101.197 336.168C99.9326 336.168 98.9341 335.807 98.2017 335.084C97.4741 334.362 97.1104 333.417 97.1104 332.25C97.1104 331.723 97.1982 331.222 97.374 330.749C97.5498 330.275 97.7964 329.855 98.1138 329.489C98.436 329.123 98.8413 328.832 99.3296 328.617C99.8228 328.402 100.367 328.295 100.963 328.295C101.559 328.295 102.079 328.397 102.523 328.603C102.967 328.808 103.319 329.096 103.578 329.467C103.836 329.833 104.027 330.246 104.149 330.705C104.276 331.164 104.339 331.671 104.339 332.228C104.339 332.37 104.327 332.477 104.303 332.55H99.0293C99.0586 333.283 99.2808 333.825 99.6958 334.176C100.116 334.528 100.672 334.704 101.366 334.704C102.176 334.704 102.967 334.435 103.739 333.898L104.229 335.216C103.756 335.543 103.277 335.785 102.794 335.941C102.315 336.093 101.783 336.168 101.197 336.168ZM109.972 334.704C110.309 334.704 110.604 334.638 110.858 334.506C111.117 334.369 111.319 334.184 111.466 333.949C111.617 333.715 111.729 333.456 111.803 333.173C111.881 332.89 111.92 332.584 111.92 332.257C111.92 331.535 111.759 330.939 111.437 330.47C111.114 330.001 110.646 329.767 110.03 329.767C109.391 329.767 108.883 330.004 108.507 330.478C108.131 330.946 107.943 331.53 107.943 332.228C107.943 332.672 108.014 333.078 108.155 333.444C108.302 333.805 108.531 334.105 108.844 334.345C109.156 334.584 109.532 334.704 109.972 334.704ZM110.309 336.168C109.806 336.168 109.347 336.061 108.932 335.846C108.521 335.626 108.226 335.368 108.045 335.07V336H106.185C106.195 335.668 106.205 335.373 106.214 335.114C106.224 334.855 106.231 334.672 106.236 334.564C106.241 334.452 106.244 334.357 106.244 334.279C106.249 334.196 106.251 334.14 106.251 334.11C106.251 334.081 106.251 334.047 106.251 334.008V325.329H108.053V329.54C108.077 329.452 108.138 329.345 108.236 329.218C108.333 329.091 108.47 328.957 108.646 328.815C108.827 328.668 109.071 328.546 109.378 328.449C109.691 328.346 110.033 328.295 110.404 328.295C111.458 328.295 112.291 328.659 112.901 329.386C113.512 330.114 113.817 331.054 113.817 332.206C113.817 332.782 113.722 333.319 113.531 333.817C113.346 334.315 113.094 334.735 112.777 335.077C112.459 335.419 112.086 335.688 111.656 335.883C111.231 336.073 110.782 336.168 110.309 336.168Z" fill="black"/>
<path d="M159.989 336V325.336H162.172C162.323 325.673 162.858 326.867 163.776 328.917C164.699 330.968 165.407 332.533 165.9 333.612C166.276 332.797 166.662 331.942 167.057 331.049C167.458 330.15 167.917 329.108 168.434 327.921C168.957 326.735 169.337 325.873 169.577 325.336H171.759V336H170.016V328.383C169.757 328.944 168.612 331.483 166.581 336H165.211C164.958 335.443 164.601 334.655 164.142 333.634C163.683 332.609 163.263 331.681 162.882 330.851C162.501 330.016 162.135 329.235 161.784 328.507V336H159.989ZM177.875 334.704C178.578 334.704 179.088 334.481 179.406 334.037C179.728 333.588 179.889 332.99 179.889 332.243C179.889 331.476 179.718 330.873 179.376 330.434C179.04 329.989 178.527 329.767 177.838 329.767C177.165 329.767 176.647 329.989 176.286 330.434C175.929 330.878 175.751 331.476 175.751 332.228C175.751 332.98 175.929 333.581 176.286 334.03C176.647 334.479 177.177 334.704 177.875 334.704ZM177.648 336.168C177.038 336.168 176.491 336.059 176.007 335.839C175.524 335.619 175.136 335.326 174.843 334.96C174.55 334.594 174.328 334.186 174.176 333.737C174.025 333.288 173.949 332.816 173.949 332.323C173.949 331.801 174.027 331.305 174.184 330.836C174.34 330.363 174.567 329.936 174.865 329.555C175.167 329.169 175.565 328.864 176.059 328.639C176.552 328.41 177.111 328.295 177.736 328.295C178.644 328.295 179.342 328.625 179.831 329.284V328.485H181.61V336H179.787V334.975C179.24 335.771 178.527 336.168 177.648 336.168ZM183.808 336V330.39C183.808 330.097 183.795 329.792 183.771 329.474C183.747 329.157 183.722 328.913 183.698 328.742L183.661 328.485H185.595V329.474C185.893 329.083 186.188 328.791 186.481 328.595C186.779 328.395 187.113 328.295 187.484 328.295C187.704 328.295 187.953 328.332 188.231 328.405V329.994C187.904 329.887 187.602 329.833 187.323 329.833C186.82 329.833 186.41 329.997 186.093 330.324C185.775 330.651 185.617 331.125 185.617 331.745V336H183.808Z" fill="black"/>
<path d="M235.545 331.664H238.401C237.84 329.999 237.369 328.615 236.988 327.511C236.67 328.434 236.189 329.818 235.545 331.664ZM231.795 336L236.08 325.336H237.969L242.291 336H240.188L239.156 333.4H234.849L233.838 336H231.795ZM247.146 334.704C247.483 334.704 247.776 334.638 248.025 334.506C248.279 334.369 248.477 334.184 248.619 333.949C248.765 333.715 248.873 333.456 248.941 333.173C249.014 332.885 249.051 332.572 249.051 332.235C249.051 331.771 248.987 331.359 248.86 330.998C248.733 330.636 248.521 330.341 248.223 330.111C247.93 329.882 247.569 329.767 247.139 329.767C246.714 329.767 246.355 329.882 246.062 330.111C245.77 330.336 245.56 330.626 245.433 330.983C245.306 331.334 245.242 331.74 245.242 332.199C245.242 332.541 245.276 332.858 245.345 333.151C245.418 333.439 245.528 333.703 245.674 333.942C245.821 334.176 246.019 334.362 246.268 334.499C246.521 334.635 246.814 334.704 247.146 334.704ZM243.558 338.893V331.012C243.558 330.578 243.511 329.735 243.418 328.485H245.345V329.562C245.403 329.289 245.647 329.01 246.077 328.727C246.512 328.439 247.042 328.295 247.667 328.295C248.326 328.295 248.907 328.478 249.41 328.844C249.917 329.206 250.298 329.677 250.552 330.258C250.811 330.839 250.94 331.471 250.94 332.155C250.94 332.667 250.865 333.163 250.713 333.642C250.562 334.115 250.347 334.542 250.069 334.923C249.791 335.299 249.434 335.602 249 335.832C248.565 336.056 248.086 336.168 247.564 336.168C246.973 336.168 246.47 336.029 246.055 335.751C245.64 335.473 245.403 335.211 245.345 334.967V338.893H243.558ZM252.903 336V330.39C252.903 330.097 252.891 329.792 252.867 329.474C252.842 329.157 252.818 328.913 252.793 328.742L252.757 328.485H254.69V329.474C254.988 329.083 255.284 328.791 255.577 328.595C255.875 328.395 256.209 328.295 256.58 328.295C256.8 328.295 257.049 328.332 257.327 328.405V329.994C257 329.887 256.697 329.833 256.419 329.833C255.916 329.833 255.506 329.997 255.188 330.324C254.871 330.651 254.712 331.125 254.712 331.745V336H252.903Z" fill="black"/>
<path d="M307.427 336V325.336H309.609C309.761 325.673 310.295 326.867 311.213 328.917C312.136 330.968 312.844 332.533 313.337 333.612C313.713 332.797 314.099 331.942 314.495 331.049C314.895 330.15 315.354 329.108 315.872 327.921C316.394 326.735 316.775 325.873 317.014 325.336H319.197V336H317.454V328.383C317.195 328.944 316.05 331.483 314.019 336H312.649C312.395 335.443 312.039 334.655 311.58 333.634C311.121 332.609 310.701 331.681 310.32 330.851C309.939 330.016 309.573 329.235 309.221 328.507V336H307.427ZM325.312 334.704C326.016 334.704 326.526 334.481 326.843 334.037C327.166 333.588 327.327 332.99 327.327 332.243C327.327 331.476 327.156 330.873 326.814 330.434C326.477 329.989 325.964 329.767 325.276 329.767C324.602 329.767 324.084 329.989 323.723 330.434C323.367 330.878 323.188 331.476 323.188 332.228C323.188 332.98 323.367 333.581 323.723 334.03C324.084 334.479 324.614 334.704 325.312 334.704ZM325.085 336.168C324.475 336.168 323.928 336.059 323.445 335.839C322.961 335.619 322.573 335.326 322.28 334.96C321.987 334.594 321.765 334.186 321.614 333.737C321.462 333.288 321.387 332.816 321.387 332.323C321.387 331.801 321.465 331.305 321.621 330.836C321.777 330.363 322.004 329.936 322.302 329.555C322.605 329.169 323.003 328.864 323.496 328.639C323.989 328.41 324.548 328.295 325.173 328.295C326.082 328.295 326.78 328.625 327.268 329.284V328.485H329.048V336H327.224V334.975C326.677 335.771 325.964 336.168 325.085 336.168ZM331.919 339.259L331.157 338.029C331.836 337.765 332.344 337.492 332.681 337.208C333.022 336.93 333.252 336.593 333.369 336.198L333.472 335.832L330.278 328.485H332.168L334.343 333.876L336.218 328.485H338.071L335.024 336.41C334.814 336.928 334.539 337.384 334.197 337.78C333.855 338.18 333.499 338.493 333.127 338.717C332.756 338.942 332.354 339.123 331.919 339.259Z" fill="black"/>
<path d="M389.509 338.424C388.811 338.424 388.027 338.268 387.158 337.956L387.495 336.542C388.164 336.757 388.723 336.864 389.172 336.864C390.173 336.864 390.674 336.308 390.674 335.194V325.336H392.534V335.106C392.534 336.171 392.268 336.989 391.736 337.56C391.204 338.136 390.461 338.424 389.509 338.424ZM397.764 336.168C396.855 336.168 396.147 335.91 395.64 335.392C395.132 334.87 394.878 334.154 394.878 333.246V328.485H396.68V333.217C396.68 333.715 396.809 334.088 397.068 334.337C397.327 334.582 397.683 334.704 398.137 334.704C398.679 334.704 399.08 334.569 399.338 334.301C399.602 334.027 399.734 333.59 399.734 332.99V328.485H401.55V333.979L401.638 336H399.763L399.734 334.887C399.709 334.994 399.653 335.114 399.565 335.246C399.482 335.373 399.365 335.509 399.214 335.656C399.067 335.802 398.865 335.924 398.606 336.022C398.352 336.12 398.071 336.168 397.764 336.168ZM403.77 336V331.349C403.77 330.817 403.757 330.314 403.733 329.84C403.708 329.362 403.684 329.018 403.66 328.808L403.623 328.485H405.549V329.489C405.808 329.098 406.152 328.803 406.582 328.603C407.017 328.397 407.437 328.295 407.842 328.295C408.276 328.295 408.657 328.354 408.984 328.471C409.312 328.583 409.6 328.769 409.849 329.027C410.103 329.281 410.295 329.633 410.427 330.082C410.559 330.531 410.625 331.076 410.625 331.715V336H408.809V331.591C408.809 330.927 408.704 330.458 408.494 330.185C408.289 329.906 407.947 329.767 407.468 329.767C407.292 329.767 407.1 329.806 406.89 329.884C406.68 329.962 406.475 330.072 406.274 330.214C406.079 330.351 405.916 330.534 405.784 330.763C405.652 330.988 405.586 331.234 405.586 331.503V336H403.77Z" fill="black"/>
<path d="M466.273 338.424C465.575 338.424 464.791 338.268 463.922 337.956L464.259 336.542C464.928 336.757 465.487 336.864 465.936 336.864C466.937 336.864 467.438 336.308 467.438 335.194V325.336H469.298V335.106C469.298 336.171 469.032 336.989 468.5 337.56C467.967 338.136 467.225 338.424 466.273 338.424ZM474.527 336.168C473.619 336.168 472.911 335.91 472.403 335.392C471.896 334.87 471.642 334.154 471.642 333.246V328.485H473.443V333.217C473.443 333.715 473.573 334.088 473.832 334.337C474.09 334.582 474.447 334.704 474.901 334.704C475.443 334.704 475.843 334.569 476.102 334.301C476.366 334.027 476.498 333.59 476.498 332.99V328.485H478.314V333.979L478.402 336H476.527L476.498 334.887C476.473 334.994 476.417 335.114 476.329 335.246C476.246 335.373 476.129 335.509 475.978 335.656C475.831 335.802 475.628 335.924 475.37 336.022C475.116 336.12 474.835 336.168 474.527 336.168ZM480.416 336V325.329H482.21V336H480.416Z" fill="black"/>
<path d="M540.166 331.664H543.022C542.461 329.999 541.99 328.615 541.609 327.511C541.292 328.434 540.811 329.818 540.166 331.664ZM536.416 336L540.701 325.336H542.59L546.912 336H544.81L543.777 333.4H539.47L538.459 336H536.416ZM550.845 336.168C549.937 336.168 549.229 335.91 548.721 335.392C548.213 334.87 547.959 334.154 547.959 333.246V328.485H549.761V333.217C549.761 333.715 549.89 334.088 550.149 334.337C550.408 334.582 550.764 334.704 551.218 334.704C551.76 334.704 552.161 334.569 552.419 334.301C552.683 334.027 552.815 333.59 552.815 332.99V328.485H554.631V333.979L554.719 336H552.844L552.815 334.887C552.791 334.994 552.734 335.114 552.646 335.246C552.563 335.373 552.446 335.509 552.295 335.656C552.148 335.802 551.946 335.924 551.687 336.022C551.433 336.12 551.152 336.168 550.845 336.168ZM560.278 334.63C560.566 334.63 560.82 334.584 561.04 334.491C561.26 334.394 561.438 334.269 561.575 334.118C561.711 333.961 561.821 333.776 561.904 333.561C561.992 333.346 562.051 333.131 562.08 332.917C562.114 332.697 562.131 332.465 562.131 332.221C562.131 331.488 561.978 330.897 561.67 330.448C561.367 329.994 560.911 329.767 560.3 329.767C559.88 329.767 559.521 329.887 559.224 330.126C558.931 330.36 558.718 330.658 558.586 331.02C558.455 331.381 558.389 331.784 558.389 332.228C558.389 332.98 558.542 333.568 558.85 333.993C559.158 334.418 559.634 334.63 560.278 334.63ZM559.927 339.062C558.95 339.062 557.998 338.891 557.07 338.549L557.385 336.981C558.118 337.362 558.921 337.553 559.795 337.553C560.498 337.553 561.047 337.401 561.443 337.099C561.838 336.801 562.036 336.349 562.036 335.744V335.106C561.606 335.702 560.979 336 560.154 336C559.045 336 558.157 335.661 557.488 334.982C556.819 334.298 556.484 333.38 556.484 332.228C556.484 331.701 556.555 331.208 556.697 330.749C556.838 330.285 557.048 329.867 557.327 329.496C557.605 329.125 557.974 328.832 558.433 328.617C558.896 328.402 559.424 328.295 560.015 328.295C560.479 328.295 560.884 328.388 561.23 328.573C561.582 328.759 561.853 328.998 562.043 329.291V328.485H563.97C563.872 329.228 563.823 330.067 563.823 331.005V334.923C563.823 337.682 562.524 339.062 559.927 339.062Z" fill="black"/>
<path d="M614 336.168C613.268 336.168 612.562 336.061 611.884 335.846C611.205 335.631 610.67 335.333 610.28 334.953L611.071 333.62C611.417 333.888 611.867 334.115 612.418 334.301C612.975 334.486 613.463 334.579 613.883 334.579C614.542 334.579 615.028 334.457 615.341 334.213C615.658 333.969 615.817 333.598 615.817 333.1C615.817 332.904 615.802 332.748 615.773 332.631C615.744 332.509 615.678 332.384 615.575 332.257C615.473 332.125 615.319 332.006 615.114 331.898C614.914 331.786 614.643 331.669 614.301 331.547C614.154 331.498 613.905 331.417 613.554 331.305C613.207 331.193 612.953 331.107 612.792 331.049C611.913 330.717 611.276 330.326 610.88 329.877C610.485 329.423 610.287 328.81 610.287 328.039C610.287 327.414 610.451 326.879 610.778 326.435C611.11 325.99 611.549 325.663 612.096 325.453C612.643 325.243 613.268 325.138 613.971 325.138C614.923 325.138 615.663 325.231 616.19 325.417C616.718 325.602 617.216 325.919 617.685 326.369L616.732 327.599C616.132 327.028 615.299 326.742 614.235 326.742C613.654 326.742 613.18 326.842 612.814 327.042C612.453 327.243 612.272 327.548 612.272 327.958C612.272 328.158 612.289 328.324 612.323 328.456C612.357 328.583 612.428 328.71 612.536 328.837C612.648 328.959 612.807 329.074 613.012 329.181C613.217 329.284 613.49 329.396 613.832 329.518C613.954 329.562 614.208 329.647 614.594 329.774C614.984 329.896 615.275 329.994 615.465 330.067C616.334 330.414 616.94 330.812 617.282 331.261C617.624 331.71 617.794 332.335 617.794 333.136C617.794 333.668 617.689 334.137 617.479 334.542C617.27 334.943 616.984 335.258 616.623 335.487C616.261 335.717 615.861 335.888 615.421 336C614.982 336.112 614.508 336.168 614 336.168ZM621.369 331.342H625.104C625.016 330.81 624.818 330.402 624.511 330.119C624.203 329.835 623.827 329.694 623.383 329.694C622.86 329.694 622.423 329.84 622.072 330.133C621.72 330.426 621.486 330.829 621.369 331.342ZM623.515 336.168C622.25 336.168 621.251 335.807 620.519 335.084C619.792 334.362 619.428 333.417 619.428 332.25C619.428 331.723 619.516 331.222 619.691 330.749C619.867 330.275 620.114 329.855 620.431 329.489C620.753 329.123 621.159 328.832 621.647 328.617C622.14 328.402 622.685 328.295 623.28 328.295C623.876 328.295 624.396 328.397 624.84 328.603C625.285 328.808 625.636 329.096 625.895 329.467C626.154 329.833 626.344 330.246 626.466 330.705C626.593 331.164 626.657 331.671 626.657 332.228C626.657 332.37 626.645 332.477 626.62 332.55H621.347C621.376 333.283 621.598 333.825 622.013 334.176C622.433 334.528 622.99 334.704 623.683 334.704C624.494 334.704 625.285 334.435 626.056 333.898L626.547 335.216C626.073 335.543 625.595 335.785 625.111 335.941C624.633 336.093 624.101 336.168 623.515 336.168ZM632.23 334.704C632.567 334.704 632.86 334.638 633.109 334.506C633.363 334.369 633.561 334.184 633.703 333.949C633.849 333.715 633.957 333.456 634.025 333.173C634.098 332.885 634.135 332.572 634.135 332.235C634.135 331.771 634.071 331.359 633.944 330.998C633.817 330.636 633.605 330.341 633.307 330.111C633.014 329.882 632.653 329.767 632.223 329.767C631.798 329.767 631.439 329.882 631.146 330.111C630.854 330.336 630.644 330.626 630.517 330.983C630.39 331.334 630.326 331.74 630.326 332.199C630.326 332.541 630.36 332.858 630.429 333.151C630.502 333.439 630.612 333.703 630.758 333.942C630.905 334.176 631.103 334.362 631.352 334.499C631.605 334.635 631.898 334.704 632.23 334.704ZM628.642 338.893V331.012C628.642 330.578 628.595 329.735 628.502 328.485H630.429V329.562C630.487 329.289 630.731 329.01 631.161 328.727C631.596 328.439 632.125 328.295 632.75 328.295C633.41 328.295 633.991 328.478 634.494 328.844C635.001 329.206 635.382 329.677 635.636 330.258C635.895 330.839 636.024 331.471 636.024 332.155C636.024 332.667 635.949 333.163 635.797 333.642C635.646 334.115 635.431 334.542 635.153 334.923C634.875 335.299 634.518 335.602 634.083 335.832C633.649 336.056 633.17 336.168 632.648 336.168C632.057 336.168 631.554 336.029 631.139 335.751C630.724 335.473 630.487 335.211 630.429 334.967V338.893H628.642Z" fill="black"/>
<path d="M688.701 336.168C687.036 336.168 685.723 335.668 684.761 334.667C683.804 333.661 683.325 332.311 683.325 330.617C683.325 328.966 683.806 327.641 684.768 326.64C685.735 325.639 687.053 325.138 688.723 325.138C690.339 325.138 691.624 325.639 692.576 326.64C693.533 327.636 694.011 328.961 694.011 330.617C694.011 332.316 693.54 333.666 692.598 334.667C691.655 335.668 690.356 336.168 688.701 336.168ZM688.657 334.579C689.746 334.579 690.574 334.237 691.14 333.554C691.707 332.865 691.99 331.886 691.99 330.617C691.99 329.386 691.707 328.432 691.14 327.753C690.574 327.069 689.756 326.728 688.687 326.728C687.607 326.728 686.777 327.069 686.196 327.753C685.62 328.432 685.332 329.386 685.332 330.617C685.332 331.891 685.613 332.87 686.174 333.554C686.736 334.237 687.563 334.579 688.657 334.579ZM699.512 336.168C698.901 336.168 698.342 336.061 697.834 335.846C697.332 335.631 696.919 335.341 696.597 334.975C696.274 334.608 696.025 334.191 695.85 333.722C695.674 333.249 695.586 332.753 695.586 332.235C695.586 331.493 695.737 330.827 696.04 330.236C696.348 329.64 696.799 329.169 697.395 328.822C697.996 328.471 698.694 328.295 699.49 328.295C700.671 328.295 701.58 328.632 702.214 329.306L701.562 330.478C701.021 329.999 700.393 329.76 699.68 329.76C698.967 329.76 698.42 329.984 698.04 330.434C697.659 330.883 697.468 331.486 697.468 332.243C697.468 332.98 697.671 333.576 698.076 334.03C698.481 334.479 699.036 334.704 699.739 334.704C699.836 334.704 699.934 334.699 700.032 334.689C700.129 334.679 700.217 334.667 700.295 334.652C700.374 334.638 700.454 334.618 700.537 334.594C700.625 334.564 700.698 334.54 700.757 334.521C700.815 334.496 700.881 334.464 700.955 334.425C701.028 334.386 701.084 334.357 701.123 334.337C701.167 334.313 701.221 334.279 701.284 334.235C701.348 334.191 701.389 334.162 701.409 334.147C701.433 334.132 701.472 334.105 701.526 334.066C701.584 334.022 701.616 333.998 701.621 333.993L702.17 335.326C701.75 335.619 701.331 335.834 700.911 335.971C700.491 336.103 700.024 336.168 699.512 336.168ZM708.052 335.993H707.319C707.026 335.993 706.772 335.985 706.558 335.971C706.343 335.956 706.121 335.924 705.891 335.875C705.667 335.827 705.474 335.763 705.312 335.685C705.156 335.602 705.005 335.492 704.858 335.355C704.712 335.219 704.595 335.055 704.507 334.865C704.419 334.669 704.348 334.438 704.294 334.169C704.246 333.9 704.221 333.593 704.221 333.246V329.701H702.654V328.485H704.294V326.728L706.03 326.193V328.485H707.993V329.701H706.03V333.356C706.03 333.59 706.047 333.781 706.082 333.927C706.121 334.069 706.177 334.188 706.25 334.286C706.323 334.379 706.445 334.447 706.616 334.491C706.792 334.535 706.982 334.564 707.188 334.579C707.393 334.594 707.681 334.601 708.052 334.601V335.993Z" fill="black"/>
<path d="M750.956 336V325.336H752.926C756.315 330.248 758.119 332.865 758.339 333.188V325.336H760.111V336H758.134C754.857 331.269 753.039 328.646 752.677 328.134V336H750.956ZM766.249 336.168C765.595 336.168 765.011 336.063 764.499 335.854C763.986 335.639 763.571 335.351 763.253 334.989C762.941 334.623 762.702 334.208 762.536 333.744C762.375 333.275 762.294 332.775 762.294 332.243C762.294 331.701 762.377 331.195 762.543 330.727C762.709 330.253 762.951 329.835 763.268 329.474C763.59 329.108 764.005 328.82 764.513 328.61C765.026 328.4 765.602 328.295 766.242 328.295C766.896 328.295 767.477 328.4 767.985 328.61C768.493 328.815 768.9 329.101 769.208 329.467C769.516 329.828 769.745 330.246 769.896 330.719C770.053 331.188 770.131 331.701 770.131 332.257C770.131 332.78 770.05 333.273 769.889 333.737C769.728 334.196 769.491 334.608 769.179 334.975C768.871 335.341 768.463 335.631 767.956 335.846C767.453 336.061 766.884 336.168 766.249 336.168ZM766.212 334.704C766.569 334.704 766.881 334.638 767.15 334.506C767.418 334.369 767.628 334.184 767.78 333.949C767.936 333.71 768.051 333.446 768.124 333.158C768.202 332.87 768.241 332.558 768.241 332.221C768.241 331.503 768.07 330.915 767.729 330.456C767.392 329.997 766.889 329.767 766.22 329.767C765.766 329.767 765.382 329.882 765.07 330.111C764.757 330.336 764.53 330.629 764.389 330.99C764.252 331.352 764.184 331.762 764.184 332.221C764.184 332.675 764.247 333.083 764.374 333.444C764.506 333.805 764.728 334.105 765.041 334.345C765.358 334.584 765.749 334.704 766.212 334.704ZM774.21 336L771.046 328.485H773.068C774.367 331.977 775.048 333.805 775.111 333.971C775.497 332.921 776.154 331.093 777.082 328.485H779.052L775.858 336H774.21Z" fill="black"/>
<path d="M819.19 336V325.336H822.164C824.298 325.336 825.892 325.79 826.947 326.698C828.001 327.602 828.529 328.903 828.529 330.602C828.529 332.365 828.011 333.705 826.976 334.623C825.946 335.541 824.442 336 822.464 336H819.19ZM821.051 334.403H822.56C823.849 334.403 824.837 334.081 825.526 333.437C826.214 332.792 826.559 331.845 826.559 330.595C826.559 329.408 826.209 328.502 825.511 327.877C824.818 327.248 823.758 326.933 822.333 326.933H821.051V334.403ZM832.044 331.342H835.78C835.692 330.81 835.494 330.402 835.187 330.119C834.879 329.835 834.503 329.694 834.059 329.694C833.536 329.694 833.099 329.84 832.748 330.133C832.396 330.426 832.162 330.829 832.044 331.342ZM834.19 336.168C832.926 336.168 831.927 335.807 831.195 335.084C830.467 334.362 830.104 333.417 830.104 332.25C830.104 331.723 830.191 331.222 830.367 330.749C830.543 330.275 830.79 329.855 831.107 329.489C831.429 329.123 831.834 328.832 832.323 328.617C832.816 328.402 833.36 328.295 833.956 328.295C834.552 328.295 835.072 328.397 835.516 328.603C835.96 328.808 836.312 329.096 836.571 329.467C836.83 329.833 837.02 330.246 837.142 330.705C837.269 331.164 837.333 331.671 837.333 332.228C837.333 332.37 837.32 332.477 837.296 332.55H832.022C832.052 333.283 832.274 333.825 832.689 334.176C833.109 334.528 833.666 334.704 834.359 334.704C835.169 334.704 835.96 334.435 836.732 333.898L837.223 335.216C836.749 335.543 836.271 335.785 835.787 335.941C835.309 336.093 834.776 336.168 834.19 336.168ZM842.862 336.168C842.252 336.168 841.693 336.061 841.185 335.846C840.682 335.631 840.27 335.341 839.947 334.975C839.625 334.608 839.376 334.191 839.2 333.722C839.024 333.249 838.937 332.753 838.937 332.235C838.937 331.493 839.088 330.827 839.391 330.236C839.698 329.64 840.15 329.169 840.746 328.822C841.346 328.471 842.044 328.295 842.84 328.295C844.022 328.295 844.93 328.632 845.565 329.306L844.913 330.478C844.371 329.999 843.744 329.76 843.031 329.76C842.318 329.76 841.771 329.984 841.39 330.434C841.009 330.883 840.819 331.486 840.819 332.243C840.819 332.98 841.021 333.576 841.427 334.03C841.832 334.479 842.386 334.704 843.089 334.704C843.187 334.704 843.285 334.699 843.382 334.689C843.48 334.679 843.568 334.667 843.646 334.652C843.724 334.638 843.805 334.618 843.888 334.594C843.976 334.564 844.049 334.54 844.107 334.521C844.166 334.496 844.232 334.464 844.305 334.425C844.378 334.386 844.435 334.357 844.474 334.337C844.518 334.313 844.571 334.279 844.635 334.235C844.698 334.191 844.74 334.162 844.759 334.147C844.784 334.132 844.823 334.105 844.876 334.066C844.935 334.022 844.967 333.998 844.972 333.993L845.521 335.326C845.101 335.619 844.681 335.834 844.261 335.971C843.841 336.103 843.375 336.168 842.862 336.168Z" fill="black"/>
<path d="M340.842 303.2V309.2" stroke="#E0E0E0"/>
<path d="M432.326 303.2V309.2" stroke="#E0E0E0"/>
<path d="M523.809 303.2V309.2" stroke="#E0E0E0"/>
<path d="M615.293 303.2V309.2" stroke="#E0E0E0"/>
<path d="M706.775 303.2V309.2" stroke="#E0E0E0"/>
<path d="M798.258 303.2V309.2" stroke="#E0E0E0"/>
<path d="M20 99.55H844" stroke="#E0E0E0"/>
<path d="M20 167.1H844" stroke="#E0E0E0"/>
<path d="M20 234.65H844" stroke="#E0E0E0"/>
<path d="M25 309V235.624C93.8962 235.624 152.95 214.321 221.846 214.321C267.777 214.321 307.146 242.725 353.077 242.725C399.008 242.725 438.377 188.284 484.308 188.284C530.238 188.284 569.608 209.587 615.539 209.587C661.469 209.587 700.838 51 746.769 51C792.7 51 832.069 72.3028 878 72.3028C878 72.3028 878 72.3027 878 309" fill="url(#paint0_linear_323_501)"/>
<path d="M25 235.889C93.8962 235.889 152.95 214.556 221.846 214.556C267.777 214.556 307.146 243 353.077 243C399.008 243 438.377 188.481 484.308 188.481C530.238 188.481 569.608 209.815 615.539 209.815C661.469 209.815 700.838 51 746.769 51C792.7 51 832.069 72.3333 878 72.3333" stroke="#0674BB" stroke-width="4"/>
<path d="M25 309V282.981C93.8962 282.981 152.95 233.308 221.846 233.308C267.777 233.308 307.146 202.558 353.077 202.558C399.008 202.558 438.377 233.308 484.308 233.308C530.238 233.308 569.608 228.577 615.538 228.577C661.469 228.577 700.838 186 746.769 186C792.7 186 832.069 212.019 878 212.019C878 212.019 878 212.019 878 309" fill="url(#paint1_linear_323_501)"/>
<path d="M25 281C93.8962 281 152.95 232.341 221.846 232.341C267.777 232.341 307.146 202.22 353.077 202.22C399.008 202.22 438.377 232.341 484.308 232.341C530.238 232.341 569.608 227.707 615.538 227.707C661.469 227.707 700.838 186 746.769 186C792.7 186 832.069 211.488 878 211.488" stroke="#00E396" stroke-width="4"/>
<path d="M20 302.2H844" stroke="#E0E0E0"/>
<path d="M20 303.2H844" stroke="#E0E0E0"/>
<defs>
<linearGradient id="paint0_linear_323_501" x1="25" y1="51" x2="25" y2="309" gradientUnits="userSpaceOnUse">
<stop stop-color="#008FFB" stop-opacity="0.4225"/>
<stop offset="1" stop-color="#80C7FD" stop-opacity="0.25"/>
</linearGradient>
<linearGradient id="paint1_linear_323_501" x1="25" y1="186" x2="25" y2="309" gradientUnits="userSpaceOnUse">
<stop stop-color="#00E396" stop-opacity="0.4225"/>
<stop offset="1" stop-color="#80F1CB" stop-opacity="0.25"/>
</linearGradient>
</defs>
</svg>
