<svg width="25" height="26" viewBox="0 0 25 26" fill="none" xmlns="http://www.w3.org/2000/svg">
<path d="M24.4687 12.1157L20.5168 10.1399L24.4687 8.16404C25.1756 7.81072 25.1763 6.79846 24.4687 6.44458L13.1258 0.773511C12.8551 0.638342 12.5366 0.638342 12.2659 0.773511L0.92301 6.44458C0.216143 6.79808 0.215392 7.81035 0.92301 8.16404L4.87489 10.1399L0.92301 12.1157C0.216143 12.4692 0.215392 13.4812 0.92301 13.8351L4.87489 15.811L0.92301 17.7867C0.216143 18.1402 0.215392 19.1523 0.92301 19.5062L12.2659 25.1772C12.5361 25.3122 12.8545 25.3128 13.1258 25.1772L24.4687 19.5062C25.1756 19.1527 25.1763 18.1406 24.4687 17.7867L20.5168 15.811L24.4687 13.8351C25.1756 13.4818 25.1763 12.4695 24.4687 12.1157ZM12.6959 2.70792L21.8893 7.3044L12.6959 11.9007L3.50246 7.3044L12.6959 2.70792ZM21.8893 18.6465L12.6959 23.2428L3.50246 18.6465L7.0244 16.8856L12.2659 19.5062C12.5363 19.6412 12.8545 19.6417 13.1258 19.5062L18.3673 16.8856L21.8893 18.6465ZM12.6959 17.5718L3.50246 12.9755L7.0244 11.2145L12.2659 13.8351C12.5363 13.9701 12.8545 13.9707 13.1258 13.8351L18.3673 11.2145L21.8893 12.9755L12.6959 17.5718Z" fill="white"/>
</svg>
