<svg width="501" height="282" viewBox="0 0 501 282" fill="none" xmlns="http://www.w3.org/2000/svg">
<g clip-path="url(#clip0_412_11565)">
<path d="M434.525 138.33H110.815C106.118 138.324 101.615 136.466 98.2942 133.161C94.9731 129.857 93.1049 125.377 93.0996 120.705V17.625C93.1049 12.9522 94.9731 8.47226 98.2942 5.16807C101.615 1.86389 106.118 0.00527841 110.815 0H434.525C439.222 0.00527841 443.725 1.86389 447.046 5.16807C450.367 8.47226 452.236 12.9522 452.241 17.625V120.705C452.236 125.377 450.367 129.857 447.046 133.161C443.725 136.466 439.222 138.324 434.525 138.33Z" fill="#E6E6E6"/>
<path d="M111.352 6.94318C108.505 6.9464 105.776 8.07284 103.764 10.0754C101.751 12.0779 100.618 14.793 100.615 17.625V120.705C100.618 123.537 101.751 126.252 103.764 128.254C105.776 130.257 108.505 131.383 111.352 131.386H435.062C437.909 131.383 440.638 130.257 442.651 128.254C444.663 126.252 445.796 123.537 445.799 120.705V17.625C445.796 14.793 444.663 12.0779 442.651 10.0754C440.638 8.07283 437.909 6.94639 435.062 6.94318H111.352Z" fill="white"/>
<path d="M151.959 50.0652C149.634 50.0652 147.36 49.379 145.426 48.0933C143.492 46.8077 141.985 44.9804 141.094 42.8424C140.204 40.7045 139.971 38.352 140.425 36.0824C140.879 33.8128 141.999 31.728 143.644 30.0917C145.288 28.4554 147.384 27.3411 149.665 26.8896C151.946 26.4382 154.311 26.6699 156.46 27.5554C158.609 28.441 160.446 29.9406 161.738 31.8647C163.03 33.7888 163.72 36.0509 163.72 38.365C163.716 41.467 162.476 44.441 160.271 46.6344C158.067 48.8279 155.077 50.0617 151.959 50.0652ZM151.959 28.2248C149.944 28.2248 147.973 28.8195 146.297 29.9337C144.621 31.048 143.315 32.6316 142.543 34.4845C141.772 36.3374 141.57 38.3762 141.963 40.3432C142.356 42.3102 143.327 44.117 144.752 45.5352C146.178 46.9533 147.994 47.919 149.971 48.3103C151.948 48.7016 153.997 48.5008 155.86 47.7333C157.722 46.9658 159.314 45.6661 160.434 43.9986C161.554 42.331 162.152 40.3705 162.152 38.365C162.149 35.6766 161.074 33.0992 159.163 31.1982C157.252 29.2972 154.662 28.2279 151.959 28.2248Z" fill="#CCCCCC"/>
<path d="M151.699 35.7096H151.678L150.436 36.3761L150.25 35.6441L151.809 34.8138H152.633V41.9161H151.699V35.7096Z" fill="#CCCCCC"/>
<path d="M135.905 68.9538C136.182 68.9633 136.455 68.8897 136.69 68.7426C136.924 68.5954 137.108 68.3815 137.219 68.1287C137.329 67.8759 137.361 67.5958 137.309 67.325C137.257 67.0541 137.125 66.8051 136.929 66.6101C136.733 66.4152 136.482 66.2834 136.21 66.232C135.938 66.1806 135.657 66.2118 135.402 66.3217C135.148 66.4316 134.933 66.615 134.785 66.8481C134.637 67.0813 134.563 67.3533 134.573 67.6288C134.585 67.9764 134.729 68.3064 134.977 68.5523C135.224 68.7983 135.556 68.9417 135.905 68.9538Z" fill="#E6E6E6"/>
<path d="M135.905 77.5339C136.182 77.5434 136.455 77.4699 136.69 77.3227C136.924 77.1756 137.108 76.9617 137.219 76.7088C137.329 76.456 137.361 76.176 137.309 75.9051C137.257 75.6343 137.125 75.3852 136.929 75.1903C136.733 74.9953 136.482 74.8636 136.21 74.8121C135.938 74.7607 135.657 74.792 135.402 74.9019C135.148 75.0117 134.933 75.1952 134.785 75.4283C134.637 75.6614 134.563 75.9334 134.573 76.2089C134.585 76.5565 134.729 76.8866 134.977 77.1325C135.224 77.3784 135.556 77.5219 135.905 77.5339Z" fill="#E6E6E6"/>
<path d="M135.905 86.114C136.182 86.1236 136.455 86.05 136.69 85.9028C136.924 85.7557 137.108 85.5418 137.219 85.289C137.329 85.0361 137.361 84.7561 137.309 84.4853C137.257 84.2144 137.125 83.9653 136.929 83.7704C136.733 83.5755 136.482 83.4437 136.21 83.3923C135.938 83.3408 135.657 83.3721 135.402 83.482C135.148 83.5919 134.933 83.7753 134.785 84.0084C134.637 84.2415 134.563 84.5135 134.573 84.7891C134.585 85.1366 134.729 85.4667 134.977 85.7126C135.224 85.9585 135.556 86.102 135.905 86.114Z" fill="#E6E6E6"/>
<path d="M168.562 68.3613H143.473C143.266 68.3613 143.066 68.2791 142.919 68.1328C142.772 67.9865 142.689 67.7881 142.689 67.5813C142.689 67.3744 142.772 67.176 142.919 67.0297C143.066 66.8834 143.266 66.8012 143.473 66.8012H168.562C168.77 66.8012 168.969 66.8834 169.116 67.0297C169.263 67.176 169.346 67.3744 169.346 67.5813C169.346 67.7881 169.263 67.9865 169.116 68.1328C168.969 68.2791 168.77 68.3613 168.562 68.3613H168.562Z" fill="#E6E6E6"/>
<path d="M168.563 76.9414H143.474C143.266 76.9416 143.067 76.8596 142.92 76.7135C142.772 76.5674 142.69 76.369 142.689 76.1622C142.689 75.9553 142.772 75.7568 142.919 75.6104C143.065 75.4639 143.265 75.3816 143.473 75.3813H168.563C168.771 75.3811 168.97 75.4631 169.117 75.6092C169.265 75.7554 169.347 75.9537 169.348 76.1605C169.348 76.3674 169.265 76.5659 169.119 76.7123C168.972 76.8588 168.772 76.9412 168.564 76.9414H168.563Z" fill="#E6E6E6"/>
<path d="M168.562 85.5215H143.473C143.266 85.5215 143.066 85.4393 142.919 85.293C142.772 85.1468 142.689 84.9484 142.689 84.7415C142.689 84.5346 142.772 84.3362 142.919 84.1899C143.066 84.0437 143.266 83.9615 143.473 83.9615H168.562C168.665 83.9614 168.767 83.9814 168.862 84.0205C168.957 84.0596 169.044 84.117 169.117 84.1894C169.189 84.2617 169.247 84.3476 169.287 84.4422C169.326 84.5368 169.347 84.6382 169.347 84.7407C169.347 84.8431 169.327 84.9446 169.287 85.0392C169.248 85.1339 169.191 85.22 169.118 85.2925C169.045 85.365 168.959 85.4225 168.864 85.4618C168.769 85.5011 168.667 85.5214 168.564 85.5215H168.562Z" fill="#E6E6E6"/>
<path d="M224.803 48.4629C222.477 48.4629 220.204 47.7767 218.27 46.491C216.336 45.2054 214.828 43.3781 213.938 41.2402C213.048 39.1022 212.815 36.7497 213.269 34.4801C213.723 32.2105 214.843 30.1257 216.487 28.4894C218.132 26.8531 220.228 25.7388 222.509 25.2874C224.79 24.8359 227.155 25.0676 229.304 25.9532C231.453 26.8387 233.289 28.3384 234.581 30.2624C235.874 32.1865 236.563 34.4486 236.563 36.7627C236.563 38.2992 236.259 39.8206 235.668 41.2402C235.077 42.6597 234.211 43.9495 233.119 45.036C232.027 46.1225 230.73 46.9843 229.304 47.5723C227.877 48.1603 226.348 48.4629 224.803 48.4629ZM224.803 26.6226C222.787 26.6226 220.817 27.2173 219.141 28.3315C217.465 29.4457 216.158 31.0294 215.387 32.8822C214.615 34.7351 214.414 36.7739 214.807 38.7409C215.2 40.7079 216.171 42.5148 217.596 43.9329C219.022 45.351 220.838 46.3168 222.815 46.708C224.792 47.0993 226.841 46.8985 228.704 46.131C230.566 45.3635 232.158 44.0639 233.278 42.3963C234.398 40.7288 234.995 38.7683 234.995 36.7627V36.7627C234.992 34.0743 233.917 31.4969 232.007 29.596C230.096 27.695 227.505 26.6257 224.803 26.6226V26.6226Z" fill="#CCCCCC"/>
<path d="M222.723 40.3741V39.7837L223.48 39.0517C225.304 37.3256 226.127 36.407 226.138 35.3367C226.158 35.1479 226.134 34.9571 226.07 34.7784C226.005 34.5998 225.901 34.4379 225.765 34.3047C225.629 34.1715 225.465 34.0705 225.284 34.009C225.103 33.9475 224.911 33.9273 224.722 33.9496C224.162 33.9701 223.627 34.1821 223.206 34.5499L222.898 33.8727C223.465 33.403 224.181 33.1475 224.919 33.1513C225.203 33.1262 225.489 33.1615 225.759 33.2549C226.028 33.3483 226.274 33.4977 226.481 33.693C226.687 33.8883 226.85 34.1252 226.957 34.3879C227.065 34.6505 227.115 34.933 227.104 35.2164C227.104 36.5273 226.149 37.5877 224.644 39.0296L224.073 39.5544V39.5758H227.28V40.3741H222.723Z" fill="#CCCCCC"/>
<path d="M255.94 111.072H193.667C192.386 111.071 191.158 110.564 190.253 109.663C189.347 108.762 188.837 107.54 188.836 106.266V69.4133C188.837 68.1389 189.347 66.9171 190.253 66.0159C191.158 65.1148 192.386 64.6079 193.667 64.6064H255.94C257.221 64.6079 258.449 65.1148 259.355 66.0159C260.261 66.9171 260.77 68.1389 260.772 69.4133V106.266C260.77 107.54 260.261 108.762 259.355 109.663C258.449 110.564 257.221 111.071 255.94 111.072Z" fill="white"/>
<path d="M245.971 74.5792H203.634C203.427 74.5794 203.227 74.4975 203.08 74.3513C202.933 74.2052 202.85 74.0069 202.85 73.8C202.849 73.5932 202.932 73.3947 203.079 73.2482C203.226 73.1018 203.425 73.0194 203.633 73.0192H245.971C246.179 73.019 246.379 73.1009 246.526 73.2471C246.673 73.3932 246.756 73.5915 246.756 73.7984C246.756 74.0052 246.674 74.2037 246.527 74.3502C246.38 74.4966 246.181 74.579 245.973 74.5792H245.971Z" fill="#E6E6E6"/>
<path d="M245.971 81.5993H203.634C203.427 81.5995 203.227 81.5175 203.08 81.3714C202.933 81.2253 202.85 81.027 202.85 80.8201C202.849 80.6132 202.932 80.4147 203.079 80.2683C203.226 80.1219 203.425 80.0395 203.633 80.0393H245.971C246.179 80.0393 246.379 80.1214 246.526 80.2677C246.673 80.414 246.755 80.6124 246.755 80.8193C246.755 81.0262 246.673 81.2246 246.526 81.3708C246.379 81.5171 246.179 81.5993 245.971 81.5993H245.971Z" fill="#E6E6E6"/>
<path d="M245.971 88.6194H203.634C203.427 88.6196 203.227 88.5377 203.08 88.3915C202.933 88.2454 202.85 88.0471 202.85 87.8402C202.849 87.6334 202.932 87.4349 203.079 87.2884C203.226 87.142 203.425 87.0596 203.633 87.0594H245.971C246.179 87.0592 246.379 87.1411 246.526 87.2872C246.673 87.4334 246.756 87.6317 246.756 87.8386C246.756 88.0454 246.674 88.2439 246.527 88.3904C246.38 88.5368 246.181 88.6192 245.973 88.6194H245.971Z" fill="#E6E6E6"/>
<path d="M245.971 95.6395H203.635C203.427 95.6392 203.228 95.5571 203.081 95.411C202.934 95.2649 202.852 95.0669 202.852 94.8603C202.851 94.6538 202.933 94.4556 203.08 94.3092C203.226 94.1628 203.425 94.0802 203.633 94.0795H245.971C246.179 94.08 246.378 94.1625 246.524 94.3087C246.671 94.4549 246.753 94.653 246.753 94.8595C246.753 95.066 246.671 95.2641 246.524 95.4103C246.378 95.5566 246.179 95.639 245.971 95.6395H245.971Z" fill="#E6E6E6"/>
<path d="M245.972 102.66H203.636C203.428 102.66 203.228 102.577 203.081 102.431C202.934 102.285 202.852 102.086 202.852 101.88C202.852 101.673 202.934 101.474 203.081 101.328C203.228 101.182 203.428 101.1 203.636 101.1H245.972C246.18 101.099 246.38 101.181 246.527 101.327C246.674 101.474 246.757 101.672 246.757 101.879C246.758 102.086 246.675 102.284 246.528 102.431C246.381 102.577 246.182 102.659 245.974 102.66H245.972Z" fill="#E6E6E6"/>
<path d="M255.94 111.072H193.667C192.386 111.071 191.158 110.564 190.253 109.663C189.347 108.762 188.837 107.54 188.836 106.266V69.4133C188.837 68.1389 189.347 66.9171 190.253 66.0159C191.158 65.1148 192.386 64.6079 193.667 64.6064H255.94C257.221 64.6079 258.449 65.1148 259.355 66.0159C260.261 66.9171 260.77 68.1389 260.772 69.4133V106.266C260.77 107.54 260.261 108.762 259.355 109.663C258.449 110.564 257.221 111.071 255.94 111.072ZM193.667 65.6746C192.671 65.6757 191.716 66.07 191.011 66.7709C190.307 67.4718 189.911 68.4221 189.91 69.4133V106.266C189.911 107.257 190.307 108.207 191.011 108.908C191.716 109.609 192.671 110.003 193.667 110.004H255.94C256.936 110.003 257.892 109.609 258.596 108.908C259.301 108.207 259.697 107.257 259.698 106.266V69.4133C259.697 68.4221 259.301 67.4718 258.596 66.7709C257.892 66.07 256.936 65.6757 255.94 65.6746H193.667Z" fill="#E6E6E6"/>
<path d="M303.596 48.4629C301.27 48.4629 298.997 47.7767 297.063 46.491C295.129 45.2054 293.621 43.3781 292.731 41.2402C291.841 39.1022 291.608 36.7497 292.062 34.4801C292.516 32.2105 293.636 30.1257 295.28 28.4894C296.925 26.8531 299.021 25.7388 301.302 25.2874C303.583 24.8359 305.948 25.0676 308.097 25.9532C310.246 26.8387 312.082 28.3384 313.374 30.2624C314.667 32.1865 315.356 34.4486 315.356 36.7627C315.356 39.8658 314.117 42.8418 311.912 45.036C309.706 47.2302 306.715 48.4629 303.596 48.4629ZM303.596 26.6226C301.58 26.6226 299.61 27.2173 297.934 28.3315C296.258 29.4457 294.951 31.0294 294.18 32.8822C293.408 34.7351 293.207 36.7739 293.6 38.7409C293.993 40.7079 294.964 42.5148 296.389 43.9329C297.815 45.351 299.631 46.3168 301.608 46.708C303.585 47.0993 305.634 46.8985 307.497 46.131C309.359 45.3635 310.951 44.0639 312.071 42.3963C313.191 40.7288 313.788 38.7683 313.788 36.7627V36.7627C313.785 34.0743 312.71 31.497 310.8 29.596C308.889 27.695 306.298 26.6257 303.596 26.6226V26.6226Z" fill="#CCCCCC"/>
<path d="M301.629 39.21C302.108 39.4922 302.653 39.6464 303.21 39.6579C304.451 39.6579 304.836 38.871 304.824 38.2814C304.814 37.2866 303.912 36.8608 302.98 36.8608H302.441V36.1394H302.98C303.683 36.1394 304.572 35.7791 304.572 34.9374C304.572 34.3692 304.21 33.8664 303.32 33.8664C302.808 33.8808 302.312 34.0445 301.893 34.3372L301.64 33.6379C302.195 33.2779 302.844 33.0878 303.507 33.091C304.912 33.091 305.549 33.9213 305.549 34.7851C305.542 35.1684 305.409 35.5388 305.171 35.8403C304.934 36.1419 304.603 36.3581 304.231 36.4563V36.4784C304.672 36.542 305.076 36.7612 305.368 37.0961C305.661 37.4309 305.822 37.8592 305.824 38.3028C305.824 39.4393 304.934 40.4341 303.221 40.4341C302.57 40.4425 301.929 40.2762 301.365 39.9527L301.629 39.21Z" fill="#CCCCCC"/>
<path d="M286.217 100.779C286.494 100.788 286.768 100.715 287.002 100.568C287.236 100.421 287.421 100.207 287.531 99.9538C287.642 99.701 287.673 99.421 287.621 99.1501C287.57 98.8793 287.437 98.6302 287.241 98.4353C287.045 98.2404 286.795 98.1086 286.523 98.0572C286.251 98.0057 285.969 98.037 285.715 98.1469C285.461 98.2568 285.246 98.4402 285.098 98.6733C284.95 98.9064 284.876 99.1784 284.886 99.4539C284.898 99.8015 285.042 100.132 285.289 100.378C285.536 100.623 285.868 100.767 286.217 100.779Z" fill="#E6E6E6"/>
<path d="M318.875 100.186H293.786C293.578 100.186 293.379 100.104 293.232 99.958C293.085 99.8117 293.002 99.6133 293.002 99.4064C293.002 99.1995 293.085 99.0011 293.232 98.8549C293.379 98.7086 293.578 98.6264 293.786 98.6264H318.874C318.977 98.6263 319.079 98.6464 319.175 98.6855C319.27 98.7246 319.356 98.7819 319.429 98.8543C319.502 98.9266 319.56 99.0126 319.599 99.1071C319.639 99.2017 319.659 99.3032 319.659 99.4056C319.659 99.508 319.639 99.6095 319.6 99.7042C319.561 99.7988 319.503 99.8849 319.43 99.9574C319.358 100.03 319.271 100.087 319.176 100.127C319.081 100.166 318.979 100.186 318.876 100.186H318.875Z" fill="#E6E6E6"/>
<path d="M325.606 89.7087H281.586C280.59 89.7076 279.634 89.3134 278.93 88.6125C278.226 87.9116 277.829 86.9613 277.828 85.9701V68.3451C277.829 67.3539 278.226 66.4036 278.93 65.7027C279.634 65.0018 280.59 64.6076 281.586 64.6064H325.606C326.603 64.6076 327.558 65.0018 328.262 65.7027C328.967 66.4036 329.363 67.3539 329.364 68.3451V85.9701C329.363 86.9613 328.967 87.9116 328.262 88.6125C327.558 89.3134 326.603 89.7076 325.606 89.7087ZM281.586 65.6746C280.874 65.6754 280.192 65.9571 279.689 66.4577C279.186 66.9583 278.903 67.6371 278.902 68.3451V85.9701C278.903 86.6781 279.186 87.3569 279.689 87.8575C280.192 88.3581 280.874 88.6397 281.586 88.6405H325.606C326.318 88.6397 327 88.3581 327.503 87.8575C328.007 87.3569 328.29 86.6781 328.29 85.9701V68.3451C328.29 67.6371 328.007 66.9583 327.503 66.4577C327 65.9571 326.318 65.6754 325.606 65.6746H281.586Z" fill="#E6E6E6"/>
<path d="M327.821 65.7634L278.998 87.6565L279.439 88.6303L328.262 66.7372L327.821 65.7634Z" fill="#E6E6E6"/>
<path d="M279.643 65.4921L279.195 66.4627L327.747 88.6275L328.195 87.6568L279.643 65.4921Z" fill="#E6E6E6"/>
<path d="M361.772 77.8782C361.742 77.8162 361.704 77.7585 361.658 77.7069V77.7068L355.778 71.8568C355.705 71.7842 355.619 71.7266 355.523 71.6873C355.428 71.648 355.326 71.6277 355.223 71.6276C355.12 71.6276 355.018 71.6477 354.923 71.6869C354.828 71.7261 354.741 71.7836 354.668 71.856C354.596 71.9285 354.538 72.0146 354.498 72.1093C354.459 72.204 354.439 72.3056 354.439 72.4081C354.439 72.5106 354.459 72.6121 354.499 72.7067C354.538 72.8014 354.596 72.8874 354.669 72.9598L359.211 77.4784H339.151C338.943 77.4784 338.744 77.5605 338.597 77.7068C338.45 77.8531 338.367 78.0515 338.367 78.2584C338.367 78.4652 338.45 78.6637 338.597 78.8099C338.744 78.9562 338.943 79.0384 339.151 79.0384H359.211L355.061 83.167C354.988 83.2393 354.93 83.3253 354.89 83.42C354.851 83.5147 354.83 83.6163 354.83 83.7188C354.83 83.8214 354.85 83.923 354.89 84.0178C354.929 84.1125 354.987 84.1987 355.06 84.2712C355.133 84.3437 355.219 84.4012 355.315 84.4404C355.41 84.4796 355.512 84.4998 355.615 84.4996C355.718 84.4995 355.82 84.4792 355.915 84.4398C356.011 84.4004 356.097 84.3427 356.17 84.27L361.657 78.8105L361.658 78.8099C361.778 78.6889 361.854 78.5319 361.875 78.3634C361.895 78.1949 361.859 78.0243 361.772 77.8782Z" fill="#CCCCCC"/>
<path d="M411.842 62.547H411.475V52.5329C411.475 51.7718 411.324 51.0181 411.031 50.3149C410.738 49.6117 410.309 48.9728 409.768 48.4346C409.227 47.8964 408.585 47.4694 407.878 47.1782C407.171 46.8869 406.414 46.737 405.649 46.737H384.324C383.559 46.737 382.801 46.8869 382.094 47.1782C381.388 47.4694 380.745 47.8963 380.204 48.4345C379.663 48.9727 379.234 49.6117 378.941 50.3149C378.649 51.0181 378.498 51.7717 378.498 52.5329V107.471C378.498 109.008 379.112 110.483 380.204 111.569C381.297 112.656 382.779 113.267 384.324 113.267H405.649C406.414 113.267 407.171 113.117 407.878 112.826C408.585 112.535 409.227 112.108 409.768 111.569C410.309 111.031 410.738 110.392 411.031 109.689C411.324 108.986 411.475 108.232 411.475 107.471V69.6752H411.842V62.547Z" fill="#3F3D56"/>
<path d="M410.234 52.5733V107.431C410.234 108.579 409.776 109.68 408.96 110.491C408.144 111.303 407.038 111.759 405.884 111.759H384.456C383.302 111.759 382.196 111.303 381.38 110.491C380.564 109.68 380.105 108.579 380.105 107.431V52.5733C380.105 51.4253 380.564 50.3244 381.38 49.5126C382.196 48.7009 383.302 48.2448 384.456 48.2448H387.056C386.928 48.5571 386.879 48.8958 386.914 49.2312C386.949 49.5665 387.066 49.8883 387.255 50.1681C387.444 50.4479 387.699 50.6772 387.998 50.8358C388.297 50.9944 388.631 51.0775 388.97 51.0778H401.187C401.525 51.0775 401.859 50.9944 402.158 50.8358C402.457 50.6772 402.712 50.4479 402.901 50.1681C403.09 49.8883 403.207 49.5665 403.242 49.2312C403.277 48.8958 403.228 48.5571 403.101 48.2448H405.884C407.038 48.2448 408.144 48.7009 408.96 49.5126C409.776 50.3244 410.234 51.4253 410.234 52.5733Z" fill="white"/>
<path d="M129.393 115.951C129.17 115.671 129.015 115.345 128.939 114.996C128.863 114.648 128.867 114.286 128.952 113.94C130.988 105.459 130.987 96.6208 128.952 88.14C128.867 87.7935 128.863 87.4322 128.939 87.0837C129.015 86.7351 129.171 86.4085 129.393 86.1287C129.61 85.8527 129.889 85.6298 130.206 85.4769C130.523 85.324 130.871 85.2451 131.224 85.2462H152.98C153.536 85.2472 154.074 85.4445 154.497 85.803C154.92 86.1614 155.202 86.6578 155.292 87.2036C156.711 96.3738 156.711 105.706 155.292 114.876C155.202 115.422 154.92 115.918 154.497 116.277C154.074 116.635 153.536 116.833 152.98 116.834H131.224C130.871 116.835 130.523 116.756 130.206 116.603C129.888 116.45 129.61 116.227 129.393 115.951Z" fill="#0674BB"/>
<path d="M148.782 96.9009H137.321C136.894 96.9005 136.485 96.7315 136.183 96.4311C135.881 96.1307 135.711 95.7235 135.711 95.2987V94.6183C135.711 94.1935 135.881 93.7862 136.183 93.4858C136.485 93.1854 136.894 93.0165 137.321 93.016H148.782C149.209 93.0165 149.619 93.1854 149.921 93.4858C150.223 93.7862 150.392 94.1935 150.393 94.6183V95.2987C150.392 95.7235 150.223 96.1307 149.921 96.4311C149.619 96.7315 149.209 96.9005 148.782 96.9009Z" fill="white"/>
<path d="M148.782 103.602H137.321C136.894 103.602 136.485 103.433 136.183 103.133C135.881 102.832 135.711 102.425 135.711 102V101.32C135.711 100.895 135.881 100.488 136.183 100.187C136.485 99.8869 136.894 99.7179 137.321 99.7174H148.782C149.209 99.7179 149.619 99.8869 149.921 100.187C150.223 100.488 150.392 100.895 150.393 101.32V102C150.392 102.425 150.223 102.832 149.921 103.133C149.619 103.433 149.209 103.602 148.782 103.602Z" fill="white"/>
<path d="M330.612 135.676C329.215 126.654 329.215 117.472 330.612 108.45C330.7 107.913 330.977 107.425 331.394 107.072C331.81 106.72 332.339 106.525 332.886 106.524H354.291C354.638 106.523 354.98 106.601 355.292 106.751C355.605 106.902 355.878 107.121 356.092 107.393C356.311 107.668 356.464 107.99 356.539 108.332C356.614 108.675 356.609 109.031 356.526 109.372C354.523 117.715 354.523 126.411 356.525 134.754C356.609 135.095 356.614 135.451 356.539 135.793C356.464 136.136 356.311 136.458 356.092 136.733C355.878 137.004 355.605 137.224 355.292 137.374C354.98 137.525 354.638 137.603 354.291 137.601H332.886C332.339 137.6 331.81 137.406 331.394 137.054C330.977 136.701 330.7 136.213 330.612 135.676Z" fill="#0674BB"/>
<path d="M348.095 120.363H336.862C336.435 120.363 336.026 120.194 335.724 119.894C335.422 119.593 335.252 119.186 335.252 118.761V118.135C335.252 117.71 335.422 117.303 335.724 117.003C336.026 116.702 336.435 116.533 336.862 116.533H348.095C348.522 116.533 348.931 116.702 349.233 117.003C349.535 117.303 349.705 117.71 349.705 118.135V118.761C349.705 119.186 349.535 119.593 349.233 119.894C348.931 120.194 348.522 120.363 348.095 120.363Z" fill="white"/>
<path d="M19.7968 194.963C24.2922 187.005 29.9852 179.779 36.6782 173.535C37.0808 173.167 37.6018 172.952 38.1483 172.931C38.6948 172.909 39.2314 173.08 39.6625 173.415L56.5092 186.552C56.7829 186.764 57.0043 187.036 57.1567 187.346C57.309 187.656 57.3882 187.996 57.3883 188.341C57.3898 188.692 57.3107 189.039 57.1573 189.355C57.0038 189.671 56.7799 189.948 56.5026 190.165C49.7531 195.503 44.3614 202.346 40.7637 210.142C40.6183 210.462 40.4016 210.744 40.1299 210.968C39.8582 211.192 39.5387 211.351 39.1959 211.433C38.859 211.516 38.5077 211.52 38.1687 211.447C37.8297 211.374 37.512 211.225 37.2397 211.011L20.393 197.874C19.9632 197.538 19.6674 197.06 19.5582 196.527C19.449 195.994 19.5336 195.44 19.7968 194.963Z" fill="#CCCCCC"/>
<path d="M43.1521 192.882L34.3116 185.989C33.9758 185.726 33.7584 185.342 33.707 184.92C33.6557 184.498 33.7745 184.074 34.0376 183.739L34.4257 183.246C34.6894 182.912 35.0756 182.696 35.4995 182.645C35.9234 182.594 36.3503 182.712 36.6867 182.974L45.5272 189.868C45.863 190.13 46.0804 190.514 46.1318 190.936C46.1832 191.358 46.0643 191.782 45.8012 192.117L45.4132 192.61C45.1494 192.944 44.7632 193.16 44.3393 193.211C43.9154 193.262 43.4885 193.144 43.1521 192.882Z" fill="white"/>
<path d="M39.0642 198.072L30.2237 191.178C29.8879 190.915 29.6705 190.531 29.6191 190.109C29.5678 189.688 29.6866 189.263 29.9497 188.928L30.3379 188.435C30.6017 188.101 30.9879 187.885 31.4118 187.834C31.8357 187.783 32.2626 187.901 32.599 188.163L41.4395 195.057C41.7753 195.319 41.9927 195.703 42.0441 196.125C42.0954 196.547 41.9766 196.971 41.7135 197.306L41.3253 197.799C41.0615 198.133 40.6753 198.349 40.2514 198.4C39.8275 198.452 39.4006 198.333 39.0642 198.072Z" fill="white"/>
<path d="M475.02 201.903C473.624 192.881 473.624 183.699 475.02 174.677C475.108 174.14 475.385 173.652 475.802 173.299C476.219 172.947 476.747 172.753 477.294 172.752H498.699C499.046 172.751 499.389 172.828 499.701 172.979C500.013 173.129 500.286 173.349 500.5 173.62C500.719 173.896 500.872 174.217 500.947 174.56C501.022 174.903 501.018 175.258 500.934 175.599C498.932 183.942 498.931 192.638 500.934 200.982C501.018 201.322 501.022 201.678 500.947 202.021C500.872 202.364 500.719 202.685 500.5 202.96C500.286 203.232 500.013 203.451 499.701 203.602C499.389 203.752 499.046 203.83 498.699 203.829H477.294C476.747 203.828 476.219 203.634 475.802 203.281C475.385 202.928 475.108 202.44 475.02 201.903Z" fill="#CCCCCC"/>
<path d="M492.503 186.591H481.271C480.844 186.59 480.434 186.421 480.132 186.121C479.83 185.821 479.661 185.413 479.66 184.988V184.362C479.661 183.937 479.83 183.53 480.132 183.23C480.434 182.929 480.844 182.76 481.271 182.76H492.503C492.93 182.76 493.339 182.929 493.641 183.23C493.943 183.53 494.113 183.937 494.114 184.362V184.988C494.113 185.413 493.943 185.821 493.641 186.121C493.339 186.421 492.93 186.59 492.503 186.591Z" fill="white"/>
<path d="M481.307 176.998C481.945 175.713 482.074 174.236 481.668 172.862C481.261 171.487 480.35 170.315 479.114 169.578C478.864 169.441 478.603 169.324 478.334 169.231L477.894 149.838L470.107 155.542L471.719 173.083C471.431 174.26 471.531 175.498 472.002 176.615C472.474 177.732 473.294 178.669 474.341 179.288C474.943 179.621 475.609 179.827 476.295 179.891C476.982 179.956 477.674 179.878 478.329 179.663C478.983 179.448 479.586 179.1 480.099 178.641C480.611 178.182 481.023 177.623 481.307 176.998Z" fill="#A0616A"/>
<path d="M478.028 168.387L472.447 168.722C471.851 168.737 471.272 168.528 470.824 168.137C470.377 167.746 470.093 167.202 470.03 166.613L465.396 131.926L457.907 110.767C457.275 109.004 457.344 107.067 458.101 105.354C458.452 104.528 458.97 103.783 459.621 103.163C460.273 102.544 461.044 102.063 461.889 101.752C465.3 100.519 469.034 102.471 470.213 106.104L477.829 130.363L480.177 165.791C480.225 166.433 480.023 167.069 479.614 167.568C479.358 167.882 479.021 168.121 478.64 168.261C478.443 168.332 478.237 168.375 478.028 168.387Z" fill="#3F3D56"/>
<path d="M445.49 275.003L438.908 275.003L435.777 249.747L445.491 249.747L445.49 275.003Z" fill="#A0616A"/>
<path d="M447.169 281.35L425.947 281.35V281.083C425.947 280.003 426.161 278.935 426.576 277.938C426.991 276.941 427.6 276.035 428.367 275.272C429.134 274.509 430.044 273.903 431.046 273.49C432.048 273.077 433.123 272.865 434.207 272.865H434.208L447.169 272.866L447.169 281.35Z" fill="#2F2E41"/>
<path d="M464.816 275.003L458.234 275.003L455.104 249.747L464.817 249.747L464.816 275.003Z" fill="#A0616A"/>
<path d="M466.495 281.35L445.273 281.35V281.083C445.273 280.003 445.487 278.935 445.902 277.938C446.317 276.941 446.926 276.035 447.693 275.272C448.46 274.509 449.37 273.903 450.372 273.49C451.375 273.077 452.449 272.865 453.533 272.865H453.534L466.495 272.866L466.495 281.35Z" fill="#2F2E41"/>
<path d="M469.233 172.934L467.662 265.703C467.657 265.997 467.591 266.286 467.468 266.553C467.346 266.821 467.169 267.06 466.949 267.256C466.73 267.453 466.472 267.602 466.191 267.694C465.911 267.787 465.615 267.821 465.32 267.794L457.619 267.098C457.114 267.052 456.641 266.83 456.285 266.471C455.929 266.112 455.712 265.638 455.672 265.135L451.164 207.269C451.153 207.133 451.091 207.006 450.989 206.915C450.888 206.823 450.755 206.774 450.618 206.776C450.481 206.779 450.35 206.834 450.252 206.929C450.154 207.025 450.097 207.154 450.092 207.29L447.838 266.481C447.817 267.033 447.582 267.556 447.182 267.939C446.782 268.323 446.248 268.537 445.693 268.537H437.433C436.886 268.537 436.36 268.329 435.962 267.956C435.563 267.584 435.323 267.074 435.29 266.531L429.508 172.4L463.865 163.855L469.233 172.934Z" fill="#2F2E41"/>
<path d="M444.312 85.8261C451.594 85.8261 457.497 79.953 457.497 72.7082C457.497 65.4635 451.594 59.5904 444.312 59.5904C437.03 59.5904 431.127 65.4635 431.127 72.7082C431.127 79.953 437.03 85.8261 444.312 85.8261Z" fill="#A0616A"/>
<path d="M428.331 175.694C428.103 175.474 427.92 175.212 427.794 174.922C427.669 174.632 427.602 174.32 427.599 174.004L426.709 110.745C426.656 107.527 427.629 104.375 429.488 101.741C431.348 99.1081 433.999 97.129 437.06 96.0884C438.296 90.5128 444.87 89.8144 448.703 89.8979C449.659 89.9183 450.597 90.168 451.436 90.6257C452.275 91.0834 452.991 91.7356 453.522 92.5271L456.27 96.6272L462.325 100.159C465.128 101.786 467.338 104.257 468.638 107.215C469.938 110.173 470.259 113.466 469.557 116.618L468.624 120.837C465.341 135.769 465.654 151.263 469.536 166.053L471.412 173.169C471.509 173.54 471.517 173.928 471.433 174.302C471.349 174.676 471.176 175.025 470.93 175.319C470.683 175.613 470.369 175.844 470.014 175.993C469.659 176.142 469.274 176.204 468.89 176.175L466.711 176.008C466.145 175.965 465.613 175.726 465.207 175.331C464.801 174.937 464.548 174.413 464.492 173.851L464.132 170.264C464.125 170.198 464.094 170.137 464.045 170.093C463.996 170.048 463.931 170.023 463.865 170.023C463.798 170.023 463.734 170.048 463.685 170.093C463.635 170.137 463.604 170.198 463.598 170.264L463.249 173.737C463.19 174.324 462.916 174.869 462.48 175.268C462.043 175.667 461.475 175.892 460.882 175.901L430.051 176.373C430.038 176.373 430.026 176.374 430.013 176.374C429.384 176.375 428.781 176.131 428.331 175.694Z" fill="#3F3D56"/>
<path d="M445.343 80.2696C445.397 82.124 446.691 83.1968 448.28 84.1681C449.869 85.1394 451.726 85.5605 453.545 85.9668C453.79 86.0959 454.063 86.1602 454.34 86.1534C454.617 86.1467 454.887 86.0691 455.124 85.9282C455.362 85.7873 455.559 85.5879 455.697 85.3491C455.835 85.1103 455.908 84.8403 455.91 84.565L457.579 78.2503C458.169 76.2332 458.599 74.1728 458.864 72.0885C459.265 68.0779 458.31 63.7636 455.496 60.8639C452.683 57.9641 447.803 56.934 444.432 59.1682C440.43 54.0838 422.14 65.3172 426.652 68.8528C427.455 69.4818 428.682 68.6859 429.7 68.6088C430.719 68.5316 431.861 68.7099 432.508 69.4965C433.354 70.5242 432.985 72.0551 433.334 73.3371C433.478 73.7882 433.71 74.2064 434.018 74.5677C434.325 74.929 434.701 75.2261 435.125 75.442C435.548 75.6579 436.01 75.7883 436.484 75.8256C436.959 75.863 437.436 75.8065 437.888 75.6595C438.73 75.2466 439.523 74.7398 440.25 74.1488C441.031 73.631 442.019 73.2483 442.899 73.5749C444.058 74.0054 444.47 75.4178 444.575 76.6446C444.752 77.8683 445.008 79.0792 445.343 80.2696Z" fill="#2F2E41"/>
<path opacity="0.2" d="M442.265 115.427L440.117 141.597L428.844 168.836L445.486 142.131L442.265 115.427Z" fill="black"/>
<path d="M426.208 178.979C426.824 178.488 427.323 177.868 427.672 177.163C428.02 176.459 428.21 175.687 428.226 174.902C428.242 174.117 428.085 173.338 427.766 172.62C427.447 171.902 426.973 171.262 426.379 170.746L433.561 153.048L423.789 155.011L418.467 171.516C417.662 172.567 417.271 173.876 417.371 175.194C417.47 176.513 418.052 177.749 419.006 178.669C419.96 179.589 421.22 180.128 422.548 180.186C423.875 180.243 425.178 179.814 426.208 178.979V178.979Z" fill="#A0616A"/>
<path d="M425.998 171.174L420.467 169.191C419.897 168.983 419.426 168.571 419.146 168.035C418.867 167.5 418.799 166.879 418.956 166.296L428.081 133.065L429.472 103.032C429.514 102.126 429.736 101.236 430.127 100.416C430.517 99.5961 431.068 98.8614 431.746 98.2548C432.424 97.6482 433.217 97.1818 434.078 96.8828C434.94 96.5837 435.852 96.458 436.762 96.5129C437.673 96.5679 438.563 96.8023 439.382 97.2026C440.201 97.603 440.931 98.1612 441.531 98.8449C442.13 99.5287 442.588 100.324 442.876 101.185C443.164 102.046 443.277 102.956 443.208 103.861L440.724 136.746L429.097 169.71C428.921 170.208 428.585 170.634 428.141 170.924C427.697 171.213 427.17 171.349 426.64 171.312C426.421 171.295 426.205 171.249 425.998 171.174Z" fill="#3F3D56"/>
<path d="M27.5703 267.419L33.4803 270.301L47.4659 248.995L38.744 244.741L27.5703 267.419Z" fill="#FFB8B8"/>
<path d="M27.0096 264.765L38.6478 270.44L38.6483 270.441C39.6223 270.916 40.4927 271.577 41.2098 272.387C41.9269 273.196 42.4767 274.138 42.8278 275.16C43.1789 276.181 43.3244 277.261 43.256 278.338C43.1875 279.415 42.9066 280.468 42.4291 281.437L42.3109 281.676L23.2559 272.384L27.0096 264.765Z" fill="#2F2E41"/>
<path d="M86.1358 277.466L92.7174 277.465L95.8482 252.209L86.1348 252.21L86.1358 277.466Z" fill="#FFB8B8"/>
<path d="M84.457 273.191L97.4182 273.191H97.4188C98.5035 273.191 99.5776 273.403 100.58 273.816C101.582 274.229 102.492 274.835 103.259 275.598C104.026 276.361 104.635 277.267 105.05 278.264C105.465 279.261 105.679 280.329 105.679 281.409V281.676L84.4574 281.676L84.457 273.191Z" fill="#2F2E41"/>
<path d="M71.9996 103.163C79.2816 103.163 85.1848 97.2899 85.1848 90.0451C85.1848 82.8004 79.2816 76.9273 71.9996 76.9273C64.7176 76.9273 58.8145 82.8004 58.8145 90.0451C58.8145 97.2899 64.7176 103.163 71.9996 103.163Z" fill="#FFB8B8"/>
<path d="M85.1282 269.135C84.5062 269.134 83.9085 268.895 83.4594 268.467C83.0104 268.039 82.7447 267.455 82.7175 266.837L77.621 199.348C77.6151 199.171 77.5506 199.001 77.4374 198.865C77.3243 198.728 77.1689 198.633 76.9956 198.594C76.8222 198.554 76.6407 198.573 76.4791 198.647C76.3176 198.721 76.1852 198.846 76.1026 199.003L43.5 260.926C43.204 261.482 42.7021 261.901 42.1008 262.094C41.4995 262.287 40.8462 262.239 40.2796 261.961L31.1911 257.44C30.6209 257.155 30.187 256.657 29.9836 256.055C29.7803 255.454 29.824 254.796 30.1052 254.226L49.5594 215.007L62.4448 185.629C67.4184 175.883 72.6998 170.86 78.5908 170.274C84.6345 169.674 91.0887 173.808 98.3257 182.914L98.3847 182.989L98.3835 183.083L97.3099 265.524C97.3116 266.123 97.0876 266.701 96.6821 267.143C96.2765 267.586 95.719 267.861 95.1196 267.914L85.3646 269.124C85.2853 269.131 85.2065 269.135 85.1282 269.135Z" fill="#2F2E41"/>
<path d="M58.0819 190.374C58.7994 189.934 59.4111 189.342 59.874 188.641C60.3368 187.94 60.6395 187.146 60.7607 186.316C60.882 185.486 60.8188 184.64 60.5756 183.836C60.3325 183.033 59.9153 182.293 59.3535 181.668L61.3417 129.404L51.6787 130.602L50.8639 181.447C49.8704 182.456 49.2834 183.792 49.214 185.202C49.1446 186.613 49.5977 188 50.4874 189.1C51.3771 190.201 52.6416 190.938 54.0414 191.173C55.4411 191.408 56.8787 191.123 58.0819 190.374Z" fill="#FFB8B8"/>
<path d="M64.1961 138.644L51.2196 137.177C50.8504 137.135 50.4946 137.015 50.1764 136.824C49.8582 136.633 49.585 136.376 49.3756 136.071C49.1662 135.765 49.0254 135.419 48.9627 135.054C48.9001 134.69 48.9172 134.316 49.0128 133.959L52.3629 121.441C52.5882 119.563 53.553 117.85 55.0456 116.679C56.5383 115.507 58.437 114.972 60.3255 115.191C62.214 115.41 63.9381 116.365 65.1198 117.847C66.3014 119.329 66.8442 121.217 66.6291 123.096L67.0724 136.001C67.085 136.37 67.0174 136.738 66.8742 137.079C66.731 137.42 66.5156 137.727 66.2426 137.978C65.9696 138.228 65.6455 138.418 65.2924 138.533C64.9392 138.648 64.5653 138.686 64.1961 138.644L64.1961 138.644Z" fill="#2F2E41"/>
<path d="M120.095 105.744C120.029 106.032 119.986 106.325 119.966 106.62L96.9051 119.856L91.2998 116.645L85.3242 124.428L94.6921 131.071C95.4489 131.608 96.3603 131.886 97.2894 131.863C98.2185 131.841 99.1151 131.519 99.8448 130.946L123.625 112.282C124.698 112.677 125.866 112.738 126.975 112.456C128.084 112.175 129.08 111.564 129.832 110.705C130.583 109.846 131.053 108.78 131.181 107.649C131.308 106.517 131.087 105.374 130.545 104.371C130.004 103.368 129.168 102.553 128.149 102.034C127.131 101.515 125.978 101.317 124.843 101.466C123.709 101.615 122.647 102.104 121.798 102.868C120.95 103.633 120.356 104.636 120.095 105.744V105.744Z" fill="#FFB8B8"/>
<path d="M96.1338 120.483L88.6806 130.093C88.4685 130.367 88.1997 130.591 87.8924 130.752C87.5852 130.913 87.2467 131.006 86.9001 131.025C86.5535 131.044 86.2068 130.988 85.8837 130.862C85.5607 130.735 85.2688 130.541 85.028 130.292L76.5904 121.575C75.1896 120.488 74.2794 118.893 74.0594 117.139C73.8395 115.385 74.3278 113.616 75.4172 112.219C76.5066 110.823 78.1082 109.914 79.8706 109.691C81.633 109.468 83.4123 109.949 84.8183 111.03L95.4009 116.917C95.7038 117.086 95.9666 117.317 96.1715 117.596C96.3764 117.875 96.5184 118.195 96.588 118.533C96.6575 118.871 96.653 119.221 96.5746 119.557C96.4962 119.894 96.3459 120.209 96.1338 120.483H96.1338Z" fill="#2F2E41"/>
<path d="M102.213 187.001L87.9048 117.661C87.2247 114.365 85.2871 111.46 82.4991 109.556C79.711 107.652 76.2897 106.897 72.954 107.45L68.182 108.241C66.5243 108.516 64.9372 109.113 63.5113 109.998C62.0855 110.883 60.8489 112.039 59.8721 113.4C58.32 115.562 57.2745 118.042 56.8125 120.658C56.3505 123.275 56.4837 125.961 57.2023 128.52L65.1004 156.643L59.2391 186.772C59.1736 187.106 59.1894 187.451 59.2852 187.778C59.381 188.104 59.554 188.404 59.7897 188.65C60.0255 188.897 60.3171 189.084 60.6404 189.196C60.9636 189.308 61.309 189.341 61.6477 189.293C64.5822 188.875 69.4192 188.279 74.9747 187.954L77.9844 176.404L79.2086 187.771C86.033 187.581 93.4412 187.913 99.5526 189.493C99.9062 189.587 100.278 189.589 100.633 189.5C100.988 189.411 101.314 189.234 101.58 188.984C101.847 188.735 102.045 188.422 102.156 188.075C102.266 187.728 102.286 187.358 102.213 187.001Z" fill="#0674BB"/>
<path d="M87.1835 78.9701C86.3966 74.4162 82.7221 70.6412 78.3449 69.0966C73.9677 67.552 69.0318 68.0543 64.7453 69.8331C60.1701 71.6838 56.3826 75.0575 54.0299 79.3779C53.4722 79.1296 52.9361 78.836 52.427 78.4999C49.8885 76.8191 47.8288 74.4258 45.0825 73.1079C40.2405 70.7846 34.3867 72.3291 29.6745 74.9025C24.9622 77.4759 20.785 81.0312 15.8073 83.0507C10.8297 85.0702 4.4782 85.17 0.709093 81.3568C-0.218473 84.0303 -0.294325 86.9235 0.491881 89.6416C1.27809 92.3596 2.88806 94.7701 5.10213 96.5442C7.3162 98.3183 10.0265 99.3696 12.8633 99.5546C15.7001 99.7396 18.5252 99.0493 20.9531 97.5779C26.4069 94.2727 29.4195 87.3427 35.5367 85.5185C38.9215 84.509 42.5564 85.3221 45.9777 86.2027C47.993 86.7794 50.0495 87.2025 52.1295 87.4684C52.1539 91.2032 53.5678 94.7967 56.0983 97.5555C60.3198 101.977 66.9453 103.155 73.0744 103.084L73.2025 102.954C71.326 100.16 69.845 96.2846 71.911 93.6257C73.9506 91.0011 77.9732 91.3877 81.0967 90.2264C85.4472 88.6088 87.9704 83.5239 87.1835 78.9701Z" fill="#2F2E41"/>
<path d="M110.543 282H19.281C19.1386 282 19.0021 281.944 18.9014 281.844C18.8007 281.743 18.7441 281.608 18.7441 281.466C18.7441 281.324 18.8007 281.188 18.9014 281.088C19.0021 280.988 19.1386 280.932 19.281 280.932H110.543C110.685 280.932 110.821 280.988 110.922 281.088C111.023 281.188 111.079 281.324 111.079 281.466C111.079 281.608 111.023 281.743 110.922 281.844C110.821 281.944 110.685 282 110.543 282Z" fill="#CCCCCC"/>
<path d="M487.935 282H396.674C396.531 282 396.395 281.944 396.294 281.844C396.193 281.743 396.137 281.608 396.137 281.466C396.137 281.324 396.193 281.188 396.294 281.088C396.395 280.988 396.531 280.932 396.674 280.932H487.935C488.078 280.932 488.214 280.988 488.315 281.088C488.415 281.188 488.472 281.324 488.472 281.466C488.472 281.608 488.415 281.743 488.315 281.844C488.214 281.944 488.078 282 487.935 282Z" fill="#CCCCCC"/>
</g>
<defs>
<clipPath id="clip0_412_11565">
<rect width="501" height="282" fill="white"/>
</clipPath>
</defs>
</svg>
