<svg width="22" height="22" viewBox="0 0 22 22" fill="none" xmlns="http://www.w3.org/2000/svg">
<circle cx="10.6842" cy="10.6842" r="10.6842" fill="#61048C"/>
<path d="M5.52415 6.72727L7.28196 12.2528H7.34943L9.1108 6.72727H10.8153L8.30824 14H6.3267L3.81605 6.72727H5.52415ZM13.6358 6.72727H15.1557V11.7983C15.1557 12.267 15.0504 12.6742 14.8397 13.0199C14.6313 13.3655 14.3413 13.6319 13.9696 13.8189C13.598 14.0059 13.1659 14.0994 12.6735 14.0994C12.2355 14.0994 11.8378 14.0225 11.4803 13.8686C11.1252 13.7124 10.8435 13.4756 10.6351 13.1584C10.4268 12.8388 10.3238 12.4375 10.3262 11.9545H11.8567C11.8614 12.1463 11.9005 12.3108 11.9739 12.4482C12.0497 12.5831 12.1526 12.6873 12.2828 12.7607C12.4154 12.8317 12.5717 12.8672 12.7516 12.8672C12.941 12.8672 13.1008 12.8269 13.231 12.7464C13.3636 12.6636 13.4642 12.5429 13.5328 12.3842C13.6015 12.2256 13.6358 12.0303 13.6358 11.7983V6.72727Z" fill="white"/>
</svg>
