<svg width="189" height="189" viewBox="0 0 189 189" fill="none" xmlns="http://www.w3.org/2000/svg">
<path d="M94.0939 9C116.662 9 138.305 17.9647 154.263 33.9221C170.221 49.8795 179.187 71.5225 179.188 94.0902C179.189 116.658 170.225 138.302 154.268 154.26C138.312 170.219 116.669 179.186 94.1013 179.188C71.5337 179.19 49.8895 170.227 33.93 154.271C17.9705 138.315 9.00295 116.673 9 94.105C8.99705 71.5374 17.9589 49.8928 33.9142 33.9326C49.8696 17.9724 71.5114 9.00394 94.0791 9" stroke="#F2F2F2" stroke-opacity="0.85" stroke-width="17.415"/>
<path d="M94.0932 9C109.786 9 125.174 13.3397 138.555 21.5394C151.935 29.7391 162.788 41.4793 169.912 55.4621C177.037 69.4448 180.156 85.1255 178.925 100.77C177.693 116.415 172.16 131.415 162.936 144.111C153.711 156.807 141.156 166.705 126.657 172.71C112.159 178.716 96.2816 180.595 80.7816 178.14C65.2816 175.685 50.7623 168.992 38.8291 158.8C26.8959 148.608 18.0135 135.315 13.1641 120.389" stroke="#BB74E9" stroke-width="17.9537"/>
<path d="M40.8359 93V87.502L35.7676 78.7812H38.5898L42.1152 85.2949L45.6113 78.7812H48.502L43.3164 87.4922V93H40.8359ZM52.0469 86.7891H57.0273C56.9102 86.0794 56.6465 85.5358 56.2363 85.1582C55.8262 84.7806 55.3249 84.5918 54.7324 84.5918C54.0358 84.5918 53.4531 84.7871 52.9844 85.1777C52.5156 85.5684 52.2031 86.1055 52.0469 86.7891ZM54.9082 93.2246C53.222 93.2246 51.8906 92.7428 50.9141 91.7793C49.944 90.8158 49.459 89.556 49.459 88C49.459 87.2969 49.5762 86.6296 49.8105 85.998C50.0449 85.3665 50.3737 84.8066 50.7969 84.3184C51.2266 83.8301 51.7669 83.4427 52.418 83.1562C53.0755 82.8698 53.8014 82.7266 54.5957 82.7266C55.39 82.7266 56.0833 82.8633 56.6758 83.1367C57.2682 83.4102 57.737 83.7943 58.082 84.2891C58.4271 84.7773 58.681 85.3275 58.8438 85.9395C59.013 86.5514 59.0977 87.2285 59.0977 87.9707C59.0977 88.1595 59.0814 88.3027 59.0488 88.4004H52.0176C52.0566 89.377 52.3529 90.0996 52.9062 90.5684C53.4661 91.0371 54.2083 91.2715 55.1328 91.2715C56.2135 91.2715 57.2682 90.9134 58.2969 90.1973L58.9512 91.9551C58.3197 92.3913 57.6816 92.7135 57.0371 92.9219C56.3991 93.1237 55.6895 93.2246 54.9082 93.2246ZM67.3887 92.9902H66.4121C66.0215 92.9902 65.6829 92.9805 65.3965 92.9609C65.11 92.9414 64.8138 92.8991 64.5078 92.834C64.2083 92.7689 63.9512 92.6842 63.7363 92.5801C63.528 92.4694 63.3262 92.3229 63.1309 92.1406C62.9355 91.9583 62.7793 91.7402 62.6621 91.4863C62.5449 91.2259 62.4505 90.9167 62.3789 90.5586C62.3138 90.2005 62.2812 89.7904 62.2812 89.3281V84.6016H60.1914V82.9805H62.3789V80.6367L64.6934 79.9238V82.9805H67.3105V84.6016H64.6934V89.4746C64.6934 89.7871 64.7161 90.041 64.7617 90.2363C64.8138 90.4251 64.8887 90.5846 64.9863 90.7148C65.084 90.8385 65.2467 90.9297 65.4746 90.9883C65.709 91.0469 65.9629 91.0859 66.2363 91.1055C66.5098 91.125 66.8939 91.1348 67.3887 91.1348V92.9902ZM78.4043 93V80.9102H74.0195V78.7812H85.3379V80.9102H80.8848V93H78.4043ZM91.7832 93.2246C90.9108 93.2246 90.1328 93.0846 89.4492 92.8047C88.7656 92.5182 88.2122 92.1341 87.7891 91.6523C87.3724 91.1641 87.0534 90.6107 86.832 89.9922C86.6172 89.3672 86.5098 88.6999 86.5098 87.9902C86.5098 87.2676 86.6204 86.5938 86.8418 85.9688C87.0632 85.3372 87.3854 84.7806 87.8086 84.2988C88.2383 83.8105 88.7917 83.4264 89.4688 83.1465C90.1523 82.8665 90.9206 82.7266 91.7734 82.7266C92.6458 82.7266 93.4206 82.8665 94.0977 83.1465C94.7747 83.4199 95.3184 83.8008 95.7285 84.2891C96.1387 84.7708 96.4447 85.3275 96.6465 85.959C96.8548 86.584 96.959 87.2676 96.959 88.0098C96.959 88.7064 96.8516 89.3639 96.6367 89.9824C96.4219 90.5944 96.1061 91.1445 95.6895 91.6328C95.2793 92.1211 94.7357 92.5085 94.0586 92.7949C93.388 93.0814 92.6296 93.2246 91.7832 93.2246ZM91.7344 91.2715C92.2096 91.2715 92.6263 91.1836 92.9844 91.0078C93.3424 90.8255 93.6224 90.5781 93.8242 90.2656C94.0326 89.9466 94.1855 89.5951 94.2832 89.2109C94.3874 88.8268 94.4395 88.4102 94.4395 87.9609C94.4395 87.0039 94.2116 86.2194 93.7559 85.6074C93.3066 84.9954 92.6361 84.6895 91.7441 84.6895C91.1387 84.6895 90.6276 84.8424 90.2109 85.1484C89.7943 85.4479 89.4915 85.8385 89.3027 86.3203C89.1204 86.8021 89.0293 87.349 89.0293 87.9609C89.0293 88.5664 89.1139 89.11 89.2832 89.5918C89.459 90.0736 89.7552 90.474 90.1719 90.793C90.5951 91.112 91.1159 91.2715 91.7344 91.2715ZM109.977 93.2246C109 93.2246 108.059 93.0814 107.154 92.7949C106.249 92.5085 105.536 92.1113 105.016 91.6035L106.07 89.8262C106.533 90.1842 107.132 90.487 107.867 90.7344C108.609 90.9818 109.26 91.1055 109.82 91.1055C110.699 91.1055 111.347 90.9427 111.764 90.6172C112.187 90.2917 112.398 89.7969 112.398 89.1328C112.398 88.8724 112.379 88.6641 112.34 88.5078C112.301 88.3451 112.213 88.179 112.076 88.0098C111.939 87.834 111.734 87.6745 111.461 87.5312C111.194 87.3815 110.833 87.2253 110.377 87.0625C110.182 86.9974 109.85 86.89 109.381 86.7402C108.919 86.5905 108.58 86.4766 108.365 86.3984C107.193 85.9557 106.344 85.4349 105.816 84.8359C105.289 84.2305 105.025 83.4134 105.025 82.3848C105.025 81.5514 105.243 80.8385 105.68 80.2461C106.122 79.6536 106.708 79.2174 107.438 78.9375C108.167 78.6576 109 78.5176 109.938 78.5176C111.207 78.5176 112.193 78.6413 112.896 78.8887C113.6 79.1361 114.264 79.5592 114.889 80.1582L113.619 81.7988C112.818 81.0371 111.708 80.6562 110.289 80.6562C109.514 80.6562 108.883 80.7897 108.395 81.0566C107.913 81.3236 107.672 81.7305 107.672 82.2773C107.672 82.5443 107.695 82.7656 107.74 82.9414C107.786 83.1107 107.88 83.2799 108.023 83.4492C108.173 83.612 108.385 83.765 108.658 83.9082C108.932 84.0449 109.296 84.1947 109.752 84.3574C109.915 84.416 110.253 84.5299 110.768 84.6992C111.288 84.862 111.676 84.9922 111.93 85.0898C113.089 85.5521 113.896 86.0827 114.352 86.6816C114.807 87.2806 115.035 88.1139 115.035 89.1816C115.035 89.8913 114.895 90.5163 114.615 91.0566C114.335 91.5905 113.954 92.0104 113.473 92.3164C112.991 92.6224 112.457 92.8503 111.871 93C111.285 93.1497 110.654 93.2246 109.977 93.2246ZM123.365 92.9902H122.389C121.998 92.9902 121.66 92.9805 121.373 92.9609C121.087 92.9414 120.79 92.8991 120.484 92.834C120.185 92.7689 119.928 92.6842 119.713 92.5801C119.505 92.4694 119.303 92.3229 119.107 92.1406C118.912 91.9583 118.756 91.7402 118.639 91.4863C118.521 91.2259 118.427 90.9167 118.355 90.5586C118.29 90.2005 118.258 89.7904 118.258 89.3281V84.6016H116.168V82.9805H118.355V80.6367L120.67 79.9238V82.9805H123.287V84.6016H120.67V89.4746C120.67 89.7871 120.693 90.041 120.738 90.2363C120.79 90.4251 120.865 90.5846 120.963 90.7148C121.061 90.8385 121.223 90.9297 121.451 90.9883C121.686 91.0469 121.939 91.0859 122.213 91.1055C122.486 91.125 122.87 91.1348 123.365 91.1348V92.9902ZM130.299 91.2715C131.236 91.2715 131.917 90.9753 132.34 90.3828C132.77 89.7839 132.984 88.9863 132.984 87.9902C132.984 86.9681 132.757 86.1641 132.301 85.5781C131.852 84.9857 131.168 84.6895 130.25 84.6895C129.352 84.6895 128.661 84.9857 128.18 85.5781C127.704 86.1706 127.467 86.9681 127.467 87.9707C127.467 88.9733 127.704 89.7741 128.18 90.373C128.661 90.972 129.368 91.2715 130.299 91.2715ZM129.996 93.2246C129.182 93.2246 128.453 93.0781 127.809 92.7852C127.164 92.4922 126.646 92.1016 126.256 91.6133C125.865 91.125 125.569 90.5814 125.367 89.9824C125.165 89.3835 125.064 88.7552 125.064 88.0977C125.064 87.401 125.169 86.7402 125.377 86.1152C125.585 85.4837 125.888 84.9141 126.285 84.4062C126.689 83.8919 127.219 83.485 127.877 83.1855C128.535 82.8796 129.28 82.7266 130.113 82.7266C131.324 82.7266 132.255 83.166 132.906 84.0449V82.9805H135.279V93H132.848V91.6328C132.118 92.694 131.168 93.2246 129.996 93.2246ZM138.209 93V85.5195C138.209 85.1289 138.193 84.722 138.16 84.2988C138.128 83.8757 138.095 83.5501 138.062 83.3223L138.014 82.9805H140.592V84.2988C140.989 83.778 141.383 83.3874 141.773 83.127C142.171 82.86 142.617 82.7266 143.111 82.7266C143.404 82.7266 143.736 82.7754 144.107 82.873V84.9922C143.671 84.849 143.268 84.7773 142.896 84.7773C142.226 84.7773 141.679 84.9954 141.256 85.4316C140.833 85.8678 140.621 86.4993 140.621 87.3262V93H138.209ZM151.451 92.9902H150.475C150.084 92.9902 149.745 92.9805 149.459 92.9609C149.173 92.9414 148.876 92.8991 148.57 92.834C148.271 92.7689 148.014 92.6842 147.799 92.5801C147.59 92.4694 147.389 92.3229 147.193 92.1406C146.998 91.9583 146.842 91.7402 146.725 91.4863C146.607 91.2259 146.513 90.9167 146.441 90.5586C146.376 90.2005 146.344 89.7904 146.344 89.3281V84.6016H144.254V82.9805H146.441V80.6367L148.756 79.9238V82.9805H151.373V84.6016H148.756V89.4746C148.756 89.7871 148.779 90.041 148.824 90.2363C148.876 90.4251 148.951 90.5846 149.049 90.7148C149.146 90.8385 149.309 90.9297 149.537 90.9883C149.771 91.0469 150.025 91.0859 150.299 91.1055C150.572 91.125 150.956 91.1348 151.451 91.1348V92.9902Z" fill="#BB74E9"/>
<path d="M85.375 125.225C84.5547 125.225 83.7474 125.059 82.9531 124.727C82.1654 124.388 81.472 123.903 80.873 123.271L82.1719 121.416C82.6211 121.963 83.1257 122.383 83.6855 122.676C84.2454 122.962 84.7923 123.105 85.3262 123.105C86.0553 123.105 86.6738 122.868 87.1816 122.393C87.6895 121.917 87.9434 121.24 87.9434 120.361C87.9434 119.665 87.7708 119.069 87.4258 118.574C87.0872 118.073 86.6315 117.822 86.0586 117.822C85.2643 117.822 84.7207 118.034 84.4277 118.457L81.957 118.125V110.781H89.8574V112.9H84.1445L84.0273 116.543C84.4896 115.931 85.3327 115.625 86.5566 115.625C87.6309 115.625 88.5553 116.084 89.3301 117.002C90.1113 117.92 90.502 119.053 90.502 120.4C90.502 121.025 90.4043 121.605 90.209 122.139C90.0202 122.673 89.7598 123.128 89.4277 123.506C89.1022 123.877 88.7181 124.196 88.2754 124.463C87.8392 124.723 87.3737 124.915 86.8789 125.039C86.3906 125.163 85.8893 125.225 85.375 125.225ZM97.9336 125.225C96.3516 125.225 95.1211 124.551 94.2422 123.203C93.3698 121.849 92.9336 120.036 92.9336 117.764C92.9336 115.465 93.3633 113.685 94.2227 112.422C95.0885 111.152 96.332 110.518 97.9531 110.518C99.5482 110.518 100.775 111.165 101.635 112.461C102.501 113.757 102.934 115.524 102.934 117.764C102.934 119.255 102.748 120.557 102.377 121.67C102.006 122.777 101.439 123.646 100.678 124.277C99.9225 124.909 99.0078 125.225 97.9336 125.225ZM97.9727 123.105C99.5938 123.105 100.404 121.328 100.404 117.773C100.404 117.083 100.362 116.445 100.277 115.859C100.193 115.273 100.059 114.733 99.877 114.238C99.7012 113.737 99.4505 113.346 99.125 113.066C98.806 112.78 98.4251 112.637 97.9824 112.637C97.5202 112.637 97.1198 112.78 96.7812 113.066C96.4427 113.346 96.1823 113.737 96 114.238C95.8177 114.733 95.6842 115.273 95.5996 115.859C95.515 116.445 95.4727 117.087 95.4727 117.783C95.4727 118.59 95.515 119.303 95.5996 119.922C95.6842 120.54 95.8177 121.097 96 121.592C96.1888 122.08 96.4492 122.454 96.7812 122.715C97.1133 122.975 97.5104 123.105 97.9727 123.105ZM118.148 125.195C117.068 125.195 116.199 124.847 115.541 124.15C114.883 123.454 114.555 122.568 114.555 121.494C114.555 120.439 114.883 119.557 115.541 118.848C116.199 118.132 117.064 117.773 118.139 117.773C119.213 117.773 120.082 118.132 120.746 118.848C121.41 119.564 121.742 120.446 121.742 121.494C121.742 122.575 121.413 123.464 120.756 124.16C120.098 124.85 119.229 125.195 118.148 125.195ZM118.139 123.672C118.653 123.672 119.037 123.499 119.291 123.154C119.551 122.809 119.682 122.256 119.682 121.494C119.682 120.765 119.558 120.218 119.311 119.854C119.063 119.489 118.673 119.307 118.139 119.307C117.611 119.307 117.224 119.486 116.977 119.844C116.729 120.202 116.605 120.749 116.605 121.484C116.605 122.246 116.732 122.803 116.986 123.154C117.24 123.499 117.624 123.672 118.139 123.672ZM107.914 125L117.006 110.781H118.988L109.896 125H107.914ZM108.686 118.018C107.579 118.018 106.703 117.692 106.059 117.041C105.414 116.383 105.092 115.475 105.092 114.316C105.092 113.177 105.414 112.275 106.059 111.611C106.703 110.941 107.579 110.605 108.686 110.605C109.786 110.605 110.658 110.941 111.303 111.611C111.954 112.282 112.279 113.184 112.279 114.316C112.279 115.482 111.957 116.39 111.312 117.041C110.668 117.692 109.792 118.018 108.686 118.018ZM108.686 116.494C109.2 116.494 109.584 116.325 109.838 115.986C110.092 115.641 110.219 115.088 110.219 114.326C110.219 113.59 110.095 113.04 109.848 112.676C109.607 112.311 109.219 112.129 108.686 112.129C108.152 112.129 107.761 112.311 107.514 112.676C107.273 113.034 107.152 113.581 107.152 114.316C107.152 115.078 107.279 115.632 107.533 115.977C107.787 116.322 108.171 116.494 108.686 116.494Z" fill="#373D3F"/>
</svg>
